G04 (created by PCBNEW (2013-mar-13)-stable) date Thu 11 Jun 2015 06:02:21 PM CEST*
%MOIN*%
G04 Gerber Fmt 3.4, Leading zero omitted, Abs format*
%FSLAX34Y34*%
G01*
G70*
G90*
G04 APERTURE LIST*
%ADD10C,0.005906*%
%ADD11C,0.051181*%
%ADD12C,0.125984*%
%ADD13C,0.100000*%
%ADD14C,0.050000*%
%ADD15R,0.060000X0.060000*%
%ADD16C,0.060000*%
%ADD17C,0.075000*%
%ADD18C,0.062992*%
%ADD19C,0.070866*%
%ADD20C,0.055100*%
%ADD21C,0.090551*%
G04 APERTURE END LIST*
G54D10*
G54D11*
X49003Y-22812D03*
X50208Y-23512D03*
X49405Y-23512D03*
X48200Y-22812D03*
X48602Y-23512D03*
X49807Y-22812D03*
X51011Y-23512D03*
X50610Y-22812D03*
G54D12*
X52106Y-21812D03*
X47106Y-21812D03*
G54D13*
X52807Y-23162D03*
X46405Y-23162D03*
G54D14*
X52307Y-25426D03*
X51405Y-25426D03*
X47807Y-25426D03*
X46905Y-25426D03*
G54D11*
X57862Y-22812D03*
X59066Y-23512D03*
X58263Y-23512D03*
X57059Y-22812D03*
X57460Y-23512D03*
X58665Y-22812D03*
X59870Y-23512D03*
X59468Y-22812D03*
G54D12*
X60964Y-21812D03*
X55964Y-21812D03*
G54D13*
X61665Y-23162D03*
X55263Y-23162D03*
G54D14*
X61165Y-25426D03*
X60263Y-25426D03*
X56665Y-25426D03*
X55763Y-25426D03*
G54D11*
X65787Y-22812D03*
X66992Y-23512D03*
X66189Y-23512D03*
X64984Y-22812D03*
X65386Y-23512D03*
X66590Y-22812D03*
X67795Y-23512D03*
X67393Y-22812D03*
G54D12*
X68890Y-21812D03*
X63890Y-21812D03*
G54D13*
X69590Y-23162D03*
X63189Y-23162D03*
G54D14*
X69090Y-25426D03*
X68189Y-25426D03*
X64590Y-25426D03*
X63689Y-25426D03*
G54D15*
X43830Y-31800D03*
G54D16*
X44830Y-31800D03*
G54D17*
X52465Y-47840D03*
X52465Y-48840D03*
X53465Y-47840D03*
X53465Y-48840D03*
X54465Y-47840D03*
X54465Y-48840D03*
X55465Y-47840D03*
X55465Y-48840D03*
X56465Y-47840D03*
X56465Y-48840D03*
X57465Y-47840D03*
X57465Y-48840D03*
X58465Y-47840D03*
X58465Y-48840D03*
X59465Y-47840D03*
X59465Y-48840D03*
X60465Y-47840D03*
X60465Y-48840D03*
X61465Y-47840D03*
X61465Y-48840D03*
X62465Y-47840D03*
X62465Y-48840D03*
X63465Y-47840D03*
X63465Y-48840D03*
X64465Y-47840D03*
X64465Y-48840D03*
X52465Y-33840D03*
X52465Y-34840D03*
X53465Y-33840D03*
X53465Y-34840D03*
X54465Y-33840D03*
X54465Y-34840D03*
X55465Y-33840D03*
X55465Y-34840D03*
X56465Y-33840D03*
X56465Y-34840D03*
X57465Y-33840D03*
X57465Y-34840D03*
X58465Y-33840D03*
X58465Y-34840D03*
X59465Y-33840D03*
X59465Y-34840D03*
X60465Y-33840D03*
X60465Y-34840D03*
X61465Y-33840D03*
X61465Y-34840D03*
X62465Y-33840D03*
X62465Y-34840D03*
X63465Y-33840D03*
X63465Y-34840D03*
X64465Y-33840D03*
X64465Y-34840D03*
X49465Y-33840D03*
X49465Y-34840D03*
X49465Y-35840D03*
X49465Y-36840D03*
X49465Y-37840D03*
X49465Y-38840D03*
X49465Y-39840D03*
X49465Y-40840D03*
X49465Y-41840D03*
X49465Y-42840D03*
X49465Y-43840D03*
X49465Y-44840D03*
X49465Y-45840D03*
X49465Y-46840D03*
X49465Y-47840D03*
X49465Y-48840D03*
G54D15*
X69755Y-50720D03*
G54D16*
X69755Y-51720D03*
X69755Y-52720D03*
X69755Y-53720D03*
G54D18*
X42519Y-21653D03*
G54D19*
X42519Y-23424D03*
G54D20*
X58500Y-50000D03*
X57500Y-50000D03*
X56500Y-50000D03*
X55500Y-50000D03*
X54500Y-50000D03*
X53500Y-50000D03*
G54D21*
X47858Y-51058D03*
X53031Y-51058D03*
G54D16*
X51822Y-49995D03*
X50838Y-49995D03*
X50051Y-49995D03*
X49067Y-49995D03*
M02*
