G04 (created by PCBNEW (2013-mar-13)-stable) date Thu 11 Jun 2015 06:02:21 PM CEST*
%MOIN*%
G04 Gerber Fmt 3.4, Leading zero omitted, Abs format*
%FSLAX34Y34*%
G01*
G70*
G90*
G04 APERTURE LIST*
%ADD10C,0.005906*%
%ADD11R,0.060000X0.080000*%
%ADD12R,0.149606X0.080000*%
%ADD13R,0.137800X0.098400*%
%ADD14R,0.140200X0.070100*%
%ADD15R,0.045000X0.025000*%
%ADD16R,0.025000X0.045000*%
%ADD17R,0.090000X0.042000*%
%ADD18R,0.409800X0.350000*%
%ADD19R,0.031500X0.074800*%
%ADD20R,0.078740X0.118110*%
%ADD21R,0.027559X0.068898*%
%ADD22R,0.059055X0.059055*%
%ADD23R,0.051181X0.059055*%
%ADD24R,0.031496X0.059055*%
%ADD25R,0.031496X0.055118*%
%ADD26R,0.058071X0.035433*%
%ADD27R,0.039370X0.061024*%
%ADD28R,0.078740X0.078740*%
%ADD29R,0.078700X0.062992*%
G04 APERTURE END LIST*
G54D10*
G54D11*
X41988Y-26048D03*
X40688Y-26048D03*
X43050Y-26046D03*
X44350Y-26046D03*
G54D12*
X40866Y-28812D03*
X44173Y-28812D03*
G54D11*
X41460Y-41994D03*
X40160Y-41994D03*
G54D13*
X40638Y-33180D03*
X40638Y-35444D03*
G54D14*
X41462Y-37176D03*
X41462Y-40876D03*
G54D15*
X43876Y-38870D03*
X43876Y-38270D03*
G54D16*
X43876Y-37554D03*
X44476Y-37554D03*
G54D17*
X42401Y-34966D03*
X42401Y-35635D03*
X42401Y-36305D03*
X42401Y-34297D03*
X42401Y-33627D03*
G54D18*
X45940Y-34966D03*
G54D19*
X49356Y-30536D03*
X49856Y-30536D03*
X50356Y-30536D03*
X48856Y-30536D03*
X50856Y-30536D03*
X48356Y-30536D03*
X47856Y-30536D03*
X51356Y-30536D03*
X47856Y-27088D03*
X51356Y-27088D03*
X50856Y-27088D03*
X50356Y-27088D03*
X49856Y-27088D03*
X49356Y-27088D03*
X48856Y-27088D03*
X48356Y-27088D03*
G54D15*
X46690Y-29858D03*
X46690Y-30458D03*
X52522Y-29858D03*
X52522Y-30458D03*
X46690Y-28882D03*
X46690Y-29482D03*
X52522Y-27576D03*
X52522Y-28176D03*
X46690Y-28176D03*
X46690Y-27576D03*
G54D19*
X58214Y-30536D03*
X58714Y-30536D03*
X59214Y-30536D03*
X57714Y-30536D03*
X59714Y-30536D03*
X57214Y-30536D03*
X56714Y-30536D03*
X60214Y-30536D03*
X56714Y-27088D03*
X60214Y-27088D03*
X59714Y-27088D03*
X59214Y-27088D03*
X58714Y-27088D03*
X58214Y-27088D03*
X57714Y-27088D03*
X57214Y-27088D03*
X66140Y-30494D03*
X66640Y-30494D03*
X67140Y-30494D03*
X65640Y-30494D03*
X67640Y-30494D03*
X65140Y-30494D03*
X64640Y-30494D03*
X68140Y-30494D03*
X64640Y-27046D03*
X68140Y-27046D03*
X67640Y-27046D03*
X67140Y-27046D03*
X66640Y-27046D03*
X66140Y-27046D03*
X65640Y-27046D03*
X65140Y-27046D03*
G54D15*
X55548Y-29858D03*
X55548Y-30458D03*
X61380Y-29858D03*
X61380Y-30458D03*
X63474Y-29858D03*
X63474Y-30458D03*
X69306Y-29858D03*
X69306Y-30458D03*
G54D20*
X44628Y-40290D03*
X46991Y-40290D03*
G54D15*
X61380Y-27576D03*
X61380Y-28176D03*
X55548Y-28176D03*
X55548Y-27576D03*
X69306Y-27576D03*
X69306Y-28176D03*
X63474Y-28176D03*
X63474Y-27576D03*
X55548Y-28882D03*
X55548Y-29482D03*
X63474Y-28882D03*
X63474Y-29482D03*
G54D16*
X57214Y-31326D03*
X56614Y-31326D03*
X57814Y-31930D03*
X57214Y-31930D03*
X59715Y-31930D03*
X59115Y-31930D03*
X60315Y-31326D03*
X59715Y-31326D03*
G54D21*
X43699Y-53336D03*
X43266Y-53336D03*
X42833Y-53336D03*
X42400Y-53336D03*
X41967Y-53336D03*
X41534Y-53336D03*
X41101Y-53336D03*
X40668Y-53336D03*
G54D22*
X44664Y-53287D03*
G54D23*
X40156Y-53287D03*
G54D24*
X40087Y-50294D03*
G54D25*
X44792Y-50039D03*
G54D26*
X40220Y-49704D03*
G54D27*
X44595Y-49084D03*
G54D28*
X44685Y-21653D03*
X40354Y-21653D03*
X44685Y-24074D03*
X40354Y-24074D03*
G54D15*
X45773Y-53332D03*
X45773Y-52732D03*
G54D16*
X69755Y-49836D03*
X69155Y-49836D03*
X48012Y-48840D03*
X48612Y-48840D03*
G54D29*
X47037Y-48840D03*
X47037Y-50021D03*
G54D16*
X58496Y-50868D03*
X59096Y-50868D03*
M02*
