M48
;DRILL file {Pcbnew (2013-mar-13)-stable} date Thu 11 Jun 2015 06:02:23 PM CEST
;FORMAT={-:-/ absolute / metric / decimal}
FMAT,2
METRIC,TZ
T1C0.305
T2C0.899
T3C0.900
T4C0.920
T5C1.016
T6C1.600
%
G90
G05
M71
T1
X100.94Y-84.277
X101.884Y-66.162
X102.006Y-105.08
X103.221Y-82.499
X105.496Y-136.878
X105.501Y-84.277
X109.677Y-88.814
X113.5Y-54.999
X113.5Y-61.149
X113.97Y-95.387
X113.98Y-66.167
X114.681Y-62.992
X114.681Y-64.262
X114.681Y-65.532
X114.681Y-66.802
X114.681Y-68.072
X114.681Y-69.342
X114.681Y-70.612
X114.681Y-71.882
X114.681Y-73.182
X114.681Y-74.422
X114.681Y-75.692
X114.681Y-76.962
X114.681Y-78.232
X116.263Y-132.956
X116.327Y-111.092
X116.459Y-80.01
X116.459Y-81.28
X117.729Y-82.55
X118.593Y-69.195
X118.593Y-78.212
X118.872Y-113.64
X118.999Y-82.55
X119.355Y-100.325
X119.474Y-128.514
X120.269Y-82.55
X121.554Y-80.828
X123.264Y-84.686
X124.095Y-80.829
X130.444Y-79.177
X130.444Y-81.961
X130.81Y-91.44
X130.81Y-96.52
X130.81Y-101.6
X130.81Y-106.68
X130.81Y-111.76
X131.011Y-117.546
X133.35Y-93.98
X133.406Y-69.195
X133.406Y-78.212
X133.726Y-128.158
X135.804Y-93.673
X135.89Y-96.52
X135.89Y-101.6
X135.89Y-106.68
X135.89Y-111.76
X135.89Y-116.84
X139.614Y-83.49
X140.97Y-91.44
X140.97Y-96.52
X140.97Y-101.6
X140.97Y-106.68
X140.97Y-111.76
X140.97Y-116.84
X141.092Y-69.195
X141.092Y-78.212
X142.149Y-84.201
X143.8Y-82.911
X144.691Y-84.206
X146.05Y-91.44
X146.05Y-96.52
X146.05Y-101.6
X146.05Y-106.68
X146.05Y-111.76
X146.05Y-116.84
X146.848Y-82.21
X149.103Y-81.1
X151.082Y-129.205
X151.13Y-91.44
X151.13Y-96.52
X151.13Y-101.6
X151.13Y-106.68
X151.13Y-111.76
X151.13Y-116.84
X152.789Y-81.1
X155.905Y-69.195
X155.905Y-78.212
X156.21Y-91.44
X156.21Y-96.52
X156.21Y-101.6
X156.21Y-106.68
X156.21Y-111.76
X156.21Y-116.84
X158.661Y-84.211
X161.201Y-83.477
X161.224Y-69.195
X161.224Y-78.212
X161.29Y-91.44
X161.29Y-96.52
X161.29Y-101.6
X161.29Y-106.68
X161.29Y-111.76
X161.29Y-116.84
X162.471Y-89.492
X164.186Y-79.687
X165.186Y-81.229
X166.37Y-91.44
X166.37Y-96.52
X166.37Y-116.84
X166.781Y-83.477
X167.335Y-84.211
X171.45Y-116.84
X174.676Y-126.583
X176.037Y-69.195
X176.037Y-78.212
T2
X122.43Y-57.942
X123.45Y-59.722
X124.47Y-57.942
X125.49Y-59.722
X126.51Y-57.942
X127.53Y-59.722
X128.55Y-57.942
X129.57Y-59.722
X135.89Y-127.
X138.43Y-127.
X140.97Y-127.
X143.51Y-127.
X144.93Y-57.942
X145.95Y-59.722
X146.05Y-127.
X146.97Y-57.942
X147.99Y-59.722
X148.59Y-127.
X149.01Y-57.942
X150.03Y-59.722
X151.05Y-57.942
X152.07Y-59.722
X165.061Y-57.942
X166.081Y-59.722
X167.101Y-57.942
X168.121Y-59.722
X169.141Y-57.942
X170.161Y-59.722
X171.181Y-57.942
X172.201Y-59.722
T3
X119.14Y-64.582
X121.43Y-64.582
X130.57Y-64.582
X132.86Y-64.582
X141.64Y-64.582
X143.93Y-64.582
X153.07Y-64.582
X155.36Y-64.582
X161.771Y-64.582
X164.061Y-64.582
X173.201Y-64.582
X175.491Y-64.582
T4
X124.63Y-126.987
X127.13Y-126.987
X129.13Y-126.987
X131.63Y-126.987
T5
X111.328Y-80.772
X113.868Y-80.772
X125.641Y-85.954
X125.641Y-88.494
X125.641Y-91.034
X125.641Y-93.574
X125.641Y-96.114
X125.641Y-98.654
X125.641Y-101.194
X125.641Y-103.734
X125.641Y-106.274
X125.641Y-108.814
X125.641Y-111.354
X125.641Y-113.894
X125.641Y-116.434
X125.641Y-118.974
X125.641Y-121.514
X125.641Y-124.054
X133.261Y-85.954
X133.261Y-88.494
X133.261Y-121.514
X133.261Y-124.054
X135.801Y-85.954
X135.801Y-88.494
X135.801Y-121.514
X135.801Y-124.054
X138.341Y-85.954
X138.341Y-88.494
X138.341Y-121.514
X138.341Y-124.054
X140.881Y-85.954
X140.881Y-88.494
X140.881Y-121.514
X140.881Y-124.054
X143.421Y-85.954
X143.421Y-88.494
X143.421Y-121.514
X143.421Y-124.054
X145.961Y-85.954
X145.961Y-88.494
X145.961Y-121.514
X145.961Y-124.054
X148.501Y-85.954
X148.501Y-88.494
X148.501Y-121.514
X148.501Y-124.054
X151.041Y-85.954
X151.041Y-88.494
X151.041Y-121.514
X151.041Y-124.054
X153.581Y-85.954
X153.581Y-88.494
X153.581Y-121.514
X153.581Y-124.054
X156.121Y-85.954
X156.121Y-88.494
X156.121Y-121.514
X156.121Y-124.054
X158.661Y-85.954
X158.661Y-88.494
X158.661Y-121.514
X158.661Y-124.054
X161.201Y-85.954
X161.201Y-88.494
X161.201Y-121.514
X161.201Y-124.054
X163.741Y-85.954
X163.741Y-88.494
X163.741Y-121.514
X163.741Y-124.054
X177.178Y-128.829
X177.178Y-131.369
X177.178Y-133.909
X177.178Y-136.449
T6
X117.87Y-58.832
X134.13Y-58.832
X140.37Y-58.832
X156.63Y-58.832
X160.501Y-58.832
X176.761Y-58.832
T0
M30
