G04 (created by PCBNEW (2013-mar-13)-stable) date Thu 11 Jun 2015 06:02:21 PM CEST*
%MOIN*%
G04 Gerber Fmt 3.4, Leading zero omitted, Abs format*
%FSLAX34Y34*%
G01*
G70*
G90*
G04 APERTURE LIST*
%ADD10C,0.005906*%
%ADD11C,0.005000*%
%ADD12C,0.002000*%
%ADD13C,0.004000*%
%ADD14C,0.006000*%
%ADD15C,0.012000*%
%ADD16C,0.003000*%
%ADD17C,0.001100*%
%ADD18C,0.010000*%
%ADD19C,0.005900*%
%ADD20R,0.060000X0.080000*%
%ADD21R,0.149606X0.080000*%
%ADD22R,0.137800X0.098400*%
%ADD23R,0.140200X0.070100*%
%ADD24R,0.045000X0.025000*%
%ADD25R,0.025000X0.045000*%
%ADD26R,0.090000X0.042000*%
%ADD27R,0.409800X0.350000*%
%ADD28C,0.051181*%
%ADD29C,0.125984*%
%ADD30C,0.100000*%
%ADD31C,0.050000*%
%ADD32R,0.031500X0.074800*%
%ADD33R,0.060000X0.060000*%
%ADD34C,0.060000*%
%ADD35R,0.078740X0.118110*%
%ADD36C,0.075000*%
%ADD37R,0.027559X0.068898*%
%ADD38R,0.059055X0.059055*%
%ADD39R,0.051181X0.059055*%
%ADD40R,0.031496X0.059055*%
%ADD41R,0.031496X0.055118*%
%ADD42R,0.058071X0.035433*%
%ADD43R,0.039370X0.061024*%
%ADD44R,0.078740X0.078740*%
%ADD45C,0.062992*%
%ADD46C,0.070866*%
%ADD47C,0.055100*%
%ADD48C,0.090551*%
%ADD49R,0.078700X0.062992*%
G04 APERTURE END LIST*
G54D10*
G54D11*
X42338Y-26498D02*
X42338Y-25598D01*
X42338Y-25598D02*
X41688Y-25598D01*
X40988Y-26498D02*
X40338Y-26498D01*
X40338Y-26498D02*
X40338Y-25598D01*
X40338Y-25598D02*
X40988Y-25598D01*
X41688Y-26498D02*
X42338Y-26498D01*
X42700Y-25596D02*
X42700Y-26496D01*
X42700Y-26496D02*
X43350Y-26496D01*
X44050Y-25596D02*
X44700Y-25596D01*
X44700Y-25596D02*
X44700Y-26496D01*
X44700Y-26496D02*
X44050Y-26496D01*
X43350Y-25596D02*
X42700Y-25596D01*
G54D12*
X44547Y-26784D02*
X41277Y-26784D01*
X41277Y-26784D02*
X40491Y-27570D01*
X40491Y-27570D02*
X40491Y-30054D01*
X40491Y-30054D02*
X41277Y-30840D01*
X41277Y-30840D02*
X44547Y-30840D01*
X44547Y-26784D02*
X44547Y-30840D01*
G54D11*
X41810Y-42444D02*
X41810Y-41544D01*
X41810Y-41544D02*
X41160Y-41544D01*
X40460Y-42444D02*
X39810Y-42444D01*
X39810Y-42444D02*
X39810Y-41544D01*
X39810Y-41544D02*
X40460Y-41544D01*
X41160Y-42444D02*
X41810Y-42444D01*
G54D13*
X39418Y-33412D02*
X39828Y-33412D01*
X39418Y-33412D02*
X39418Y-35212D01*
X39418Y-35212D02*
X39828Y-35212D01*
X41858Y-35212D02*
X41448Y-35212D01*
X41858Y-33412D02*
X41448Y-33412D01*
X41858Y-33412D02*
X41858Y-35212D01*
G54D11*
X40638Y-34012D02*
X40638Y-33932D01*
X39888Y-34572D02*
X41388Y-34572D01*
X39888Y-34702D02*
X41388Y-34702D01*
X40638Y-34262D02*
X40825Y-34012D01*
X40825Y-34012D02*
X40638Y-34012D01*
X40638Y-34012D02*
X40451Y-34012D01*
X40451Y-34012D02*
X40638Y-34262D01*
X40638Y-34262D02*
X40763Y-34262D01*
X40763Y-34262D02*
X40825Y-34200D01*
X40638Y-34262D02*
X40513Y-34262D01*
X40513Y-34262D02*
X40451Y-34324D01*
X40638Y-34262D02*
X40638Y-34699D01*
G54D13*
X39492Y-40996D02*
X40642Y-40996D01*
X39492Y-40996D02*
X39492Y-37056D01*
X39492Y-37056D02*
X40642Y-37056D01*
X43432Y-40996D02*
X42282Y-40996D01*
X43432Y-40996D02*
X43432Y-37056D01*
X43432Y-37056D02*
X42282Y-37056D01*
G54D11*
X43626Y-39020D02*
X43626Y-38120D01*
X43626Y-38120D02*
X44126Y-38120D01*
X44126Y-38120D02*
X44126Y-39020D01*
X44126Y-39020D02*
X43626Y-39020D01*
X43726Y-37304D02*
X44626Y-37304D01*
X44626Y-37304D02*
X44626Y-37804D01*
X44626Y-37804D02*
X43726Y-37804D01*
X43726Y-37804D02*
X43726Y-37304D01*
G54D13*
X43790Y-36966D02*
X47340Y-36966D01*
X47340Y-36966D02*
X47340Y-36816D01*
X43790Y-32966D02*
X47340Y-32966D01*
X47340Y-32966D02*
X47340Y-33116D01*
G54D14*
X52854Y-19686D02*
X52854Y-25886D01*
X52854Y-19686D02*
X46358Y-19686D01*
X46358Y-25886D02*
X46358Y-19686D01*
X52854Y-25886D02*
X46358Y-25886D01*
X61712Y-19686D02*
X61712Y-25886D01*
X61712Y-19686D02*
X55216Y-19686D01*
X55216Y-25886D02*
X55216Y-19686D01*
X61712Y-25886D02*
X55216Y-25886D01*
G54D15*
X47056Y-30162D02*
X47056Y-27462D01*
X47056Y-27462D02*
X52156Y-27462D01*
X52156Y-27462D02*
X52156Y-30162D01*
X52156Y-30162D02*
X47056Y-30162D01*
X47056Y-30162D02*
X47066Y-30162D01*
G54D11*
X46940Y-29708D02*
X46940Y-30608D01*
X46940Y-30608D02*
X46440Y-30608D01*
X46440Y-30608D02*
X46440Y-29708D01*
X46440Y-29708D02*
X46940Y-29708D01*
X52772Y-29708D02*
X52772Y-30608D01*
X52772Y-30608D02*
X52272Y-30608D01*
X52272Y-30608D02*
X52272Y-29708D01*
X52272Y-29708D02*
X52772Y-29708D01*
X46940Y-28732D02*
X46940Y-29632D01*
X46940Y-29632D02*
X46440Y-29632D01*
X46440Y-29632D02*
X46440Y-28732D01*
X46440Y-28732D02*
X46940Y-28732D01*
X52772Y-27426D02*
X52772Y-28326D01*
X52772Y-28326D02*
X52272Y-28326D01*
X52272Y-28326D02*
X52272Y-27426D01*
X52272Y-27426D02*
X52772Y-27426D01*
X46440Y-28326D02*
X46440Y-27426D01*
X46440Y-27426D02*
X46940Y-27426D01*
X46940Y-27426D02*
X46940Y-28326D01*
X46940Y-28326D02*
X46440Y-28326D01*
G54D14*
X69638Y-19686D02*
X69638Y-25886D01*
X69638Y-19686D02*
X63141Y-19686D01*
X63141Y-25886D02*
X63141Y-19686D01*
X69638Y-25886D02*
X63141Y-25886D01*
G54D15*
X55914Y-30162D02*
X55914Y-27462D01*
X55914Y-27462D02*
X61014Y-27462D01*
X61014Y-27462D02*
X61014Y-30162D01*
X61014Y-30162D02*
X55914Y-30162D01*
X55914Y-30162D02*
X55924Y-30162D01*
X63840Y-30120D02*
X63840Y-27420D01*
X63840Y-27420D02*
X68940Y-27420D01*
X68940Y-27420D02*
X68940Y-30120D01*
X68940Y-30120D02*
X63840Y-30120D01*
X63840Y-30120D02*
X63850Y-30120D01*
G54D11*
X55798Y-29708D02*
X55798Y-30608D01*
X55798Y-30608D02*
X55298Y-30608D01*
X55298Y-30608D02*
X55298Y-29708D01*
X55298Y-29708D02*
X55798Y-29708D01*
X61630Y-29708D02*
X61630Y-30608D01*
X61630Y-30608D02*
X61130Y-30608D01*
X61130Y-30608D02*
X61130Y-29708D01*
X61130Y-29708D02*
X61630Y-29708D01*
X63724Y-29708D02*
X63724Y-30608D01*
X63724Y-30608D02*
X63224Y-30608D01*
X63224Y-30608D02*
X63224Y-29708D01*
X63224Y-29708D02*
X63724Y-29708D01*
X69556Y-29708D02*
X69556Y-30608D01*
X69556Y-30608D02*
X69056Y-30608D01*
X69056Y-30608D02*
X69056Y-29708D01*
X69056Y-29708D02*
X69556Y-29708D01*
G54D14*
X43330Y-32300D02*
X43330Y-31300D01*
X43330Y-31300D02*
X45330Y-31300D01*
X45330Y-31300D02*
X45330Y-32300D01*
X45330Y-32300D02*
X43330Y-32300D01*
G54D12*
X46486Y-40764D02*
X45134Y-40764D01*
X45126Y-39816D02*
X46486Y-39816D01*
G54D10*
X48965Y-33340D02*
X48965Y-49340D01*
X67965Y-33340D02*
X67965Y-49340D01*
X67965Y-49340D02*
X48965Y-49340D01*
X67965Y-33340D02*
X48965Y-33340D01*
G54D11*
X61630Y-27426D02*
X61630Y-28326D01*
X61630Y-28326D02*
X61130Y-28326D01*
X61130Y-28326D02*
X61130Y-27426D01*
X61130Y-27426D02*
X61630Y-27426D01*
X55298Y-28326D02*
X55298Y-27426D01*
X55298Y-27426D02*
X55798Y-27426D01*
X55798Y-27426D02*
X55798Y-28326D01*
X55798Y-28326D02*
X55298Y-28326D01*
X69556Y-27426D02*
X69556Y-28326D01*
X69556Y-28326D02*
X69056Y-28326D01*
X69056Y-28326D02*
X69056Y-27426D01*
X69056Y-27426D02*
X69556Y-27426D01*
X63224Y-28326D02*
X63224Y-27426D01*
X63224Y-27426D02*
X63724Y-27426D01*
X63724Y-27426D02*
X63724Y-28326D01*
X63724Y-28326D02*
X63224Y-28326D01*
X55798Y-28732D02*
X55798Y-29632D01*
X55798Y-29632D02*
X55298Y-29632D01*
X55298Y-29632D02*
X55298Y-28732D01*
X55298Y-28732D02*
X55798Y-28732D01*
X63724Y-28732D02*
X63724Y-29632D01*
X63724Y-29632D02*
X63224Y-29632D01*
X63224Y-29632D02*
X63224Y-28732D01*
X63224Y-28732D02*
X63724Y-28732D01*
X57364Y-31576D02*
X56464Y-31576D01*
X56464Y-31576D02*
X56464Y-31076D01*
X56464Y-31076D02*
X57364Y-31076D01*
X57364Y-31076D02*
X57364Y-31576D01*
X57964Y-32180D02*
X57064Y-32180D01*
X57064Y-32180D02*
X57064Y-31680D01*
X57064Y-31680D02*
X57964Y-31680D01*
X57964Y-31680D02*
X57964Y-32180D01*
X59865Y-32180D02*
X58965Y-32180D01*
X58965Y-32180D02*
X58965Y-31680D01*
X58965Y-31680D02*
X59865Y-31680D01*
X59865Y-31680D02*
X59865Y-32180D01*
X60465Y-31576D02*
X59565Y-31576D01*
X59565Y-31576D02*
X59565Y-31076D01*
X59565Y-31076D02*
X60465Y-31076D01*
X60465Y-31076D02*
X60465Y-31576D01*
G54D16*
X42046Y-55117D02*
X42833Y-55117D01*
G54D10*
X40087Y-48976D02*
X40087Y-49359D01*
X40087Y-50718D02*
X40087Y-52804D01*
X43955Y-53483D02*
X44251Y-53483D01*
X44792Y-52804D02*
X44792Y-50422D01*
X44270Y-48976D02*
X40087Y-48976D01*
G54D17*
X41340Y-43830D02*
X41440Y-43830D01*
X41280Y-43840D02*
X41530Y-43840D01*
X41280Y-43850D02*
X41530Y-43850D01*
X41270Y-43860D02*
X41540Y-43860D01*
X41270Y-43870D02*
X41540Y-43870D01*
X41270Y-43880D02*
X41540Y-43880D01*
X41270Y-43890D02*
X41540Y-43890D01*
X41270Y-43900D02*
X41540Y-43900D01*
X41270Y-43910D02*
X41540Y-43910D01*
X41260Y-43920D02*
X41550Y-43920D01*
X41260Y-43930D02*
X41550Y-43930D01*
X41260Y-43940D02*
X41550Y-43940D01*
X41260Y-43950D02*
X41550Y-43950D01*
X41260Y-43960D02*
X41550Y-43960D01*
X41250Y-43970D02*
X41550Y-43970D01*
X41250Y-43980D02*
X41560Y-43980D01*
X41250Y-43990D02*
X41560Y-43990D01*
X41250Y-44000D02*
X41560Y-44000D01*
X41250Y-44010D02*
X41560Y-44010D01*
X40840Y-44020D02*
X40870Y-44020D01*
X41250Y-44020D02*
X41560Y-44020D01*
X41930Y-44020D02*
X41970Y-44020D01*
X40830Y-44030D02*
X40880Y-44030D01*
X41240Y-44030D02*
X41560Y-44030D01*
X41910Y-44030D02*
X41980Y-44030D01*
X40820Y-44040D02*
X40900Y-44040D01*
X41240Y-44040D02*
X41560Y-44040D01*
X41900Y-44040D02*
X41990Y-44040D01*
X40800Y-44050D02*
X40910Y-44050D01*
X41240Y-44050D02*
X41570Y-44050D01*
X41880Y-44050D02*
X42010Y-44050D01*
X40790Y-44060D02*
X40930Y-44060D01*
X41240Y-44060D02*
X41570Y-44060D01*
X41870Y-44060D02*
X42020Y-44060D01*
X40780Y-44070D02*
X40940Y-44070D01*
X41240Y-44070D02*
X41570Y-44070D01*
X41850Y-44070D02*
X42030Y-44070D01*
X40770Y-44080D02*
X40950Y-44080D01*
X41230Y-44080D02*
X41570Y-44080D01*
X41840Y-44080D02*
X42040Y-44080D01*
X40760Y-44090D02*
X40970Y-44090D01*
X41200Y-44090D02*
X41610Y-44090D01*
X41820Y-44090D02*
X42050Y-44090D01*
X40750Y-44100D02*
X40980Y-44100D01*
X41170Y-44100D02*
X41640Y-44100D01*
X41810Y-44100D02*
X42060Y-44100D01*
X40740Y-44110D02*
X41000Y-44110D01*
X41140Y-44110D02*
X41660Y-44110D01*
X41790Y-44110D02*
X42070Y-44110D01*
X40730Y-44120D02*
X41010Y-44120D01*
X41120Y-44120D02*
X41690Y-44120D01*
X41780Y-44120D02*
X42080Y-44120D01*
X40720Y-44130D02*
X41020Y-44130D01*
X41100Y-44130D02*
X41710Y-44130D01*
X41770Y-44130D02*
X42090Y-44130D01*
X40710Y-44140D02*
X41040Y-44140D01*
X41080Y-44140D02*
X41730Y-44140D01*
X41750Y-44140D02*
X42100Y-44140D01*
X40700Y-44150D02*
X41050Y-44150D01*
X41060Y-44150D02*
X42110Y-44150D01*
X40690Y-44160D02*
X42110Y-44160D01*
X40690Y-44170D02*
X42120Y-44170D01*
X40680Y-44180D02*
X42120Y-44180D01*
X40680Y-44190D02*
X42120Y-44190D01*
X40690Y-44200D02*
X42120Y-44200D01*
X40690Y-44210D02*
X42110Y-44210D01*
X40700Y-44220D02*
X42110Y-44220D01*
X40710Y-44230D02*
X42100Y-44230D01*
X40710Y-44240D02*
X42090Y-44240D01*
X40720Y-44250D02*
X42080Y-44250D01*
X40730Y-44260D02*
X42080Y-44260D01*
X40740Y-44270D02*
X42070Y-44270D01*
X40740Y-44280D02*
X42060Y-44280D01*
X40750Y-44290D02*
X42060Y-44290D01*
X40760Y-44300D02*
X42050Y-44300D01*
X40760Y-44310D02*
X42040Y-44310D01*
X40770Y-44320D02*
X42030Y-44320D01*
X40780Y-44330D02*
X42030Y-44330D01*
X40780Y-44340D02*
X42020Y-44340D01*
X40790Y-44350D02*
X42010Y-44350D01*
X40800Y-44360D02*
X42000Y-44360D01*
X40800Y-44370D02*
X42000Y-44370D01*
X40810Y-44380D02*
X41990Y-44380D01*
X40810Y-44390D02*
X41990Y-44390D01*
X40810Y-44400D02*
X42000Y-44400D01*
X40800Y-44410D02*
X42010Y-44410D01*
X40800Y-44420D02*
X42010Y-44420D01*
X40790Y-44430D02*
X42020Y-44430D01*
X40790Y-44440D02*
X42020Y-44440D01*
X40780Y-44450D02*
X42030Y-44450D01*
X40780Y-44460D02*
X42030Y-44460D01*
X40770Y-44470D02*
X42040Y-44470D01*
X40770Y-44480D02*
X42040Y-44480D01*
X40760Y-44490D02*
X42040Y-44490D01*
X40760Y-44500D02*
X41360Y-44500D01*
X41450Y-44500D02*
X42050Y-44500D01*
X40760Y-44510D02*
X41330Y-44510D01*
X41480Y-44510D02*
X42050Y-44510D01*
X40750Y-44520D02*
X41300Y-44520D01*
X41510Y-44520D02*
X42060Y-44520D01*
X40750Y-44530D02*
X41280Y-44530D01*
X41530Y-44530D02*
X42060Y-44530D01*
X40750Y-44540D02*
X41270Y-44540D01*
X41540Y-44540D02*
X42060Y-44540D01*
X40740Y-44550D02*
X41250Y-44550D01*
X41560Y-44550D02*
X42070Y-44550D01*
X40740Y-44560D02*
X41240Y-44560D01*
X41570Y-44560D02*
X42100Y-44560D01*
X40740Y-44570D02*
X41230Y-44570D01*
X41580Y-44570D02*
X42160Y-44570D01*
X40730Y-44580D02*
X41220Y-44580D01*
X41590Y-44580D02*
X42210Y-44580D01*
X40670Y-44590D02*
X41210Y-44590D01*
X41600Y-44590D02*
X42270Y-44590D01*
X40610Y-44600D02*
X41210Y-44600D01*
X41600Y-44600D02*
X42310Y-44600D01*
X40550Y-44610D02*
X41200Y-44610D01*
X41610Y-44610D02*
X42310Y-44610D01*
X40500Y-44620D02*
X41190Y-44620D01*
X41620Y-44620D02*
X42320Y-44620D01*
X40490Y-44630D02*
X41190Y-44630D01*
X41620Y-44630D02*
X42320Y-44630D01*
X40490Y-44640D02*
X41180Y-44640D01*
X41630Y-44640D02*
X42320Y-44640D01*
X40490Y-44650D02*
X41180Y-44650D01*
X41630Y-44650D02*
X42320Y-44650D01*
X40490Y-44660D02*
X41170Y-44660D01*
X41640Y-44660D02*
X42320Y-44660D01*
X40490Y-44670D02*
X41170Y-44670D01*
X41640Y-44670D02*
X42320Y-44670D01*
X40490Y-44680D02*
X41170Y-44680D01*
X41640Y-44680D02*
X42320Y-44680D01*
X40490Y-44690D02*
X41170Y-44690D01*
X41650Y-44690D02*
X42320Y-44690D01*
X40490Y-44700D02*
X41160Y-44700D01*
X41650Y-44700D02*
X42320Y-44700D01*
X40490Y-44710D02*
X41160Y-44710D01*
X41650Y-44710D02*
X42330Y-44710D01*
X40480Y-44720D02*
X41160Y-44720D01*
X41650Y-44720D02*
X42330Y-44720D01*
X40480Y-44730D02*
X41160Y-44730D01*
X41650Y-44730D02*
X42330Y-44730D01*
X40480Y-44740D02*
X41160Y-44740D01*
X41650Y-44740D02*
X42330Y-44740D01*
X40480Y-44750D02*
X41160Y-44750D01*
X41650Y-44750D02*
X42330Y-44750D01*
X40480Y-44760D02*
X41160Y-44760D01*
X41650Y-44760D02*
X42330Y-44760D01*
X40480Y-44770D02*
X41160Y-44770D01*
X41650Y-44770D02*
X42330Y-44770D01*
X40480Y-44780D02*
X41160Y-44780D01*
X41650Y-44780D02*
X42330Y-44780D01*
X40480Y-44790D02*
X41160Y-44790D01*
X41650Y-44790D02*
X42330Y-44790D01*
X40480Y-44800D02*
X41170Y-44800D01*
X41650Y-44800D02*
X42330Y-44800D01*
X40490Y-44810D02*
X41170Y-44810D01*
X41640Y-44810D02*
X42330Y-44810D01*
X40490Y-44820D02*
X41170Y-44820D01*
X41640Y-44820D02*
X42320Y-44820D01*
X40490Y-44830D02*
X41180Y-44830D01*
X41640Y-44830D02*
X42320Y-44830D01*
X40490Y-44840D02*
X41180Y-44840D01*
X41630Y-44840D02*
X42320Y-44840D01*
X40490Y-44850D02*
X41180Y-44850D01*
X41630Y-44850D02*
X42310Y-44850D01*
X40490Y-44860D02*
X41190Y-44860D01*
X41620Y-44860D02*
X42250Y-44860D01*
X40530Y-44870D02*
X41200Y-44870D01*
X41620Y-44870D02*
X42190Y-44870D01*
X40580Y-44880D02*
X41200Y-44880D01*
X41610Y-44880D02*
X42120Y-44880D01*
X40640Y-44890D02*
X41210Y-44890D01*
X41600Y-44890D02*
X42080Y-44890D01*
X40690Y-44900D02*
X41220Y-44900D01*
X41590Y-44900D02*
X42080Y-44900D01*
X40730Y-44910D02*
X41230Y-44910D01*
X41590Y-44910D02*
X42080Y-44910D01*
X40740Y-44920D02*
X41230Y-44920D01*
X41580Y-44920D02*
X42070Y-44920D01*
X40740Y-44930D02*
X41250Y-44930D01*
X41560Y-44930D02*
X42070Y-44930D01*
X40740Y-44940D02*
X41260Y-44940D01*
X41550Y-44940D02*
X42070Y-44940D01*
X40740Y-44950D02*
X41270Y-44950D01*
X41540Y-44950D02*
X42070Y-44950D01*
X40750Y-44960D02*
X41290Y-44960D01*
X41520Y-44960D02*
X42060Y-44960D01*
X40750Y-44970D02*
X41310Y-44970D01*
X41500Y-44970D02*
X42060Y-44970D01*
X40750Y-44980D02*
X41320Y-44980D01*
X41500Y-44980D02*
X42060Y-44980D01*
X40760Y-44990D02*
X41320Y-44990D01*
X41500Y-44990D02*
X42050Y-44990D01*
X40760Y-45000D02*
X41320Y-45000D01*
X41500Y-45000D02*
X42050Y-45000D01*
X40760Y-45010D02*
X41310Y-45010D01*
X41510Y-45010D02*
X42040Y-45010D01*
X40770Y-45020D02*
X41310Y-45020D01*
X41510Y-45020D02*
X42040Y-45020D01*
X40770Y-45030D02*
X41310Y-45030D01*
X41510Y-45030D02*
X42040Y-45030D01*
X40780Y-45040D02*
X41300Y-45040D01*
X41520Y-45040D02*
X42030Y-45040D01*
X40780Y-45050D02*
X41300Y-45050D01*
X41520Y-45050D02*
X42030Y-45050D01*
X40790Y-45060D02*
X41290Y-45060D01*
X41530Y-45060D02*
X42020Y-45060D01*
X40790Y-45070D02*
X41290Y-45070D01*
X41530Y-45070D02*
X42020Y-45070D01*
X40800Y-45080D02*
X41290Y-45080D01*
X41530Y-45080D02*
X42010Y-45080D01*
X40800Y-45090D02*
X41280Y-45090D01*
X41540Y-45090D02*
X42020Y-45090D01*
X40810Y-45100D02*
X41280Y-45100D01*
X41540Y-45100D02*
X42020Y-45100D01*
X40810Y-45110D02*
X41280Y-45110D01*
X41550Y-45110D02*
X42030Y-45110D01*
X40810Y-45120D02*
X41270Y-45120D01*
X41550Y-45120D02*
X42040Y-45120D01*
X40810Y-45130D02*
X41270Y-45130D01*
X41550Y-45130D02*
X42050Y-45130D01*
X40800Y-45140D02*
X41270Y-45140D01*
X41560Y-45140D02*
X42050Y-45140D01*
X40790Y-45150D02*
X41260Y-45150D01*
X41560Y-45150D02*
X42060Y-45150D01*
X40780Y-45160D02*
X41260Y-45160D01*
X41560Y-45160D02*
X42070Y-45160D01*
X40780Y-45170D02*
X41260Y-45170D01*
X41570Y-45170D02*
X42070Y-45170D01*
X40770Y-45180D02*
X41250Y-45180D01*
X41570Y-45180D02*
X42080Y-45180D01*
X40760Y-45190D02*
X41250Y-45190D01*
X41580Y-45190D02*
X42090Y-45190D01*
X40750Y-45200D02*
X41250Y-45200D01*
X41580Y-45200D02*
X42090Y-45200D01*
X40750Y-45210D02*
X41240Y-45210D01*
X41580Y-45210D02*
X42100Y-45210D01*
X40740Y-45220D02*
X41240Y-45220D01*
X41590Y-45220D02*
X42110Y-45220D01*
X40730Y-45230D02*
X41230Y-45230D01*
X41590Y-45230D02*
X42110Y-45230D01*
X40730Y-45240D02*
X41230Y-45240D01*
X41600Y-45240D02*
X42120Y-45240D01*
X40720Y-45250D02*
X41230Y-45250D01*
X41600Y-45250D02*
X42130Y-45250D01*
X40710Y-45260D02*
X41220Y-45260D01*
X41600Y-45260D02*
X42140Y-45260D01*
X40700Y-45270D02*
X41220Y-45270D01*
X41610Y-45270D02*
X42140Y-45270D01*
X40700Y-45280D02*
X41220Y-45280D01*
X41610Y-45280D02*
X42150Y-45280D01*
X40690Y-45290D02*
X41210Y-45290D01*
X41620Y-45290D02*
X42150Y-45290D01*
X40680Y-45300D02*
X41210Y-45300D01*
X41620Y-45300D02*
X42150Y-45300D01*
X40680Y-45310D02*
X41210Y-45310D01*
X41620Y-45310D02*
X42140Y-45310D01*
X40680Y-45320D02*
X41200Y-45320D01*
X41630Y-45320D02*
X42130Y-45320D01*
X40680Y-45330D02*
X41200Y-45330D01*
X41630Y-45330D02*
X42120Y-45330D01*
X40690Y-45340D02*
X41200Y-45340D01*
X41630Y-45340D02*
X42110Y-45340D01*
X40700Y-45350D02*
X41190Y-45350D01*
X41640Y-45350D02*
X42110Y-45350D01*
X40710Y-45360D02*
X41190Y-45360D01*
X41640Y-45360D02*
X41780Y-45360D01*
X41800Y-45360D02*
X42100Y-45360D01*
X40720Y-45370D02*
X41190Y-45370D01*
X41650Y-45370D02*
X41750Y-45370D01*
X41830Y-45370D02*
X42090Y-45370D01*
X40730Y-45380D02*
X41030Y-45380D01*
X41080Y-45380D02*
X41180Y-45380D01*
X41650Y-45380D02*
X41730Y-45380D01*
X41840Y-45380D02*
X42080Y-45380D01*
X40740Y-45390D02*
X41010Y-45390D01*
X41110Y-45390D02*
X41180Y-45390D01*
X41650Y-45390D02*
X41710Y-45390D01*
X41850Y-45390D02*
X42070Y-45390D01*
X40750Y-45400D02*
X40990Y-45400D01*
X41130Y-45400D02*
X41170Y-45400D01*
X41660Y-45400D02*
X41690Y-45400D01*
X41860Y-45400D02*
X42080Y-45400D01*
X40760Y-45410D02*
X40980Y-45410D01*
X41150Y-45410D02*
X41170Y-45410D01*
X41660Y-45410D02*
X41670Y-45410D01*
X41860Y-45410D02*
X42080Y-45410D01*
X40770Y-45420D02*
X40960Y-45420D01*
X41880Y-45420D02*
X42080Y-45420D01*
X40780Y-45430D02*
X40950Y-45430D01*
X41890Y-45430D02*
X42080Y-45430D01*
X40780Y-45440D02*
X40930Y-45440D01*
X41900Y-45440D02*
X42080Y-45440D01*
X40780Y-45450D02*
X40920Y-45450D01*
X41920Y-45450D02*
X42080Y-45450D01*
X40780Y-45460D02*
X40910Y-45460D01*
X41940Y-45460D02*
X42070Y-45460D01*
X40790Y-45470D02*
X40900Y-45470D01*
X41960Y-45470D02*
X42070Y-45470D01*
X40790Y-45480D02*
X40890Y-45480D01*
X41970Y-45480D02*
X42060Y-45480D01*
X40800Y-45490D02*
X40890Y-45490D01*
X41980Y-45490D02*
X42060Y-45490D01*
X40810Y-45500D02*
X40880Y-45500D01*
X41990Y-45500D02*
X42050Y-45500D01*
X40820Y-45510D02*
X40880Y-45510D01*
X42000Y-45510D02*
X42040Y-45510D01*
X40830Y-45520D02*
X40870Y-45520D01*
X42010Y-45520D02*
X42030Y-45520D01*
X40840Y-45530D02*
X40870Y-45530D01*
X41110Y-45620D02*
X41130Y-45620D01*
X41880Y-45620D02*
X41900Y-45620D01*
X41090Y-45630D02*
X41130Y-45630D01*
X41860Y-45630D02*
X41900Y-45630D01*
X41090Y-45640D02*
X41130Y-45640D01*
X41860Y-45640D02*
X41900Y-45640D01*
X41090Y-45650D02*
X41130Y-45650D01*
X41860Y-45650D02*
X41900Y-45650D01*
X41090Y-45660D02*
X41130Y-45660D01*
X41860Y-45660D02*
X41900Y-45660D01*
X41090Y-45670D02*
X41130Y-45670D01*
X41860Y-45670D02*
X41900Y-45670D01*
X41090Y-45680D02*
X41130Y-45680D01*
X41860Y-45680D02*
X41900Y-45680D01*
X40090Y-45690D02*
X40170Y-45690D01*
X40320Y-45690D02*
X40400Y-45690D01*
X40550Y-45690D02*
X40620Y-45690D01*
X40770Y-45690D02*
X40850Y-45690D01*
X41090Y-45690D02*
X41130Y-45690D01*
X41860Y-45690D02*
X41900Y-45690D01*
X40080Y-45700D02*
X40190Y-45700D01*
X40300Y-45700D02*
X40420Y-45700D01*
X40530Y-45700D02*
X40640Y-45700D01*
X40750Y-45700D02*
X40870Y-45700D01*
X41090Y-45700D02*
X41130Y-45700D01*
X41160Y-45700D02*
X41190Y-45700D01*
X41370Y-45700D02*
X41400Y-45700D01*
X41590Y-45700D02*
X41620Y-45700D01*
X41800Y-45700D02*
X41830Y-45700D01*
X41860Y-45700D02*
X41900Y-45700D01*
X41960Y-45700D02*
X41970Y-45700D01*
X42040Y-45700D02*
X42050Y-45700D01*
X42120Y-45700D02*
X42130Y-45700D01*
X42230Y-45700D02*
X42260Y-45700D01*
X42440Y-45700D02*
X42470Y-45700D01*
X42660Y-45700D02*
X42690Y-45700D01*
X40070Y-45710D02*
X40200Y-45710D01*
X40290Y-45710D02*
X40430Y-45710D01*
X40520Y-45710D02*
X40650Y-45710D01*
X40740Y-45710D02*
X40880Y-45710D01*
X41090Y-45710D02*
X41220Y-45710D01*
X41340Y-45710D02*
X41430Y-45710D01*
X41560Y-45710D02*
X41650Y-45710D01*
X41770Y-45710D02*
X41900Y-45710D01*
X41940Y-45710D02*
X41970Y-45710D01*
X42020Y-45710D02*
X42050Y-45710D01*
X42100Y-45710D02*
X42130Y-45710D01*
X42200Y-45710D02*
X42290Y-45710D01*
X42410Y-45710D02*
X42500Y-45710D01*
X42630Y-45710D02*
X42720Y-45710D01*
X40060Y-45720D02*
X40210Y-45720D01*
X40280Y-45720D02*
X40440Y-45720D01*
X40510Y-45720D02*
X40660Y-45720D01*
X40740Y-45720D02*
X40890Y-45720D01*
X41090Y-45720D02*
X41230Y-45720D01*
X41330Y-45720D02*
X41450Y-45720D01*
X41540Y-45720D02*
X41660Y-45720D01*
X41760Y-45720D02*
X41900Y-45720D01*
X41920Y-45720D02*
X41970Y-45720D01*
X42010Y-45720D02*
X42050Y-45720D01*
X42090Y-45720D02*
X42130Y-45720D01*
X42190Y-45720D02*
X42300Y-45720D01*
X42400Y-45720D02*
X42520Y-45720D01*
X42610Y-45720D02*
X42730Y-45720D01*
X40050Y-45730D02*
X40220Y-45730D01*
X40280Y-45730D02*
X40440Y-45730D01*
X40500Y-45730D02*
X40670Y-45730D01*
X40730Y-45730D02*
X40890Y-45730D01*
X41090Y-45730D02*
X41240Y-45730D01*
X41320Y-45730D02*
X41460Y-45730D01*
X41530Y-45730D02*
X41670Y-45730D01*
X41750Y-45730D02*
X41900Y-45730D01*
X41920Y-45730D02*
X41970Y-45730D01*
X42010Y-45730D02*
X42050Y-45730D01*
X42090Y-45730D02*
X42130Y-45730D01*
X42180Y-45730D02*
X42310Y-45730D01*
X42390Y-45730D02*
X42530Y-45730D01*
X42600Y-45730D02*
X42740Y-45730D01*
X40050Y-45740D02*
X40220Y-45740D01*
X40270Y-45740D02*
X40450Y-45740D01*
X40500Y-45740D02*
X40670Y-45740D01*
X40720Y-45740D02*
X40900Y-45740D01*
X41090Y-45740D02*
X41250Y-45740D01*
X41310Y-45740D02*
X41460Y-45740D01*
X41530Y-45740D02*
X41680Y-45740D01*
X41740Y-45740D02*
X41900Y-45740D01*
X41920Y-45740D02*
X41970Y-45740D01*
X42010Y-45740D02*
X42050Y-45740D01*
X42090Y-45740D02*
X42130Y-45740D01*
X42170Y-45740D02*
X42320Y-45740D01*
X42380Y-45740D02*
X42530Y-45740D01*
X42600Y-45740D02*
X42750Y-45740D01*
X40040Y-45750D02*
X40110Y-45750D01*
X40160Y-45750D02*
X40220Y-45750D01*
X40270Y-45750D02*
X40340Y-45750D01*
X40380Y-45750D02*
X40450Y-45750D01*
X40500Y-45750D02*
X40560Y-45750D01*
X40610Y-45750D02*
X40680Y-45750D01*
X40720Y-45750D02*
X40790Y-45750D01*
X40830Y-45750D02*
X40900Y-45750D01*
X41090Y-45750D02*
X41160Y-45750D01*
X41190Y-45750D02*
X41250Y-45750D01*
X41310Y-45750D02*
X41370Y-45750D01*
X41410Y-45750D02*
X41470Y-45750D01*
X41520Y-45750D02*
X41580Y-45750D01*
X41620Y-45750D02*
X41680Y-45750D01*
X41740Y-45750D02*
X41800Y-45750D01*
X41830Y-45750D02*
X41900Y-45750D01*
X41920Y-45750D02*
X41970Y-45750D01*
X42010Y-45750D02*
X42050Y-45750D01*
X42090Y-45750D02*
X42130Y-45750D01*
X42160Y-45750D02*
X42230Y-45750D01*
X42260Y-45750D02*
X42320Y-45750D01*
X42380Y-45750D02*
X42440Y-45750D01*
X42480Y-45750D02*
X42540Y-45750D01*
X42590Y-45750D02*
X42650Y-45750D01*
X42690Y-45750D02*
X42750Y-45750D01*
X40040Y-45760D02*
X40100Y-45760D01*
X40160Y-45760D02*
X40220Y-45760D01*
X40270Y-45760D02*
X40330Y-45760D01*
X40390Y-45760D02*
X40450Y-45760D01*
X40490Y-45760D02*
X40560Y-45760D01*
X40610Y-45760D02*
X40680Y-45760D01*
X40720Y-45760D02*
X40780Y-45760D01*
X40840Y-45760D02*
X40900Y-45760D01*
X41090Y-45760D02*
X41140Y-45760D01*
X41200Y-45760D02*
X41260Y-45760D01*
X41300Y-45760D02*
X41360Y-45760D01*
X41420Y-45760D02*
X41470Y-45760D01*
X41520Y-45760D02*
X41570Y-45760D01*
X41630Y-45760D02*
X41690Y-45760D01*
X41730Y-45760D02*
X41790Y-45760D01*
X41850Y-45760D02*
X41900Y-45760D01*
X41920Y-45760D02*
X41970Y-45760D01*
X42010Y-45760D02*
X42050Y-45760D01*
X42090Y-45760D02*
X42130Y-45760D01*
X42160Y-45760D02*
X42210Y-45760D01*
X42270Y-45760D02*
X42330Y-45760D01*
X42370Y-45760D02*
X42430Y-45760D01*
X42490Y-45760D02*
X42540Y-45760D01*
X42590Y-45760D02*
X42640Y-45760D01*
X42700Y-45760D02*
X42760Y-45760D01*
X40040Y-45770D02*
X40100Y-45770D01*
X40170Y-45770D02*
X40230Y-45770D01*
X40270Y-45770D02*
X40330Y-45770D01*
X40390Y-45770D02*
X40450Y-45770D01*
X40490Y-45770D02*
X40550Y-45770D01*
X40610Y-45770D02*
X40680Y-45770D01*
X40720Y-45770D02*
X40780Y-45770D01*
X40850Y-45770D02*
X40900Y-45770D01*
X41090Y-45770D02*
X41140Y-45770D01*
X41210Y-45770D02*
X41260Y-45770D01*
X41300Y-45770D02*
X41350Y-45770D01*
X41420Y-45770D02*
X41470Y-45770D01*
X41520Y-45770D02*
X41560Y-45770D01*
X41640Y-45770D02*
X41690Y-45770D01*
X41730Y-45770D02*
X41780Y-45770D01*
X41850Y-45770D02*
X41900Y-45770D01*
X41920Y-45770D02*
X41970Y-45770D01*
X42010Y-45770D02*
X42050Y-45770D01*
X42090Y-45770D02*
X42130Y-45770D01*
X42160Y-45770D02*
X42210Y-45770D01*
X42280Y-45770D02*
X42330Y-45770D01*
X42370Y-45770D02*
X42420Y-45770D01*
X42490Y-45770D02*
X42540Y-45770D01*
X42590Y-45770D02*
X42630Y-45770D01*
X42710Y-45770D02*
X42760Y-45770D01*
X40040Y-45780D02*
X40100Y-45780D01*
X40170Y-45780D02*
X40230Y-45780D01*
X40270Y-45780D02*
X40320Y-45780D01*
X40400Y-45780D02*
X40450Y-45780D01*
X40490Y-45780D02*
X40550Y-45780D01*
X40590Y-45780D02*
X40680Y-45780D01*
X40720Y-45780D02*
X40780Y-45780D01*
X40850Y-45780D02*
X40900Y-45780D01*
X41090Y-45780D02*
X41130Y-45780D01*
X41210Y-45780D02*
X41260Y-45780D01*
X41300Y-45780D02*
X41350Y-45780D01*
X41430Y-45780D02*
X41470Y-45780D01*
X41520Y-45780D02*
X41560Y-45780D01*
X41640Y-45780D02*
X41690Y-45780D01*
X41730Y-45780D02*
X41780Y-45780D01*
X41860Y-45780D02*
X41900Y-45780D01*
X41920Y-45780D02*
X41970Y-45780D01*
X42010Y-45780D02*
X42050Y-45780D01*
X42090Y-45780D02*
X42130Y-45780D01*
X42160Y-45780D02*
X42200Y-45780D01*
X42280Y-45780D02*
X42330Y-45780D01*
X42370Y-45780D02*
X42420Y-45780D01*
X42500Y-45780D02*
X42540Y-45780D01*
X42590Y-45780D02*
X42630Y-45780D01*
X42710Y-45780D02*
X42760Y-45780D01*
X40040Y-45790D02*
X40100Y-45790D01*
X40170Y-45790D02*
X40230Y-45790D01*
X40270Y-45790D02*
X40320Y-45790D01*
X40400Y-45790D02*
X40450Y-45790D01*
X40490Y-45790D02*
X40550Y-45790D01*
X40560Y-45790D02*
X40680Y-45790D01*
X40720Y-45790D02*
X40780Y-45790D01*
X40850Y-45790D02*
X40900Y-45790D01*
X41090Y-45790D02*
X41130Y-45790D01*
X41220Y-45790D02*
X41260Y-45790D01*
X41300Y-45790D02*
X41350Y-45790D01*
X41410Y-45790D02*
X41470Y-45790D01*
X41520Y-45790D02*
X41560Y-45790D01*
X41640Y-45790D02*
X41690Y-45790D01*
X41730Y-45790D02*
X41770Y-45790D01*
X41860Y-45790D02*
X41900Y-45790D01*
X41920Y-45790D02*
X41970Y-45790D01*
X42010Y-45790D02*
X42050Y-45790D01*
X42090Y-45790D02*
X42130Y-45790D01*
X42160Y-45790D02*
X42200Y-45790D01*
X42270Y-45790D02*
X42330Y-45790D01*
X42370Y-45790D02*
X42420Y-45790D01*
X42500Y-45790D02*
X42540Y-45790D01*
X42590Y-45790D02*
X42630Y-45790D01*
X42690Y-45790D02*
X42760Y-45790D01*
X40040Y-45800D02*
X40100Y-45800D01*
X40170Y-45800D02*
X40230Y-45800D01*
X40270Y-45800D02*
X40320Y-45800D01*
X40400Y-45800D02*
X40450Y-45800D01*
X40490Y-45800D02*
X40680Y-45800D01*
X40720Y-45800D02*
X40780Y-45800D01*
X40850Y-45800D02*
X40900Y-45800D01*
X41090Y-45800D02*
X41130Y-45800D01*
X41220Y-45800D02*
X41260Y-45800D01*
X41300Y-45800D02*
X41330Y-45800D01*
X41390Y-45800D02*
X41470Y-45800D01*
X41520Y-45800D02*
X41560Y-45800D01*
X41640Y-45800D02*
X41670Y-45800D01*
X41730Y-45800D02*
X41770Y-45800D01*
X41860Y-45800D02*
X41900Y-45800D01*
X41920Y-45800D02*
X41970Y-45800D01*
X42010Y-45800D02*
X42050Y-45800D01*
X42090Y-45800D02*
X42130Y-45800D01*
X42160Y-45800D02*
X42190Y-45800D01*
X42240Y-45800D02*
X42330Y-45800D01*
X42370Y-45800D02*
X42420Y-45800D01*
X42500Y-45800D02*
X42520Y-45800D01*
X42590Y-45800D02*
X42630Y-45800D01*
X42660Y-45800D02*
X42760Y-45800D01*
X40040Y-45810D02*
X40100Y-45810D01*
X40170Y-45810D02*
X40230Y-45810D01*
X40270Y-45810D02*
X40320Y-45810D01*
X40400Y-45810D02*
X40450Y-45810D01*
X40490Y-45810D02*
X40660Y-45810D01*
X40720Y-45810D02*
X40780Y-45810D01*
X40850Y-45810D02*
X40900Y-45810D01*
X41090Y-45810D02*
X41130Y-45810D01*
X41220Y-45810D02*
X41260Y-45810D01*
X41360Y-45810D02*
X41470Y-45810D01*
X41520Y-45810D02*
X41560Y-45810D01*
X41730Y-45810D02*
X41770Y-45810D01*
X41860Y-45810D02*
X41900Y-45810D01*
X41920Y-45810D02*
X41970Y-45810D01*
X42010Y-45810D02*
X42050Y-45810D01*
X42090Y-45810D02*
X42130Y-45810D01*
X42220Y-45810D02*
X42330Y-45810D01*
X42370Y-45810D02*
X42420Y-45810D01*
X42590Y-45810D02*
X42630Y-45810D01*
X42640Y-45810D02*
X42760Y-45810D01*
X40040Y-45820D02*
X40100Y-45820D01*
X40170Y-45820D02*
X40230Y-45820D01*
X40270Y-45820D02*
X40320Y-45820D01*
X40400Y-45820D02*
X40450Y-45820D01*
X40490Y-45820D02*
X40640Y-45820D01*
X40720Y-45820D02*
X40780Y-45820D01*
X40850Y-45820D02*
X40900Y-45820D01*
X41090Y-45820D02*
X41130Y-45820D01*
X41220Y-45820D02*
X41260Y-45820D01*
X41340Y-45820D02*
X41470Y-45820D01*
X41520Y-45820D02*
X41560Y-45820D01*
X41730Y-45820D02*
X41770Y-45820D01*
X41860Y-45820D02*
X41900Y-45820D01*
X41920Y-45820D02*
X41970Y-45820D01*
X42010Y-45820D02*
X42050Y-45820D01*
X42090Y-45820D02*
X42130Y-45820D01*
X42190Y-45820D02*
X42330Y-45820D01*
X42370Y-45820D02*
X42420Y-45820D01*
X42590Y-45820D02*
X42740Y-45820D01*
X40040Y-45830D02*
X40100Y-45830D01*
X40170Y-45830D02*
X40230Y-45830D01*
X40270Y-45830D02*
X40320Y-45830D01*
X40400Y-45830D02*
X40450Y-45830D01*
X40490Y-45830D02*
X40620Y-45830D01*
X40650Y-45830D02*
X40680Y-45830D01*
X40720Y-45830D02*
X40780Y-45830D01*
X40850Y-45830D02*
X40900Y-45830D01*
X41090Y-45830D02*
X41130Y-45830D01*
X41220Y-45830D02*
X41260Y-45830D01*
X41320Y-45830D02*
X41470Y-45830D01*
X41520Y-45830D02*
X41560Y-45830D01*
X41730Y-45830D02*
X41770Y-45830D01*
X41860Y-45830D02*
X41900Y-45830D01*
X41920Y-45830D02*
X41970Y-45830D01*
X42010Y-45830D02*
X42050Y-45830D01*
X42090Y-45830D02*
X42130Y-45830D01*
X42180Y-45830D02*
X42330Y-45830D01*
X42370Y-45830D02*
X42420Y-45830D01*
X42590Y-45830D02*
X42710Y-45830D01*
X40040Y-45840D02*
X40100Y-45840D01*
X40170Y-45840D02*
X40230Y-45840D01*
X40270Y-45840D02*
X40320Y-45840D01*
X40400Y-45840D02*
X40450Y-45840D01*
X40490Y-45840D02*
X40600Y-45840D01*
X40620Y-45840D02*
X40680Y-45840D01*
X40720Y-45840D02*
X40780Y-45840D01*
X40850Y-45840D02*
X40900Y-45840D01*
X41090Y-45840D02*
X41130Y-45840D01*
X41220Y-45840D02*
X41260Y-45840D01*
X41310Y-45840D02*
X41410Y-45840D01*
X41430Y-45840D02*
X41470Y-45840D01*
X41520Y-45840D02*
X41560Y-45840D01*
X41730Y-45840D02*
X41770Y-45840D01*
X41860Y-45840D02*
X41900Y-45840D01*
X41920Y-45840D02*
X41970Y-45840D01*
X42010Y-45840D02*
X42050Y-45840D01*
X42090Y-45840D02*
X42130Y-45840D01*
X42170Y-45840D02*
X42270Y-45840D01*
X42290Y-45840D02*
X42330Y-45840D01*
X42370Y-45840D02*
X42420Y-45840D01*
X42590Y-45840D02*
X42690Y-45840D01*
X40040Y-45850D02*
X40100Y-45850D01*
X40170Y-45850D02*
X40230Y-45850D01*
X40270Y-45850D02*
X40320Y-45850D01*
X40400Y-45850D02*
X40450Y-45850D01*
X40490Y-45850D02*
X40570Y-45850D01*
X40620Y-45850D02*
X40680Y-45850D01*
X40720Y-45850D02*
X40780Y-45850D01*
X40850Y-45850D02*
X40900Y-45850D01*
X41090Y-45850D02*
X41130Y-45850D01*
X41220Y-45850D02*
X41260Y-45850D01*
X41310Y-45850D02*
X41390Y-45850D01*
X41430Y-45850D02*
X41470Y-45850D01*
X41520Y-45850D02*
X41560Y-45850D01*
X41730Y-45850D02*
X41770Y-45850D01*
X41860Y-45850D02*
X41900Y-45850D01*
X41920Y-45850D02*
X41970Y-45850D01*
X42010Y-45850D02*
X42050Y-45850D01*
X42090Y-45850D02*
X42130Y-45850D01*
X42160Y-45850D02*
X42250Y-45850D01*
X42290Y-45850D02*
X42330Y-45850D01*
X42370Y-45850D02*
X42420Y-45850D01*
X42590Y-45850D02*
X42670Y-45850D01*
X42730Y-45850D02*
X42760Y-45850D01*
X40040Y-45860D02*
X40100Y-45860D01*
X40170Y-45860D02*
X40230Y-45860D01*
X40270Y-45860D02*
X40330Y-45860D01*
X40390Y-45860D02*
X40450Y-45860D01*
X40490Y-45860D02*
X40550Y-45860D01*
X40620Y-45860D02*
X40680Y-45860D01*
X40720Y-45860D02*
X40780Y-45860D01*
X40850Y-45860D02*
X40900Y-45860D01*
X41090Y-45860D02*
X41130Y-45860D01*
X41220Y-45860D02*
X41260Y-45860D01*
X41300Y-45860D02*
X41370Y-45860D01*
X41430Y-45860D02*
X41470Y-45860D01*
X41520Y-45860D02*
X41560Y-45860D01*
X41730Y-45860D02*
X41770Y-45860D01*
X41860Y-45860D02*
X41900Y-45860D01*
X41920Y-45860D02*
X41970Y-45860D01*
X42010Y-45860D02*
X42050Y-45860D01*
X42090Y-45860D02*
X42130Y-45860D01*
X42160Y-45860D02*
X42220Y-45860D01*
X42290Y-45860D02*
X42330Y-45860D01*
X42370Y-45860D02*
X42420Y-45860D01*
X42590Y-45860D02*
X42650Y-45860D01*
X42710Y-45860D02*
X42760Y-45860D01*
X40040Y-45870D02*
X40100Y-45870D01*
X40160Y-45870D02*
X40220Y-45870D01*
X40270Y-45870D02*
X40330Y-45870D01*
X40390Y-45870D02*
X40450Y-45870D01*
X40490Y-45870D02*
X40560Y-45870D01*
X40620Y-45870D02*
X40680Y-45870D01*
X40720Y-45870D02*
X40780Y-45870D01*
X40850Y-45870D02*
X40900Y-45870D01*
X41090Y-45870D02*
X41130Y-45870D01*
X41220Y-45870D02*
X41260Y-45870D01*
X41300Y-45870D02*
X41350Y-45870D01*
X41430Y-45870D02*
X41470Y-45870D01*
X41520Y-45870D02*
X41560Y-45870D01*
X41730Y-45870D02*
X41780Y-45870D01*
X41860Y-45870D02*
X41900Y-45870D01*
X41920Y-45870D02*
X41970Y-45870D01*
X42010Y-45870D02*
X42050Y-45870D01*
X42090Y-45870D02*
X42130Y-45870D01*
X42160Y-45870D02*
X42210Y-45870D01*
X42290Y-45870D02*
X42330Y-45870D01*
X42370Y-45870D02*
X42420Y-45870D01*
X42590Y-45870D02*
X42630Y-45870D01*
X42710Y-45870D02*
X42760Y-45870D01*
X40040Y-45880D02*
X40110Y-45880D01*
X40150Y-45880D02*
X40220Y-45880D01*
X40270Y-45880D02*
X40340Y-45880D01*
X40380Y-45880D02*
X40450Y-45880D01*
X40500Y-45880D02*
X40560Y-45880D01*
X40610Y-45880D02*
X40670Y-45880D01*
X40720Y-45880D02*
X40780Y-45880D01*
X40850Y-45880D02*
X40900Y-45880D01*
X41090Y-45880D02*
X41130Y-45880D01*
X41220Y-45880D02*
X41260Y-45880D01*
X41300Y-45880D02*
X41350Y-45880D01*
X41430Y-45880D02*
X41470Y-45880D01*
X41520Y-45880D02*
X41560Y-45880D01*
X41730Y-45880D02*
X41780Y-45880D01*
X41850Y-45880D02*
X41900Y-45880D01*
X41920Y-45880D02*
X41970Y-45880D01*
X42010Y-45880D02*
X42050Y-45880D01*
X42090Y-45880D02*
X42130Y-45880D01*
X42160Y-45880D02*
X42200Y-45880D01*
X42290Y-45880D02*
X42330Y-45880D01*
X42370Y-45880D02*
X42420Y-45880D01*
X42590Y-45880D02*
X42640Y-45880D01*
X42710Y-45880D02*
X42760Y-45880D01*
X40050Y-45890D02*
X40220Y-45890D01*
X40270Y-45890D02*
X40450Y-45890D01*
X40500Y-45890D02*
X40670Y-45890D01*
X40720Y-45890D02*
X40780Y-45890D01*
X40850Y-45890D02*
X40900Y-45890D01*
X41090Y-45890D02*
X41130Y-45890D01*
X41220Y-45890D02*
X41260Y-45890D01*
X41300Y-45890D02*
X41350Y-45890D01*
X41430Y-45890D02*
X41470Y-45890D01*
X41520Y-45890D02*
X41560Y-45890D01*
X41730Y-45890D02*
X41790Y-45890D01*
X41850Y-45890D02*
X41900Y-45890D01*
X41920Y-45890D02*
X41970Y-45890D01*
X42000Y-45890D02*
X42060Y-45890D01*
X42090Y-45890D02*
X42130Y-45890D01*
X42160Y-45890D02*
X42210Y-45890D01*
X42290Y-45890D02*
X42330Y-45890D01*
X42370Y-45890D02*
X42420Y-45890D01*
X42590Y-45890D02*
X42640Y-45890D01*
X42700Y-45890D02*
X42750Y-45890D01*
X40050Y-45900D02*
X40220Y-45900D01*
X40270Y-45900D02*
X40440Y-45900D01*
X40500Y-45900D02*
X40670Y-45900D01*
X40720Y-45900D02*
X40780Y-45900D01*
X40850Y-45900D02*
X40900Y-45900D01*
X41090Y-45900D02*
X41130Y-45900D01*
X41220Y-45900D02*
X41260Y-45900D01*
X41300Y-45900D02*
X41360Y-45900D01*
X41390Y-45900D02*
X41410Y-45900D01*
X41430Y-45900D02*
X41470Y-45900D01*
X41520Y-45900D02*
X41560Y-45900D01*
X41740Y-45900D02*
X41800Y-45900D01*
X41830Y-45900D02*
X41900Y-45900D01*
X41930Y-45900D02*
X41980Y-45900D01*
X42000Y-45900D02*
X42060Y-45900D01*
X42080Y-45900D02*
X42130Y-45900D01*
X42160Y-45900D02*
X42220Y-45900D01*
X42250Y-45900D02*
X42270Y-45900D01*
X42290Y-45900D02*
X42330Y-45900D01*
X42370Y-45900D02*
X42420Y-45900D01*
X42590Y-45900D02*
X42660Y-45900D01*
X42690Y-45900D02*
X42750Y-45900D01*
X40060Y-45910D02*
X40210Y-45910D01*
X40270Y-45910D02*
X40440Y-45910D01*
X40510Y-45910D02*
X40660Y-45910D01*
X40720Y-45910D02*
X40780Y-45910D01*
X40850Y-45910D02*
X40900Y-45910D01*
X41090Y-45910D02*
X41130Y-45910D01*
X41220Y-45910D02*
X41260Y-45910D01*
X41310Y-45910D02*
X41410Y-45910D01*
X41430Y-45910D02*
X41470Y-45910D01*
X41520Y-45910D02*
X41560Y-45910D01*
X41740Y-45910D02*
X41890Y-45910D01*
X41930Y-45910D02*
X42130Y-45910D01*
X42160Y-45910D02*
X42270Y-45910D01*
X42290Y-45910D02*
X42330Y-45910D01*
X42370Y-45910D02*
X42420Y-45910D01*
X42600Y-45910D02*
X42750Y-45910D01*
X40070Y-45920D02*
X40200Y-45920D01*
X40270Y-45920D02*
X40430Y-45920D01*
X40520Y-45920D02*
X40650Y-45920D01*
X40720Y-45920D02*
X40780Y-45920D01*
X40850Y-45920D02*
X40900Y-45920D01*
X41090Y-45920D02*
X41130Y-45920D01*
X41220Y-45920D02*
X41260Y-45920D01*
X41310Y-45920D02*
X41420Y-45920D01*
X41430Y-45920D02*
X41470Y-45920D01*
X41520Y-45920D02*
X41560Y-45920D01*
X41750Y-45920D02*
X41880Y-45920D01*
X41930Y-45920D02*
X42130Y-45920D01*
X42170Y-45920D02*
X42270Y-45920D01*
X42290Y-45920D02*
X42330Y-45920D01*
X42370Y-45920D02*
X42420Y-45920D01*
X42600Y-45920D02*
X42740Y-45920D01*
X40080Y-45930D02*
X40190Y-45930D01*
X40270Y-45930D02*
X40420Y-45930D01*
X40530Y-45930D02*
X40640Y-45930D01*
X40720Y-45930D02*
X40770Y-45930D01*
X40850Y-45930D02*
X40900Y-45930D01*
X41090Y-45930D02*
X41130Y-45930D01*
X41220Y-45930D02*
X41260Y-45930D01*
X41320Y-45930D02*
X41420Y-45930D01*
X41430Y-45930D02*
X41470Y-45930D01*
X41520Y-45930D02*
X41560Y-45930D01*
X41760Y-45930D02*
X41870Y-45930D01*
X41940Y-45930D02*
X42120Y-45930D01*
X42180Y-45930D02*
X42280Y-45930D01*
X42290Y-45930D02*
X42330Y-45930D01*
X42370Y-45930D02*
X42420Y-45930D01*
X42610Y-45930D02*
X42730Y-45930D01*
X40100Y-45940D02*
X40170Y-45940D01*
X40270Y-45940D02*
X40400Y-45940D01*
X40550Y-45940D02*
X40620Y-45940D01*
X40720Y-45940D02*
X40750Y-45940D01*
X40850Y-45940D02*
X40880Y-45940D01*
X41090Y-45940D02*
X41120Y-45940D01*
X41220Y-45940D02*
X41250Y-45940D01*
X41340Y-45940D02*
X41420Y-45940D01*
X41430Y-45940D02*
X41460Y-45940D01*
X41520Y-45940D02*
X41550Y-45940D01*
X41770Y-45940D02*
X41860Y-45940D01*
X41950Y-45940D02*
X42110Y-45940D01*
X42190Y-45940D02*
X42280Y-45940D01*
X42290Y-45940D02*
X42320Y-45940D01*
X42370Y-45940D02*
X42400Y-45940D01*
X42630Y-45940D02*
X42720Y-45940D01*
X40270Y-45950D02*
X40320Y-45950D01*
X40270Y-45960D02*
X40320Y-45960D01*
X40270Y-45970D02*
X40320Y-45970D01*
X40270Y-45980D02*
X40320Y-45980D01*
X40270Y-45990D02*
X40320Y-45990D01*
X40270Y-46000D02*
X40320Y-46000D01*
X40270Y-46010D02*
X40320Y-46010D01*
X40270Y-46020D02*
X40310Y-46020D01*
X54189Y-52225D02*
X54489Y-52225D01*
X54549Y-52225D02*
X54569Y-52225D01*
X54179Y-52235D02*
X54499Y-52235D01*
X54539Y-52235D02*
X54579Y-52235D01*
X54179Y-52245D02*
X54499Y-52245D01*
X54539Y-52245D02*
X54579Y-52245D01*
X54169Y-52255D02*
X54509Y-52255D01*
X54529Y-52255D02*
X54589Y-52255D01*
X54109Y-52265D02*
X54689Y-52265D01*
X54099Y-52275D02*
X54699Y-52275D01*
X54099Y-52285D02*
X54699Y-52285D01*
X54089Y-52295D02*
X54709Y-52295D01*
X54069Y-52305D02*
X54809Y-52305D01*
X55629Y-52305D02*
X55729Y-52305D01*
X54059Y-52315D02*
X54819Y-52315D01*
X55619Y-52315D02*
X55739Y-52315D01*
X54059Y-52325D02*
X54819Y-52325D01*
X55619Y-52325D02*
X55739Y-52325D01*
X54059Y-52335D02*
X54829Y-52335D01*
X55609Y-52335D02*
X55749Y-52335D01*
X54059Y-52345D02*
X54929Y-52345D01*
X55549Y-52345D02*
X55769Y-52345D01*
X54059Y-52355D02*
X54939Y-52355D01*
X55539Y-52355D02*
X55779Y-52355D01*
X54059Y-52365D02*
X54939Y-52365D01*
X55539Y-52365D02*
X55779Y-52365D01*
X54059Y-52375D02*
X54949Y-52375D01*
X55529Y-52375D02*
X55789Y-52375D01*
X54059Y-52385D02*
X55049Y-52385D01*
X55509Y-52385D02*
X55849Y-52385D01*
X54059Y-52395D02*
X55059Y-52395D01*
X55499Y-52395D02*
X55859Y-52395D01*
X54059Y-52405D02*
X55059Y-52405D01*
X55499Y-52405D02*
X55859Y-52405D01*
X54059Y-52415D02*
X55069Y-52415D01*
X55489Y-52415D02*
X55869Y-52415D01*
X54059Y-52425D02*
X54389Y-52425D01*
X54689Y-52425D02*
X55169Y-52425D01*
X55429Y-52425D02*
X55889Y-52425D01*
X54059Y-52435D02*
X54379Y-52435D01*
X54699Y-52435D02*
X55179Y-52435D01*
X55419Y-52435D02*
X55899Y-52435D01*
X54059Y-52445D02*
X54379Y-52445D01*
X54699Y-52445D02*
X55179Y-52445D01*
X55419Y-52445D02*
X55899Y-52445D01*
X54059Y-52455D02*
X54369Y-52455D01*
X54709Y-52455D02*
X55189Y-52455D01*
X55409Y-52455D02*
X55909Y-52455D01*
X54059Y-52465D02*
X54349Y-52465D01*
X54849Y-52465D02*
X55249Y-52465D01*
X55389Y-52465D02*
X55969Y-52465D01*
X54059Y-52475D02*
X54339Y-52475D01*
X54859Y-52475D02*
X55259Y-52475D01*
X55379Y-52475D02*
X55979Y-52475D01*
X54059Y-52485D02*
X54339Y-52485D01*
X54859Y-52485D02*
X55259Y-52485D01*
X55379Y-52485D02*
X55979Y-52485D01*
X54059Y-52495D02*
X54339Y-52495D01*
X54869Y-52495D02*
X55269Y-52495D01*
X55369Y-52495D02*
X55989Y-52495D01*
X54059Y-52505D02*
X54339Y-52505D01*
X54969Y-52505D02*
X56009Y-52505D01*
X54059Y-52515D02*
X54339Y-52515D01*
X54979Y-52515D02*
X56019Y-52515D01*
X54059Y-52525D02*
X54339Y-52525D01*
X54979Y-52525D02*
X56019Y-52525D01*
X54069Y-52535D02*
X54349Y-52535D01*
X54989Y-52535D02*
X56029Y-52535D01*
X54089Y-52545D02*
X54369Y-52545D01*
X55089Y-52545D02*
X56089Y-52545D01*
X54099Y-52555D02*
X54379Y-52555D01*
X55099Y-52555D02*
X56099Y-52555D01*
X54099Y-52565D02*
X54379Y-52565D01*
X55099Y-52565D02*
X56099Y-52565D01*
X54099Y-52575D02*
X54379Y-52575D01*
X55089Y-52575D02*
X56109Y-52575D01*
X54099Y-52585D02*
X54379Y-52585D01*
X54709Y-52585D02*
X56129Y-52585D01*
X54099Y-52595D02*
X54379Y-52595D01*
X54699Y-52595D02*
X56139Y-52595D01*
X54099Y-52605D02*
X54379Y-52605D01*
X54699Y-52605D02*
X56139Y-52605D01*
X54109Y-52615D02*
X54389Y-52615D01*
X54689Y-52615D02*
X56149Y-52615D01*
X54129Y-52625D02*
X54409Y-52625D01*
X54669Y-52625D02*
X56169Y-52625D01*
X54139Y-52635D02*
X54419Y-52635D01*
X54659Y-52635D02*
X56179Y-52635D01*
X54139Y-52645D02*
X54419Y-52645D01*
X54659Y-52645D02*
X56179Y-52645D01*
X54139Y-52655D02*
X54429Y-52655D01*
X54659Y-52655D02*
X56189Y-52655D01*
X54169Y-52665D02*
X54449Y-52665D01*
X54659Y-52665D02*
X56249Y-52665D01*
X54179Y-52675D02*
X54459Y-52675D01*
X54659Y-52675D02*
X56259Y-52675D01*
X54179Y-52685D02*
X54459Y-52685D01*
X54659Y-52685D02*
X56259Y-52685D01*
X54189Y-52695D02*
X54459Y-52695D01*
X54659Y-52695D02*
X56269Y-52695D01*
X54209Y-52705D02*
X54459Y-52705D01*
X54659Y-52705D02*
X56289Y-52705D01*
X54219Y-52715D02*
X54459Y-52715D01*
X54659Y-52715D02*
X56299Y-52715D01*
X54219Y-52725D02*
X54459Y-52725D01*
X54659Y-52725D02*
X56299Y-52725D01*
X54219Y-52735D02*
X54469Y-52735D01*
X54659Y-52735D02*
X56309Y-52735D01*
X54219Y-52745D02*
X54489Y-52745D01*
X54659Y-52745D02*
X56369Y-52745D01*
X60429Y-52745D02*
X60729Y-52745D01*
X63629Y-52745D02*
X63929Y-52745D01*
X54219Y-52755D02*
X54499Y-52755D01*
X54659Y-52755D02*
X56379Y-52755D01*
X60419Y-52755D02*
X60739Y-52755D01*
X63619Y-52755D02*
X63939Y-52755D01*
X54219Y-52765D02*
X54499Y-52765D01*
X54659Y-52765D02*
X56379Y-52765D01*
X60419Y-52765D02*
X60739Y-52765D01*
X63619Y-52765D02*
X63939Y-52765D01*
X54229Y-52775D02*
X54509Y-52775D01*
X54669Y-52775D02*
X56389Y-52775D01*
X60419Y-52775D02*
X60739Y-52775D01*
X63619Y-52775D02*
X63939Y-52775D01*
X54249Y-52785D02*
X54529Y-52785D01*
X54689Y-52785D02*
X56409Y-52785D01*
X60419Y-52785D02*
X60739Y-52785D01*
X63619Y-52785D02*
X63939Y-52785D01*
X54259Y-52795D02*
X54539Y-52795D01*
X54699Y-52795D02*
X56419Y-52795D01*
X60419Y-52795D02*
X60739Y-52795D01*
X63619Y-52795D02*
X63939Y-52795D01*
X54259Y-52805D02*
X54539Y-52805D01*
X54699Y-52805D02*
X56419Y-52805D01*
X60419Y-52805D02*
X60739Y-52805D01*
X63619Y-52805D02*
X63939Y-52805D01*
X54269Y-52815D02*
X54549Y-52815D01*
X54699Y-52815D02*
X56429Y-52815D01*
X60419Y-52815D02*
X60739Y-52815D01*
X63619Y-52815D02*
X63949Y-52815D01*
X54289Y-52825D02*
X54569Y-52825D01*
X54699Y-52825D02*
X56449Y-52825D01*
X60419Y-52825D02*
X60739Y-52825D01*
X63619Y-52825D02*
X63969Y-52825D01*
X54299Y-52835D02*
X54579Y-52835D01*
X54699Y-52835D02*
X56459Y-52835D01*
X60419Y-52835D02*
X60739Y-52835D01*
X63619Y-52835D02*
X63979Y-52835D01*
X54299Y-52845D02*
X54579Y-52845D01*
X54699Y-52845D02*
X56459Y-52845D01*
X60419Y-52845D02*
X60739Y-52845D01*
X63619Y-52845D02*
X63979Y-52845D01*
X54309Y-52855D02*
X54589Y-52855D01*
X54709Y-52855D02*
X56469Y-52855D01*
X60419Y-52855D02*
X60739Y-52855D01*
X63619Y-52855D02*
X63979Y-52855D01*
X54329Y-52865D02*
X54609Y-52865D01*
X54729Y-52865D02*
X56489Y-52865D01*
X60419Y-52865D02*
X60739Y-52865D01*
X63619Y-52865D02*
X63979Y-52865D01*
X54339Y-52875D02*
X54619Y-52875D01*
X54739Y-52875D02*
X56499Y-52875D01*
X60419Y-52875D02*
X60739Y-52875D01*
X63619Y-52875D02*
X63979Y-52875D01*
X54339Y-52885D02*
X54619Y-52885D01*
X54739Y-52885D02*
X56499Y-52885D01*
X60419Y-52885D02*
X60739Y-52885D01*
X63619Y-52885D02*
X63979Y-52885D01*
X54349Y-52895D02*
X54629Y-52895D01*
X54739Y-52895D02*
X56509Y-52895D01*
X60419Y-52895D02*
X60739Y-52895D01*
X63619Y-52895D02*
X63979Y-52895D01*
X54369Y-52905D02*
X54649Y-52905D01*
X54739Y-52905D02*
X54869Y-52905D01*
X54929Y-52905D02*
X56569Y-52905D01*
X60419Y-52905D02*
X60739Y-52905D01*
X63619Y-52905D02*
X63979Y-52905D01*
X54379Y-52915D02*
X54659Y-52915D01*
X54739Y-52915D02*
X54859Y-52915D01*
X54939Y-52915D02*
X56579Y-52915D01*
X60419Y-52915D02*
X60739Y-52915D01*
X63619Y-52915D02*
X63979Y-52915D01*
X54379Y-52925D02*
X54659Y-52925D01*
X54739Y-52925D02*
X54859Y-52925D01*
X54939Y-52925D02*
X56579Y-52925D01*
X60419Y-52925D02*
X60739Y-52925D01*
X63619Y-52925D02*
X63979Y-52925D01*
X54389Y-52935D02*
X54669Y-52935D01*
X54729Y-52935D02*
X54859Y-52935D01*
X54949Y-52935D02*
X56589Y-52935D01*
X60429Y-52935D02*
X60729Y-52935D01*
X63629Y-52935D02*
X63969Y-52935D01*
X54409Y-52945D02*
X54859Y-52945D01*
X54969Y-52945D02*
X56649Y-52945D01*
X54419Y-52955D02*
X54859Y-52955D01*
X54979Y-52955D02*
X56659Y-52955D01*
X54419Y-52965D02*
X54859Y-52965D01*
X54979Y-52965D02*
X56659Y-52965D01*
X54429Y-52975D02*
X54869Y-52975D01*
X54989Y-52975D02*
X56669Y-52975D01*
X54449Y-52985D02*
X54889Y-52985D01*
X55009Y-52985D02*
X56689Y-52985D01*
X54459Y-52995D02*
X54899Y-52995D01*
X55019Y-52995D02*
X56699Y-52995D01*
X54459Y-53005D02*
X54899Y-53005D01*
X55019Y-53005D02*
X56699Y-53005D01*
X54469Y-53015D02*
X54909Y-53015D01*
X55029Y-53015D02*
X56709Y-53015D01*
X54489Y-53025D02*
X54669Y-53025D01*
X54729Y-53025D02*
X54969Y-53025D01*
X55049Y-53025D02*
X56769Y-53025D01*
X54499Y-53035D02*
X54659Y-53035D01*
X54739Y-53035D02*
X54979Y-53035D01*
X55059Y-53035D02*
X56779Y-53035D01*
X54499Y-53045D02*
X54659Y-53045D01*
X54739Y-53045D02*
X54979Y-53045D01*
X55059Y-53045D02*
X56779Y-53045D01*
X54509Y-53055D02*
X54649Y-53055D01*
X54749Y-53055D02*
X54989Y-53055D01*
X55069Y-53055D02*
X56789Y-53055D01*
X54529Y-53065D02*
X54629Y-53065D01*
X54769Y-53065D02*
X55009Y-53065D01*
X55089Y-53065D02*
X56809Y-53065D01*
X60429Y-53065D02*
X60729Y-53065D01*
X60909Y-53065D02*
X62049Y-53065D01*
X62509Y-53065D02*
X63329Y-53065D01*
X64229Y-53065D02*
X65169Y-53065D01*
X65549Y-53065D02*
X66369Y-53065D01*
X66749Y-53065D02*
X67689Y-53065D01*
X54539Y-53075D02*
X54619Y-53075D01*
X54779Y-53075D02*
X55019Y-53075D01*
X55099Y-53075D02*
X56819Y-53075D01*
X60419Y-53075D02*
X60739Y-53075D01*
X60899Y-53075D02*
X62059Y-53075D01*
X62499Y-53075D02*
X63339Y-53075D01*
X64219Y-53075D02*
X65179Y-53075D01*
X65539Y-53075D02*
X66379Y-53075D01*
X66739Y-53075D02*
X67699Y-53075D01*
X54539Y-53085D02*
X54619Y-53085D01*
X54779Y-53085D02*
X55019Y-53085D01*
X55099Y-53085D02*
X56819Y-53085D01*
X60419Y-53085D02*
X60739Y-53085D01*
X60899Y-53085D02*
X62059Y-53085D01*
X62499Y-53085D02*
X63339Y-53085D01*
X64219Y-53085D02*
X65179Y-53085D01*
X65539Y-53085D02*
X66379Y-53085D01*
X66739Y-53085D02*
X67699Y-53085D01*
X54529Y-53095D02*
X54629Y-53095D01*
X54789Y-53095D02*
X55029Y-53095D01*
X55109Y-53095D02*
X56829Y-53095D01*
X60419Y-53095D02*
X60739Y-53095D01*
X60889Y-53095D02*
X62069Y-53095D01*
X62499Y-53095D02*
X63349Y-53095D01*
X64209Y-53095D02*
X65179Y-53095D01*
X65529Y-53095D02*
X66389Y-53095D01*
X66729Y-53095D02*
X67709Y-53095D01*
X54509Y-53105D02*
X54649Y-53105D01*
X54809Y-53105D02*
X55049Y-53105D01*
X55129Y-53105D02*
X56849Y-53105D01*
X57989Y-53105D02*
X59209Y-53105D01*
X59269Y-53105D02*
X60209Y-53105D01*
X60419Y-53105D02*
X60739Y-53105D01*
X60829Y-53105D02*
X62129Y-53105D01*
X62499Y-53105D02*
X63409Y-53105D01*
X63629Y-53105D02*
X63939Y-53105D01*
X64149Y-53105D02*
X65179Y-53105D01*
X65469Y-53105D02*
X66449Y-53105D01*
X66669Y-53105D02*
X67769Y-53105D01*
X54499Y-53115D02*
X54659Y-53115D01*
X54819Y-53115D02*
X55059Y-53115D01*
X55139Y-53115D02*
X56859Y-53115D01*
X57979Y-53115D02*
X59219Y-53115D01*
X59259Y-53115D02*
X60219Y-53115D01*
X60419Y-53115D02*
X60739Y-53115D01*
X60819Y-53115D02*
X62139Y-53115D01*
X62499Y-53115D02*
X63419Y-53115D01*
X63619Y-53115D02*
X63939Y-53115D01*
X64139Y-53115D02*
X65179Y-53115D01*
X65459Y-53115D02*
X66459Y-53115D01*
X66659Y-53115D02*
X67779Y-53115D01*
X54499Y-53125D02*
X54659Y-53125D01*
X54819Y-53125D02*
X55059Y-53125D01*
X55139Y-53125D02*
X56859Y-53125D01*
X57979Y-53125D02*
X59219Y-53125D01*
X59259Y-53125D02*
X60219Y-53125D01*
X60419Y-53125D02*
X60739Y-53125D01*
X60819Y-53125D02*
X62139Y-53125D01*
X62499Y-53125D02*
X63419Y-53125D01*
X63619Y-53125D02*
X63939Y-53125D01*
X64139Y-53125D02*
X65179Y-53125D01*
X65459Y-53125D02*
X66459Y-53125D01*
X66659Y-53125D02*
X67779Y-53125D01*
X54489Y-53135D02*
X54669Y-53135D01*
X54829Y-53135D02*
X55069Y-53135D01*
X55149Y-53135D02*
X56869Y-53135D01*
X57979Y-53135D02*
X59219Y-53135D01*
X59259Y-53135D02*
X60229Y-53135D01*
X60419Y-53135D02*
X60739Y-53135D01*
X60819Y-53135D02*
X62149Y-53135D01*
X62499Y-53135D02*
X63429Y-53135D01*
X63619Y-53135D02*
X63939Y-53135D01*
X64129Y-53135D02*
X65179Y-53135D01*
X65449Y-53135D02*
X66469Y-53135D01*
X66659Y-53135D02*
X67789Y-53135D01*
X54429Y-53145D02*
X54729Y-53145D01*
X54889Y-53145D02*
X55089Y-53145D01*
X55169Y-53145D02*
X56929Y-53145D01*
X57979Y-53145D02*
X59219Y-53145D01*
X59259Y-53145D02*
X60249Y-53145D01*
X60419Y-53145D02*
X60739Y-53145D01*
X60819Y-53145D02*
X62169Y-53145D01*
X62499Y-53145D02*
X63489Y-53145D01*
X63619Y-53145D02*
X63939Y-53145D01*
X64109Y-53145D02*
X65179Y-53145D01*
X65429Y-53145D02*
X66489Y-53145D01*
X66659Y-53145D02*
X67809Y-53145D01*
X54419Y-53155D02*
X54739Y-53155D01*
X54899Y-53155D02*
X55099Y-53155D01*
X55179Y-53155D02*
X56939Y-53155D01*
X57979Y-53155D02*
X59219Y-53155D01*
X59259Y-53155D02*
X60259Y-53155D01*
X60419Y-53155D02*
X60739Y-53155D01*
X60819Y-53155D02*
X62179Y-53155D01*
X62499Y-53155D02*
X63499Y-53155D01*
X63619Y-53155D02*
X63939Y-53155D01*
X64099Y-53155D02*
X65179Y-53155D01*
X65419Y-53155D02*
X66499Y-53155D01*
X66659Y-53155D02*
X67819Y-53155D01*
X54419Y-53165D02*
X54739Y-53165D01*
X54899Y-53165D02*
X55099Y-53165D01*
X55179Y-53165D02*
X56939Y-53165D01*
X57979Y-53165D02*
X59219Y-53165D01*
X59259Y-53165D02*
X60259Y-53165D01*
X60419Y-53165D02*
X60739Y-53165D01*
X60819Y-53165D02*
X62179Y-53165D01*
X62499Y-53165D02*
X63499Y-53165D01*
X63619Y-53165D02*
X63939Y-53165D01*
X64099Y-53165D02*
X65179Y-53165D01*
X65419Y-53165D02*
X66499Y-53165D01*
X66659Y-53165D02*
X67819Y-53165D01*
X54409Y-53175D02*
X54749Y-53175D01*
X54909Y-53175D02*
X55109Y-53175D01*
X55189Y-53175D02*
X56949Y-53175D01*
X57979Y-53175D02*
X59219Y-53175D01*
X59259Y-53175D02*
X60269Y-53175D01*
X60419Y-53175D02*
X60739Y-53175D01*
X60819Y-53175D02*
X62179Y-53175D01*
X62499Y-53175D02*
X63499Y-53175D01*
X63619Y-53175D02*
X63939Y-53175D01*
X64089Y-53175D02*
X65179Y-53175D01*
X65409Y-53175D02*
X66509Y-53175D01*
X66659Y-53175D02*
X67829Y-53175D01*
X54389Y-53185D02*
X54769Y-53185D01*
X54929Y-53185D02*
X55129Y-53185D01*
X55249Y-53185D02*
X56969Y-53185D01*
X57979Y-53185D02*
X59219Y-53185D01*
X59259Y-53185D02*
X60289Y-53185D01*
X60419Y-53185D02*
X60739Y-53185D01*
X60819Y-53185D02*
X62179Y-53185D01*
X62499Y-53185D02*
X63499Y-53185D01*
X63619Y-53185D02*
X63939Y-53185D01*
X64069Y-53185D02*
X65179Y-53185D01*
X65389Y-53185D02*
X66529Y-53185D01*
X66659Y-53185D02*
X67859Y-53185D01*
X54379Y-53195D02*
X54779Y-53195D01*
X54939Y-53195D02*
X55139Y-53195D01*
X55259Y-53195D02*
X56979Y-53195D01*
X57979Y-53195D02*
X59219Y-53195D01*
X59259Y-53195D02*
X60299Y-53195D01*
X60419Y-53195D02*
X60739Y-53195D01*
X60819Y-53195D02*
X62179Y-53195D01*
X62499Y-53195D02*
X63499Y-53195D01*
X63619Y-53195D02*
X63939Y-53195D01*
X64059Y-53195D02*
X65179Y-53195D01*
X65379Y-53195D02*
X66539Y-53195D01*
X66659Y-53195D02*
X67859Y-53195D01*
X54379Y-53205D02*
X54779Y-53205D01*
X54939Y-53205D02*
X55139Y-53205D01*
X55259Y-53205D02*
X56979Y-53205D01*
X57979Y-53205D02*
X59219Y-53205D01*
X59259Y-53205D02*
X60299Y-53205D01*
X60419Y-53205D02*
X60739Y-53205D01*
X60819Y-53205D02*
X62179Y-53205D01*
X62499Y-53205D02*
X63499Y-53205D01*
X63619Y-53205D02*
X63939Y-53205D01*
X64059Y-53205D02*
X65179Y-53205D01*
X65379Y-53205D02*
X66539Y-53205D01*
X66659Y-53205D02*
X67859Y-53205D01*
X54369Y-53215D02*
X54789Y-53215D01*
X54949Y-53215D02*
X55149Y-53215D01*
X55269Y-53215D02*
X56989Y-53215D01*
X57979Y-53215D02*
X59219Y-53215D01*
X59259Y-53215D02*
X60309Y-53215D01*
X60419Y-53215D02*
X60739Y-53215D01*
X60819Y-53215D02*
X62189Y-53215D01*
X62499Y-53215D02*
X63509Y-53215D01*
X63619Y-53215D02*
X63939Y-53215D01*
X64049Y-53215D02*
X65179Y-53215D01*
X65369Y-53215D02*
X66549Y-53215D01*
X66659Y-53215D02*
X67859Y-53215D01*
X54309Y-53225D02*
X54809Y-53225D01*
X54969Y-53225D02*
X55209Y-53225D01*
X55289Y-53225D02*
X57009Y-53225D01*
X57979Y-53225D02*
X59219Y-53225D01*
X59259Y-53225D02*
X60329Y-53225D01*
X60419Y-53225D02*
X60739Y-53225D01*
X60819Y-53225D02*
X62209Y-53225D01*
X62499Y-53225D02*
X63529Y-53225D01*
X63619Y-53225D02*
X63939Y-53225D01*
X64029Y-53225D02*
X65179Y-53225D01*
X65349Y-53225D02*
X66569Y-53225D01*
X66659Y-53225D02*
X67859Y-53225D01*
X54299Y-53235D02*
X54819Y-53235D01*
X54979Y-53235D02*
X55219Y-53235D01*
X55299Y-53235D02*
X57019Y-53235D01*
X57979Y-53235D02*
X59219Y-53235D01*
X59259Y-53235D02*
X60339Y-53235D01*
X60419Y-53235D02*
X60739Y-53235D01*
X60819Y-53235D02*
X62219Y-53235D01*
X62499Y-53235D02*
X63539Y-53235D01*
X63619Y-53235D02*
X63939Y-53235D01*
X64019Y-53235D02*
X65179Y-53235D01*
X65339Y-53235D02*
X66579Y-53235D01*
X66659Y-53235D02*
X67859Y-53235D01*
X54299Y-53245D02*
X54819Y-53245D01*
X54979Y-53245D02*
X55219Y-53245D01*
X55299Y-53245D02*
X57019Y-53245D01*
X57979Y-53245D02*
X59219Y-53245D01*
X59259Y-53245D02*
X60339Y-53245D01*
X60419Y-53245D02*
X60739Y-53245D01*
X60819Y-53245D02*
X62219Y-53245D01*
X62499Y-53245D02*
X63539Y-53245D01*
X63619Y-53245D02*
X63939Y-53245D01*
X64019Y-53245D02*
X65179Y-53245D01*
X65339Y-53245D02*
X66579Y-53245D01*
X66659Y-53245D02*
X67859Y-53245D01*
X54299Y-53255D02*
X54829Y-53255D01*
X54989Y-53255D02*
X55229Y-53255D01*
X55309Y-53255D02*
X57019Y-53255D01*
X57979Y-53255D02*
X59219Y-53255D01*
X59259Y-53255D02*
X60339Y-53255D01*
X60419Y-53255D02*
X60739Y-53255D01*
X60819Y-53255D02*
X62219Y-53255D01*
X62499Y-53255D02*
X63539Y-53255D01*
X63619Y-53255D02*
X63939Y-53255D01*
X64019Y-53255D02*
X65179Y-53255D01*
X65339Y-53255D02*
X66579Y-53255D01*
X66659Y-53255D02*
X67859Y-53255D01*
X54299Y-53265D02*
X54889Y-53265D01*
X55049Y-53265D02*
X55249Y-53265D01*
X55369Y-53265D02*
X57019Y-53265D01*
X57979Y-53265D02*
X59219Y-53265D01*
X59259Y-53265D02*
X60339Y-53265D01*
X60419Y-53265D02*
X60739Y-53265D01*
X60819Y-53265D02*
X62219Y-53265D01*
X62499Y-53265D02*
X63539Y-53265D01*
X63619Y-53265D02*
X63939Y-53265D01*
X64019Y-53265D02*
X65179Y-53265D01*
X65339Y-53265D02*
X66579Y-53265D01*
X66659Y-53265D02*
X67859Y-53265D01*
X54299Y-53275D02*
X54899Y-53275D01*
X55059Y-53275D02*
X55259Y-53275D01*
X55379Y-53275D02*
X57019Y-53275D01*
X57979Y-53275D02*
X59219Y-53275D01*
X59259Y-53275D02*
X60339Y-53275D01*
X60419Y-53275D02*
X60739Y-53275D01*
X60819Y-53275D02*
X62219Y-53275D01*
X62499Y-53275D02*
X63539Y-53275D01*
X63619Y-53275D02*
X63939Y-53275D01*
X64019Y-53275D02*
X65179Y-53275D01*
X65339Y-53275D02*
X66579Y-53275D01*
X66659Y-53275D02*
X67859Y-53275D01*
X54299Y-53285D02*
X54899Y-53285D01*
X55059Y-53285D02*
X55259Y-53285D01*
X55379Y-53285D02*
X57019Y-53285D01*
X57979Y-53285D02*
X59219Y-53285D01*
X59259Y-53285D02*
X60339Y-53285D01*
X60419Y-53285D02*
X60739Y-53285D01*
X60819Y-53285D02*
X62219Y-53285D01*
X62499Y-53285D02*
X63539Y-53285D01*
X63619Y-53285D02*
X63939Y-53285D01*
X64019Y-53285D02*
X65179Y-53285D01*
X65339Y-53285D02*
X66579Y-53285D01*
X66659Y-53285D02*
X67859Y-53285D01*
X54299Y-53295D02*
X54909Y-53295D01*
X55069Y-53295D02*
X55269Y-53295D01*
X55389Y-53295D02*
X57019Y-53295D01*
X57979Y-53295D02*
X59219Y-53295D01*
X59259Y-53295D02*
X60339Y-53295D01*
X60419Y-53295D02*
X60739Y-53295D01*
X60819Y-53295D02*
X62219Y-53295D01*
X62499Y-53295D02*
X63539Y-53295D01*
X63619Y-53295D02*
X63939Y-53295D01*
X64019Y-53295D02*
X65179Y-53295D01*
X65339Y-53295D02*
X66579Y-53295D01*
X66659Y-53295D02*
X67859Y-53295D01*
X54299Y-53305D02*
X54929Y-53305D01*
X55089Y-53305D02*
X55329Y-53305D01*
X55409Y-53305D02*
X57019Y-53305D01*
X57979Y-53305D02*
X59219Y-53305D01*
X59259Y-53305D02*
X60339Y-53305D01*
X60419Y-53305D02*
X60739Y-53305D01*
X60819Y-53305D02*
X62219Y-53305D01*
X62499Y-53305D02*
X63539Y-53305D01*
X63619Y-53305D02*
X63939Y-53305D01*
X64019Y-53305D02*
X65179Y-53305D01*
X65339Y-53305D02*
X66579Y-53305D01*
X66659Y-53305D02*
X67859Y-53305D01*
X54299Y-53315D02*
X54939Y-53315D01*
X55099Y-53315D02*
X55339Y-53315D01*
X55419Y-53315D02*
X57019Y-53315D01*
X57979Y-53315D02*
X59219Y-53315D01*
X59259Y-53315D02*
X60339Y-53315D01*
X60419Y-53315D02*
X60739Y-53315D01*
X60819Y-53315D02*
X62219Y-53315D01*
X62499Y-53315D02*
X63539Y-53315D01*
X63619Y-53315D02*
X63939Y-53315D01*
X64019Y-53315D02*
X65179Y-53315D01*
X65339Y-53315D02*
X66579Y-53315D01*
X66659Y-53315D02*
X67859Y-53315D01*
X54299Y-53325D02*
X54939Y-53325D01*
X55099Y-53325D02*
X55339Y-53325D01*
X55419Y-53325D02*
X57019Y-53325D01*
X57979Y-53325D02*
X59219Y-53325D01*
X59259Y-53325D02*
X60339Y-53325D01*
X60419Y-53325D02*
X60739Y-53325D01*
X60819Y-53325D02*
X62219Y-53325D01*
X63219Y-53325D02*
X63539Y-53325D01*
X63619Y-53325D02*
X63939Y-53325D01*
X64019Y-53325D02*
X65179Y-53325D01*
X65339Y-53325D02*
X66579Y-53325D01*
X66659Y-53325D02*
X67859Y-53325D01*
X54299Y-53335D02*
X54949Y-53335D01*
X55109Y-53335D02*
X55349Y-53335D01*
X55429Y-53335D02*
X57019Y-53335D01*
X57979Y-53335D02*
X59209Y-53335D01*
X60029Y-53335D02*
X60339Y-53335D01*
X60419Y-53335D02*
X60739Y-53335D01*
X60819Y-53335D02*
X62219Y-53335D01*
X63219Y-53335D02*
X63539Y-53335D01*
X63619Y-53335D02*
X63939Y-53335D01*
X64019Y-53335D02*
X65179Y-53335D01*
X65339Y-53335D02*
X66579Y-53335D01*
X66659Y-53335D02*
X67859Y-53335D01*
X54299Y-53345D02*
X54969Y-53345D01*
X55169Y-53345D02*
X55369Y-53345D01*
X55489Y-53345D02*
X57019Y-53345D01*
X57979Y-53345D02*
X58309Y-53345D01*
X60029Y-53345D02*
X60339Y-53345D01*
X60419Y-53345D02*
X60739Y-53345D01*
X60819Y-53345D02*
X62219Y-53345D01*
X63219Y-53345D02*
X63539Y-53345D01*
X63619Y-53345D02*
X63939Y-53345D01*
X64019Y-53345D02*
X65179Y-53345D01*
X65339Y-53345D02*
X66579Y-53345D01*
X66659Y-53345D02*
X67859Y-53345D01*
X54299Y-53355D02*
X54979Y-53355D01*
X55179Y-53355D02*
X55379Y-53355D01*
X55499Y-53355D02*
X57019Y-53355D01*
X57979Y-53355D02*
X58299Y-53355D01*
X60029Y-53355D02*
X60339Y-53355D01*
X60419Y-53355D02*
X60739Y-53355D01*
X60819Y-53355D02*
X62219Y-53355D01*
X63219Y-53355D02*
X63539Y-53355D01*
X63619Y-53355D02*
X63939Y-53355D01*
X64019Y-53355D02*
X65179Y-53355D01*
X65339Y-53355D02*
X66579Y-53355D01*
X66659Y-53355D02*
X67859Y-53355D01*
X54299Y-53365D02*
X54979Y-53365D01*
X55179Y-53365D02*
X55379Y-53365D01*
X55499Y-53365D02*
X57019Y-53365D01*
X57979Y-53365D02*
X58299Y-53365D01*
X60029Y-53365D02*
X60339Y-53365D01*
X60419Y-53365D02*
X60739Y-53365D01*
X60819Y-53365D02*
X62219Y-53365D01*
X63219Y-53365D02*
X63539Y-53365D01*
X63619Y-53365D02*
X63939Y-53365D01*
X64019Y-53365D02*
X65179Y-53365D01*
X65339Y-53365D02*
X66579Y-53365D01*
X66659Y-53365D02*
X67859Y-53365D01*
X54309Y-53375D02*
X54989Y-53375D01*
X55189Y-53375D02*
X55389Y-53375D01*
X55509Y-53375D02*
X57009Y-53375D01*
X57979Y-53375D02*
X58299Y-53375D01*
X60029Y-53375D02*
X60339Y-53375D01*
X60419Y-53375D02*
X60739Y-53375D01*
X60819Y-53375D02*
X62219Y-53375D01*
X63219Y-53375D02*
X63539Y-53375D01*
X63619Y-53375D02*
X63939Y-53375D01*
X64019Y-53375D02*
X65169Y-53375D01*
X65339Y-53375D02*
X66579Y-53375D01*
X66659Y-53375D02*
X67859Y-53375D01*
X54649Y-53385D02*
X55049Y-53385D01*
X55209Y-53385D02*
X55449Y-53385D01*
X55529Y-53385D02*
X56829Y-53385D01*
X57979Y-53385D02*
X58299Y-53385D01*
X60029Y-53385D02*
X60339Y-53385D01*
X60419Y-53385D02*
X60739Y-53385D01*
X60819Y-53385D02*
X62219Y-53385D01*
X63219Y-53385D02*
X63539Y-53385D01*
X63619Y-53385D02*
X63939Y-53385D01*
X64019Y-53385D02*
X64349Y-53385D01*
X65339Y-53385D02*
X66579Y-53385D01*
X66659Y-53385D02*
X67859Y-53385D01*
X54659Y-53395D02*
X55059Y-53395D01*
X55219Y-53395D02*
X55459Y-53395D01*
X55539Y-53395D02*
X56819Y-53395D01*
X57979Y-53395D02*
X58299Y-53395D01*
X60029Y-53395D02*
X60339Y-53395D01*
X60419Y-53395D02*
X60739Y-53395D01*
X60819Y-53395D02*
X62219Y-53395D01*
X63219Y-53395D02*
X63539Y-53395D01*
X63619Y-53395D02*
X63939Y-53395D01*
X64019Y-53395D02*
X64339Y-53395D01*
X65339Y-53395D02*
X66579Y-53395D01*
X66659Y-53395D02*
X67859Y-53395D01*
X54659Y-53405D02*
X55059Y-53405D01*
X55219Y-53405D02*
X55459Y-53405D01*
X55539Y-53405D02*
X56819Y-53405D01*
X57979Y-53405D02*
X58299Y-53405D01*
X60029Y-53405D02*
X60339Y-53405D01*
X60419Y-53405D02*
X60739Y-53405D01*
X60819Y-53405D02*
X62219Y-53405D01*
X63219Y-53405D02*
X63539Y-53405D01*
X63619Y-53405D02*
X63939Y-53405D01*
X64019Y-53405D02*
X64339Y-53405D01*
X65339Y-53405D02*
X66579Y-53405D01*
X66659Y-53405D02*
X67859Y-53405D01*
X54659Y-53415D02*
X55069Y-53415D01*
X55229Y-53415D02*
X55469Y-53415D01*
X55529Y-53415D02*
X56829Y-53415D01*
X57979Y-53415D02*
X58299Y-53415D01*
X60029Y-53415D02*
X60339Y-53415D01*
X60419Y-53415D02*
X60739Y-53415D01*
X60819Y-53415D02*
X62219Y-53415D01*
X63219Y-53415D02*
X63539Y-53415D01*
X63619Y-53415D02*
X63939Y-53415D01*
X64019Y-53415D02*
X64339Y-53415D01*
X65339Y-53415D02*
X66579Y-53415D01*
X66659Y-53415D02*
X67859Y-53415D01*
X54659Y-53425D02*
X55089Y-53425D01*
X55289Y-53425D02*
X56849Y-53425D01*
X57979Y-53425D02*
X58299Y-53425D01*
X60029Y-53425D02*
X60339Y-53425D01*
X60419Y-53425D02*
X60739Y-53425D01*
X60819Y-53425D02*
X61149Y-53425D01*
X61329Y-53425D02*
X61709Y-53425D01*
X61889Y-53425D02*
X62219Y-53425D01*
X63219Y-53425D02*
X63539Y-53425D01*
X63619Y-53425D02*
X63939Y-53425D01*
X64019Y-53425D02*
X64339Y-53425D01*
X65339Y-53425D02*
X65709Y-53425D01*
X66209Y-53425D02*
X66579Y-53425D01*
X66659Y-53425D02*
X66989Y-53425D01*
X67529Y-53425D02*
X67859Y-53425D01*
X54659Y-53435D02*
X55099Y-53435D01*
X55299Y-53435D02*
X56859Y-53435D01*
X57979Y-53435D02*
X58299Y-53435D01*
X60029Y-53435D02*
X60339Y-53435D01*
X60419Y-53435D02*
X60739Y-53435D01*
X60819Y-53435D02*
X61139Y-53435D01*
X61339Y-53435D02*
X61699Y-53435D01*
X61899Y-53435D02*
X62219Y-53435D01*
X63219Y-53435D02*
X63539Y-53435D01*
X63619Y-53435D02*
X63939Y-53435D01*
X64019Y-53435D02*
X64339Y-53435D01*
X65339Y-53435D02*
X65699Y-53435D01*
X66219Y-53435D02*
X66579Y-53435D01*
X66659Y-53435D02*
X66979Y-53435D01*
X67539Y-53435D02*
X67859Y-53435D01*
X54659Y-53445D02*
X55099Y-53445D01*
X55299Y-53445D02*
X56859Y-53445D01*
X57979Y-53445D02*
X58299Y-53445D01*
X60019Y-53445D02*
X60339Y-53445D01*
X60419Y-53445D02*
X60739Y-53445D01*
X60819Y-53445D02*
X61139Y-53445D01*
X61339Y-53445D02*
X61699Y-53445D01*
X61899Y-53445D02*
X62219Y-53445D01*
X63219Y-53445D02*
X63539Y-53445D01*
X63619Y-53445D02*
X63939Y-53445D01*
X64019Y-53445D02*
X64339Y-53445D01*
X65339Y-53445D02*
X65699Y-53445D01*
X66219Y-53445D02*
X66579Y-53445D01*
X66659Y-53445D02*
X66979Y-53445D01*
X67539Y-53445D02*
X67859Y-53445D01*
X54659Y-53455D02*
X55109Y-53455D01*
X55309Y-53455D02*
X56869Y-53455D01*
X57979Y-53455D02*
X58299Y-53455D01*
X60019Y-53455D02*
X60339Y-53455D01*
X60419Y-53455D02*
X60739Y-53455D01*
X60819Y-53455D02*
X61139Y-53455D01*
X61349Y-53455D02*
X61699Y-53455D01*
X61899Y-53455D02*
X62219Y-53455D01*
X63219Y-53455D02*
X63539Y-53455D01*
X63619Y-53455D02*
X63939Y-53455D01*
X64019Y-53455D02*
X64339Y-53455D01*
X65339Y-53455D02*
X65689Y-53455D01*
X66229Y-53455D02*
X66579Y-53455D01*
X66659Y-53455D02*
X66979Y-53455D01*
X67539Y-53455D02*
X67859Y-53455D01*
X54659Y-53465D02*
X55169Y-53465D01*
X55329Y-53465D02*
X56889Y-53465D01*
X57979Y-53465D02*
X58299Y-53465D01*
X59229Y-53465D02*
X59929Y-53465D01*
X60019Y-53465D02*
X60339Y-53465D01*
X60419Y-53465D02*
X60739Y-53465D01*
X60819Y-53465D02*
X61139Y-53465D01*
X61369Y-53465D02*
X61699Y-53465D01*
X61899Y-53465D02*
X62219Y-53465D01*
X62429Y-53465D02*
X63129Y-53465D01*
X63219Y-53465D02*
X63539Y-53465D01*
X63619Y-53465D02*
X63939Y-53465D01*
X64019Y-53465D02*
X64339Y-53465D01*
X65339Y-53465D02*
X65669Y-53465D01*
X66249Y-53465D02*
X66579Y-53465D01*
X66659Y-53465D02*
X66979Y-53465D01*
X67539Y-53465D02*
X67859Y-53465D01*
X54659Y-53475D02*
X55179Y-53475D01*
X55339Y-53475D02*
X56899Y-53475D01*
X57979Y-53475D02*
X58299Y-53475D01*
X59219Y-53475D02*
X59939Y-53475D01*
X60019Y-53475D02*
X60339Y-53475D01*
X60419Y-53475D02*
X60739Y-53475D01*
X60819Y-53475D02*
X61139Y-53475D01*
X61379Y-53475D02*
X61699Y-53475D01*
X61899Y-53475D02*
X62219Y-53475D01*
X62419Y-53475D02*
X63139Y-53475D01*
X63219Y-53475D02*
X63539Y-53475D01*
X63619Y-53475D02*
X63939Y-53475D01*
X64019Y-53475D02*
X64339Y-53475D01*
X65339Y-53475D02*
X65659Y-53475D01*
X66259Y-53475D02*
X66579Y-53475D01*
X66659Y-53475D02*
X66979Y-53475D01*
X67539Y-53475D02*
X67859Y-53475D01*
X54659Y-53485D02*
X55179Y-53485D01*
X55339Y-53485D02*
X56899Y-53485D01*
X57979Y-53485D02*
X58299Y-53485D01*
X59219Y-53485D02*
X59939Y-53485D01*
X60019Y-53485D02*
X60339Y-53485D01*
X60419Y-53485D02*
X60739Y-53485D01*
X60819Y-53485D02*
X61139Y-53485D01*
X61379Y-53485D02*
X61699Y-53485D01*
X61899Y-53485D02*
X62219Y-53485D01*
X62419Y-53485D02*
X63139Y-53485D01*
X63219Y-53485D02*
X63539Y-53485D01*
X63619Y-53485D02*
X63939Y-53485D01*
X64019Y-53485D02*
X64339Y-53485D01*
X65339Y-53485D02*
X65659Y-53485D01*
X66259Y-53485D02*
X66579Y-53485D01*
X66659Y-53485D02*
X66979Y-53485D01*
X67539Y-53485D02*
X67859Y-53485D01*
X54659Y-53495D02*
X55189Y-53495D01*
X55349Y-53495D02*
X56909Y-53495D01*
X57979Y-53495D02*
X58309Y-53495D01*
X59209Y-53495D02*
X59939Y-53495D01*
X60019Y-53495D02*
X60339Y-53495D01*
X60419Y-53495D02*
X60739Y-53495D01*
X60819Y-53495D02*
X61139Y-53495D01*
X61379Y-53495D02*
X61699Y-53495D01*
X61899Y-53495D02*
X62219Y-53495D01*
X62409Y-53495D02*
X63139Y-53495D01*
X63219Y-53495D02*
X63539Y-53495D01*
X63619Y-53495D02*
X63939Y-53495D01*
X64029Y-53495D02*
X64349Y-53495D01*
X65339Y-53495D02*
X65659Y-53495D01*
X66259Y-53495D02*
X66579Y-53495D01*
X66659Y-53495D02*
X66979Y-53495D01*
X67539Y-53495D02*
X67859Y-53495D01*
X54659Y-53505D02*
X55249Y-53505D01*
X55409Y-53505D02*
X56929Y-53505D01*
X57979Y-53505D02*
X58929Y-53505D01*
X59189Y-53505D02*
X59939Y-53505D01*
X60019Y-53505D02*
X60339Y-53505D01*
X60419Y-53505D02*
X60739Y-53505D01*
X60819Y-53505D02*
X61139Y-53505D01*
X61379Y-53505D02*
X61699Y-53505D01*
X61899Y-53505D02*
X62219Y-53505D01*
X62389Y-53505D02*
X63139Y-53505D01*
X63219Y-53505D02*
X63539Y-53505D01*
X63619Y-53505D02*
X63939Y-53505D01*
X64049Y-53505D02*
X65169Y-53505D01*
X65339Y-53505D02*
X65659Y-53505D01*
X66259Y-53505D02*
X66579Y-53505D01*
X66659Y-53505D02*
X66979Y-53505D01*
X67539Y-53505D02*
X67859Y-53505D01*
X54659Y-53515D02*
X55259Y-53515D01*
X55419Y-53515D02*
X56939Y-53515D01*
X57979Y-53515D02*
X58939Y-53515D01*
X59179Y-53515D02*
X59939Y-53515D01*
X60019Y-53515D02*
X60339Y-53515D01*
X60419Y-53515D02*
X60739Y-53515D01*
X60819Y-53515D02*
X61139Y-53515D01*
X61379Y-53515D02*
X61699Y-53515D01*
X61899Y-53515D02*
X62219Y-53515D01*
X62379Y-53515D02*
X63139Y-53515D01*
X63219Y-53515D02*
X63539Y-53515D01*
X63619Y-53515D02*
X63939Y-53515D01*
X64059Y-53515D02*
X65179Y-53515D01*
X65339Y-53515D02*
X65659Y-53515D01*
X66259Y-53515D02*
X66579Y-53515D01*
X66659Y-53515D02*
X66979Y-53515D01*
X67539Y-53515D02*
X67859Y-53515D01*
X54659Y-53525D02*
X55259Y-53525D01*
X55419Y-53525D02*
X56939Y-53525D01*
X57979Y-53525D02*
X58939Y-53525D01*
X59179Y-53525D02*
X59939Y-53525D01*
X60019Y-53525D02*
X60339Y-53525D01*
X60419Y-53525D02*
X60739Y-53525D01*
X60819Y-53525D02*
X61139Y-53525D01*
X61379Y-53525D02*
X61699Y-53525D01*
X61899Y-53525D02*
X62219Y-53525D01*
X62379Y-53525D02*
X63139Y-53525D01*
X63219Y-53525D02*
X63539Y-53525D01*
X63619Y-53525D02*
X63939Y-53525D01*
X64059Y-53525D02*
X65179Y-53525D01*
X65339Y-53525D02*
X65659Y-53525D01*
X66259Y-53525D02*
X66579Y-53525D01*
X66659Y-53525D02*
X66979Y-53525D01*
X67539Y-53525D02*
X67859Y-53525D01*
X54659Y-53535D02*
X55269Y-53535D01*
X55429Y-53535D02*
X56949Y-53535D01*
X57979Y-53535D02*
X58939Y-53535D01*
X59169Y-53535D02*
X59939Y-53535D01*
X60019Y-53535D02*
X60339Y-53535D01*
X60419Y-53535D02*
X60739Y-53535D01*
X60819Y-53535D02*
X61139Y-53535D01*
X61379Y-53535D02*
X61699Y-53535D01*
X61899Y-53535D02*
X62219Y-53535D01*
X62369Y-53535D02*
X63139Y-53535D01*
X63219Y-53535D02*
X63539Y-53535D01*
X63619Y-53535D02*
X63939Y-53535D01*
X64059Y-53535D02*
X65179Y-53535D01*
X65339Y-53535D02*
X65659Y-53535D01*
X66259Y-53535D02*
X66579Y-53535D01*
X66659Y-53535D02*
X66979Y-53535D01*
X67539Y-53535D02*
X67859Y-53535D01*
X54659Y-53545D02*
X55289Y-53545D01*
X55489Y-53545D02*
X56969Y-53545D01*
X57979Y-53545D02*
X58939Y-53545D01*
X59149Y-53545D02*
X59939Y-53545D01*
X60019Y-53545D02*
X60339Y-53545D01*
X60419Y-53545D02*
X60739Y-53545D01*
X60819Y-53545D02*
X61139Y-53545D01*
X61379Y-53545D02*
X61699Y-53545D01*
X61899Y-53545D02*
X62219Y-53545D01*
X62349Y-53545D02*
X63139Y-53545D01*
X63219Y-53545D02*
X63539Y-53545D01*
X63619Y-53545D02*
X63939Y-53545D01*
X64059Y-53545D02*
X65179Y-53545D01*
X65339Y-53545D02*
X65659Y-53545D01*
X66259Y-53545D02*
X66579Y-53545D01*
X66659Y-53545D02*
X66979Y-53545D01*
X67539Y-53545D02*
X67859Y-53545D01*
X54659Y-53555D02*
X55299Y-53555D01*
X55499Y-53555D02*
X56979Y-53555D01*
X57979Y-53555D02*
X58939Y-53555D01*
X59139Y-53555D02*
X59939Y-53555D01*
X60019Y-53555D02*
X60339Y-53555D01*
X60419Y-53555D02*
X60739Y-53555D01*
X60819Y-53555D02*
X61139Y-53555D01*
X61379Y-53555D02*
X61699Y-53555D01*
X61899Y-53555D02*
X62219Y-53555D01*
X62339Y-53555D02*
X63139Y-53555D01*
X63219Y-53555D02*
X63539Y-53555D01*
X63619Y-53555D02*
X63939Y-53555D01*
X64059Y-53555D02*
X65179Y-53555D01*
X65339Y-53555D02*
X65659Y-53555D01*
X66259Y-53555D02*
X66579Y-53555D01*
X66659Y-53555D02*
X66979Y-53555D01*
X67539Y-53555D02*
X67859Y-53555D01*
X54659Y-53565D02*
X55299Y-53565D01*
X55499Y-53565D02*
X56979Y-53565D01*
X57979Y-53565D02*
X58939Y-53565D01*
X59139Y-53565D02*
X59939Y-53565D01*
X60019Y-53565D02*
X60339Y-53565D01*
X60419Y-53565D02*
X60739Y-53565D01*
X60819Y-53565D02*
X61139Y-53565D01*
X61379Y-53565D02*
X61699Y-53565D01*
X61899Y-53565D02*
X62219Y-53565D01*
X62339Y-53565D02*
X63139Y-53565D01*
X63219Y-53565D02*
X63539Y-53565D01*
X63619Y-53565D02*
X63939Y-53565D01*
X64059Y-53565D02*
X65179Y-53565D01*
X65339Y-53565D02*
X65659Y-53565D01*
X66259Y-53565D02*
X66579Y-53565D01*
X66659Y-53565D02*
X66979Y-53565D01*
X67539Y-53565D02*
X67859Y-53565D01*
X54659Y-53575D02*
X55309Y-53575D01*
X55509Y-53575D02*
X56989Y-53575D01*
X57979Y-53575D02*
X58939Y-53575D01*
X59129Y-53575D02*
X59939Y-53575D01*
X60019Y-53575D02*
X60339Y-53575D01*
X60419Y-53575D02*
X60739Y-53575D01*
X60819Y-53575D02*
X61139Y-53575D01*
X61379Y-53575D02*
X61699Y-53575D01*
X61899Y-53575D02*
X62219Y-53575D01*
X62339Y-53575D02*
X63139Y-53575D01*
X63219Y-53575D02*
X63539Y-53575D01*
X63619Y-53575D02*
X63939Y-53575D01*
X64069Y-53575D02*
X65179Y-53575D01*
X65339Y-53575D02*
X65659Y-53575D01*
X66259Y-53575D02*
X66579Y-53575D01*
X66659Y-53575D02*
X66979Y-53575D01*
X67539Y-53575D02*
X67859Y-53575D01*
X54659Y-53585D02*
X55369Y-53585D01*
X55529Y-53585D02*
X56669Y-53585D01*
X56689Y-53585D02*
X57009Y-53585D01*
X57979Y-53585D02*
X58939Y-53585D01*
X59109Y-53585D02*
X59939Y-53585D01*
X60019Y-53585D02*
X60339Y-53585D01*
X60419Y-53585D02*
X60739Y-53585D01*
X60819Y-53585D02*
X61139Y-53585D01*
X61379Y-53585D02*
X61699Y-53585D01*
X61899Y-53585D02*
X62219Y-53585D01*
X62339Y-53585D02*
X63139Y-53585D01*
X63219Y-53585D02*
X63539Y-53585D01*
X63619Y-53585D02*
X63939Y-53585D01*
X64089Y-53585D02*
X65179Y-53585D01*
X65339Y-53585D02*
X65659Y-53585D01*
X66259Y-53585D02*
X66579Y-53585D01*
X66659Y-53585D02*
X66979Y-53585D01*
X67539Y-53585D02*
X67859Y-53585D01*
X54659Y-53595D02*
X55379Y-53595D01*
X55539Y-53595D02*
X56659Y-53595D01*
X56699Y-53595D02*
X57019Y-53595D01*
X57979Y-53595D02*
X58939Y-53595D01*
X59099Y-53595D02*
X59939Y-53595D01*
X60019Y-53595D02*
X60339Y-53595D01*
X60419Y-53595D02*
X60739Y-53595D01*
X60819Y-53595D02*
X61139Y-53595D01*
X61379Y-53595D02*
X61699Y-53595D01*
X61899Y-53595D02*
X62219Y-53595D01*
X62339Y-53595D02*
X63139Y-53595D01*
X63219Y-53595D02*
X63539Y-53595D01*
X63619Y-53595D02*
X63939Y-53595D01*
X64099Y-53595D02*
X65179Y-53595D01*
X65339Y-53595D02*
X65659Y-53595D01*
X66259Y-53595D02*
X66579Y-53595D01*
X66659Y-53595D02*
X66979Y-53595D01*
X67539Y-53595D02*
X67859Y-53595D01*
X54659Y-53605D02*
X55379Y-53605D01*
X55539Y-53605D02*
X56659Y-53605D01*
X56699Y-53605D02*
X57019Y-53605D01*
X57979Y-53605D02*
X58939Y-53605D01*
X59099Y-53605D02*
X59939Y-53605D01*
X60019Y-53605D02*
X60339Y-53605D01*
X60419Y-53605D02*
X60739Y-53605D01*
X60819Y-53605D02*
X61139Y-53605D01*
X61379Y-53605D02*
X61699Y-53605D01*
X61899Y-53605D02*
X62219Y-53605D01*
X62339Y-53605D02*
X63139Y-53605D01*
X63219Y-53605D02*
X63539Y-53605D01*
X63619Y-53605D02*
X63939Y-53605D01*
X64099Y-53605D02*
X65179Y-53605D01*
X65339Y-53605D02*
X65659Y-53605D01*
X66259Y-53605D02*
X66579Y-53605D01*
X66659Y-53605D02*
X66979Y-53605D01*
X67539Y-53605D02*
X67859Y-53605D01*
X54659Y-53615D02*
X55389Y-53615D01*
X55549Y-53615D02*
X56659Y-53615D01*
X56709Y-53615D02*
X57029Y-53615D01*
X57979Y-53615D02*
X58939Y-53615D01*
X59099Y-53615D02*
X59939Y-53615D01*
X60019Y-53615D02*
X60339Y-53615D01*
X60419Y-53615D02*
X60739Y-53615D01*
X60819Y-53615D02*
X61139Y-53615D01*
X61379Y-53615D02*
X61699Y-53615D01*
X61899Y-53615D02*
X62219Y-53615D01*
X62339Y-53615D02*
X63139Y-53615D01*
X63219Y-53615D02*
X63539Y-53615D01*
X63619Y-53615D02*
X63939Y-53615D01*
X64099Y-53615D02*
X65179Y-53615D01*
X65339Y-53615D02*
X65659Y-53615D01*
X66259Y-53615D02*
X66579Y-53615D01*
X66659Y-53615D02*
X66979Y-53615D01*
X67539Y-53615D02*
X67859Y-53615D01*
X54659Y-53625D02*
X55409Y-53625D01*
X55609Y-53625D02*
X56659Y-53625D01*
X56729Y-53625D02*
X56869Y-53625D01*
X56889Y-53625D02*
X57049Y-53625D01*
X57979Y-53625D02*
X58939Y-53625D01*
X59099Y-53625D02*
X59939Y-53625D01*
X60019Y-53625D02*
X60339Y-53625D01*
X60419Y-53625D02*
X60739Y-53625D01*
X60819Y-53625D02*
X61139Y-53625D01*
X61379Y-53625D02*
X61699Y-53625D01*
X61899Y-53625D02*
X62219Y-53625D01*
X62339Y-53625D02*
X63139Y-53625D01*
X63219Y-53625D02*
X63539Y-53625D01*
X63619Y-53625D02*
X63939Y-53625D01*
X64099Y-53625D02*
X65179Y-53625D01*
X65339Y-53625D02*
X65659Y-53625D01*
X66259Y-53625D02*
X66579Y-53625D01*
X66659Y-53625D02*
X66979Y-53625D01*
X67539Y-53625D02*
X67859Y-53625D01*
X54659Y-53635D02*
X55419Y-53635D01*
X55619Y-53635D02*
X56659Y-53635D01*
X56739Y-53635D02*
X56859Y-53635D01*
X56899Y-53635D02*
X57059Y-53635D01*
X57979Y-53635D02*
X58939Y-53635D01*
X59099Y-53635D02*
X59939Y-53635D01*
X60019Y-53635D02*
X60339Y-53635D01*
X60419Y-53635D02*
X60739Y-53635D01*
X60819Y-53635D02*
X61139Y-53635D01*
X61379Y-53635D02*
X61699Y-53635D01*
X61899Y-53635D02*
X62219Y-53635D01*
X62339Y-53635D02*
X63139Y-53635D01*
X63219Y-53635D02*
X63539Y-53635D01*
X63619Y-53635D02*
X63939Y-53635D01*
X64099Y-53635D02*
X65179Y-53635D01*
X65339Y-53635D02*
X65659Y-53635D01*
X66259Y-53635D02*
X66579Y-53635D01*
X66659Y-53635D02*
X66979Y-53635D01*
X67539Y-53635D02*
X67859Y-53635D01*
X54659Y-53645D02*
X55429Y-53645D01*
X55619Y-53645D02*
X56659Y-53645D01*
X56739Y-53645D02*
X56859Y-53645D01*
X56899Y-53645D02*
X57059Y-53645D01*
X57979Y-53645D02*
X58939Y-53645D01*
X59099Y-53645D02*
X59939Y-53645D01*
X60019Y-53645D02*
X60339Y-53645D01*
X60419Y-53645D02*
X60739Y-53645D01*
X60819Y-53645D02*
X61139Y-53645D01*
X61379Y-53645D02*
X61699Y-53645D01*
X61899Y-53645D02*
X62219Y-53645D01*
X62339Y-53645D02*
X63139Y-53645D01*
X63219Y-53645D02*
X63539Y-53645D01*
X63619Y-53645D02*
X63939Y-53645D01*
X64099Y-53645D02*
X65179Y-53645D01*
X65339Y-53645D02*
X65659Y-53645D01*
X66259Y-53645D02*
X66579Y-53645D01*
X66659Y-53645D02*
X66979Y-53645D01*
X67539Y-53645D02*
X67859Y-53645D01*
X54659Y-53655D02*
X55449Y-53655D01*
X55629Y-53655D02*
X56659Y-53655D01*
X56739Y-53655D02*
X56859Y-53655D01*
X56909Y-53655D02*
X57069Y-53655D01*
X57979Y-53655D02*
X58939Y-53655D01*
X59099Y-53655D02*
X59929Y-53655D01*
X60019Y-53655D02*
X60339Y-53655D01*
X60419Y-53655D02*
X60739Y-53655D01*
X60819Y-53655D02*
X61139Y-53655D01*
X61379Y-53655D02*
X61699Y-53655D01*
X61899Y-53655D02*
X62219Y-53655D01*
X62329Y-53655D02*
X63129Y-53655D01*
X63219Y-53655D02*
X63539Y-53655D01*
X63619Y-53655D02*
X63939Y-53655D01*
X64109Y-53655D02*
X65179Y-53655D01*
X65339Y-53655D02*
X65659Y-53655D01*
X66259Y-53655D02*
X66579Y-53655D01*
X66659Y-53655D02*
X66979Y-53655D01*
X67539Y-53655D02*
X67859Y-53655D01*
X54659Y-53665D02*
X55489Y-53665D01*
X55689Y-53665D02*
X56659Y-53665D01*
X56739Y-53665D02*
X56859Y-53665D01*
X56929Y-53665D02*
X57089Y-53665D01*
X57979Y-53665D02*
X58939Y-53665D01*
X59099Y-53665D02*
X59389Y-53665D01*
X60019Y-53665D02*
X60339Y-53665D01*
X60419Y-53665D02*
X60739Y-53665D01*
X60819Y-53665D02*
X61139Y-53665D01*
X61379Y-53665D02*
X61699Y-53665D01*
X61899Y-53665D02*
X62219Y-53665D01*
X62309Y-53665D02*
X62629Y-53665D01*
X63219Y-53665D02*
X63539Y-53665D01*
X63619Y-53665D02*
X63939Y-53665D01*
X64969Y-53665D02*
X65179Y-53665D01*
X65339Y-53665D02*
X65659Y-53665D01*
X66259Y-53665D02*
X66579Y-53665D01*
X66659Y-53665D02*
X66979Y-53665D01*
X67539Y-53665D02*
X67859Y-53665D01*
X54659Y-53675D02*
X55499Y-53675D01*
X55699Y-53675D02*
X56659Y-53675D01*
X56739Y-53675D02*
X56859Y-53675D01*
X56939Y-53675D02*
X57099Y-53675D01*
X57979Y-53675D02*
X58939Y-53675D01*
X59099Y-53675D02*
X59379Y-53675D01*
X60019Y-53675D02*
X60339Y-53675D01*
X60419Y-53675D02*
X60739Y-53675D01*
X60819Y-53675D02*
X61139Y-53675D01*
X61379Y-53675D02*
X61699Y-53675D01*
X61899Y-53675D02*
X62219Y-53675D01*
X62299Y-53675D02*
X62619Y-53675D01*
X63219Y-53675D02*
X63539Y-53675D01*
X63619Y-53675D02*
X63939Y-53675D01*
X64979Y-53675D02*
X65179Y-53675D01*
X65339Y-53675D02*
X65659Y-53675D01*
X66259Y-53675D02*
X66579Y-53675D01*
X66659Y-53675D02*
X66979Y-53675D01*
X67539Y-53675D02*
X67859Y-53675D01*
X54659Y-53685D02*
X55499Y-53685D01*
X55699Y-53685D02*
X56659Y-53685D01*
X56739Y-53685D02*
X56859Y-53685D01*
X56939Y-53685D02*
X57099Y-53685D01*
X57979Y-53685D02*
X58939Y-53685D01*
X59099Y-53685D02*
X59379Y-53685D01*
X60019Y-53685D02*
X60339Y-53685D01*
X60419Y-53685D02*
X60739Y-53685D01*
X60819Y-53685D02*
X61139Y-53685D01*
X61379Y-53685D02*
X61699Y-53685D01*
X61899Y-53685D02*
X62219Y-53685D01*
X62299Y-53685D02*
X62619Y-53685D01*
X63219Y-53685D02*
X63539Y-53685D01*
X63619Y-53685D02*
X63939Y-53685D01*
X64979Y-53685D02*
X65179Y-53685D01*
X65339Y-53685D02*
X65659Y-53685D01*
X66259Y-53685D02*
X66579Y-53685D01*
X66659Y-53685D02*
X66979Y-53685D01*
X67539Y-53685D02*
X67859Y-53685D01*
X54659Y-53695D02*
X55509Y-53695D01*
X55709Y-53695D02*
X56659Y-53695D01*
X56749Y-53695D02*
X56869Y-53695D01*
X56949Y-53695D02*
X57109Y-53695D01*
X57979Y-53695D02*
X58939Y-53695D01*
X59099Y-53695D02*
X59379Y-53695D01*
X60019Y-53695D02*
X60339Y-53695D01*
X60419Y-53695D02*
X60739Y-53695D01*
X60819Y-53695D02*
X61139Y-53695D01*
X61379Y-53695D02*
X61699Y-53695D01*
X61899Y-53695D02*
X62219Y-53695D01*
X62299Y-53695D02*
X62619Y-53695D01*
X63219Y-53695D02*
X63539Y-53695D01*
X63619Y-53695D02*
X63939Y-53695D01*
X64979Y-53695D02*
X65179Y-53695D01*
X65339Y-53695D02*
X65659Y-53695D01*
X66259Y-53695D02*
X66579Y-53695D01*
X66659Y-53695D02*
X66979Y-53695D01*
X67539Y-53695D02*
X67859Y-53695D01*
X54659Y-53705D02*
X55569Y-53705D01*
X55769Y-53705D02*
X56659Y-53705D01*
X56769Y-53705D02*
X56889Y-53705D01*
X56969Y-53705D02*
X57129Y-53705D01*
X57979Y-53705D02*
X58939Y-53705D01*
X59099Y-53705D02*
X59379Y-53705D01*
X60019Y-53705D02*
X60339Y-53705D01*
X60419Y-53705D02*
X60739Y-53705D01*
X60819Y-53705D02*
X61139Y-53705D01*
X61379Y-53705D02*
X61699Y-53705D01*
X61899Y-53705D02*
X62219Y-53705D01*
X62299Y-53705D02*
X62619Y-53705D01*
X63219Y-53705D02*
X63539Y-53705D01*
X63619Y-53705D02*
X63939Y-53705D01*
X64979Y-53705D02*
X65179Y-53705D01*
X65339Y-53705D02*
X65659Y-53705D01*
X66259Y-53705D02*
X66579Y-53705D01*
X66659Y-53705D02*
X66979Y-53705D01*
X67539Y-53705D02*
X67859Y-53705D01*
X54659Y-53715D02*
X55579Y-53715D01*
X55779Y-53715D02*
X56659Y-53715D01*
X56779Y-53715D02*
X56899Y-53715D01*
X56979Y-53715D02*
X57139Y-53715D01*
X57979Y-53715D02*
X58939Y-53715D01*
X59099Y-53715D02*
X59379Y-53715D01*
X60019Y-53715D02*
X60339Y-53715D01*
X60419Y-53715D02*
X60739Y-53715D01*
X60819Y-53715D02*
X61139Y-53715D01*
X61379Y-53715D02*
X61699Y-53715D01*
X61899Y-53715D02*
X62219Y-53715D01*
X62299Y-53715D02*
X62619Y-53715D01*
X63219Y-53715D02*
X63539Y-53715D01*
X63619Y-53715D02*
X63939Y-53715D01*
X64979Y-53715D02*
X65179Y-53715D01*
X65339Y-53715D02*
X65659Y-53715D01*
X66259Y-53715D02*
X66579Y-53715D01*
X66659Y-53715D02*
X66979Y-53715D01*
X67539Y-53715D02*
X67859Y-53715D01*
X54659Y-53725D02*
X55579Y-53725D01*
X55779Y-53725D02*
X56659Y-53725D01*
X56779Y-53725D02*
X56899Y-53725D01*
X56979Y-53725D02*
X57139Y-53725D01*
X57979Y-53725D02*
X58939Y-53725D01*
X59099Y-53725D02*
X59379Y-53725D01*
X60019Y-53725D02*
X60339Y-53725D01*
X60419Y-53725D02*
X60739Y-53725D01*
X60819Y-53725D02*
X61139Y-53725D01*
X61379Y-53725D02*
X61699Y-53725D01*
X61899Y-53725D02*
X62219Y-53725D01*
X62299Y-53725D02*
X62619Y-53725D01*
X63219Y-53725D02*
X63539Y-53725D01*
X63619Y-53725D02*
X63939Y-53725D01*
X64979Y-53725D02*
X65179Y-53725D01*
X65339Y-53725D02*
X65659Y-53725D01*
X66259Y-53725D02*
X66579Y-53725D01*
X66659Y-53725D02*
X66979Y-53725D01*
X67539Y-53725D02*
X67859Y-53725D01*
X54659Y-53735D02*
X55589Y-53735D01*
X55789Y-53735D02*
X56659Y-53735D01*
X56789Y-53735D02*
X56899Y-53735D01*
X56989Y-53735D02*
X57149Y-53735D01*
X57979Y-53735D02*
X58939Y-53735D01*
X59099Y-53735D02*
X59379Y-53735D01*
X60019Y-53735D02*
X60339Y-53735D01*
X60419Y-53735D02*
X60739Y-53735D01*
X60819Y-53735D02*
X61139Y-53735D01*
X61379Y-53735D02*
X61699Y-53735D01*
X61899Y-53735D02*
X62219Y-53735D01*
X62299Y-53735D02*
X62619Y-53735D01*
X63219Y-53735D02*
X63539Y-53735D01*
X63619Y-53735D02*
X63939Y-53735D01*
X64979Y-53735D02*
X65179Y-53735D01*
X65339Y-53735D02*
X65669Y-53735D01*
X66249Y-53735D02*
X66579Y-53735D01*
X66659Y-53735D02*
X66979Y-53735D01*
X67539Y-53735D02*
X67859Y-53735D01*
X54659Y-53745D02*
X55649Y-53745D01*
X55849Y-53745D02*
X56659Y-53745D01*
X56809Y-53745D02*
X56899Y-53745D01*
X57009Y-53745D02*
X57169Y-53745D01*
X57979Y-53745D02*
X58939Y-53745D01*
X59099Y-53745D02*
X59379Y-53745D01*
X60019Y-53745D02*
X60339Y-53745D01*
X60419Y-53745D02*
X60739Y-53745D01*
X60819Y-53745D02*
X61139Y-53745D01*
X61379Y-53745D02*
X61699Y-53745D01*
X61899Y-53745D02*
X62219Y-53745D01*
X62299Y-53745D02*
X62619Y-53745D01*
X63219Y-53745D02*
X63539Y-53745D01*
X63619Y-53745D02*
X63939Y-53745D01*
X64069Y-53745D02*
X64169Y-53745D01*
X64979Y-53745D02*
X65179Y-53745D01*
X65339Y-53745D02*
X66579Y-53745D01*
X66659Y-53745D02*
X66979Y-53745D01*
X67539Y-53745D02*
X67859Y-53745D01*
X54659Y-53755D02*
X55659Y-53755D01*
X55859Y-53755D02*
X56659Y-53755D01*
X56819Y-53755D02*
X56899Y-53755D01*
X57019Y-53755D02*
X57179Y-53755D01*
X57979Y-53755D02*
X58939Y-53755D01*
X59099Y-53755D02*
X59379Y-53755D01*
X60019Y-53755D02*
X60339Y-53755D01*
X60419Y-53755D02*
X60739Y-53755D01*
X60819Y-53755D02*
X61139Y-53755D01*
X61379Y-53755D02*
X61699Y-53755D01*
X61899Y-53755D02*
X62219Y-53755D01*
X62299Y-53755D02*
X62619Y-53755D01*
X63219Y-53755D02*
X63539Y-53755D01*
X63619Y-53755D02*
X63939Y-53755D01*
X64059Y-53755D02*
X64179Y-53755D01*
X64979Y-53755D02*
X65179Y-53755D01*
X65339Y-53755D02*
X66579Y-53755D01*
X66659Y-53755D02*
X66979Y-53755D01*
X67539Y-53755D02*
X67859Y-53755D01*
X54659Y-53765D02*
X55659Y-53765D01*
X55859Y-53765D02*
X56659Y-53765D01*
X56819Y-53765D02*
X56899Y-53765D01*
X57019Y-53765D02*
X57179Y-53765D01*
X57979Y-53765D02*
X58939Y-53765D01*
X59099Y-53765D02*
X59379Y-53765D01*
X60019Y-53765D02*
X60339Y-53765D01*
X60419Y-53765D02*
X60739Y-53765D01*
X60819Y-53765D02*
X61139Y-53765D01*
X61379Y-53765D02*
X61699Y-53765D01*
X61899Y-53765D02*
X62219Y-53765D01*
X62299Y-53765D02*
X62619Y-53765D01*
X63219Y-53765D02*
X63539Y-53765D01*
X63619Y-53765D02*
X63939Y-53765D01*
X64059Y-53765D02*
X64179Y-53765D01*
X64979Y-53765D02*
X65179Y-53765D01*
X65339Y-53765D02*
X66579Y-53765D01*
X66659Y-53765D02*
X66979Y-53765D01*
X67539Y-53765D02*
X67859Y-53765D01*
X54659Y-53775D02*
X55669Y-53775D01*
X55869Y-53775D02*
X56659Y-53775D01*
X56809Y-53775D02*
X56899Y-53775D01*
X57029Y-53775D02*
X57189Y-53775D01*
X57979Y-53775D02*
X58929Y-53775D01*
X59099Y-53775D02*
X59379Y-53775D01*
X60019Y-53775D02*
X60339Y-53775D01*
X60419Y-53775D02*
X60739Y-53775D01*
X60819Y-53775D02*
X61139Y-53775D01*
X61379Y-53775D02*
X61699Y-53775D01*
X61899Y-53775D02*
X62219Y-53775D01*
X62299Y-53775D02*
X62619Y-53775D01*
X63219Y-53775D02*
X63539Y-53775D01*
X63619Y-53775D02*
X63939Y-53775D01*
X64059Y-53775D02*
X64189Y-53775D01*
X64969Y-53775D02*
X65179Y-53775D01*
X65339Y-53775D02*
X66579Y-53775D01*
X66659Y-53775D02*
X66979Y-53775D01*
X67539Y-53775D02*
X67859Y-53775D01*
X54659Y-53785D02*
X55729Y-53785D01*
X55909Y-53785D02*
X56659Y-53785D01*
X56789Y-53785D02*
X56899Y-53785D01*
X57049Y-53785D02*
X57209Y-53785D01*
X57979Y-53785D02*
X58309Y-53785D01*
X59099Y-53785D02*
X59379Y-53785D01*
X60019Y-53785D02*
X60339Y-53785D01*
X60419Y-53785D02*
X60739Y-53785D01*
X60819Y-53785D02*
X61139Y-53785D01*
X61379Y-53785D02*
X61699Y-53785D01*
X61899Y-53785D02*
X62219Y-53785D01*
X62299Y-53785D02*
X62619Y-53785D01*
X63219Y-53785D02*
X63539Y-53785D01*
X63619Y-53785D02*
X63939Y-53785D01*
X64059Y-53785D02*
X65179Y-53785D01*
X65339Y-53785D02*
X66579Y-53785D01*
X66659Y-53785D02*
X66979Y-53785D01*
X67539Y-53785D02*
X67859Y-53785D01*
X54659Y-53795D02*
X55739Y-53795D01*
X55929Y-53795D02*
X56659Y-53795D01*
X56779Y-53795D02*
X56899Y-53795D01*
X57059Y-53795D02*
X57219Y-53795D01*
X57979Y-53795D02*
X58299Y-53795D01*
X59099Y-53795D02*
X59379Y-53795D01*
X60019Y-53795D02*
X60339Y-53795D01*
X60419Y-53795D02*
X60739Y-53795D01*
X60819Y-53795D02*
X61139Y-53795D01*
X61379Y-53795D02*
X61699Y-53795D01*
X61899Y-53795D02*
X62219Y-53795D01*
X62299Y-53795D02*
X62619Y-53795D01*
X63219Y-53795D02*
X63539Y-53795D01*
X63619Y-53795D02*
X63939Y-53795D01*
X64059Y-53795D02*
X65179Y-53795D01*
X65339Y-53795D02*
X66579Y-53795D01*
X66659Y-53795D02*
X66979Y-53795D01*
X67539Y-53795D02*
X67859Y-53795D01*
X54659Y-53805D02*
X55739Y-53805D01*
X55939Y-53805D02*
X56659Y-53805D01*
X56779Y-53805D02*
X56899Y-53805D01*
X57059Y-53805D02*
X57219Y-53805D01*
X57979Y-53805D02*
X58299Y-53805D01*
X59099Y-53805D02*
X59379Y-53805D01*
X60019Y-53805D02*
X60339Y-53805D01*
X60419Y-53805D02*
X60739Y-53805D01*
X60819Y-53805D02*
X61139Y-53805D01*
X61379Y-53805D02*
X61699Y-53805D01*
X61899Y-53805D02*
X62219Y-53805D01*
X62299Y-53805D02*
X62619Y-53805D01*
X63219Y-53805D02*
X63539Y-53805D01*
X63619Y-53805D02*
X63939Y-53805D01*
X64059Y-53805D02*
X65179Y-53805D01*
X65339Y-53805D02*
X66579Y-53805D01*
X66659Y-53805D02*
X66979Y-53805D01*
X67539Y-53805D02*
X67859Y-53805D01*
X54659Y-53815D02*
X55749Y-53815D01*
X55949Y-53815D02*
X56669Y-53815D01*
X56769Y-53815D02*
X56899Y-53815D01*
X57069Y-53815D02*
X57229Y-53815D01*
X57979Y-53815D02*
X58299Y-53815D01*
X59099Y-53815D02*
X59389Y-53815D01*
X60009Y-53815D02*
X60339Y-53815D01*
X60419Y-53815D02*
X60739Y-53815D01*
X60819Y-53815D02*
X61139Y-53815D01*
X61379Y-53815D02*
X61699Y-53815D01*
X61899Y-53815D02*
X62219Y-53815D01*
X62299Y-53815D02*
X62629Y-53815D01*
X63209Y-53815D02*
X63539Y-53815D01*
X63619Y-53815D02*
X63939Y-53815D01*
X64059Y-53815D02*
X65179Y-53815D01*
X65339Y-53815D02*
X66579Y-53815D01*
X66659Y-53815D02*
X66979Y-53815D01*
X67539Y-53815D02*
X67859Y-53815D01*
X54659Y-53825D02*
X55769Y-53825D01*
X55989Y-53825D02*
X56899Y-53825D01*
X57089Y-53825D02*
X57249Y-53825D01*
X57979Y-53825D02*
X58299Y-53825D01*
X59099Y-53825D02*
X60339Y-53825D01*
X60419Y-53825D02*
X60739Y-53825D01*
X60819Y-53825D02*
X61139Y-53825D01*
X61379Y-53825D02*
X61699Y-53825D01*
X61899Y-53825D02*
X62219Y-53825D01*
X62299Y-53825D02*
X63539Y-53825D01*
X63619Y-53825D02*
X63939Y-53825D01*
X64059Y-53825D02*
X65179Y-53825D01*
X65339Y-53825D02*
X66579Y-53825D01*
X66659Y-53825D02*
X66979Y-53825D01*
X67539Y-53825D02*
X67859Y-53825D01*
X54659Y-53835D02*
X55779Y-53835D01*
X56009Y-53835D02*
X56899Y-53835D01*
X57099Y-53835D02*
X57259Y-53835D01*
X57979Y-53835D02*
X58299Y-53835D01*
X59099Y-53835D02*
X60339Y-53835D01*
X60419Y-53835D02*
X60739Y-53835D01*
X60819Y-53835D02*
X61139Y-53835D01*
X61379Y-53835D02*
X61699Y-53835D01*
X61899Y-53835D02*
X62219Y-53835D01*
X62299Y-53835D02*
X63539Y-53835D01*
X63619Y-53835D02*
X63939Y-53835D01*
X64059Y-53835D02*
X65179Y-53835D01*
X65339Y-53835D02*
X66579Y-53835D01*
X66659Y-53835D02*
X66979Y-53835D01*
X67539Y-53835D02*
X67859Y-53835D01*
X54659Y-53845D02*
X55789Y-53845D01*
X56019Y-53845D02*
X56899Y-53845D01*
X57099Y-53845D02*
X57259Y-53845D01*
X57979Y-53845D02*
X58299Y-53845D01*
X59099Y-53845D02*
X60339Y-53845D01*
X60419Y-53845D02*
X60739Y-53845D01*
X60819Y-53845D02*
X61139Y-53845D01*
X61379Y-53845D02*
X61699Y-53845D01*
X61899Y-53845D02*
X62219Y-53845D01*
X62299Y-53845D02*
X63539Y-53845D01*
X63619Y-53845D02*
X63939Y-53845D01*
X64059Y-53845D02*
X65179Y-53845D01*
X65339Y-53845D02*
X66579Y-53845D01*
X66659Y-53845D02*
X66979Y-53845D01*
X67539Y-53845D02*
X67859Y-53845D01*
X54659Y-53855D02*
X55809Y-53855D01*
X56029Y-53855D02*
X56899Y-53855D01*
X57109Y-53855D02*
X57269Y-53855D01*
X57979Y-53855D02*
X58299Y-53855D01*
X59099Y-53855D02*
X60339Y-53855D01*
X60419Y-53855D02*
X60739Y-53855D01*
X60819Y-53855D02*
X61139Y-53855D01*
X61379Y-53855D02*
X61699Y-53855D01*
X61899Y-53855D02*
X62219Y-53855D01*
X62309Y-53855D02*
X63539Y-53855D01*
X63619Y-53855D02*
X63939Y-53855D01*
X64059Y-53855D02*
X65179Y-53855D01*
X65339Y-53855D02*
X66579Y-53855D01*
X66659Y-53855D02*
X66979Y-53855D01*
X67539Y-53855D02*
X67859Y-53855D01*
X54659Y-53865D02*
X55849Y-53865D01*
X56089Y-53865D02*
X56899Y-53865D01*
X57129Y-53865D02*
X57289Y-53865D01*
X57979Y-53865D02*
X58299Y-53865D01*
X59099Y-53865D02*
X60339Y-53865D01*
X60419Y-53865D02*
X60739Y-53865D01*
X60819Y-53865D02*
X61139Y-53865D01*
X61379Y-53865D02*
X61699Y-53865D01*
X61899Y-53865D02*
X62219Y-53865D01*
X62329Y-53865D02*
X63539Y-53865D01*
X63619Y-53865D02*
X63939Y-53865D01*
X64059Y-53865D02*
X65179Y-53865D01*
X65339Y-53865D02*
X66579Y-53865D01*
X66659Y-53865D02*
X66979Y-53865D01*
X67539Y-53865D02*
X67859Y-53865D01*
X54659Y-53875D02*
X55859Y-53875D01*
X56099Y-53875D02*
X56899Y-53875D01*
X57139Y-53875D02*
X57299Y-53875D01*
X57979Y-53875D02*
X58299Y-53875D01*
X59099Y-53875D02*
X60339Y-53875D01*
X60419Y-53875D02*
X60739Y-53875D01*
X60819Y-53875D02*
X61139Y-53875D01*
X61379Y-53875D02*
X61699Y-53875D01*
X61899Y-53875D02*
X62219Y-53875D01*
X62339Y-53875D02*
X63539Y-53875D01*
X63619Y-53875D02*
X63939Y-53875D01*
X64059Y-53875D02*
X65179Y-53875D01*
X65339Y-53875D02*
X66579Y-53875D01*
X66659Y-53875D02*
X66979Y-53875D01*
X67539Y-53875D02*
X67859Y-53875D01*
X54659Y-53885D02*
X55869Y-53885D01*
X56099Y-53885D02*
X56899Y-53885D01*
X57139Y-53885D02*
X57299Y-53885D01*
X57979Y-53885D02*
X58299Y-53885D01*
X59099Y-53885D02*
X60339Y-53885D01*
X60419Y-53885D02*
X60739Y-53885D01*
X60819Y-53885D02*
X61139Y-53885D01*
X61379Y-53885D02*
X61699Y-53885D01*
X61899Y-53885D02*
X62219Y-53885D01*
X62339Y-53885D02*
X63539Y-53885D01*
X63619Y-53885D02*
X63939Y-53885D01*
X64059Y-53885D02*
X65179Y-53885D01*
X65339Y-53885D02*
X66579Y-53885D01*
X66659Y-53885D02*
X66979Y-53885D01*
X67539Y-53885D02*
X67859Y-53885D01*
X54659Y-53895D02*
X55889Y-53895D01*
X56109Y-53895D02*
X56889Y-53895D01*
X57149Y-53895D02*
X57309Y-53895D01*
X57979Y-53895D02*
X58299Y-53895D01*
X59109Y-53895D02*
X60339Y-53895D01*
X60419Y-53895D02*
X60739Y-53895D01*
X60819Y-53895D02*
X61139Y-53895D01*
X61379Y-53895D02*
X61699Y-53895D01*
X61899Y-53895D02*
X62219Y-53895D01*
X62339Y-53895D02*
X63539Y-53895D01*
X63619Y-53895D02*
X63939Y-53895D01*
X64059Y-53895D02*
X65179Y-53895D01*
X65349Y-53895D02*
X66569Y-53895D01*
X66659Y-53895D02*
X66979Y-53895D01*
X67539Y-53895D02*
X67859Y-53895D01*
X54659Y-53905D02*
X55969Y-53905D01*
X56169Y-53905D02*
X56869Y-53905D01*
X57169Y-53905D02*
X57329Y-53905D01*
X57979Y-53905D02*
X58299Y-53905D01*
X59129Y-53905D02*
X60339Y-53905D01*
X60419Y-53905D02*
X60739Y-53905D01*
X60819Y-53905D02*
X61139Y-53905D01*
X61379Y-53905D02*
X61699Y-53905D01*
X61899Y-53905D02*
X62219Y-53905D01*
X62339Y-53905D02*
X63539Y-53905D01*
X63619Y-53905D02*
X63939Y-53905D01*
X64059Y-53905D02*
X65179Y-53905D01*
X65369Y-53905D02*
X66549Y-53905D01*
X66659Y-53905D02*
X66979Y-53905D01*
X67539Y-53905D02*
X67859Y-53905D01*
X54659Y-53915D02*
X55979Y-53915D01*
X56179Y-53915D02*
X56859Y-53915D01*
X57179Y-53915D02*
X57339Y-53915D01*
X57979Y-53915D02*
X58299Y-53915D01*
X59139Y-53915D02*
X60339Y-53915D01*
X60419Y-53915D02*
X60739Y-53915D01*
X60819Y-53915D02*
X61139Y-53915D01*
X61379Y-53915D02*
X61699Y-53915D01*
X61899Y-53915D02*
X62219Y-53915D01*
X62339Y-53915D02*
X63539Y-53915D01*
X63619Y-53915D02*
X63939Y-53915D01*
X64059Y-53915D02*
X65179Y-53915D01*
X65379Y-53915D02*
X66539Y-53915D01*
X66659Y-53915D02*
X66979Y-53915D01*
X67539Y-53915D02*
X67859Y-53915D01*
X54659Y-53925D02*
X55979Y-53925D01*
X56179Y-53925D02*
X56859Y-53925D01*
X57179Y-53925D02*
X57339Y-53925D01*
X57979Y-53925D02*
X58299Y-53925D01*
X59139Y-53925D02*
X60339Y-53925D01*
X60419Y-53925D02*
X60739Y-53925D01*
X60819Y-53925D02*
X61139Y-53925D01*
X61379Y-53925D02*
X61699Y-53925D01*
X61899Y-53925D02*
X62219Y-53925D01*
X62339Y-53925D02*
X63539Y-53925D01*
X63619Y-53925D02*
X63939Y-53925D01*
X64059Y-53925D02*
X65179Y-53925D01*
X65379Y-53925D02*
X66539Y-53925D01*
X66659Y-53925D02*
X66979Y-53925D01*
X67539Y-53925D02*
X67859Y-53925D01*
X54659Y-53935D02*
X55989Y-53935D01*
X56189Y-53935D02*
X56849Y-53935D01*
X57179Y-53935D02*
X57339Y-53935D01*
X57979Y-53935D02*
X58299Y-53935D01*
X59139Y-53935D02*
X60339Y-53935D01*
X60419Y-53935D02*
X60739Y-53935D01*
X60819Y-53935D02*
X61139Y-53935D01*
X61379Y-53935D02*
X61699Y-53935D01*
X61899Y-53935D02*
X62219Y-53935D01*
X62349Y-53935D02*
X63539Y-53935D01*
X63619Y-53935D02*
X63939Y-53935D01*
X64059Y-53935D02*
X65179Y-53935D01*
X65379Y-53935D02*
X66539Y-53935D01*
X66659Y-53935D02*
X66979Y-53935D01*
X67539Y-53935D02*
X67859Y-53935D01*
X54659Y-53945D02*
X56049Y-53945D01*
X56249Y-53945D02*
X56669Y-53945D01*
X57179Y-53945D02*
X57339Y-53945D01*
X57979Y-53945D02*
X58299Y-53945D01*
X59139Y-53945D02*
X60339Y-53945D01*
X60419Y-53945D02*
X60739Y-53945D01*
X60819Y-53945D02*
X61139Y-53945D01*
X61379Y-53945D02*
X61699Y-53945D01*
X61899Y-53945D02*
X62219Y-53945D01*
X62369Y-53945D02*
X63539Y-53945D01*
X63619Y-53945D02*
X63939Y-53945D01*
X64059Y-53945D02*
X65179Y-53945D01*
X65379Y-53945D02*
X66539Y-53945D01*
X66659Y-53945D02*
X66979Y-53945D01*
X67539Y-53945D02*
X67859Y-53945D01*
X54659Y-53955D02*
X56059Y-53955D01*
X56259Y-53955D02*
X56659Y-53955D01*
X57179Y-53955D02*
X57339Y-53955D01*
X57979Y-53955D02*
X58299Y-53955D01*
X59139Y-53955D02*
X60339Y-53955D01*
X60419Y-53955D02*
X60739Y-53955D01*
X60819Y-53955D02*
X61139Y-53955D01*
X61379Y-53955D02*
X61699Y-53955D01*
X61899Y-53955D02*
X62219Y-53955D01*
X62379Y-53955D02*
X63539Y-53955D01*
X63619Y-53955D02*
X63939Y-53955D01*
X64059Y-53955D02*
X65179Y-53955D01*
X65379Y-53955D02*
X66539Y-53955D01*
X66659Y-53955D02*
X66979Y-53955D01*
X67539Y-53955D02*
X67859Y-53955D01*
X54659Y-53965D02*
X56059Y-53965D01*
X56259Y-53965D02*
X56659Y-53965D01*
X57179Y-53965D02*
X57339Y-53965D01*
X57979Y-53965D02*
X58299Y-53965D01*
X59139Y-53965D02*
X60339Y-53965D01*
X60419Y-53965D02*
X60739Y-53965D01*
X60819Y-53965D02*
X61139Y-53965D01*
X61379Y-53965D02*
X61699Y-53965D01*
X61899Y-53965D02*
X62219Y-53965D01*
X62379Y-53965D02*
X63539Y-53965D01*
X63619Y-53965D02*
X63939Y-53965D01*
X64059Y-53965D02*
X65179Y-53965D01*
X65379Y-53965D02*
X66539Y-53965D01*
X66659Y-53965D02*
X66979Y-53965D01*
X67539Y-53965D02*
X67859Y-53965D01*
X54659Y-53975D02*
X56069Y-53975D01*
X56269Y-53975D02*
X56659Y-53975D01*
X57189Y-53975D02*
X57339Y-53975D01*
X57979Y-53975D02*
X58299Y-53975D01*
X59149Y-53975D02*
X60329Y-53975D01*
X60419Y-53975D02*
X60739Y-53975D01*
X60819Y-53975D02*
X61139Y-53975D01*
X61379Y-53975D02*
X61699Y-53975D01*
X61899Y-53975D02*
X62219Y-53975D01*
X62379Y-53975D02*
X63539Y-53975D01*
X63619Y-53975D02*
X63939Y-53975D01*
X64059Y-53975D02*
X65179Y-53975D01*
X65389Y-53975D02*
X66529Y-53975D01*
X66659Y-53975D02*
X66979Y-53975D01*
X67539Y-53975D02*
X67859Y-53975D01*
X54659Y-53985D02*
X56129Y-53985D01*
X56349Y-53985D02*
X56659Y-53985D01*
X57209Y-53985D02*
X57339Y-53985D01*
X57979Y-53985D02*
X58299Y-53985D01*
X59169Y-53985D02*
X60309Y-53985D01*
X60419Y-53985D02*
X60739Y-53985D01*
X60819Y-53985D02*
X61139Y-53985D01*
X61379Y-53985D02*
X61699Y-53985D01*
X61899Y-53985D02*
X62219Y-53985D01*
X62379Y-53985D02*
X63539Y-53985D01*
X63619Y-53985D02*
X63939Y-53985D01*
X64059Y-53985D02*
X65179Y-53985D01*
X65409Y-53985D02*
X66509Y-53985D01*
X66659Y-53985D02*
X66979Y-53985D01*
X67539Y-53985D02*
X67859Y-53985D01*
X54659Y-53995D02*
X56139Y-53995D01*
X56369Y-53995D02*
X56659Y-53995D01*
X57219Y-53995D02*
X57329Y-53995D01*
X57979Y-53995D02*
X58299Y-53995D01*
X59179Y-53995D02*
X60299Y-53995D01*
X60419Y-53995D02*
X60739Y-53995D01*
X60819Y-53995D02*
X61139Y-53995D01*
X61379Y-53995D02*
X61699Y-53995D01*
X61899Y-53995D02*
X62219Y-53995D01*
X62379Y-53995D02*
X63539Y-53995D01*
X63619Y-53995D02*
X63939Y-53995D01*
X64059Y-53995D02*
X65179Y-53995D01*
X65419Y-53995D02*
X66499Y-53995D01*
X66659Y-53995D02*
X66979Y-53995D01*
X67539Y-53995D02*
X67859Y-53995D01*
X54659Y-54005D02*
X56139Y-54005D01*
X56379Y-54005D02*
X56659Y-54005D01*
X57219Y-54005D02*
X57329Y-54005D01*
X57979Y-54005D02*
X58299Y-54005D01*
X59179Y-54005D02*
X60299Y-54005D01*
X60419Y-54005D02*
X60739Y-54005D01*
X60819Y-54005D02*
X61139Y-54005D01*
X61379Y-54005D02*
X61699Y-54005D01*
X61899Y-54005D02*
X62219Y-54005D01*
X62379Y-54005D02*
X63539Y-54005D01*
X63619Y-54005D02*
X63939Y-54005D01*
X64059Y-54005D02*
X65179Y-54005D01*
X65419Y-54005D02*
X66499Y-54005D01*
X66659Y-54005D02*
X66979Y-54005D01*
X67539Y-54005D02*
X67859Y-54005D01*
X54659Y-54015D02*
X56149Y-54015D01*
X56389Y-54015D02*
X56659Y-54015D01*
X57209Y-54015D02*
X57329Y-54015D01*
X57979Y-54015D02*
X58299Y-54015D01*
X59189Y-54015D02*
X60299Y-54015D01*
X60419Y-54015D02*
X60739Y-54015D01*
X60819Y-54015D02*
X61139Y-54015D01*
X61379Y-54015D02*
X61699Y-54015D01*
X61899Y-54015D02*
X62219Y-54015D01*
X62389Y-54015D02*
X63529Y-54015D01*
X63619Y-54015D02*
X63939Y-54015D01*
X64059Y-54015D02*
X65169Y-54015D01*
X65429Y-54015D02*
X66489Y-54015D01*
X66659Y-54015D02*
X66979Y-54015D01*
X67539Y-54015D02*
X67859Y-54015D01*
X54659Y-54025D02*
X56209Y-54025D01*
X56449Y-54025D02*
X56659Y-54025D01*
X57189Y-54025D02*
X57329Y-54025D01*
X57979Y-54025D02*
X58299Y-54025D01*
X59249Y-54025D02*
X60299Y-54025D01*
X60419Y-54025D02*
X60739Y-54025D01*
X60819Y-54025D02*
X61139Y-54025D01*
X61379Y-54025D02*
X61699Y-54025D01*
X61899Y-54025D02*
X62219Y-54025D01*
X62449Y-54025D02*
X63509Y-54025D01*
X63619Y-54025D02*
X63939Y-54025D01*
X64059Y-54025D02*
X65109Y-54025D01*
X65489Y-54025D02*
X66429Y-54025D01*
X66659Y-54025D02*
X66979Y-54025D01*
X67539Y-54025D02*
X67859Y-54025D01*
X54659Y-54035D02*
X56219Y-54035D01*
X56459Y-54035D02*
X56659Y-54035D01*
X57179Y-54035D02*
X57329Y-54035D01*
X57979Y-54035D02*
X58299Y-54035D01*
X59259Y-54035D02*
X60299Y-54035D01*
X60419Y-54035D02*
X60739Y-54035D01*
X60819Y-54035D02*
X61139Y-54035D01*
X61379Y-54035D02*
X61699Y-54035D01*
X61899Y-54035D02*
X62219Y-54035D01*
X62459Y-54035D02*
X63499Y-54035D01*
X63619Y-54035D02*
X63939Y-54035D01*
X64059Y-54035D02*
X65099Y-54035D01*
X65499Y-54035D02*
X66419Y-54035D01*
X66659Y-54035D02*
X66979Y-54035D01*
X67539Y-54035D02*
X67859Y-54035D01*
X54659Y-54045D02*
X56219Y-54045D01*
X56459Y-54045D02*
X56659Y-54045D01*
X57179Y-54045D02*
X57329Y-54045D01*
X57979Y-54045D02*
X58299Y-54045D01*
X59259Y-54045D02*
X60299Y-54045D01*
X60419Y-54045D02*
X60739Y-54045D01*
X60819Y-54045D02*
X61139Y-54045D01*
X61379Y-54045D02*
X61699Y-54045D01*
X61899Y-54045D02*
X62219Y-54045D01*
X62459Y-54045D02*
X63499Y-54045D01*
X63619Y-54045D02*
X63939Y-54045D01*
X64059Y-54045D02*
X65099Y-54045D01*
X65499Y-54045D02*
X66419Y-54045D01*
X66659Y-54045D02*
X66979Y-54045D01*
X67539Y-54045D02*
X67859Y-54045D01*
X54659Y-54055D02*
X56229Y-54055D01*
X56469Y-54055D02*
X56669Y-54055D01*
X57169Y-54055D02*
X57319Y-54055D01*
X57989Y-54055D02*
X58289Y-54055D01*
X59269Y-54055D02*
X60289Y-54055D01*
X60429Y-54055D02*
X60729Y-54055D01*
X60829Y-54055D02*
X61129Y-54055D01*
X61389Y-54055D02*
X61689Y-54055D01*
X61909Y-54055D02*
X62209Y-54055D01*
X62469Y-54055D02*
X63489Y-54055D01*
X63629Y-54055D02*
X63929Y-54055D01*
X64069Y-54055D02*
X65089Y-54055D01*
X65509Y-54055D02*
X66409Y-54055D01*
X66669Y-54055D02*
X66969Y-54055D01*
X67549Y-54055D02*
X67859Y-54055D01*
X54659Y-54065D02*
X55549Y-54065D01*
X55809Y-54065D02*
X56329Y-54065D01*
X56549Y-54065D02*
X56689Y-54065D01*
X57149Y-54065D02*
X57309Y-54065D01*
X54659Y-54075D02*
X55539Y-54075D01*
X55819Y-54075D02*
X56339Y-54075D01*
X56569Y-54075D02*
X56699Y-54075D01*
X57139Y-54075D02*
X57309Y-54075D01*
X54659Y-54085D02*
X55539Y-54085D01*
X55819Y-54085D02*
X56339Y-54085D01*
X56579Y-54085D02*
X56699Y-54085D01*
X57139Y-54085D02*
X57309Y-54085D01*
X54659Y-54095D02*
X55529Y-54095D01*
X55829Y-54095D02*
X56349Y-54095D01*
X56589Y-54095D02*
X56709Y-54095D01*
X57129Y-54095D02*
X57299Y-54095D01*
X54659Y-54105D02*
X55509Y-54105D01*
X55849Y-54105D02*
X56409Y-54105D01*
X56609Y-54105D02*
X56849Y-54105D01*
X57109Y-54105D02*
X57289Y-54105D01*
X54659Y-54115D02*
X55499Y-54115D01*
X55859Y-54115D02*
X56419Y-54115D01*
X56619Y-54115D02*
X56859Y-54115D01*
X57099Y-54115D02*
X57279Y-54115D01*
X54659Y-54125D02*
X55499Y-54125D01*
X55859Y-54125D02*
X56429Y-54125D01*
X56619Y-54125D02*
X56859Y-54125D01*
X57099Y-54125D02*
X57269Y-54125D01*
X54659Y-54135D02*
X55499Y-54135D01*
X55859Y-54135D02*
X56449Y-54135D01*
X56619Y-54135D02*
X56869Y-54135D01*
X57089Y-54135D02*
X57269Y-54135D01*
X54659Y-54145D02*
X55499Y-54145D01*
X55859Y-54145D02*
X56529Y-54145D01*
X56619Y-54145D02*
X57259Y-54145D01*
X54659Y-54155D02*
X55499Y-54155D01*
X55859Y-54155D02*
X56539Y-54155D01*
X56619Y-54155D02*
X57249Y-54155D01*
X54659Y-54165D02*
X55499Y-54165D01*
X55859Y-54165D02*
X56549Y-54165D01*
X56619Y-54165D02*
X57239Y-54165D01*
X54659Y-54175D02*
X55499Y-54175D01*
X55859Y-54175D02*
X56569Y-54175D01*
X56609Y-54175D02*
X57229Y-54175D01*
X54659Y-54185D02*
X55499Y-54185D01*
X55859Y-54185D02*
X57219Y-54185D01*
X54659Y-54195D02*
X55499Y-54195D01*
X55859Y-54195D02*
X57209Y-54195D01*
X54659Y-54205D02*
X55499Y-54205D01*
X55859Y-54205D02*
X57209Y-54205D01*
X54659Y-54215D02*
X55499Y-54215D01*
X55859Y-54215D02*
X57199Y-54215D01*
X54659Y-54225D02*
X55499Y-54225D01*
X55859Y-54225D02*
X57189Y-54225D01*
X54659Y-54235D02*
X55499Y-54235D01*
X55859Y-54235D02*
X57179Y-54235D01*
X54659Y-54245D02*
X55499Y-54245D01*
X55859Y-54245D02*
X57169Y-54245D01*
X54659Y-54255D02*
X55499Y-54255D01*
X55859Y-54255D02*
X57159Y-54255D01*
X54659Y-54265D02*
X55499Y-54265D01*
X55859Y-54265D02*
X56669Y-54265D01*
X54659Y-54275D02*
X55499Y-54275D01*
X55859Y-54275D02*
X56659Y-54275D01*
X54659Y-54285D02*
X55499Y-54285D01*
X55859Y-54285D02*
X56659Y-54285D01*
X54659Y-54295D02*
X55499Y-54295D01*
X55859Y-54295D02*
X56659Y-54295D01*
X54659Y-54305D02*
X55499Y-54305D01*
X55859Y-54305D02*
X56659Y-54305D01*
X54659Y-54315D02*
X55499Y-54315D01*
X55859Y-54315D02*
X56659Y-54315D01*
X54659Y-54325D02*
X55499Y-54325D01*
X55859Y-54325D02*
X56659Y-54325D01*
X54659Y-54335D02*
X55499Y-54335D01*
X55859Y-54335D02*
X56659Y-54335D01*
X54659Y-54345D02*
X55499Y-54345D01*
X55859Y-54345D02*
X56659Y-54345D01*
X54659Y-54355D02*
X55499Y-54355D01*
X55859Y-54355D02*
X56659Y-54355D01*
X54659Y-54365D02*
X55499Y-54365D01*
X55859Y-54365D02*
X56659Y-54365D01*
X54659Y-54375D02*
X55499Y-54375D01*
X55859Y-54375D02*
X56659Y-54375D01*
X54659Y-54385D02*
X55499Y-54385D01*
X55859Y-54385D02*
X56659Y-54385D01*
X54659Y-54395D02*
X55499Y-54395D01*
X55859Y-54395D02*
X56659Y-54395D01*
X54659Y-54405D02*
X55499Y-54405D01*
X55859Y-54405D02*
X56659Y-54405D01*
X54669Y-54415D02*
X55499Y-54415D01*
X55859Y-54415D02*
X56659Y-54415D01*
X54689Y-54425D02*
X55499Y-54425D01*
X55859Y-54425D02*
X56659Y-54425D01*
X54699Y-54435D02*
X55499Y-54435D01*
X55859Y-54435D02*
X56659Y-54435D01*
X54699Y-54445D02*
X55499Y-54445D01*
X55859Y-54445D02*
X56659Y-54445D01*
X54709Y-54455D02*
X55489Y-54455D01*
X55869Y-54455D02*
X56649Y-54455D01*
G54D18*
X69255Y-54220D02*
X69255Y-50220D01*
X70255Y-54220D02*
X70255Y-50220D01*
X70255Y-50220D02*
X69255Y-50220D01*
X69255Y-54220D02*
X70255Y-54220D01*
G54D10*
X44291Y-22179D02*
X44291Y-23549D01*
X40748Y-22179D02*
X40748Y-23549D01*
X44291Y-25471D02*
X44291Y-24599D01*
X40748Y-25471D02*
X40748Y-24599D01*
X40748Y-25471D02*
X44291Y-25471D01*
X40748Y-19684D02*
X40748Y-21129D01*
X44291Y-19684D02*
X44291Y-21129D01*
X40748Y-19684D02*
X44291Y-19684D01*
G54D13*
X53045Y-49558D02*
X52225Y-49558D01*
X53045Y-49558D02*
X53045Y-50478D01*
X47845Y-49558D02*
X48665Y-49558D01*
X47845Y-49558D02*
X47845Y-50478D01*
X47845Y-55118D02*
X47845Y-51638D01*
X47845Y-55118D02*
X53045Y-55118D01*
X53045Y-55118D02*
X53045Y-51638D01*
G54D11*
X45523Y-53482D02*
X45523Y-52582D01*
X45523Y-52582D02*
X46023Y-52582D01*
X46023Y-52582D02*
X46023Y-53482D01*
X46023Y-53482D02*
X45523Y-53482D01*
X69905Y-50086D02*
X69005Y-50086D01*
X69005Y-50086D02*
X69005Y-49586D01*
X69005Y-49586D02*
X69905Y-49586D01*
X69905Y-49586D02*
X69905Y-50086D01*
X47862Y-48590D02*
X48762Y-48590D01*
X48762Y-48590D02*
X48762Y-49090D01*
X48762Y-49090D02*
X47862Y-49090D01*
X47862Y-49090D02*
X47862Y-48590D01*
X58346Y-50618D02*
X59246Y-50618D01*
X59246Y-50618D02*
X59246Y-51118D01*
X59246Y-51118D02*
X58346Y-51118D01*
X58346Y-51118D02*
X58346Y-50618D01*
X39942Y-25441D02*
X39927Y-25455D01*
X39884Y-25469D01*
X39856Y-25469D01*
X39813Y-25455D01*
X39784Y-25426D01*
X39770Y-25398D01*
X39756Y-25341D01*
X39756Y-25298D01*
X39770Y-25241D01*
X39784Y-25212D01*
X39813Y-25184D01*
X39856Y-25169D01*
X39884Y-25169D01*
X39927Y-25184D01*
X39942Y-25198D01*
X40227Y-25469D02*
X40056Y-25469D01*
X40142Y-25469D02*
X40142Y-25169D01*
X40113Y-25212D01*
X40084Y-25241D01*
X40056Y-25255D01*
X44650Y-25407D02*
X44635Y-25421D01*
X44592Y-25435D01*
X44564Y-25435D01*
X44521Y-25421D01*
X44492Y-25392D01*
X44478Y-25364D01*
X44464Y-25307D01*
X44464Y-25264D01*
X44478Y-25207D01*
X44492Y-25178D01*
X44521Y-25150D01*
X44564Y-25135D01*
X44592Y-25135D01*
X44635Y-25150D01*
X44650Y-25164D01*
X44764Y-25164D02*
X44778Y-25150D01*
X44807Y-25135D01*
X44878Y-25135D01*
X44907Y-25150D01*
X44921Y-25164D01*
X44935Y-25192D01*
X44935Y-25221D01*
X44921Y-25264D01*
X44750Y-25435D01*
X44935Y-25435D01*
G54D13*
X40021Y-27784D02*
X40035Y-27798D01*
X40049Y-27841D01*
X40049Y-27869D01*
X40035Y-27912D01*
X40006Y-27941D01*
X39978Y-27955D01*
X39921Y-27969D01*
X39878Y-27969D01*
X39821Y-27955D01*
X39792Y-27941D01*
X39764Y-27912D01*
X39749Y-27869D01*
X39749Y-27841D01*
X39764Y-27798D01*
X39778Y-27784D01*
X39749Y-27684D02*
X39749Y-27498D01*
X39864Y-27598D01*
X39864Y-27555D01*
X39878Y-27526D01*
X39892Y-27512D01*
X39921Y-27498D01*
X39992Y-27498D01*
X40021Y-27512D01*
X40035Y-27526D01*
X40049Y-27555D01*
X40049Y-27641D01*
X40035Y-27669D01*
X40021Y-27684D01*
G54D11*
X40760Y-42947D02*
X40745Y-42961D01*
X40702Y-42975D01*
X40674Y-42975D01*
X40631Y-42961D01*
X40602Y-42932D01*
X40588Y-42904D01*
X40574Y-42847D01*
X40574Y-42804D01*
X40588Y-42747D01*
X40602Y-42718D01*
X40631Y-42690D01*
X40674Y-42675D01*
X40702Y-42675D01*
X40745Y-42690D01*
X40760Y-42704D01*
X41017Y-42775D02*
X41017Y-42975D01*
X40945Y-42661D02*
X40874Y-42875D01*
X41060Y-42875D01*
G54D13*
X39973Y-32219D02*
X39673Y-32219D01*
X39673Y-32148D01*
X39688Y-32105D01*
X39716Y-32076D01*
X39745Y-32062D01*
X39802Y-32048D01*
X39845Y-32048D01*
X39902Y-32062D01*
X39930Y-32076D01*
X39959Y-32105D01*
X39973Y-32148D01*
X39973Y-32219D01*
X39973Y-31762D02*
X39973Y-31933D01*
X39973Y-31848D02*
X39673Y-31848D01*
X39716Y-31876D01*
X39745Y-31905D01*
X39759Y-31933D01*
X43231Y-41603D02*
X43088Y-41603D01*
X43088Y-41303D01*
X43488Y-41603D02*
X43316Y-41603D01*
X43402Y-41603D02*
X43402Y-41303D01*
X43373Y-41346D01*
X43345Y-41375D01*
X43316Y-41389D01*
X44633Y-38740D02*
X44490Y-38840D01*
X44633Y-38911D02*
X44333Y-38911D01*
X44333Y-38797D01*
X44348Y-38768D01*
X44362Y-38754D01*
X44390Y-38740D01*
X44433Y-38740D01*
X44462Y-38754D01*
X44476Y-38768D01*
X44490Y-38797D01*
X44490Y-38911D01*
X44633Y-38454D02*
X44633Y-38625D01*
X44633Y-38540D02*
X44333Y-38540D01*
X44376Y-38568D01*
X44405Y-38597D01*
X44419Y-38625D01*
X44662Y-38245D02*
X44562Y-38102D01*
X44490Y-38245D02*
X44490Y-37945D01*
X44604Y-37945D01*
X44633Y-37960D01*
X44647Y-37974D01*
X44662Y-38002D01*
X44662Y-38045D01*
X44647Y-38074D01*
X44633Y-38088D01*
X44604Y-38102D01*
X44490Y-38102D01*
X44776Y-37974D02*
X44790Y-37960D01*
X44819Y-37945D01*
X44890Y-37945D01*
X44919Y-37960D01*
X44933Y-37974D01*
X44947Y-38002D01*
X44947Y-38031D01*
X44933Y-38074D01*
X44762Y-38245D01*
X44947Y-38245D01*
G54D15*
X46136Y-37187D02*
X46136Y-37673D01*
X46165Y-37730D01*
X46194Y-37758D01*
X46251Y-37787D01*
X46365Y-37787D01*
X46422Y-37758D01*
X46451Y-37730D01*
X46479Y-37673D01*
X46479Y-37187D01*
X47079Y-37787D02*
X46736Y-37787D01*
X46908Y-37787D02*
X46908Y-37187D01*
X46851Y-37273D01*
X46794Y-37330D01*
X46736Y-37358D01*
G54D14*
X45277Y-21536D02*
X45706Y-21536D01*
X45792Y-21564D01*
X45849Y-21621D01*
X45877Y-21707D01*
X45877Y-21764D01*
X45334Y-21278D02*
X45306Y-21250D01*
X45277Y-21193D01*
X45277Y-21050D01*
X45306Y-20993D01*
X45334Y-20964D01*
X45392Y-20936D01*
X45449Y-20936D01*
X45534Y-20964D01*
X45877Y-21307D01*
X45877Y-20936D01*
X54135Y-21536D02*
X54564Y-21536D01*
X54650Y-21564D01*
X54707Y-21621D01*
X54735Y-21707D01*
X54735Y-21764D01*
X54135Y-21307D02*
X54135Y-20936D01*
X54364Y-21136D01*
X54364Y-21050D01*
X54393Y-20993D01*
X54421Y-20964D01*
X54478Y-20936D01*
X54621Y-20936D01*
X54678Y-20964D01*
X54707Y-20993D01*
X54735Y-21050D01*
X54735Y-21221D01*
X54707Y-21278D01*
X54678Y-21307D01*
G54D13*
X49092Y-31071D02*
X49263Y-31071D01*
X49177Y-31371D02*
X49177Y-31071D01*
X49520Y-31371D02*
X49349Y-31371D01*
X49434Y-31371D02*
X49434Y-31071D01*
X49406Y-31114D01*
X49377Y-31143D01*
X49349Y-31157D01*
X49706Y-31071D02*
X49734Y-31071D01*
X49763Y-31086D01*
X49777Y-31100D01*
X49792Y-31128D01*
X49806Y-31186D01*
X49806Y-31257D01*
X49792Y-31314D01*
X49777Y-31343D01*
X49763Y-31357D01*
X49734Y-31371D01*
X49706Y-31371D01*
X49677Y-31357D01*
X49663Y-31343D01*
X49649Y-31314D01*
X49634Y-31257D01*
X49634Y-31186D01*
X49649Y-31128D01*
X49663Y-31100D01*
X49677Y-31086D01*
X49706Y-31071D01*
X49992Y-31071D02*
X50020Y-31071D01*
X50049Y-31086D01*
X50063Y-31100D01*
X50077Y-31128D01*
X50092Y-31186D01*
X50092Y-31257D01*
X50077Y-31314D01*
X50063Y-31343D01*
X50049Y-31357D01*
X50020Y-31371D01*
X49992Y-31371D01*
X49963Y-31357D01*
X49949Y-31343D01*
X49934Y-31314D01*
X49920Y-31257D01*
X49920Y-31186D01*
X49934Y-31128D01*
X49949Y-31100D01*
X49963Y-31086D01*
X49992Y-31071D01*
X46243Y-30613D02*
X46257Y-30628D01*
X46271Y-30670D01*
X46271Y-30699D01*
X46257Y-30742D01*
X46228Y-30770D01*
X46200Y-30785D01*
X46143Y-30799D01*
X46100Y-30799D01*
X46043Y-30785D01*
X46014Y-30770D01*
X45986Y-30742D01*
X45971Y-30699D01*
X45971Y-30670D01*
X45986Y-30628D01*
X46000Y-30613D01*
X46271Y-30328D02*
X46271Y-30499D01*
X46271Y-30413D02*
X45971Y-30413D01*
X46014Y-30442D01*
X46043Y-30470D01*
X46057Y-30499D01*
X45971Y-30142D02*
X45971Y-30113D01*
X45986Y-30085D01*
X46000Y-30070D01*
X46028Y-30056D01*
X46086Y-30042D01*
X46157Y-30042D01*
X46214Y-30056D01*
X46243Y-30070D01*
X46257Y-30085D01*
X46271Y-30113D01*
X46271Y-30142D01*
X46257Y-30170D01*
X46243Y-30185D01*
X46214Y-30199D01*
X46157Y-30213D01*
X46086Y-30213D01*
X46028Y-30199D01*
X46000Y-30185D01*
X45986Y-30170D01*
X45971Y-30142D01*
X46271Y-29756D02*
X46271Y-29928D01*
X46271Y-29842D02*
X45971Y-29842D01*
X46014Y-29870D01*
X46043Y-29899D01*
X46057Y-29928D01*
X53229Y-30493D02*
X53243Y-30508D01*
X53257Y-30550D01*
X53257Y-30579D01*
X53243Y-30622D01*
X53214Y-30650D01*
X53186Y-30665D01*
X53129Y-30679D01*
X53086Y-30679D01*
X53029Y-30665D01*
X53000Y-30650D01*
X52972Y-30622D01*
X52957Y-30579D01*
X52957Y-30550D01*
X52972Y-30508D01*
X52986Y-30493D01*
X53257Y-30208D02*
X53257Y-30379D01*
X53257Y-30293D02*
X52957Y-30293D01*
X53000Y-30322D01*
X53029Y-30350D01*
X53043Y-30379D01*
X52957Y-30022D02*
X52957Y-29993D01*
X52972Y-29965D01*
X52986Y-29950D01*
X53014Y-29936D01*
X53072Y-29922D01*
X53143Y-29922D01*
X53200Y-29936D01*
X53229Y-29950D01*
X53243Y-29965D01*
X53257Y-29993D01*
X53257Y-30022D01*
X53243Y-30050D01*
X53229Y-30065D01*
X53200Y-30079D01*
X53143Y-30093D01*
X53072Y-30093D01*
X53014Y-30079D01*
X52986Y-30065D01*
X52972Y-30050D01*
X52957Y-30022D01*
X52986Y-29808D02*
X52972Y-29793D01*
X52957Y-29765D01*
X52957Y-29693D01*
X52972Y-29665D01*
X52986Y-29650D01*
X53014Y-29636D01*
X53043Y-29636D01*
X53086Y-29650D01*
X53257Y-29822D01*
X53257Y-29636D01*
X46271Y-29397D02*
X46271Y-29540D01*
X45971Y-29540D01*
X46271Y-29140D02*
X46271Y-29311D01*
X46271Y-29226D02*
X45971Y-29226D01*
X46014Y-29254D01*
X46043Y-29283D01*
X46057Y-29311D01*
X45971Y-28954D02*
X45971Y-28926D01*
X45986Y-28897D01*
X46000Y-28883D01*
X46028Y-28869D01*
X46086Y-28854D01*
X46157Y-28854D01*
X46214Y-28869D01*
X46243Y-28883D01*
X46257Y-28897D01*
X46271Y-28926D01*
X46271Y-28954D01*
X46257Y-28983D01*
X46243Y-28997D01*
X46214Y-29011D01*
X46157Y-29026D01*
X46086Y-29026D01*
X46028Y-29011D01*
X46000Y-28997D01*
X45986Y-28983D01*
X45971Y-28954D01*
X46271Y-28569D02*
X46271Y-28740D01*
X46271Y-28654D02*
X45971Y-28654D01*
X46014Y-28683D01*
X46043Y-28712D01*
X46057Y-28740D01*
X53257Y-28211D02*
X53114Y-28311D01*
X53257Y-28383D02*
X52957Y-28383D01*
X52957Y-28268D01*
X52972Y-28240D01*
X52986Y-28226D01*
X53014Y-28211D01*
X53057Y-28211D01*
X53086Y-28226D01*
X53100Y-28240D01*
X53114Y-28268D01*
X53114Y-28383D01*
X53257Y-27926D02*
X53257Y-28097D01*
X53257Y-28011D02*
X52957Y-28011D01*
X53000Y-28040D01*
X53029Y-28068D01*
X53043Y-28097D01*
X52957Y-27740D02*
X52957Y-27711D01*
X52972Y-27683D01*
X52986Y-27668D01*
X53014Y-27654D01*
X53072Y-27640D01*
X53143Y-27640D01*
X53200Y-27654D01*
X53229Y-27668D01*
X53243Y-27683D01*
X53257Y-27711D01*
X53257Y-27740D01*
X53243Y-27768D01*
X53229Y-27783D01*
X53200Y-27797D01*
X53143Y-27811D01*
X53072Y-27811D01*
X53014Y-27797D01*
X52986Y-27783D01*
X52972Y-27768D01*
X52957Y-27740D01*
X53257Y-27354D02*
X53257Y-27526D01*
X53257Y-27440D02*
X52957Y-27440D01*
X53000Y-27468D01*
X53029Y-27497D01*
X53043Y-27526D01*
X46271Y-28211D02*
X46128Y-28311D01*
X46271Y-28383D02*
X45971Y-28383D01*
X45971Y-28268D01*
X45986Y-28240D01*
X46000Y-28226D01*
X46028Y-28211D01*
X46071Y-28211D01*
X46100Y-28226D01*
X46114Y-28240D01*
X46128Y-28268D01*
X46128Y-28383D01*
X46271Y-27926D02*
X46271Y-28097D01*
X46271Y-28011D02*
X45971Y-28011D01*
X46014Y-28040D01*
X46043Y-28068D01*
X46057Y-28097D01*
X45971Y-27740D02*
X45971Y-27711D01*
X45986Y-27683D01*
X46000Y-27668D01*
X46028Y-27654D01*
X46086Y-27640D01*
X46157Y-27640D01*
X46214Y-27654D01*
X46243Y-27668D01*
X46257Y-27683D01*
X46271Y-27711D01*
X46271Y-27740D01*
X46257Y-27768D01*
X46243Y-27783D01*
X46214Y-27797D01*
X46157Y-27811D01*
X46086Y-27811D01*
X46028Y-27797D01*
X46000Y-27783D01*
X45986Y-27768D01*
X45971Y-27740D01*
X46000Y-27526D02*
X45986Y-27511D01*
X45971Y-27483D01*
X45971Y-27411D01*
X45986Y-27383D01*
X46000Y-27368D01*
X46028Y-27354D01*
X46057Y-27354D01*
X46100Y-27368D01*
X46271Y-27540D01*
X46271Y-27354D01*
G54D14*
X70061Y-21536D02*
X70490Y-21536D01*
X70575Y-21564D01*
X70632Y-21621D01*
X70661Y-21707D01*
X70661Y-21764D01*
X70261Y-20993D02*
X70661Y-20993D01*
X70032Y-21136D02*
X70461Y-21278D01*
X70461Y-20907D01*
G54D13*
X57950Y-31071D02*
X58121Y-31071D01*
X58035Y-31371D02*
X58035Y-31071D01*
X58207Y-31100D02*
X58221Y-31086D01*
X58250Y-31071D01*
X58321Y-31071D01*
X58350Y-31086D01*
X58364Y-31100D01*
X58378Y-31128D01*
X58378Y-31157D01*
X58364Y-31200D01*
X58193Y-31371D01*
X58378Y-31371D01*
X58564Y-31071D02*
X58593Y-31071D01*
X58621Y-31086D01*
X58635Y-31100D01*
X58650Y-31128D01*
X58664Y-31186D01*
X58664Y-31257D01*
X58650Y-31314D01*
X58635Y-31343D01*
X58621Y-31357D01*
X58593Y-31371D01*
X58564Y-31371D01*
X58535Y-31357D01*
X58521Y-31343D01*
X58507Y-31314D01*
X58493Y-31257D01*
X58493Y-31186D01*
X58507Y-31128D01*
X58521Y-31100D01*
X58535Y-31086D01*
X58564Y-31071D01*
X58850Y-31071D02*
X58878Y-31071D01*
X58907Y-31086D01*
X58921Y-31100D01*
X58935Y-31128D01*
X58950Y-31186D01*
X58950Y-31257D01*
X58935Y-31314D01*
X58921Y-31343D01*
X58907Y-31357D01*
X58878Y-31371D01*
X58850Y-31371D01*
X58821Y-31357D01*
X58807Y-31343D01*
X58793Y-31314D01*
X58778Y-31257D01*
X58778Y-31186D01*
X58793Y-31128D01*
X58807Y-31100D01*
X58821Y-31086D01*
X58850Y-31071D01*
G54D19*
X66145Y-31126D02*
X66280Y-31126D01*
X66212Y-31362D02*
X66212Y-31126D01*
X66336Y-31126D02*
X66482Y-31126D01*
X66403Y-31216D01*
X66437Y-31216D01*
X66460Y-31227D01*
X66471Y-31239D01*
X66482Y-31261D01*
X66482Y-31317D01*
X66471Y-31340D01*
X66460Y-31351D01*
X66437Y-31362D01*
X66370Y-31362D01*
X66347Y-31351D01*
X66336Y-31340D01*
X66628Y-31126D02*
X66651Y-31126D01*
X66673Y-31138D01*
X66684Y-31149D01*
X66696Y-31171D01*
X66707Y-31216D01*
X66707Y-31272D01*
X66696Y-31317D01*
X66684Y-31340D01*
X66673Y-31351D01*
X66651Y-31362D01*
X66628Y-31362D01*
X66606Y-31351D01*
X66594Y-31340D01*
X66583Y-31317D01*
X66572Y-31272D01*
X66572Y-31216D01*
X66583Y-31171D01*
X66594Y-31149D01*
X66606Y-31138D01*
X66628Y-31126D01*
X66853Y-31126D02*
X66875Y-31126D01*
X66898Y-31138D01*
X66909Y-31149D01*
X66920Y-31171D01*
X66932Y-31216D01*
X66932Y-31272D01*
X66920Y-31317D01*
X66909Y-31340D01*
X66898Y-31351D01*
X66875Y-31362D01*
X66853Y-31362D01*
X66830Y-31351D01*
X66819Y-31340D01*
X66808Y-31317D01*
X66797Y-31272D01*
X66797Y-31216D01*
X66808Y-31171D01*
X66819Y-31149D01*
X66830Y-31138D01*
X66853Y-31126D01*
G54D13*
X55055Y-30613D02*
X55069Y-30628D01*
X55083Y-30670D01*
X55083Y-30699D01*
X55069Y-30742D01*
X55040Y-30770D01*
X55012Y-30785D01*
X54955Y-30799D01*
X54912Y-30799D01*
X54855Y-30785D01*
X54826Y-30770D01*
X54798Y-30742D01*
X54783Y-30699D01*
X54783Y-30670D01*
X54798Y-30628D01*
X54812Y-30613D01*
X54812Y-30499D02*
X54798Y-30485D01*
X54783Y-30456D01*
X54783Y-30385D01*
X54798Y-30356D01*
X54812Y-30342D01*
X54840Y-30328D01*
X54869Y-30328D01*
X54912Y-30342D01*
X55083Y-30513D01*
X55083Y-30328D01*
X54783Y-30142D02*
X54783Y-30113D01*
X54798Y-30085D01*
X54812Y-30070D01*
X54840Y-30056D01*
X54898Y-30042D01*
X54969Y-30042D01*
X55026Y-30056D01*
X55055Y-30070D01*
X55069Y-30085D01*
X55083Y-30113D01*
X55083Y-30142D01*
X55069Y-30170D01*
X55055Y-30185D01*
X55026Y-30199D01*
X54969Y-30213D01*
X54898Y-30213D01*
X54840Y-30199D01*
X54812Y-30185D01*
X54798Y-30170D01*
X54783Y-30142D01*
X55083Y-29756D02*
X55083Y-29928D01*
X55083Y-29842D02*
X54783Y-29842D01*
X54826Y-29870D01*
X54855Y-29899D01*
X54869Y-29928D01*
X62087Y-30493D02*
X62101Y-30508D01*
X62115Y-30550D01*
X62115Y-30579D01*
X62101Y-30622D01*
X62072Y-30650D01*
X62044Y-30665D01*
X61987Y-30679D01*
X61944Y-30679D01*
X61887Y-30665D01*
X61858Y-30650D01*
X61830Y-30622D01*
X61815Y-30579D01*
X61815Y-30550D01*
X61830Y-30508D01*
X61844Y-30493D01*
X61844Y-30379D02*
X61830Y-30365D01*
X61815Y-30336D01*
X61815Y-30265D01*
X61830Y-30236D01*
X61844Y-30222D01*
X61872Y-30208D01*
X61901Y-30208D01*
X61944Y-30222D01*
X62115Y-30393D01*
X62115Y-30208D01*
X61815Y-30022D02*
X61815Y-29993D01*
X61830Y-29965D01*
X61844Y-29950D01*
X61872Y-29936D01*
X61930Y-29922D01*
X62001Y-29922D01*
X62058Y-29936D01*
X62087Y-29950D01*
X62101Y-29965D01*
X62115Y-29993D01*
X62115Y-30022D01*
X62101Y-30050D01*
X62087Y-30065D01*
X62058Y-30079D01*
X62001Y-30093D01*
X61930Y-30093D01*
X61872Y-30079D01*
X61844Y-30065D01*
X61830Y-30050D01*
X61815Y-30022D01*
X61844Y-29808D02*
X61830Y-29793D01*
X61815Y-29765D01*
X61815Y-29693D01*
X61830Y-29665D01*
X61844Y-29650D01*
X61872Y-29636D01*
X61901Y-29636D01*
X61944Y-29650D01*
X62115Y-29822D01*
X62115Y-29636D01*
X62981Y-30613D02*
X62995Y-30628D01*
X63009Y-30670D01*
X63009Y-30699D01*
X62995Y-30742D01*
X62966Y-30770D01*
X62938Y-30785D01*
X62881Y-30799D01*
X62838Y-30799D01*
X62781Y-30785D01*
X62752Y-30770D01*
X62724Y-30742D01*
X62709Y-30699D01*
X62709Y-30670D01*
X62724Y-30628D01*
X62738Y-30613D01*
X62709Y-30513D02*
X62709Y-30328D01*
X62824Y-30428D01*
X62824Y-30385D01*
X62838Y-30356D01*
X62852Y-30342D01*
X62881Y-30328D01*
X62952Y-30328D01*
X62981Y-30342D01*
X62995Y-30356D01*
X63009Y-30385D01*
X63009Y-30470D01*
X62995Y-30499D01*
X62981Y-30513D01*
X62709Y-30142D02*
X62709Y-30113D01*
X62724Y-30085D01*
X62738Y-30070D01*
X62766Y-30056D01*
X62824Y-30042D01*
X62895Y-30042D01*
X62952Y-30056D01*
X62981Y-30070D01*
X62995Y-30085D01*
X63009Y-30113D01*
X63009Y-30142D01*
X62995Y-30170D01*
X62981Y-30185D01*
X62952Y-30199D01*
X62895Y-30213D01*
X62824Y-30213D01*
X62766Y-30199D01*
X62738Y-30185D01*
X62724Y-30170D01*
X62709Y-30142D01*
X63009Y-29756D02*
X63009Y-29928D01*
X63009Y-29842D02*
X62709Y-29842D01*
X62752Y-29870D01*
X62781Y-29899D01*
X62795Y-29928D01*
X70013Y-30493D02*
X70027Y-30508D01*
X70041Y-30550D01*
X70041Y-30579D01*
X70027Y-30622D01*
X69998Y-30650D01*
X69970Y-30665D01*
X69913Y-30679D01*
X69870Y-30679D01*
X69813Y-30665D01*
X69784Y-30650D01*
X69756Y-30622D01*
X69741Y-30579D01*
X69741Y-30550D01*
X69756Y-30508D01*
X69770Y-30493D01*
X69741Y-30393D02*
X69741Y-30208D01*
X69856Y-30308D01*
X69856Y-30265D01*
X69870Y-30236D01*
X69884Y-30222D01*
X69913Y-30208D01*
X69984Y-30208D01*
X70013Y-30222D01*
X70027Y-30236D01*
X70041Y-30265D01*
X70041Y-30350D01*
X70027Y-30379D01*
X70013Y-30393D01*
X69741Y-30022D02*
X69741Y-29993D01*
X69756Y-29965D01*
X69770Y-29950D01*
X69798Y-29936D01*
X69856Y-29922D01*
X69927Y-29922D01*
X69984Y-29936D01*
X70013Y-29950D01*
X70027Y-29965D01*
X70041Y-29993D01*
X70041Y-30022D01*
X70027Y-30050D01*
X70013Y-30065D01*
X69984Y-30079D01*
X69927Y-30093D01*
X69856Y-30093D01*
X69798Y-30079D01*
X69770Y-30065D01*
X69756Y-30050D01*
X69741Y-30022D01*
X69770Y-29808D02*
X69756Y-29793D01*
X69741Y-29765D01*
X69741Y-29693D01*
X69756Y-29665D01*
X69770Y-29650D01*
X69798Y-29636D01*
X69827Y-29636D01*
X69870Y-29650D01*
X70041Y-29822D01*
X70041Y-29636D01*
G54D14*
X42594Y-31935D02*
X42594Y-31635D01*
X42708Y-31635D01*
X42737Y-31650D01*
X42751Y-31664D01*
X42766Y-31692D01*
X42766Y-31735D01*
X42751Y-31764D01*
X42737Y-31778D01*
X42708Y-31792D01*
X42594Y-31792D01*
X43051Y-31935D02*
X42880Y-31935D01*
X42966Y-31935D02*
X42966Y-31635D01*
X42937Y-31678D01*
X42908Y-31707D01*
X42880Y-31721D01*
G54D13*
X45760Y-39405D02*
X45745Y-39419D01*
X45702Y-39433D01*
X45674Y-39433D01*
X45631Y-39419D01*
X45602Y-39390D01*
X45588Y-39362D01*
X45574Y-39305D01*
X45574Y-39262D01*
X45588Y-39205D01*
X45602Y-39176D01*
X45631Y-39148D01*
X45674Y-39133D01*
X45702Y-39133D01*
X45745Y-39148D01*
X45760Y-39162D01*
X46031Y-39133D02*
X45888Y-39133D01*
X45874Y-39276D01*
X45888Y-39262D01*
X45917Y-39248D01*
X45988Y-39248D01*
X46017Y-39262D01*
X46031Y-39276D01*
X46045Y-39305D01*
X46045Y-39376D01*
X46031Y-39405D01*
X46017Y-39419D01*
X45988Y-39433D01*
X45917Y-39433D01*
X45888Y-39419D01*
X45874Y-39405D01*
X69747Y-38434D02*
X69147Y-38434D01*
X69576Y-38234D01*
X69147Y-38034D01*
X69747Y-38034D01*
X69147Y-37634D02*
X69147Y-37519D01*
X69176Y-37462D01*
X69233Y-37405D01*
X69347Y-37376D01*
X69547Y-37376D01*
X69661Y-37405D01*
X69718Y-37462D01*
X69747Y-37519D01*
X69747Y-37634D01*
X69718Y-37691D01*
X69661Y-37748D01*
X69547Y-37776D01*
X69347Y-37776D01*
X69233Y-37748D01*
X69176Y-37691D01*
X69147Y-37634D01*
X69747Y-37119D02*
X69147Y-37119D01*
X69147Y-36976D01*
X69176Y-36891D01*
X69233Y-36834D01*
X69290Y-36805D01*
X69404Y-36776D01*
X69490Y-36776D01*
X69604Y-36805D01*
X69661Y-36834D01*
X69718Y-36891D01*
X69747Y-36976D01*
X69747Y-37119D01*
X69747Y-36205D02*
X69747Y-36548D01*
X69747Y-36376D02*
X69147Y-36376D01*
X69233Y-36434D01*
X69290Y-36491D01*
X69318Y-36548D01*
X62115Y-28211D02*
X61972Y-28311D01*
X62115Y-28383D02*
X61815Y-28383D01*
X61815Y-28268D01*
X61830Y-28240D01*
X61844Y-28226D01*
X61872Y-28211D01*
X61915Y-28211D01*
X61944Y-28226D01*
X61958Y-28240D01*
X61972Y-28268D01*
X61972Y-28383D01*
X61844Y-28097D02*
X61830Y-28083D01*
X61815Y-28054D01*
X61815Y-27983D01*
X61830Y-27954D01*
X61844Y-27940D01*
X61872Y-27926D01*
X61901Y-27926D01*
X61944Y-27940D01*
X62115Y-28111D01*
X62115Y-27926D01*
X61815Y-27740D02*
X61815Y-27711D01*
X61830Y-27683D01*
X61844Y-27668D01*
X61872Y-27654D01*
X61930Y-27640D01*
X62001Y-27640D01*
X62058Y-27654D01*
X62087Y-27668D01*
X62101Y-27683D01*
X62115Y-27711D01*
X62115Y-27740D01*
X62101Y-27768D01*
X62087Y-27783D01*
X62058Y-27797D01*
X62001Y-27811D01*
X61930Y-27811D01*
X61872Y-27797D01*
X61844Y-27783D01*
X61830Y-27768D01*
X61815Y-27740D01*
X62115Y-27354D02*
X62115Y-27526D01*
X62115Y-27440D02*
X61815Y-27440D01*
X61858Y-27468D01*
X61887Y-27497D01*
X61901Y-27526D01*
X55083Y-28211D02*
X54940Y-28311D01*
X55083Y-28383D02*
X54783Y-28383D01*
X54783Y-28268D01*
X54798Y-28240D01*
X54812Y-28226D01*
X54840Y-28211D01*
X54883Y-28211D01*
X54912Y-28226D01*
X54926Y-28240D01*
X54940Y-28268D01*
X54940Y-28383D01*
X54812Y-28097D02*
X54798Y-28083D01*
X54783Y-28054D01*
X54783Y-27983D01*
X54798Y-27954D01*
X54812Y-27940D01*
X54840Y-27926D01*
X54869Y-27926D01*
X54912Y-27940D01*
X55083Y-28111D01*
X55083Y-27926D01*
X54783Y-27740D02*
X54783Y-27711D01*
X54798Y-27683D01*
X54812Y-27668D01*
X54840Y-27654D01*
X54898Y-27640D01*
X54969Y-27640D01*
X55026Y-27654D01*
X55055Y-27668D01*
X55069Y-27683D01*
X55083Y-27711D01*
X55083Y-27740D01*
X55069Y-27768D01*
X55055Y-27783D01*
X55026Y-27797D01*
X54969Y-27811D01*
X54898Y-27811D01*
X54840Y-27797D01*
X54812Y-27783D01*
X54798Y-27768D01*
X54783Y-27740D01*
X54812Y-27526D02*
X54798Y-27511D01*
X54783Y-27483D01*
X54783Y-27411D01*
X54798Y-27383D01*
X54812Y-27368D01*
X54840Y-27354D01*
X54869Y-27354D01*
X54912Y-27368D01*
X55083Y-27540D01*
X55083Y-27354D01*
X70041Y-28211D02*
X69898Y-28311D01*
X70041Y-28383D02*
X69741Y-28383D01*
X69741Y-28268D01*
X69756Y-28240D01*
X69770Y-28226D01*
X69798Y-28211D01*
X69841Y-28211D01*
X69870Y-28226D01*
X69884Y-28240D01*
X69898Y-28268D01*
X69898Y-28383D01*
X69741Y-28111D02*
X69741Y-27926D01*
X69856Y-28026D01*
X69856Y-27983D01*
X69870Y-27954D01*
X69884Y-27940D01*
X69913Y-27926D01*
X69984Y-27926D01*
X70013Y-27940D01*
X70027Y-27954D01*
X70041Y-27983D01*
X70041Y-28068D01*
X70027Y-28097D01*
X70013Y-28111D01*
X69741Y-27740D02*
X69741Y-27711D01*
X69756Y-27683D01*
X69770Y-27668D01*
X69798Y-27654D01*
X69856Y-27640D01*
X69927Y-27640D01*
X69984Y-27654D01*
X70013Y-27668D01*
X70027Y-27683D01*
X70041Y-27711D01*
X70041Y-27740D01*
X70027Y-27768D01*
X70013Y-27783D01*
X69984Y-27797D01*
X69927Y-27811D01*
X69856Y-27811D01*
X69798Y-27797D01*
X69770Y-27783D01*
X69756Y-27768D01*
X69741Y-27740D01*
X70041Y-27354D02*
X70041Y-27526D01*
X70041Y-27440D02*
X69741Y-27440D01*
X69784Y-27468D01*
X69813Y-27497D01*
X69827Y-27526D01*
X63009Y-28211D02*
X62866Y-28311D01*
X63009Y-28383D02*
X62709Y-28383D01*
X62709Y-28268D01*
X62724Y-28240D01*
X62738Y-28226D01*
X62766Y-28211D01*
X62809Y-28211D01*
X62838Y-28226D01*
X62852Y-28240D01*
X62866Y-28268D01*
X62866Y-28383D01*
X62709Y-28111D02*
X62709Y-27926D01*
X62824Y-28026D01*
X62824Y-27983D01*
X62838Y-27954D01*
X62852Y-27940D01*
X62881Y-27926D01*
X62952Y-27926D01*
X62981Y-27940D01*
X62995Y-27954D01*
X63009Y-27983D01*
X63009Y-28068D01*
X62995Y-28097D01*
X62981Y-28111D01*
X62709Y-27740D02*
X62709Y-27711D01*
X62724Y-27683D01*
X62738Y-27668D01*
X62766Y-27654D01*
X62824Y-27640D01*
X62895Y-27640D01*
X62952Y-27654D01*
X62981Y-27668D01*
X62995Y-27683D01*
X63009Y-27711D01*
X63009Y-27740D01*
X62995Y-27768D01*
X62981Y-27783D01*
X62952Y-27797D01*
X62895Y-27811D01*
X62824Y-27811D01*
X62766Y-27797D01*
X62738Y-27783D01*
X62724Y-27768D01*
X62709Y-27740D01*
X62738Y-27526D02*
X62724Y-27511D01*
X62709Y-27483D01*
X62709Y-27411D01*
X62724Y-27383D01*
X62738Y-27368D01*
X62766Y-27354D01*
X62795Y-27354D01*
X62838Y-27368D01*
X63009Y-27540D01*
X63009Y-27354D01*
X55083Y-29397D02*
X55083Y-29540D01*
X54783Y-29540D01*
X54812Y-29311D02*
X54798Y-29297D01*
X54783Y-29269D01*
X54783Y-29197D01*
X54798Y-29169D01*
X54812Y-29154D01*
X54840Y-29140D01*
X54869Y-29140D01*
X54912Y-29154D01*
X55083Y-29326D01*
X55083Y-29140D01*
X54783Y-28954D02*
X54783Y-28926D01*
X54798Y-28897D01*
X54812Y-28883D01*
X54840Y-28869D01*
X54898Y-28854D01*
X54969Y-28854D01*
X55026Y-28869D01*
X55055Y-28883D01*
X55069Y-28897D01*
X55083Y-28926D01*
X55083Y-28954D01*
X55069Y-28983D01*
X55055Y-28997D01*
X55026Y-29011D01*
X54969Y-29026D01*
X54898Y-29026D01*
X54840Y-29011D01*
X54812Y-28997D01*
X54798Y-28983D01*
X54783Y-28954D01*
X55083Y-28569D02*
X55083Y-28740D01*
X55083Y-28654D02*
X54783Y-28654D01*
X54826Y-28683D01*
X54855Y-28712D01*
X54869Y-28740D01*
X63009Y-29397D02*
X63009Y-29540D01*
X62709Y-29540D01*
X62709Y-29326D02*
X62709Y-29140D01*
X62824Y-29240D01*
X62824Y-29197D01*
X62838Y-29169D01*
X62852Y-29154D01*
X62881Y-29140D01*
X62952Y-29140D01*
X62981Y-29154D01*
X62995Y-29169D01*
X63009Y-29197D01*
X63009Y-29283D01*
X62995Y-29311D01*
X62981Y-29326D01*
X62709Y-28954D02*
X62709Y-28926D01*
X62724Y-28897D01*
X62738Y-28883D01*
X62766Y-28869D01*
X62824Y-28854D01*
X62895Y-28854D01*
X62952Y-28869D01*
X62981Y-28883D01*
X62995Y-28897D01*
X63009Y-28926D01*
X63009Y-28954D01*
X62995Y-28983D01*
X62981Y-28997D01*
X62952Y-29011D01*
X62895Y-29026D01*
X62824Y-29026D01*
X62766Y-29011D01*
X62738Y-28997D01*
X62724Y-28983D01*
X62709Y-28954D01*
X63009Y-28569D02*
X63009Y-28740D01*
X63009Y-28654D02*
X62709Y-28654D01*
X62752Y-28683D01*
X62781Y-28712D01*
X62795Y-28740D01*
X55428Y-31721D02*
X55328Y-31578D01*
X55256Y-31721D02*
X55256Y-31421D01*
X55371Y-31421D01*
X55399Y-31436D01*
X55414Y-31450D01*
X55428Y-31478D01*
X55428Y-31521D01*
X55414Y-31550D01*
X55399Y-31564D01*
X55371Y-31578D01*
X55256Y-31578D01*
X55542Y-31450D02*
X55556Y-31436D01*
X55585Y-31421D01*
X55656Y-31421D01*
X55685Y-31436D01*
X55699Y-31450D01*
X55714Y-31478D01*
X55714Y-31507D01*
X55699Y-31550D01*
X55528Y-31721D01*
X55714Y-31721D01*
X55899Y-31421D02*
X55928Y-31421D01*
X55956Y-31436D01*
X55971Y-31450D01*
X55985Y-31478D01*
X55999Y-31536D01*
X55999Y-31607D01*
X55985Y-31664D01*
X55971Y-31693D01*
X55956Y-31707D01*
X55928Y-31721D01*
X55899Y-31721D01*
X55871Y-31707D01*
X55856Y-31693D01*
X55842Y-31664D01*
X55828Y-31607D01*
X55828Y-31536D01*
X55842Y-31478D01*
X55856Y-31450D01*
X55871Y-31436D01*
X55899Y-31421D01*
X56099Y-31421D02*
X56285Y-31421D01*
X56185Y-31536D01*
X56228Y-31536D01*
X56256Y-31550D01*
X56271Y-31564D01*
X56285Y-31593D01*
X56285Y-31664D01*
X56271Y-31693D01*
X56256Y-31707D01*
X56228Y-31721D01*
X56142Y-31721D01*
X56114Y-31707D01*
X56099Y-31693D01*
X55964Y-32342D02*
X55864Y-32199D01*
X55792Y-32342D02*
X55792Y-32042D01*
X55907Y-32042D01*
X55935Y-32057D01*
X55950Y-32071D01*
X55964Y-32099D01*
X55964Y-32142D01*
X55950Y-32171D01*
X55935Y-32185D01*
X55907Y-32199D01*
X55792Y-32199D01*
X56078Y-32071D02*
X56092Y-32057D01*
X56121Y-32042D01*
X56192Y-32042D01*
X56221Y-32057D01*
X56235Y-32071D01*
X56250Y-32099D01*
X56250Y-32128D01*
X56235Y-32171D01*
X56064Y-32342D01*
X56250Y-32342D01*
X56435Y-32042D02*
X56464Y-32042D01*
X56492Y-32057D01*
X56507Y-32071D01*
X56521Y-32099D01*
X56535Y-32157D01*
X56535Y-32228D01*
X56521Y-32285D01*
X56507Y-32314D01*
X56492Y-32328D01*
X56464Y-32342D01*
X56435Y-32342D01*
X56407Y-32328D01*
X56392Y-32314D01*
X56378Y-32285D01*
X56364Y-32228D01*
X56364Y-32157D01*
X56378Y-32099D01*
X56392Y-32071D01*
X56407Y-32057D01*
X56435Y-32042D01*
X56792Y-32142D02*
X56792Y-32342D01*
X56721Y-32028D02*
X56650Y-32242D01*
X56835Y-32242D01*
X60162Y-32493D02*
X60062Y-32350D01*
X59990Y-32493D02*
X59990Y-32193D01*
X60105Y-32193D01*
X60133Y-32208D01*
X60148Y-32222D01*
X60162Y-32250D01*
X60162Y-32293D01*
X60148Y-32322D01*
X60133Y-32336D01*
X60105Y-32350D01*
X59990Y-32350D01*
X60276Y-32222D02*
X60290Y-32208D01*
X60319Y-32193D01*
X60390Y-32193D01*
X60419Y-32208D01*
X60433Y-32222D01*
X60448Y-32250D01*
X60448Y-32279D01*
X60433Y-32322D01*
X60262Y-32493D01*
X60448Y-32493D01*
X60633Y-32193D02*
X60662Y-32193D01*
X60690Y-32208D01*
X60705Y-32222D01*
X60719Y-32250D01*
X60733Y-32308D01*
X60733Y-32379D01*
X60719Y-32436D01*
X60705Y-32465D01*
X60690Y-32479D01*
X60662Y-32493D01*
X60633Y-32493D01*
X60605Y-32479D01*
X60590Y-32465D01*
X60576Y-32436D01*
X60562Y-32379D01*
X60562Y-32308D01*
X60576Y-32250D01*
X60590Y-32222D01*
X60605Y-32208D01*
X60633Y-32193D01*
X61005Y-32193D02*
X60862Y-32193D01*
X60848Y-32336D01*
X60862Y-32322D01*
X60890Y-32308D01*
X60962Y-32308D01*
X60990Y-32322D01*
X61005Y-32336D01*
X61019Y-32365D01*
X61019Y-32436D01*
X61005Y-32465D01*
X60990Y-32479D01*
X60962Y-32493D01*
X60890Y-32493D01*
X60862Y-32479D01*
X60848Y-32465D01*
X60797Y-31712D02*
X60697Y-31569D01*
X60625Y-31712D02*
X60625Y-31412D01*
X60740Y-31412D01*
X60768Y-31427D01*
X60783Y-31441D01*
X60797Y-31469D01*
X60797Y-31512D01*
X60783Y-31541D01*
X60768Y-31555D01*
X60740Y-31569D01*
X60625Y-31569D01*
X60911Y-31441D02*
X60925Y-31427D01*
X60954Y-31412D01*
X61025Y-31412D01*
X61054Y-31427D01*
X61068Y-31441D01*
X61083Y-31469D01*
X61083Y-31498D01*
X61068Y-31541D01*
X60897Y-31712D01*
X61083Y-31712D01*
X61268Y-31412D02*
X61297Y-31412D01*
X61325Y-31427D01*
X61340Y-31441D01*
X61354Y-31469D01*
X61368Y-31527D01*
X61368Y-31598D01*
X61354Y-31655D01*
X61340Y-31684D01*
X61325Y-31698D01*
X61297Y-31712D01*
X61268Y-31712D01*
X61240Y-31698D01*
X61225Y-31684D01*
X61211Y-31655D01*
X61197Y-31598D01*
X61197Y-31527D01*
X61211Y-31469D01*
X61225Y-31441D01*
X61240Y-31427D01*
X61268Y-31412D01*
X61625Y-31412D02*
X61568Y-31412D01*
X61540Y-31427D01*
X61525Y-31441D01*
X61497Y-31484D01*
X61483Y-31541D01*
X61483Y-31655D01*
X61497Y-31684D01*
X61511Y-31698D01*
X61540Y-31712D01*
X61597Y-31712D01*
X61625Y-31698D01*
X61640Y-31684D01*
X61654Y-31655D01*
X61654Y-31584D01*
X61640Y-31555D01*
X61625Y-31541D01*
X61597Y-31527D01*
X61540Y-31527D01*
X61511Y-31541D01*
X61497Y-31555D01*
X61483Y-31584D01*
G54D14*
X39852Y-47951D02*
X39852Y-48437D01*
X39881Y-48494D01*
X39910Y-48522D01*
X39967Y-48551D01*
X40081Y-48551D01*
X40138Y-48522D01*
X40167Y-48494D01*
X40195Y-48437D01*
X40195Y-47951D01*
X40452Y-48008D02*
X40481Y-47980D01*
X40538Y-47951D01*
X40681Y-47951D01*
X40738Y-47980D01*
X40767Y-48008D01*
X40795Y-48065D01*
X40795Y-48122D01*
X40767Y-48208D01*
X40424Y-48551D01*
X40795Y-48551D01*
G54D13*
X70350Y-52319D02*
X70565Y-52319D01*
X70607Y-52334D01*
X70636Y-52362D01*
X70650Y-52405D01*
X70650Y-52434D01*
X70350Y-52034D02*
X70350Y-52177D01*
X70493Y-52191D01*
X70479Y-52177D01*
X70465Y-52148D01*
X70465Y-52077D01*
X70479Y-52048D01*
X70493Y-52034D01*
X70522Y-52020D01*
X70593Y-52020D01*
X70622Y-52034D01*
X70636Y-52048D01*
X70650Y-52077D01*
X70650Y-52148D01*
X70636Y-52177D01*
X70622Y-52191D01*
G54D14*
X39690Y-20702D02*
X40119Y-20702D01*
X40204Y-20730D01*
X40261Y-20787D01*
X40290Y-20873D01*
X40290Y-20930D01*
X40290Y-20102D02*
X40290Y-20444D01*
X40290Y-20273D02*
X39690Y-20273D01*
X39776Y-20330D01*
X39833Y-20387D01*
X39861Y-20444D01*
X46900Y-54171D02*
X46900Y-54600D01*
X46871Y-54685D01*
X46814Y-54742D01*
X46728Y-54771D01*
X46671Y-54771D01*
X47442Y-54171D02*
X47328Y-54171D01*
X47271Y-54200D01*
X47242Y-54228D01*
X47185Y-54314D01*
X47157Y-54428D01*
X47157Y-54657D01*
X47185Y-54714D01*
X47214Y-54742D01*
X47271Y-54771D01*
X47385Y-54771D01*
X47442Y-54742D01*
X47471Y-54714D01*
X47500Y-54657D01*
X47500Y-54514D01*
X47471Y-54457D01*
X47442Y-54428D01*
X47385Y-54400D01*
X47271Y-54400D01*
X47214Y-54428D01*
X47185Y-54457D01*
X47157Y-54514D01*
G54D13*
X46499Y-52817D02*
X46513Y-52831D01*
X46527Y-52874D01*
X46527Y-52902D01*
X46513Y-52945D01*
X46484Y-52974D01*
X46456Y-52988D01*
X46399Y-53002D01*
X46356Y-53002D01*
X46299Y-52988D01*
X46270Y-52974D01*
X46242Y-52945D01*
X46227Y-52902D01*
X46227Y-52874D01*
X46242Y-52831D01*
X46256Y-52817D01*
X46227Y-52559D02*
X46227Y-52617D01*
X46242Y-52645D01*
X46256Y-52659D01*
X46299Y-52688D01*
X46356Y-52702D01*
X46470Y-52702D01*
X46499Y-52688D01*
X46513Y-52674D01*
X46527Y-52645D01*
X46527Y-52588D01*
X46513Y-52559D01*
X46499Y-52545D01*
X46470Y-52531D01*
X46399Y-52531D01*
X46370Y-52545D01*
X46356Y-52559D01*
X46342Y-52588D01*
X46342Y-52645D01*
X46356Y-52674D01*
X46370Y-52688D01*
X46399Y-52702D01*
X68887Y-49430D02*
X68872Y-49444D01*
X68829Y-49458D01*
X68801Y-49458D01*
X68758Y-49444D01*
X68729Y-49415D01*
X68715Y-49387D01*
X68701Y-49330D01*
X68701Y-49287D01*
X68715Y-49230D01*
X68729Y-49201D01*
X68758Y-49173D01*
X68801Y-49158D01*
X68829Y-49158D01*
X68872Y-49173D01*
X68887Y-49187D01*
X68987Y-49158D02*
X69187Y-49158D01*
X69058Y-49458D01*
X48005Y-48407D02*
X47990Y-48421D01*
X47947Y-48435D01*
X47919Y-48435D01*
X47876Y-48421D01*
X47847Y-48392D01*
X47833Y-48364D01*
X47819Y-48307D01*
X47819Y-48264D01*
X47833Y-48207D01*
X47847Y-48178D01*
X47876Y-48150D01*
X47919Y-48135D01*
X47947Y-48135D01*
X47990Y-48150D01*
X48005Y-48164D01*
X48176Y-48264D02*
X48147Y-48250D01*
X48133Y-48235D01*
X48119Y-48207D01*
X48119Y-48192D01*
X48133Y-48164D01*
X48147Y-48150D01*
X48176Y-48135D01*
X48233Y-48135D01*
X48262Y-48150D01*
X48276Y-48164D01*
X48290Y-48192D01*
X48290Y-48207D01*
X48276Y-48235D01*
X48262Y-48250D01*
X48233Y-48264D01*
X48176Y-48264D01*
X48147Y-48278D01*
X48133Y-48292D01*
X48119Y-48321D01*
X48119Y-48378D01*
X48133Y-48407D01*
X48147Y-48421D01*
X48176Y-48435D01*
X48233Y-48435D01*
X48262Y-48421D01*
X48276Y-48407D01*
X48290Y-48378D01*
X48290Y-48321D01*
X48276Y-48292D01*
X48262Y-48278D01*
X48233Y-48264D01*
X46402Y-49481D02*
X46416Y-49495D01*
X46430Y-49538D01*
X46430Y-49566D01*
X46416Y-49609D01*
X46387Y-49638D01*
X46359Y-49652D01*
X46302Y-49666D01*
X46259Y-49666D01*
X46202Y-49652D01*
X46173Y-49638D01*
X46145Y-49609D01*
X46130Y-49566D01*
X46130Y-49538D01*
X46145Y-49495D01*
X46159Y-49481D01*
X46430Y-49338D02*
X46430Y-49281D01*
X46416Y-49252D01*
X46402Y-49238D01*
X46359Y-49209D01*
X46302Y-49195D01*
X46187Y-49195D01*
X46159Y-49209D01*
X46145Y-49223D01*
X46130Y-49252D01*
X46130Y-49309D01*
X46145Y-49338D01*
X46159Y-49352D01*
X46187Y-49366D01*
X46259Y-49366D01*
X46287Y-49352D01*
X46302Y-49338D01*
X46316Y-49309D01*
X46316Y-49252D01*
X46302Y-49223D01*
X46287Y-49209D01*
X46259Y-49195D01*
X59239Y-50485D02*
X59224Y-50499D01*
X59182Y-50513D01*
X59153Y-50513D01*
X59110Y-50499D01*
X59082Y-50470D01*
X59067Y-50442D01*
X59053Y-50385D01*
X59053Y-50342D01*
X59067Y-50285D01*
X59082Y-50256D01*
X59110Y-50228D01*
X59153Y-50213D01*
X59182Y-50213D01*
X59224Y-50228D01*
X59239Y-50242D01*
X59524Y-50513D02*
X59353Y-50513D01*
X59439Y-50513D02*
X59439Y-50213D01*
X59410Y-50256D01*
X59382Y-50285D01*
X59353Y-50299D01*
X59710Y-50213D02*
X59739Y-50213D01*
X59767Y-50228D01*
X59782Y-50242D01*
X59796Y-50270D01*
X59810Y-50328D01*
X59810Y-50399D01*
X59796Y-50456D01*
X59782Y-50485D01*
X59767Y-50499D01*
X59739Y-50513D01*
X59710Y-50513D01*
X59682Y-50499D01*
X59667Y-50485D01*
X59653Y-50456D01*
X59639Y-50399D01*
X59639Y-50328D01*
X59653Y-50270D01*
X59667Y-50242D01*
X59682Y-50228D01*
X59710Y-50213D01*
%LPC*%
G54D20*
X41988Y-26048D03*
X40688Y-26048D03*
X43050Y-26046D03*
X44350Y-26046D03*
G54D21*
X40866Y-28812D03*
X44173Y-28812D03*
G54D20*
X41460Y-41994D03*
X40160Y-41994D03*
G54D22*
X40638Y-33180D03*
X40638Y-35444D03*
G54D23*
X41462Y-37176D03*
X41462Y-40876D03*
G54D24*
X43876Y-38870D03*
X43876Y-38270D03*
G54D25*
X43876Y-37554D03*
X44476Y-37554D03*
G54D26*
X42401Y-34966D03*
X42401Y-35635D03*
X42401Y-36305D03*
X42401Y-34297D03*
X42401Y-33627D03*
G54D27*
X45940Y-34966D03*
G54D28*
X49003Y-22812D03*
X50208Y-23512D03*
X49405Y-23512D03*
X48200Y-22812D03*
X48602Y-23512D03*
X49807Y-22812D03*
X51011Y-23512D03*
X50610Y-22812D03*
G54D29*
X52106Y-21812D03*
X47106Y-21812D03*
G54D30*
X52807Y-23162D03*
X46405Y-23162D03*
G54D31*
X52307Y-25426D03*
X51405Y-25426D03*
X47807Y-25426D03*
X46905Y-25426D03*
G54D28*
X57862Y-22812D03*
X59066Y-23512D03*
X58263Y-23512D03*
X57059Y-22812D03*
X57460Y-23512D03*
X58665Y-22812D03*
X59870Y-23512D03*
X59468Y-22812D03*
G54D29*
X60964Y-21812D03*
X55964Y-21812D03*
G54D30*
X61665Y-23162D03*
X55263Y-23162D03*
G54D31*
X61165Y-25426D03*
X60263Y-25426D03*
X56665Y-25426D03*
X55763Y-25426D03*
G54D32*
X49356Y-30536D03*
X49856Y-30536D03*
X50356Y-30536D03*
X48856Y-30536D03*
X50856Y-30536D03*
X48356Y-30536D03*
X47856Y-30536D03*
X51356Y-30536D03*
X47856Y-27088D03*
X51356Y-27088D03*
X50856Y-27088D03*
X50356Y-27088D03*
X49856Y-27088D03*
X49356Y-27088D03*
X48856Y-27088D03*
X48356Y-27088D03*
G54D24*
X46690Y-29858D03*
X46690Y-30458D03*
X52522Y-29858D03*
X52522Y-30458D03*
X46690Y-28882D03*
X46690Y-29482D03*
X52522Y-27576D03*
X52522Y-28176D03*
X46690Y-28176D03*
X46690Y-27576D03*
G54D28*
X65787Y-22812D03*
X66992Y-23512D03*
X66189Y-23512D03*
X64984Y-22812D03*
X65386Y-23512D03*
X66590Y-22812D03*
X67795Y-23512D03*
X67393Y-22812D03*
G54D29*
X68890Y-21812D03*
X63890Y-21812D03*
G54D30*
X69590Y-23162D03*
X63189Y-23162D03*
G54D31*
X69090Y-25426D03*
X68189Y-25426D03*
X64590Y-25426D03*
X63689Y-25426D03*
G54D32*
X58214Y-30536D03*
X58714Y-30536D03*
X59214Y-30536D03*
X57714Y-30536D03*
X59714Y-30536D03*
X57214Y-30536D03*
X56714Y-30536D03*
X60214Y-30536D03*
X56714Y-27088D03*
X60214Y-27088D03*
X59714Y-27088D03*
X59214Y-27088D03*
X58714Y-27088D03*
X58214Y-27088D03*
X57714Y-27088D03*
X57214Y-27088D03*
X66140Y-30494D03*
X66640Y-30494D03*
X67140Y-30494D03*
X65640Y-30494D03*
X67640Y-30494D03*
X65140Y-30494D03*
X64640Y-30494D03*
X68140Y-30494D03*
X64640Y-27046D03*
X68140Y-27046D03*
X67640Y-27046D03*
X67140Y-27046D03*
X66640Y-27046D03*
X66140Y-27046D03*
X65640Y-27046D03*
X65140Y-27046D03*
G54D24*
X55548Y-29858D03*
X55548Y-30458D03*
X61380Y-29858D03*
X61380Y-30458D03*
X63474Y-29858D03*
X63474Y-30458D03*
X69306Y-29858D03*
X69306Y-30458D03*
G54D33*
X43830Y-31800D03*
G54D34*
X44830Y-31800D03*
G54D35*
X44628Y-40290D03*
X46991Y-40290D03*
G54D36*
X52465Y-47840D03*
X52465Y-48840D03*
X53465Y-47840D03*
X53465Y-48840D03*
X54465Y-47840D03*
X54465Y-48840D03*
X55465Y-47840D03*
X55465Y-48840D03*
X56465Y-47840D03*
X56465Y-48840D03*
X57465Y-47840D03*
X57465Y-48840D03*
X58465Y-47840D03*
X58465Y-48840D03*
X59465Y-47840D03*
X59465Y-48840D03*
X60465Y-47840D03*
X60465Y-48840D03*
X61465Y-47840D03*
X61465Y-48840D03*
X62465Y-47840D03*
X62465Y-48840D03*
X63465Y-47840D03*
X63465Y-48840D03*
X64465Y-47840D03*
X64465Y-48840D03*
X52465Y-33840D03*
X52465Y-34840D03*
X53465Y-33840D03*
X53465Y-34840D03*
X54465Y-33840D03*
X54465Y-34840D03*
X55465Y-33840D03*
X55465Y-34840D03*
X56465Y-33840D03*
X56465Y-34840D03*
X57465Y-33840D03*
X57465Y-34840D03*
X58465Y-33840D03*
X58465Y-34840D03*
X59465Y-33840D03*
X59465Y-34840D03*
X60465Y-33840D03*
X60465Y-34840D03*
X61465Y-33840D03*
X61465Y-34840D03*
X62465Y-33840D03*
X62465Y-34840D03*
X63465Y-33840D03*
X63465Y-34840D03*
X64465Y-33840D03*
X64465Y-34840D03*
X49465Y-33840D03*
X49465Y-34840D03*
X49465Y-35840D03*
X49465Y-36840D03*
X49465Y-37840D03*
X49465Y-38840D03*
X49465Y-39840D03*
X49465Y-40840D03*
X49465Y-41840D03*
X49465Y-42840D03*
X49465Y-43840D03*
X49465Y-44840D03*
X49465Y-45840D03*
X49465Y-46840D03*
X49465Y-47840D03*
X49465Y-48840D03*
G54D24*
X61380Y-27576D03*
X61380Y-28176D03*
X55548Y-28176D03*
X55548Y-27576D03*
X69306Y-27576D03*
X69306Y-28176D03*
X63474Y-28176D03*
X63474Y-27576D03*
X55548Y-28882D03*
X55548Y-29482D03*
X63474Y-28882D03*
X63474Y-29482D03*
G54D25*
X57214Y-31326D03*
X56614Y-31326D03*
X57814Y-31930D03*
X57214Y-31930D03*
X59715Y-31930D03*
X59115Y-31930D03*
X60315Y-31326D03*
X59715Y-31326D03*
G54D37*
X43699Y-53336D03*
X43266Y-53336D03*
X42833Y-53336D03*
X42400Y-53336D03*
X41967Y-53336D03*
X41534Y-53336D03*
X41101Y-53336D03*
X40668Y-53336D03*
G54D38*
X44664Y-53287D03*
G54D39*
X40156Y-53287D03*
G54D40*
X40087Y-50294D03*
G54D41*
X44792Y-50039D03*
G54D42*
X40220Y-49704D03*
G54D43*
X44595Y-49084D03*
G54D33*
X69755Y-50720D03*
G54D34*
X69755Y-51720D03*
X69755Y-52720D03*
X69755Y-53720D03*
G54D44*
X44685Y-21653D03*
X40354Y-21653D03*
G54D45*
X42519Y-21653D03*
G54D44*
X44685Y-24074D03*
X40354Y-24074D03*
G54D46*
X42519Y-23424D03*
G54D47*
X58500Y-50000D03*
X57500Y-50000D03*
X56500Y-50000D03*
X55500Y-50000D03*
X54500Y-50000D03*
X53500Y-50000D03*
G54D48*
X47858Y-51058D03*
X53031Y-51058D03*
G54D34*
X51822Y-49995D03*
X50838Y-49995D03*
X50051Y-49995D03*
X49067Y-49995D03*
G54D24*
X45773Y-53332D03*
X45773Y-52732D03*
G54D25*
X69755Y-49836D03*
X69155Y-49836D03*
X48012Y-48840D03*
X48612Y-48840D03*
G54D49*
X47037Y-48840D03*
X47037Y-50021D03*
G54D25*
X58496Y-50868D03*
X59096Y-50868D03*
M02*
