G04 (created by PCBNEW (2013-mar-13)-stable) date Thu 11 Jun 2015 06:02:21 PM CEST*
%MOIN*%
G04 Gerber Fmt 3.4, Leading zero omitted, Abs format*
%FSLAX34Y34*%
G01*
G70*
G90*
G04 APERTURE LIST*
%ADD10C,0.005906*%
%ADD11C,0.051181*%
%ADD12C,0.100000*%
%ADD13C,0.050000*%
%ADD14R,0.060000X0.060000*%
%ADD15C,0.060000*%
%ADD16C,0.075000*%
%ADD17C,0.055100*%
%ADD18C,0.028000*%
%ADD19C,0.016000*%
%ADD20C,0.040000*%
%ADD21C,0.012000*%
%ADD22C,0.006000*%
G04 APERTURE END LIST*
G54D10*
G54D11*
X49003Y-22812D03*
X50208Y-23512D03*
X49405Y-23512D03*
X48200Y-22812D03*
X48602Y-23512D03*
X49807Y-22812D03*
X51011Y-23512D03*
X50610Y-22812D03*
G54D12*
X52807Y-23162D03*
X46405Y-23162D03*
G54D13*
X52307Y-25426D03*
X51405Y-25426D03*
X47807Y-25426D03*
X46905Y-25426D03*
G54D11*
X57862Y-22812D03*
X59066Y-23512D03*
X58263Y-23512D03*
X57059Y-22812D03*
X57460Y-23512D03*
X58665Y-22812D03*
X59870Y-23512D03*
X59468Y-22812D03*
G54D12*
X61665Y-23162D03*
X55263Y-23162D03*
G54D13*
X61165Y-25426D03*
X60263Y-25426D03*
X56665Y-25426D03*
X55763Y-25426D03*
G54D11*
X65787Y-22812D03*
X66992Y-23512D03*
X66189Y-23512D03*
X64984Y-22812D03*
X65386Y-23512D03*
X66590Y-22812D03*
X67795Y-23512D03*
X67393Y-22812D03*
G54D12*
X69590Y-23162D03*
X63189Y-23162D03*
G54D13*
X69090Y-25426D03*
X68189Y-25426D03*
X64590Y-25426D03*
X63689Y-25426D03*
G54D14*
X43830Y-31800D03*
G54D15*
X44830Y-31800D03*
G54D16*
X52465Y-47840D03*
X52465Y-48840D03*
X53465Y-47840D03*
X53465Y-48840D03*
X54465Y-47840D03*
X54465Y-48840D03*
X55465Y-47840D03*
X55465Y-48840D03*
X56465Y-47840D03*
X56465Y-48840D03*
X57465Y-47840D03*
X57465Y-48840D03*
X58465Y-47840D03*
X58465Y-48840D03*
X59465Y-47840D03*
X59465Y-48840D03*
X60465Y-47840D03*
X60465Y-48840D03*
X61465Y-47840D03*
X61465Y-48840D03*
X62465Y-47840D03*
X62465Y-48840D03*
X63465Y-47840D03*
X63465Y-48840D03*
X64465Y-47840D03*
X64465Y-48840D03*
X52465Y-33840D03*
X52465Y-34840D03*
X53465Y-33840D03*
X53465Y-34840D03*
X54465Y-33840D03*
X54465Y-34840D03*
X55465Y-33840D03*
X55465Y-34840D03*
X56465Y-33840D03*
X56465Y-34840D03*
X57465Y-33840D03*
X57465Y-34840D03*
X58465Y-33840D03*
X58465Y-34840D03*
X59465Y-33840D03*
X59465Y-34840D03*
X60465Y-33840D03*
X60465Y-34840D03*
X61465Y-33840D03*
X61465Y-34840D03*
X62465Y-33840D03*
X62465Y-34840D03*
X63465Y-33840D03*
X63465Y-34840D03*
X64465Y-33840D03*
X64465Y-34840D03*
X49465Y-33840D03*
X49465Y-34840D03*
X49465Y-35840D03*
X49465Y-36840D03*
X49465Y-37840D03*
X49465Y-38840D03*
X49465Y-39840D03*
X49465Y-40840D03*
X49465Y-41840D03*
X49465Y-42840D03*
X49465Y-43840D03*
X49465Y-44840D03*
X49465Y-45840D03*
X49465Y-46840D03*
X49465Y-47840D03*
X49465Y-48840D03*
G54D14*
X69755Y-50720D03*
G54D15*
X69755Y-51720D03*
X69755Y-52720D03*
X69755Y-53720D03*
G54D17*
X58500Y-50000D03*
X57500Y-50000D03*
X56500Y-50000D03*
X55500Y-50000D03*
X54500Y-50000D03*
X53500Y-50000D03*
G54D15*
X51822Y-49995D03*
X50838Y-49995D03*
X50051Y-49995D03*
X49067Y-49995D03*
G54D18*
X48529Y-33341D03*
X51579Y-46278D03*
X46800Y-44740D03*
X45798Y-43737D03*
X61500Y-42000D03*
X57500Y-42000D03*
X53500Y-42000D03*
X55500Y-42000D03*
X59500Y-42000D03*
X63500Y-42000D03*
X61500Y-40000D03*
X57500Y-40000D03*
X53500Y-40000D03*
X55500Y-40000D03*
X59500Y-40000D03*
X63500Y-40000D03*
X51500Y-36000D03*
X51500Y-38000D03*
X51500Y-44000D03*
X53500Y-44000D03*
X65500Y-46000D03*
X61500Y-46000D03*
X57500Y-46000D03*
X53500Y-46000D03*
X55500Y-46000D03*
X59500Y-46000D03*
X63500Y-46000D03*
X67500Y-46000D03*
X63500Y-44000D03*
X59500Y-44000D03*
X55500Y-44000D03*
X57500Y-44000D03*
X61500Y-44000D03*
X51500Y-42000D03*
X51500Y-40000D03*
X53500Y-38000D03*
X52500Y-37000D03*
X55500Y-38000D03*
X63500Y-36000D03*
X59500Y-36000D03*
X55500Y-36000D03*
X57500Y-36000D03*
X61500Y-36000D03*
X65500Y-36000D03*
X63500Y-38000D03*
X61500Y-38000D03*
X57500Y-38000D03*
X59500Y-38000D03*
X65500Y-38000D03*
X47037Y-50596D03*
X45773Y-52345D03*
X59481Y-50868D03*
X68770Y-49836D03*
X52648Y-50456D03*
X46350Y-32500D03*
X45850Y-32000D03*
X46850Y-32500D03*
X45850Y-31500D03*
X47350Y-32500D03*
X45150Y-30300D03*
X45150Y-30800D03*
X45150Y-24800D03*
X45150Y-25800D03*
X45150Y-25300D03*
X44685Y-24074D03*
X44685Y-21653D03*
X39740Y-33180D03*
X40112Y-26048D03*
X41534Y-53889D03*
X40638Y-32480D03*
X69306Y-30792D03*
X63474Y-30792D03*
X61380Y-30792D03*
X69306Y-27242D03*
X63474Y-27242D03*
X61380Y-27242D03*
X55548Y-27242D03*
X55548Y-30792D03*
X52522Y-30792D03*
X52522Y-27242D03*
X40160Y-41370D03*
X46990Y-39498D03*
X44870Y-37554D03*
X45150Y-26300D03*
X45150Y-26800D03*
X45150Y-29300D03*
X45150Y-29800D03*
X45150Y-28812D03*
X46690Y-30792D03*
X45150Y-27800D03*
X45150Y-28300D03*
X41536Y-33180D03*
X43180Y-34966D03*
X44874Y-26050D03*
X45150Y-27300D03*
X46690Y-27242D03*
X65880Y-33154D03*
X62465Y-33154D03*
X65662Y-32865D03*
X63465Y-32865D03*
X60153Y-31929D03*
X58702Y-31929D03*
X51356Y-31172D03*
X51356Y-32268D03*
X63965Y-35233D03*
X65034Y-31980D03*
X64640Y-31373D03*
X57814Y-32366D03*
X56614Y-32642D03*
X56965Y-33152D03*
X54966Y-32870D03*
X48856Y-31822D03*
X55964Y-33150D03*
X47856Y-31822D03*
X53466Y-36879D03*
G54D19*
X48529Y-33341D02*
X48529Y-34904D01*
X48529Y-34904D02*
X49465Y-35840D01*
X51579Y-46278D02*
X51579Y-46954D01*
X51579Y-46954D02*
X52465Y-47840D01*
X46800Y-44740D02*
X46800Y-44739D01*
X46800Y-44739D02*
X45798Y-43737D01*
X69755Y-53720D02*
X53525Y-53720D01*
X53525Y-53720D02*
X51822Y-52017D01*
X47874Y-52995D02*
X50844Y-52995D01*
X51822Y-52017D02*
X51822Y-49995D01*
X50844Y-52995D02*
X51822Y-52017D01*
X63500Y-42000D02*
X61500Y-42000D01*
X59500Y-42000D02*
X57500Y-42000D01*
X55500Y-42000D02*
X53500Y-42000D01*
X57500Y-42000D02*
X55500Y-42000D01*
X61500Y-42000D02*
X59500Y-42000D01*
X63500Y-40000D02*
X61500Y-40000D01*
X59500Y-40000D02*
X57500Y-40000D01*
X55500Y-40000D02*
X53500Y-40000D01*
X57500Y-40000D02*
X55500Y-40000D01*
X61500Y-40000D02*
X59500Y-40000D01*
G54D20*
X51500Y-38000D02*
X51500Y-36000D01*
G54D19*
X51500Y-36000D02*
X51500Y-35120D01*
X51780Y-34840D02*
X52465Y-34840D01*
X51500Y-35120D02*
X51780Y-34840D01*
G54D21*
X45186Y-36340D02*
X51160Y-36340D01*
X44870Y-36656D02*
X45186Y-36340D01*
X51160Y-36340D02*
X51500Y-36000D01*
G54D20*
X51500Y-44000D02*
X51500Y-45500D01*
X51000Y-46000D02*
X51000Y-48172D01*
X51500Y-45500D02*
X51000Y-46000D01*
X51500Y-42000D02*
X51500Y-44000D01*
G54D19*
X51500Y-44000D02*
X53500Y-44000D01*
X67500Y-46000D02*
X65500Y-46000D01*
X63500Y-46000D02*
X61500Y-46000D01*
X59500Y-46000D02*
X57500Y-46000D01*
X55500Y-46000D02*
X53500Y-46000D01*
X53500Y-46000D02*
X53500Y-44000D01*
X57500Y-46000D02*
X55500Y-46000D01*
X61500Y-46000D02*
X59500Y-46000D01*
X65500Y-46000D02*
X63500Y-46000D01*
X61500Y-44000D02*
X59500Y-44000D01*
X57500Y-44000D02*
X55500Y-44000D01*
X55500Y-44000D02*
X53500Y-44000D01*
X59500Y-44000D02*
X57500Y-44000D01*
X63500Y-44000D02*
X61500Y-44000D01*
X53500Y-44000D02*
X53500Y-42000D01*
G54D20*
X51500Y-40000D02*
X51500Y-42000D01*
G54D19*
X51500Y-42000D02*
X53500Y-42000D01*
X53500Y-42000D02*
X53500Y-40000D01*
G54D20*
X51500Y-38000D02*
X51500Y-40000D01*
G54D19*
X51500Y-40000D02*
X53500Y-40000D01*
X53500Y-40000D02*
X53500Y-38000D01*
X51500Y-38000D02*
X52500Y-37000D01*
X53500Y-38000D02*
X52500Y-37000D01*
X55500Y-38000D02*
X53500Y-38000D01*
X65500Y-36000D02*
X63500Y-36000D01*
X61500Y-36000D02*
X59500Y-36000D01*
X55500Y-36000D02*
X55500Y-38000D01*
X57500Y-36000D02*
X55500Y-36000D01*
X59500Y-36000D02*
X57500Y-36000D01*
X63500Y-36000D02*
X61500Y-36000D01*
X65500Y-38000D02*
X63500Y-38000D01*
X59500Y-38000D02*
X57500Y-38000D01*
X57500Y-38000D02*
X55500Y-38000D01*
X59500Y-38000D02*
X61500Y-38000D01*
X63500Y-38000D02*
X61500Y-38000D01*
X47037Y-50596D02*
X46434Y-50596D01*
X45773Y-51257D02*
X45773Y-52345D01*
X46434Y-50596D02*
X45773Y-51257D01*
X45773Y-52345D02*
X47224Y-52345D01*
X47224Y-52345D02*
X47874Y-52995D01*
X59481Y-50868D02*
X59481Y-50377D01*
X59346Y-50242D02*
X59346Y-49836D01*
X59481Y-50377D02*
X59346Y-50242D01*
X68770Y-49836D02*
X59346Y-49836D01*
X58018Y-49482D02*
X57500Y-50000D01*
X58992Y-49482D02*
X58018Y-49482D01*
X59346Y-49836D02*
X58992Y-49482D01*
G54D21*
X52465Y-50273D02*
X52648Y-50456D01*
X52465Y-50273D02*
X52465Y-48840D01*
G54D19*
X51822Y-49995D02*
X51822Y-49482D01*
X51822Y-49482D02*
X52465Y-48840D01*
X45850Y-31500D02*
X45150Y-30800D01*
X45150Y-30300D02*
X45650Y-30300D01*
X41905Y-30800D02*
X45150Y-30800D01*
X44685Y-24074D02*
X42085Y-24074D01*
X42085Y-24074D02*
X40112Y-26048D01*
X44685Y-21653D02*
X44685Y-24074D01*
X39740Y-33180D02*
X39740Y-26420D01*
X39740Y-26420D02*
X40112Y-26048D01*
X41534Y-53889D02*
X46981Y-53889D01*
X46981Y-53889D02*
X47874Y-52995D01*
X40638Y-32480D02*
X40638Y-32067D01*
X40638Y-32067D02*
X41905Y-30800D01*
X63474Y-30792D02*
X69306Y-30792D01*
X61380Y-30792D02*
X63474Y-30792D01*
X55548Y-30792D02*
X61380Y-30792D01*
X63474Y-27242D02*
X69306Y-27242D01*
X61380Y-27242D02*
X63474Y-27242D01*
X55548Y-27242D02*
X61380Y-27242D01*
X52522Y-27242D02*
X55548Y-27242D01*
X52522Y-30792D02*
X55548Y-30792D01*
X46690Y-30792D02*
X52522Y-30792D01*
G54D20*
X49465Y-48840D02*
X50332Y-48840D01*
X50332Y-48840D02*
X51000Y-48172D01*
X51000Y-48172D02*
X51018Y-48154D01*
X51700Y-48840D02*
X51018Y-48158D01*
X51018Y-48158D02*
X51018Y-48154D01*
X52465Y-48840D02*
X51700Y-48840D01*
G54D19*
X46690Y-27242D02*
X51190Y-27242D01*
X51190Y-27242D02*
X51856Y-26576D01*
X51011Y-23512D02*
X51011Y-24161D01*
X51011Y-24161D02*
X51856Y-25006D01*
X51856Y-25006D02*
X51856Y-26576D01*
X51856Y-26576D02*
X52522Y-27242D01*
X40160Y-41370D02*
X40160Y-37986D01*
X40160Y-37986D02*
X43180Y-34966D01*
X44870Y-37554D02*
X45534Y-37554D01*
X46990Y-39010D02*
X46990Y-39498D01*
X45534Y-37554D02*
X46990Y-39010D01*
X44870Y-37554D02*
X44870Y-36656D01*
X44870Y-36656D02*
X43180Y-34966D01*
X46690Y-30792D02*
X46142Y-30792D01*
X46142Y-30792D02*
X45650Y-30300D01*
X46690Y-27242D02*
X46034Y-27242D01*
X45976Y-27300D02*
X45150Y-27300D01*
X46034Y-27242D02*
X45976Y-27300D01*
X41536Y-33180D02*
X42930Y-33180D01*
X43180Y-33430D02*
X43180Y-34966D01*
X42930Y-33180D02*
X43180Y-33430D01*
X65880Y-33154D02*
X62465Y-33154D01*
X65662Y-32865D02*
X63465Y-32865D01*
X58702Y-31929D02*
X60153Y-31929D01*
X51356Y-31172D02*
X51356Y-32268D01*
G54D21*
X63965Y-35233D02*
X63965Y-34340D01*
X63965Y-34340D02*
X64465Y-33840D01*
G54D19*
X65034Y-31980D02*
X64813Y-31759D01*
X64813Y-31546D02*
X64640Y-31373D01*
X64813Y-31759D02*
X64813Y-31546D01*
G54D21*
X57814Y-32366D02*
X57814Y-33077D01*
X57965Y-34340D02*
X57465Y-34840D01*
X57965Y-33228D02*
X57965Y-34340D01*
X57814Y-33077D02*
X57965Y-33228D01*
X56614Y-32642D02*
X56614Y-32801D01*
X56614Y-32801D02*
X56965Y-33152D01*
X54966Y-32870D02*
X49904Y-32870D01*
X49904Y-32870D02*
X48856Y-31822D01*
X55964Y-33150D02*
X49184Y-33150D01*
X49184Y-33150D02*
X47856Y-31822D01*
X53466Y-36879D02*
X53466Y-34841D01*
X53466Y-34841D02*
X53465Y-34840D01*
G54D10*
G36*
X70736Y-54988D02*
X70200Y-54988D01*
X70200Y-23041D01*
X70108Y-22817D01*
X69936Y-22645D01*
X69712Y-22552D01*
X69630Y-22552D01*
X69630Y-21665D01*
X69517Y-21393D01*
X69309Y-21185D01*
X69037Y-21072D01*
X68743Y-21071D01*
X68471Y-21184D01*
X68263Y-21392D01*
X68150Y-21664D01*
X68149Y-21958D01*
X68262Y-22230D01*
X68470Y-22438D01*
X68742Y-22551D01*
X69036Y-22552D01*
X69308Y-22439D01*
X69516Y-22231D01*
X69629Y-21959D01*
X69630Y-21665D01*
X69630Y-22552D01*
X69469Y-22552D01*
X69245Y-22644D01*
X69073Y-22816D01*
X68980Y-23040D01*
X68980Y-23283D01*
X69073Y-23507D01*
X69244Y-23679D01*
X69468Y-23772D01*
X69711Y-23772D01*
X69935Y-23679D01*
X70107Y-23508D01*
X70200Y-23284D01*
X70200Y-23041D01*
X70200Y-54988D01*
X70165Y-54988D01*
X70165Y-52638D01*
X70165Y-51638D01*
X70165Y-51638D01*
X70165Y-51041D01*
X70165Y-50998D01*
X70165Y-50398D01*
X70148Y-50357D01*
X70117Y-50326D01*
X70076Y-50310D01*
X70033Y-50310D01*
X69450Y-50310D01*
X69450Y-25354D01*
X69396Y-25222D01*
X69294Y-25121D01*
X69162Y-25066D01*
X69019Y-25066D01*
X68887Y-25120D01*
X68785Y-25221D01*
X68730Y-25354D01*
X68730Y-25497D01*
X68785Y-25629D01*
X68886Y-25731D01*
X69018Y-25786D01*
X69162Y-25786D01*
X69294Y-25731D01*
X69395Y-25630D01*
X69450Y-25498D01*
X69450Y-25354D01*
X69450Y-50310D01*
X69433Y-50310D01*
X69392Y-50326D01*
X69361Y-50357D01*
X69345Y-50398D01*
X69345Y-50441D01*
X69345Y-51041D01*
X69361Y-51082D01*
X69392Y-51113D01*
X69433Y-51130D01*
X69476Y-51130D01*
X70076Y-51130D01*
X70117Y-51113D01*
X70148Y-51082D01*
X70165Y-51041D01*
X70165Y-51638D01*
X70102Y-51488D01*
X69987Y-51372D01*
X69836Y-51310D01*
X69673Y-51309D01*
X69523Y-51372D01*
X69407Y-51487D01*
X69345Y-51638D01*
X69344Y-51801D01*
X69407Y-51951D01*
X69522Y-52067D01*
X69673Y-52129D01*
X69836Y-52130D01*
X69986Y-52067D01*
X70102Y-51952D01*
X70164Y-51801D01*
X70165Y-51638D01*
X70165Y-52638D01*
X70102Y-52488D01*
X69987Y-52372D01*
X69836Y-52310D01*
X69673Y-52309D01*
X69523Y-52372D01*
X69407Y-52487D01*
X69345Y-52638D01*
X69344Y-52801D01*
X69407Y-52951D01*
X69522Y-53067D01*
X69673Y-53129D01*
X69836Y-53130D01*
X69986Y-53067D01*
X70102Y-52952D01*
X70164Y-52801D01*
X70165Y-52638D01*
X70165Y-54988D01*
X70151Y-54988D01*
X70151Y-53743D01*
X70130Y-53589D01*
X70112Y-53546D01*
X70065Y-53508D01*
X69966Y-53607D01*
X69966Y-53409D01*
X69928Y-53362D01*
X69778Y-53323D01*
X69624Y-53344D01*
X69581Y-53362D01*
X69543Y-53409D01*
X69755Y-53621D01*
X69966Y-53409D01*
X69966Y-53607D01*
X69853Y-53720D01*
X70065Y-53931D01*
X70112Y-53893D01*
X70151Y-53743D01*
X70151Y-54988D01*
X69966Y-54988D01*
X69966Y-54030D01*
X69755Y-53818D01*
X69656Y-53917D01*
X69656Y-53720D01*
X69444Y-53508D01*
X69397Y-53546D01*
X69358Y-53696D01*
X69379Y-53850D01*
X69397Y-53893D01*
X69444Y-53931D01*
X69656Y-53720D01*
X69656Y-53917D01*
X69543Y-54030D01*
X69581Y-54077D01*
X69731Y-54116D01*
X69885Y-54095D01*
X69928Y-54077D01*
X69966Y-54030D01*
X69966Y-54988D01*
X68549Y-54988D01*
X68549Y-25354D01*
X68494Y-25222D01*
X68393Y-25121D01*
X68261Y-25066D01*
X68161Y-25066D01*
X68161Y-23440D01*
X68105Y-23305D01*
X68003Y-23202D01*
X67868Y-23146D01*
X67759Y-23146D01*
X67759Y-22739D01*
X67704Y-22605D01*
X67601Y-22501D01*
X67467Y-22446D01*
X67321Y-22446D01*
X67186Y-22501D01*
X67083Y-22604D01*
X67028Y-22738D01*
X67027Y-22884D01*
X67083Y-23018D01*
X67186Y-23122D01*
X67320Y-23177D01*
X67466Y-23177D01*
X67600Y-23122D01*
X67703Y-23019D01*
X67759Y-22885D01*
X67759Y-22739D01*
X67759Y-23146D01*
X67723Y-23146D01*
X67588Y-23202D01*
X67485Y-23305D01*
X67429Y-23439D01*
X67429Y-23585D01*
X67485Y-23719D01*
X67587Y-23822D01*
X67722Y-23878D01*
X67867Y-23878D01*
X68002Y-23823D01*
X68105Y-23720D01*
X68161Y-23585D01*
X68161Y-23440D01*
X68161Y-25066D01*
X68117Y-25066D01*
X67985Y-25120D01*
X67884Y-25221D01*
X67829Y-25354D01*
X67829Y-25497D01*
X67883Y-25629D01*
X67985Y-25731D01*
X68117Y-25786D01*
X68260Y-25786D01*
X68392Y-25731D01*
X68494Y-25630D01*
X68549Y-25498D01*
X68549Y-25354D01*
X68549Y-54988D01*
X67358Y-54988D01*
X67358Y-23440D01*
X67302Y-23305D01*
X67199Y-23202D01*
X67065Y-23146D01*
X66956Y-23146D01*
X66956Y-22739D01*
X66901Y-22605D01*
X66798Y-22501D01*
X66663Y-22446D01*
X66518Y-22446D01*
X66383Y-22501D01*
X66280Y-22604D01*
X66224Y-22738D01*
X66224Y-22884D01*
X66280Y-23018D01*
X66383Y-23122D01*
X66517Y-23177D01*
X66663Y-23177D01*
X66797Y-23122D01*
X66900Y-23019D01*
X66956Y-22885D01*
X66956Y-22739D01*
X66956Y-23146D01*
X66919Y-23146D01*
X66785Y-23202D01*
X66682Y-23305D01*
X66626Y-23439D01*
X66626Y-23585D01*
X66681Y-23719D01*
X66784Y-23822D01*
X66919Y-23878D01*
X67064Y-23878D01*
X67199Y-23823D01*
X67302Y-23720D01*
X67358Y-23585D01*
X67358Y-23440D01*
X67358Y-54988D01*
X66555Y-54988D01*
X66555Y-23440D01*
X66499Y-23305D01*
X66396Y-23202D01*
X66262Y-23146D01*
X66153Y-23146D01*
X66153Y-22739D01*
X66098Y-22605D01*
X65995Y-22501D01*
X65860Y-22446D01*
X65715Y-22446D01*
X65580Y-22501D01*
X65477Y-22604D01*
X65421Y-22738D01*
X65421Y-22884D01*
X65477Y-23018D01*
X65580Y-23122D01*
X65714Y-23177D01*
X65860Y-23177D01*
X65994Y-23122D01*
X66097Y-23019D01*
X66153Y-22885D01*
X66153Y-22739D01*
X66153Y-23146D01*
X66116Y-23146D01*
X65982Y-23202D01*
X65879Y-23305D01*
X65823Y-23439D01*
X65823Y-23585D01*
X65878Y-23719D01*
X65981Y-23822D01*
X66116Y-23878D01*
X66261Y-23878D01*
X66396Y-23823D01*
X66499Y-23720D01*
X66555Y-23585D01*
X66555Y-23440D01*
X66555Y-54988D01*
X66130Y-54988D01*
X66130Y-33104D01*
X66092Y-33012D01*
X66021Y-32942D01*
X65929Y-32904D01*
X65911Y-32904D01*
X65912Y-32815D01*
X65874Y-32723D01*
X65803Y-32653D01*
X65752Y-32631D01*
X65752Y-23440D01*
X65696Y-23305D01*
X65593Y-23202D01*
X65459Y-23146D01*
X65350Y-23146D01*
X65350Y-22739D01*
X65294Y-22605D01*
X65192Y-22501D01*
X65057Y-22446D01*
X64912Y-22446D01*
X64777Y-22501D01*
X64674Y-22604D01*
X64630Y-22711D01*
X64630Y-21665D01*
X64517Y-21393D01*
X64309Y-21185D01*
X64037Y-21072D01*
X63743Y-21071D01*
X63471Y-21184D01*
X63263Y-21392D01*
X63150Y-21664D01*
X63149Y-21958D01*
X63262Y-22230D01*
X63470Y-22438D01*
X63742Y-22551D01*
X64036Y-22552D01*
X64308Y-22439D01*
X64516Y-22231D01*
X64629Y-21959D01*
X64630Y-21665D01*
X64630Y-22711D01*
X64618Y-22738D01*
X64618Y-22884D01*
X64674Y-23018D01*
X64776Y-23122D01*
X64911Y-23177D01*
X65056Y-23177D01*
X65191Y-23122D01*
X65294Y-23019D01*
X65350Y-22885D01*
X65350Y-22739D01*
X65350Y-23146D01*
X65313Y-23146D01*
X65179Y-23202D01*
X65076Y-23305D01*
X65020Y-23439D01*
X65020Y-23585D01*
X65075Y-23719D01*
X65178Y-23822D01*
X65312Y-23878D01*
X65458Y-23878D01*
X65593Y-23823D01*
X65696Y-23720D01*
X65751Y-23585D01*
X65752Y-23440D01*
X65752Y-32631D01*
X65711Y-32615D01*
X65612Y-32614D01*
X65520Y-32652D01*
X65498Y-32675D01*
X65284Y-32675D01*
X65284Y-31930D01*
X65246Y-31838D01*
X65175Y-31768D01*
X65083Y-31730D01*
X65052Y-31730D01*
X65003Y-31680D01*
X65003Y-31546D01*
X65003Y-31546D01*
X65003Y-31546D01*
X64988Y-31473D01*
X64950Y-31416D01*
X64950Y-25354D01*
X64896Y-25222D01*
X64794Y-25121D01*
X64662Y-25066D01*
X64519Y-25066D01*
X64387Y-25120D01*
X64285Y-25221D01*
X64230Y-25354D01*
X64230Y-25497D01*
X64285Y-25629D01*
X64386Y-25731D01*
X64518Y-25786D01*
X64662Y-25786D01*
X64794Y-25731D01*
X64895Y-25630D01*
X64950Y-25498D01*
X64950Y-25354D01*
X64950Y-31416D01*
X64947Y-31411D01*
X64890Y-31354D01*
X64890Y-31323D01*
X64852Y-31231D01*
X64781Y-31161D01*
X64689Y-31123D01*
X64590Y-31122D01*
X64498Y-31160D01*
X64428Y-31231D01*
X64390Y-31323D01*
X64389Y-31422D01*
X64427Y-31514D01*
X64498Y-31584D01*
X64590Y-31622D01*
X64621Y-31622D01*
X64623Y-31624D01*
X64623Y-31759D01*
X64637Y-31831D01*
X64678Y-31893D01*
X64783Y-31998D01*
X64783Y-32029D01*
X64821Y-32121D01*
X64892Y-32191D01*
X64984Y-32229D01*
X65083Y-32230D01*
X65175Y-32192D01*
X65245Y-32121D01*
X65283Y-32029D01*
X65284Y-31930D01*
X65284Y-32675D01*
X64049Y-32675D01*
X64049Y-25354D01*
X63994Y-25222D01*
X63893Y-25121D01*
X63799Y-25082D01*
X63799Y-23041D01*
X63706Y-22817D01*
X63535Y-22645D01*
X63311Y-22552D01*
X63068Y-22552D01*
X62844Y-22644D01*
X62672Y-22816D01*
X62579Y-23040D01*
X62579Y-23283D01*
X62671Y-23507D01*
X62843Y-23679D01*
X63067Y-23772D01*
X63310Y-23772D01*
X63534Y-23679D01*
X63706Y-23508D01*
X63799Y-23284D01*
X63799Y-23041D01*
X63799Y-25082D01*
X63761Y-25066D01*
X63617Y-25066D01*
X63485Y-25120D01*
X63384Y-25221D01*
X63329Y-25354D01*
X63329Y-25497D01*
X63383Y-25629D01*
X63485Y-25731D01*
X63617Y-25786D01*
X63760Y-25786D01*
X63892Y-25731D01*
X63994Y-25630D01*
X64049Y-25498D01*
X64049Y-25354D01*
X64049Y-32675D01*
X63628Y-32675D01*
X63606Y-32653D01*
X63514Y-32615D01*
X63415Y-32614D01*
X63323Y-32652D01*
X63253Y-32723D01*
X63215Y-32815D01*
X63214Y-32914D01*
X63235Y-32964D01*
X62628Y-32964D01*
X62606Y-32942D01*
X62514Y-32904D01*
X62415Y-32903D01*
X62323Y-32941D01*
X62275Y-32989D01*
X62275Y-23041D01*
X62182Y-22817D01*
X62011Y-22645D01*
X61787Y-22552D01*
X61704Y-22552D01*
X61704Y-21665D01*
X61592Y-21393D01*
X61384Y-21185D01*
X61112Y-21072D01*
X60818Y-21071D01*
X60545Y-21184D01*
X60337Y-21392D01*
X60224Y-21664D01*
X60224Y-21958D01*
X60336Y-22230D01*
X60544Y-22438D01*
X60816Y-22551D01*
X61111Y-22552D01*
X61383Y-22439D01*
X61591Y-22231D01*
X61704Y-21959D01*
X61704Y-21665D01*
X61704Y-22552D01*
X61544Y-22552D01*
X61320Y-22644D01*
X61148Y-22816D01*
X61055Y-23040D01*
X61055Y-23283D01*
X61147Y-23507D01*
X61319Y-23679D01*
X61543Y-23772D01*
X61786Y-23772D01*
X62010Y-23679D01*
X62182Y-23508D01*
X62275Y-23284D01*
X62275Y-23041D01*
X62275Y-32989D01*
X62253Y-33012D01*
X62215Y-33104D01*
X62214Y-33203D01*
X62252Y-33295D01*
X62323Y-33365D01*
X62332Y-33369D01*
X62190Y-33428D01*
X62054Y-33564D01*
X61980Y-33743D01*
X61979Y-33936D01*
X62053Y-34114D01*
X62189Y-34250D01*
X62368Y-34324D01*
X62561Y-34325D01*
X62739Y-34251D01*
X62875Y-34115D01*
X62949Y-33936D01*
X62950Y-33743D01*
X62876Y-33565D01*
X62740Y-33429D01*
X62597Y-33369D01*
X62606Y-33366D01*
X62628Y-33344D01*
X65716Y-33344D01*
X65738Y-33365D01*
X65830Y-33403D01*
X65929Y-33404D01*
X66021Y-33366D01*
X66091Y-33295D01*
X66129Y-33203D01*
X66130Y-33104D01*
X66130Y-54988D01*
X64950Y-54988D01*
X64950Y-48743D01*
X64950Y-47743D01*
X64950Y-34743D01*
X64876Y-34565D01*
X64740Y-34429D01*
X64561Y-34355D01*
X64368Y-34354D01*
X64190Y-34428D01*
X64135Y-34484D01*
X64135Y-34410D01*
X64263Y-34281D01*
X64368Y-34324D01*
X64561Y-34325D01*
X64739Y-34251D01*
X64875Y-34115D01*
X64949Y-33936D01*
X64950Y-33743D01*
X64876Y-33565D01*
X64740Y-33429D01*
X64561Y-33355D01*
X64368Y-33354D01*
X64190Y-33428D01*
X64054Y-33564D01*
X63980Y-33743D01*
X63979Y-33936D01*
X64023Y-34041D01*
X63950Y-34114D01*
X63950Y-33743D01*
X63876Y-33565D01*
X63740Y-33429D01*
X63561Y-33355D01*
X63368Y-33354D01*
X63190Y-33428D01*
X63054Y-33564D01*
X62980Y-33743D01*
X62979Y-33936D01*
X63053Y-34114D01*
X63189Y-34250D01*
X63368Y-34324D01*
X63561Y-34325D01*
X63739Y-34251D01*
X63875Y-34115D01*
X63949Y-33936D01*
X63950Y-33743D01*
X63950Y-34114D01*
X63844Y-34219D01*
X63807Y-34274D01*
X63795Y-34340D01*
X63795Y-34484D01*
X63740Y-34429D01*
X63561Y-34355D01*
X63368Y-34354D01*
X63190Y-34428D01*
X63054Y-34564D01*
X62980Y-34743D01*
X62979Y-34936D01*
X63053Y-35114D01*
X63189Y-35250D01*
X63368Y-35324D01*
X63561Y-35325D01*
X63714Y-35261D01*
X63714Y-35282D01*
X63752Y-35374D01*
X63823Y-35444D01*
X63915Y-35482D01*
X64014Y-35483D01*
X64106Y-35445D01*
X64176Y-35374D01*
X64214Y-35282D01*
X64214Y-35261D01*
X64368Y-35324D01*
X64561Y-35325D01*
X64739Y-35251D01*
X64875Y-35115D01*
X64949Y-34936D01*
X64950Y-34743D01*
X64950Y-47743D01*
X64876Y-47565D01*
X64740Y-47429D01*
X64561Y-47355D01*
X64368Y-47354D01*
X64190Y-47428D01*
X64054Y-47564D01*
X63980Y-47743D01*
X63979Y-47936D01*
X64053Y-48114D01*
X64189Y-48250D01*
X64368Y-48324D01*
X64561Y-48325D01*
X64739Y-48251D01*
X64875Y-48115D01*
X64949Y-47936D01*
X64950Y-47743D01*
X64950Y-48743D01*
X64876Y-48565D01*
X64740Y-48429D01*
X64561Y-48355D01*
X64368Y-48354D01*
X64190Y-48428D01*
X64054Y-48564D01*
X63980Y-48743D01*
X63979Y-48936D01*
X64053Y-49114D01*
X64189Y-49250D01*
X64368Y-49324D01*
X64561Y-49325D01*
X64739Y-49251D01*
X64875Y-49115D01*
X64949Y-48936D01*
X64950Y-48743D01*
X64950Y-54988D01*
X63950Y-54988D01*
X63950Y-48743D01*
X63950Y-47743D01*
X63876Y-47565D01*
X63740Y-47429D01*
X63561Y-47355D01*
X63368Y-47354D01*
X63190Y-47428D01*
X63054Y-47564D01*
X62980Y-47743D01*
X62979Y-47936D01*
X63053Y-48114D01*
X63189Y-48250D01*
X63368Y-48324D01*
X63561Y-48325D01*
X63739Y-48251D01*
X63875Y-48115D01*
X63949Y-47936D01*
X63950Y-47743D01*
X63950Y-48743D01*
X63876Y-48565D01*
X63740Y-48429D01*
X63561Y-48355D01*
X63368Y-48354D01*
X63190Y-48428D01*
X63054Y-48564D01*
X62980Y-48743D01*
X62979Y-48936D01*
X63053Y-49114D01*
X63189Y-49250D01*
X63368Y-49324D01*
X63561Y-49325D01*
X63739Y-49251D01*
X63875Y-49115D01*
X63949Y-48936D01*
X63950Y-48743D01*
X63950Y-54988D01*
X62950Y-54988D01*
X62950Y-48743D01*
X62950Y-47743D01*
X62950Y-34743D01*
X62876Y-34565D01*
X62740Y-34429D01*
X62561Y-34355D01*
X62368Y-34354D01*
X62190Y-34428D01*
X62054Y-34564D01*
X61980Y-34743D01*
X61979Y-34936D01*
X62053Y-35114D01*
X62189Y-35250D01*
X62368Y-35324D01*
X62561Y-35325D01*
X62739Y-35251D01*
X62875Y-35115D01*
X62949Y-34936D01*
X62950Y-34743D01*
X62950Y-47743D01*
X62876Y-47565D01*
X62740Y-47429D01*
X62561Y-47355D01*
X62368Y-47354D01*
X62190Y-47428D01*
X62054Y-47564D01*
X61980Y-47743D01*
X61979Y-47936D01*
X62053Y-48114D01*
X62189Y-48250D01*
X62368Y-48324D01*
X62561Y-48325D01*
X62739Y-48251D01*
X62875Y-48115D01*
X62949Y-47936D01*
X62950Y-47743D01*
X62950Y-48743D01*
X62876Y-48565D01*
X62740Y-48429D01*
X62561Y-48355D01*
X62368Y-48354D01*
X62190Y-48428D01*
X62054Y-48564D01*
X61980Y-48743D01*
X61979Y-48936D01*
X62053Y-49114D01*
X62189Y-49250D01*
X62368Y-49324D01*
X62561Y-49325D01*
X62739Y-49251D01*
X62875Y-49115D01*
X62949Y-48936D01*
X62950Y-48743D01*
X62950Y-54988D01*
X61950Y-54988D01*
X61950Y-48743D01*
X61950Y-47743D01*
X61950Y-34743D01*
X61950Y-33743D01*
X61876Y-33565D01*
X61740Y-33429D01*
X61561Y-33355D01*
X61525Y-33355D01*
X61525Y-25354D01*
X61470Y-25222D01*
X61369Y-25121D01*
X61237Y-25066D01*
X61094Y-25066D01*
X60961Y-25120D01*
X60860Y-25221D01*
X60805Y-25354D01*
X60805Y-25497D01*
X60859Y-25629D01*
X60961Y-25731D01*
X61093Y-25786D01*
X61236Y-25786D01*
X61369Y-25731D01*
X61470Y-25630D01*
X61525Y-25498D01*
X61525Y-25354D01*
X61525Y-33355D01*
X61368Y-33354D01*
X61190Y-33428D01*
X61054Y-33564D01*
X60980Y-33743D01*
X60979Y-33936D01*
X61053Y-34114D01*
X61189Y-34250D01*
X61368Y-34324D01*
X61561Y-34325D01*
X61739Y-34251D01*
X61875Y-34115D01*
X61949Y-33936D01*
X61950Y-33743D01*
X61950Y-34743D01*
X61876Y-34565D01*
X61740Y-34429D01*
X61561Y-34355D01*
X61368Y-34354D01*
X61190Y-34428D01*
X61054Y-34564D01*
X60980Y-34743D01*
X60979Y-34936D01*
X61053Y-35114D01*
X61189Y-35250D01*
X61368Y-35324D01*
X61561Y-35325D01*
X61739Y-35251D01*
X61875Y-35115D01*
X61949Y-34936D01*
X61950Y-34743D01*
X61950Y-47743D01*
X61876Y-47565D01*
X61740Y-47429D01*
X61561Y-47355D01*
X61368Y-47354D01*
X61190Y-47428D01*
X61054Y-47564D01*
X60980Y-47743D01*
X60979Y-47936D01*
X61053Y-48114D01*
X61189Y-48250D01*
X61368Y-48324D01*
X61561Y-48325D01*
X61739Y-48251D01*
X61875Y-48115D01*
X61949Y-47936D01*
X61950Y-47743D01*
X61950Y-48743D01*
X61876Y-48565D01*
X61740Y-48429D01*
X61561Y-48355D01*
X61368Y-48354D01*
X61190Y-48428D01*
X61054Y-48564D01*
X60980Y-48743D01*
X60979Y-48936D01*
X61053Y-49114D01*
X61189Y-49250D01*
X61368Y-49324D01*
X61561Y-49325D01*
X61739Y-49251D01*
X61875Y-49115D01*
X61949Y-48936D01*
X61950Y-48743D01*
X61950Y-54988D01*
X60950Y-54988D01*
X60950Y-48743D01*
X60950Y-47743D01*
X60950Y-34743D01*
X60950Y-33743D01*
X60876Y-33565D01*
X60740Y-33429D01*
X60623Y-33380D01*
X60623Y-25354D01*
X60569Y-25222D01*
X60467Y-25121D01*
X60335Y-25066D01*
X60236Y-25066D01*
X60236Y-23440D01*
X60180Y-23305D01*
X60077Y-23202D01*
X59943Y-23146D01*
X59834Y-23146D01*
X59834Y-22739D01*
X59778Y-22605D01*
X59676Y-22501D01*
X59541Y-22446D01*
X59396Y-22446D01*
X59261Y-22501D01*
X59158Y-22604D01*
X59102Y-22738D01*
X59102Y-22884D01*
X59158Y-23018D01*
X59260Y-23122D01*
X59395Y-23177D01*
X59540Y-23177D01*
X59675Y-23122D01*
X59778Y-23019D01*
X59834Y-22885D01*
X59834Y-22739D01*
X59834Y-23146D01*
X59797Y-23146D01*
X59663Y-23202D01*
X59560Y-23305D01*
X59504Y-23439D01*
X59504Y-23585D01*
X59559Y-23719D01*
X59662Y-23822D01*
X59796Y-23878D01*
X59942Y-23878D01*
X60077Y-23823D01*
X60180Y-23720D01*
X60235Y-23585D01*
X60236Y-23440D01*
X60236Y-25066D01*
X60192Y-25066D01*
X60060Y-25120D01*
X59958Y-25221D01*
X59903Y-25354D01*
X59903Y-25497D01*
X59958Y-25629D01*
X60059Y-25731D01*
X60191Y-25786D01*
X60335Y-25786D01*
X60467Y-25731D01*
X60568Y-25630D01*
X60623Y-25498D01*
X60623Y-25354D01*
X60623Y-33380D01*
X60561Y-33355D01*
X60403Y-33354D01*
X60403Y-31879D01*
X60365Y-31787D01*
X60294Y-31717D01*
X60202Y-31679D01*
X60103Y-31678D01*
X60011Y-31716D01*
X59989Y-31739D01*
X59432Y-31739D01*
X59432Y-23440D01*
X59377Y-23305D01*
X59274Y-23202D01*
X59140Y-23146D01*
X59031Y-23146D01*
X59031Y-22739D01*
X58975Y-22605D01*
X58872Y-22501D01*
X58738Y-22446D01*
X58592Y-22446D01*
X58458Y-22501D01*
X58355Y-22604D01*
X58299Y-22738D01*
X58299Y-22884D01*
X58354Y-23018D01*
X58457Y-23122D01*
X58592Y-23177D01*
X58737Y-23177D01*
X58872Y-23122D01*
X58975Y-23019D01*
X59031Y-22885D01*
X59031Y-22739D01*
X59031Y-23146D01*
X58994Y-23146D01*
X58859Y-23202D01*
X58756Y-23305D01*
X58701Y-23439D01*
X58700Y-23585D01*
X58756Y-23719D01*
X58859Y-23822D01*
X58993Y-23878D01*
X59139Y-23878D01*
X59273Y-23823D01*
X59376Y-23720D01*
X59432Y-23585D01*
X59432Y-23440D01*
X59432Y-31739D01*
X58865Y-31739D01*
X58843Y-31717D01*
X58751Y-31679D01*
X58652Y-31678D01*
X58629Y-31688D01*
X58629Y-23440D01*
X58574Y-23305D01*
X58471Y-23202D01*
X58336Y-23146D01*
X58228Y-23146D01*
X58228Y-22739D01*
X58172Y-22605D01*
X58069Y-22501D01*
X57935Y-22446D01*
X57789Y-22446D01*
X57655Y-22501D01*
X57552Y-22604D01*
X57496Y-22738D01*
X57496Y-22884D01*
X57551Y-23018D01*
X57654Y-23122D01*
X57789Y-23177D01*
X57934Y-23177D01*
X58069Y-23122D01*
X58172Y-23019D01*
X58228Y-22885D01*
X58228Y-22739D01*
X58228Y-23146D01*
X58191Y-23146D01*
X58056Y-23202D01*
X57953Y-23305D01*
X57897Y-23439D01*
X57897Y-23585D01*
X57953Y-23719D01*
X58056Y-23822D01*
X58190Y-23878D01*
X58336Y-23878D01*
X58470Y-23823D01*
X58573Y-23720D01*
X58629Y-23585D01*
X58629Y-23440D01*
X58629Y-31688D01*
X58560Y-31716D01*
X58490Y-31787D01*
X58452Y-31879D01*
X58451Y-31978D01*
X58489Y-32070D01*
X58560Y-32140D01*
X58652Y-32178D01*
X58751Y-32179D01*
X58843Y-32141D01*
X58865Y-32119D01*
X59989Y-32119D01*
X60011Y-32140D01*
X60103Y-32178D01*
X60202Y-32179D01*
X60294Y-32141D01*
X60364Y-32070D01*
X60402Y-31978D01*
X60403Y-31879D01*
X60403Y-33354D01*
X60368Y-33354D01*
X60190Y-33428D01*
X60054Y-33564D01*
X59980Y-33743D01*
X59979Y-33936D01*
X60053Y-34114D01*
X60189Y-34250D01*
X60368Y-34324D01*
X60561Y-34325D01*
X60739Y-34251D01*
X60875Y-34115D01*
X60949Y-33936D01*
X60950Y-33743D01*
X60950Y-34743D01*
X60876Y-34565D01*
X60740Y-34429D01*
X60561Y-34355D01*
X60368Y-34354D01*
X60190Y-34428D01*
X60054Y-34564D01*
X59980Y-34743D01*
X59979Y-34936D01*
X60053Y-35114D01*
X60189Y-35250D01*
X60368Y-35324D01*
X60561Y-35325D01*
X60739Y-35251D01*
X60875Y-35115D01*
X60949Y-34936D01*
X60950Y-34743D01*
X60950Y-47743D01*
X60876Y-47565D01*
X60740Y-47429D01*
X60561Y-47355D01*
X60368Y-47354D01*
X60190Y-47428D01*
X60054Y-47564D01*
X59980Y-47743D01*
X59979Y-47936D01*
X60053Y-48114D01*
X60189Y-48250D01*
X60368Y-48324D01*
X60561Y-48325D01*
X60739Y-48251D01*
X60875Y-48115D01*
X60949Y-47936D01*
X60950Y-47743D01*
X60950Y-48743D01*
X60876Y-48565D01*
X60740Y-48429D01*
X60561Y-48355D01*
X60368Y-48354D01*
X60190Y-48428D01*
X60054Y-48564D01*
X59980Y-48743D01*
X59979Y-48936D01*
X60053Y-49114D01*
X60189Y-49250D01*
X60368Y-49324D01*
X60561Y-49325D01*
X60739Y-49251D01*
X60875Y-49115D01*
X60949Y-48936D01*
X60950Y-48743D01*
X60950Y-54988D01*
X59950Y-54988D01*
X59950Y-48743D01*
X59950Y-47743D01*
X59950Y-34743D01*
X59950Y-33743D01*
X59876Y-33565D01*
X59740Y-33429D01*
X59561Y-33355D01*
X59368Y-33354D01*
X59190Y-33428D01*
X59054Y-33564D01*
X58980Y-33743D01*
X58979Y-33936D01*
X59053Y-34114D01*
X59189Y-34250D01*
X59368Y-34324D01*
X59561Y-34325D01*
X59739Y-34251D01*
X59875Y-34115D01*
X59949Y-33936D01*
X59950Y-33743D01*
X59950Y-34743D01*
X59876Y-34565D01*
X59740Y-34429D01*
X59561Y-34355D01*
X59368Y-34354D01*
X59190Y-34428D01*
X59054Y-34564D01*
X58980Y-34743D01*
X58979Y-34936D01*
X59053Y-35114D01*
X59189Y-35250D01*
X59368Y-35324D01*
X59561Y-35325D01*
X59739Y-35251D01*
X59875Y-35115D01*
X59949Y-34936D01*
X59950Y-34743D01*
X59950Y-47743D01*
X59876Y-47565D01*
X59740Y-47429D01*
X59561Y-47355D01*
X59368Y-47354D01*
X59190Y-47428D01*
X59054Y-47564D01*
X58980Y-47743D01*
X58979Y-47936D01*
X59053Y-48114D01*
X59189Y-48250D01*
X59368Y-48324D01*
X59561Y-48325D01*
X59739Y-48251D01*
X59875Y-48115D01*
X59949Y-47936D01*
X59950Y-47743D01*
X59950Y-48743D01*
X59876Y-48565D01*
X59740Y-48429D01*
X59561Y-48355D01*
X59368Y-48354D01*
X59190Y-48428D01*
X59054Y-48564D01*
X58980Y-48743D01*
X58979Y-48936D01*
X59053Y-49114D01*
X59189Y-49250D01*
X59368Y-49324D01*
X59561Y-49325D01*
X59739Y-49251D01*
X59875Y-49115D01*
X59949Y-48936D01*
X59950Y-48743D01*
X59950Y-54988D01*
X58950Y-54988D01*
X58950Y-48743D01*
X58950Y-47743D01*
X58950Y-34743D01*
X58950Y-33743D01*
X58876Y-33565D01*
X58740Y-33429D01*
X58561Y-33355D01*
X58368Y-33354D01*
X58190Y-33428D01*
X58135Y-33484D01*
X58135Y-33228D01*
X58122Y-33162D01*
X58085Y-33107D01*
X58085Y-33107D01*
X57984Y-33006D01*
X57984Y-32549D01*
X58025Y-32507D01*
X58063Y-32415D01*
X58064Y-32316D01*
X58026Y-32224D01*
X57955Y-32154D01*
X57863Y-32116D01*
X57826Y-32116D01*
X57826Y-23440D01*
X57771Y-23305D01*
X57668Y-23202D01*
X57533Y-23146D01*
X57425Y-23146D01*
X57425Y-22739D01*
X57369Y-22605D01*
X57266Y-22501D01*
X57132Y-22446D01*
X56986Y-22446D01*
X56852Y-22501D01*
X56749Y-22604D01*
X56704Y-22711D01*
X56704Y-21665D01*
X56592Y-21393D01*
X56384Y-21185D01*
X56112Y-21072D01*
X55818Y-21071D01*
X55545Y-21184D01*
X55337Y-21392D01*
X55224Y-21664D01*
X55224Y-21958D01*
X55336Y-22230D01*
X55544Y-22438D01*
X55816Y-22551D01*
X56111Y-22552D01*
X56383Y-22439D01*
X56591Y-22231D01*
X56704Y-21959D01*
X56704Y-21665D01*
X56704Y-22711D01*
X56693Y-22738D01*
X56693Y-22884D01*
X56748Y-23018D01*
X56851Y-23122D01*
X56985Y-23177D01*
X57131Y-23177D01*
X57266Y-23122D01*
X57369Y-23019D01*
X57424Y-22885D01*
X57425Y-22739D01*
X57425Y-23146D01*
X57388Y-23146D01*
X57253Y-23202D01*
X57150Y-23305D01*
X57094Y-23439D01*
X57094Y-23585D01*
X57150Y-23719D01*
X57253Y-23822D01*
X57387Y-23878D01*
X57533Y-23878D01*
X57667Y-23823D01*
X57770Y-23720D01*
X57826Y-23585D01*
X57826Y-23440D01*
X57826Y-32116D01*
X57764Y-32115D01*
X57672Y-32153D01*
X57602Y-32224D01*
X57564Y-32316D01*
X57563Y-32415D01*
X57601Y-32507D01*
X57644Y-32549D01*
X57644Y-33077D01*
X57656Y-33142D01*
X57693Y-33197D01*
X57795Y-33298D01*
X57795Y-33484D01*
X57740Y-33429D01*
X57561Y-33355D01*
X57368Y-33354D01*
X57215Y-33418D01*
X57215Y-33102D01*
X57177Y-33010D01*
X57106Y-32940D01*
X57025Y-32906D01*
X57025Y-25354D01*
X56970Y-25222D01*
X56869Y-25121D01*
X56737Y-25066D01*
X56594Y-25066D01*
X56461Y-25120D01*
X56360Y-25221D01*
X56305Y-25354D01*
X56305Y-25497D01*
X56359Y-25629D01*
X56461Y-25731D01*
X56593Y-25786D01*
X56736Y-25786D01*
X56869Y-25731D01*
X56970Y-25630D01*
X57025Y-25498D01*
X57025Y-25354D01*
X57025Y-32906D01*
X57014Y-32902D01*
X56955Y-32901D01*
X56829Y-32775D01*
X56863Y-32691D01*
X56864Y-32592D01*
X56826Y-32500D01*
X56755Y-32430D01*
X56663Y-32392D01*
X56564Y-32391D01*
X56472Y-32429D01*
X56402Y-32500D01*
X56364Y-32592D01*
X56363Y-32691D01*
X56401Y-32783D01*
X56450Y-32831D01*
X56456Y-32866D01*
X56493Y-32921D01*
X56715Y-33142D01*
X56714Y-33201D01*
X56752Y-33293D01*
X56823Y-33363D01*
X56915Y-33401D01*
X57014Y-33402D01*
X57106Y-33364D01*
X57176Y-33293D01*
X57214Y-33201D01*
X57215Y-33102D01*
X57215Y-33418D01*
X57190Y-33428D01*
X57054Y-33564D01*
X56980Y-33743D01*
X56979Y-33936D01*
X57053Y-34114D01*
X57189Y-34250D01*
X57368Y-34324D01*
X57561Y-34325D01*
X57739Y-34251D01*
X57795Y-34195D01*
X57795Y-34269D01*
X57666Y-34398D01*
X57561Y-34355D01*
X57368Y-34354D01*
X57190Y-34428D01*
X57054Y-34564D01*
X56980Y-34743D01*
X56979Y-34936D01*
X57053Y-35114D01*
X57189Y-35250D01*
X57368Y-35324D01*
X57561Y-35325D01*
X57739Y-35251D01*
X57875Y-35115D01*
X57949Y-34936D01*
X57950Y-34743D01*
X57906Y-34638D01*
X58085Y-34460D01*
X58122Y-34405D01*
X58135Y-34340D01*
X58135Y-34195D01*
X58189Y-34250D01*
X58368Y-34324D01*
X58561Y-34325D01*
X58739Y-34251D01*
X58875Y-34115D01*
X58949Y-33936D01*
X58950Y-33743D01*
X58950Y-34743D01*
X58876Y-34565D01*
X58740Y-34429D01*
X58561Y-34355D01*
X58368Y-34354D01*
X58190Y-34428D01*
X58054Y-34564D01*
X57980Y-34743D01*
X57979Y-34936D01*
X58053Y-35114D01*
X58189Y-35250D01*
X58368Y-35324D01*
X58561Y-35325D01*
X58739Y-35251D01*
X58875Y-35115D01*
X58949Y-34936D01*
X58950Y-34743D01*
X58950Y-47743D01*
X58876Y-47565D01*
X58740Y-47429D01*
X58561Y-47355D01*
X58368Y-47354D01*
X58190Y-47428D01*
X58054Y-47564D01*
X57980Y-47743D01*
X57979Y-47936D01*
X58053Y-48114D01*
X58189Y-48250D01*
X58368Y-48324D01*
X58561Y-48325D01*
X58739Y-48251D01*
X58875Y-48115D01*
X58949Y-47936D01*
X58950Y-47743D01*
X58950Y-48743D01*
X58876Y-48565D01*
X58740Y-48429D01*
X58561Y-48355D01*
X58368Y-48354D01*
X58190Y-48428D01*
X58054Y-48564D01*
X57980Y-48743D01*
X57979Y-48936D01*
X58053Y-49114D01*
X58189Y-49250D01*
X58368Y-49324D01*
X58561Y-49325D01*
X58739Y-49251D01*
X58875Y-49115D01*
X58949Y-48936D01*
X58950Y-48743D01*
X58950Y-54988D01*
X58885Y-54988D01*
X58885Y-49923D01*
X58827Y-49781D01*
X58718Y-49673D01*
X58577Y-49614D01*
X58423Y-49614D01*
X58281Y-49672D01*
X58173Y-49781D01*
X58114Y-49922D01*
X58114Y-50076D01*
X58172Y-50218D01*
X58281Y-50326D01*
X58422Y-50385D01*
X58576Y-50385D01*
X58718Y-50327D01*
X58826Y-50218D01*
X58885Y-50077D01*
X58885Y-49923D01*
X58885Y-54988D01*
X57950Y-54988D01*
X57950Y-48743D01*
X57950Y-47743D01*
X57876Y-47565D01*
X57740Y-47429D01*
X57561Y-47355D01*
X57368Y-47354D01*
X57190Y-47428D01*
X57054Y-47564D01*
X56980Y-47743D01*
X56979Y-47936D01*
X57053Y-48114D01*
X57189Y-48250D01*
X57368Y-48324D01*
X57561Y-48325D01*
X57739Y-48251D01*
X57875Y-48115D01*
X57949Y-47936D01*
X57950Y-47743D01*
X57950Y-48743D01*
X57876Y-48565D01*
X57740Y-48429D01*
X57561Y-48355D01*
X57368Y-48354D01*
X57190Y-48428D01*
X57054Y-48564D01*
X56980Y-48743D01*
X56979Y-48936D01*
X57053Y-49114D01*
X57189Y-49250D01*
X57368Y-49324D01*
X57561Y-49325D01*
X57739Y-49251D01*
X57875Y-49115D01*
X57949Y-48936D01*
X57950Y-48743D01*
X57950Y-54988D01*
X57872Y-54988D01*
X57872Y-50017D01*
X57850Y-49873D01*
X57837Y-49841D01*
X57792Y-49806D01*
X57693Y-49905D01*
X57693Y-49707D01*
X57658Y-49662D01*
X57517Y-49627D01*
X57373Y-49649D01*
X57341Y-49662D01*
X57306Y-49707D01*
X57500Y-49901D01*
X57693Y-49707D01*
X57693Y-49905D01*
X57598Y-50000D01*
X57792Y-50193D01*
X57837Y-50158D01*
X57872Y-50017D01*
X57872Y-54988D01*
X57693Y-54988D01*
X57693Y-50292D01*
X57500Y-50098D01*
X57401Y-50197D01*
X57401Y-50000D01*
X57207Y-49806D01*
X57162Y-49841D01*
X57127Y-49982D01*
X57149Y-50126D01*
X57162Y-50158D01*
X57207Y-50193D01*
X57401Y-50000D01*
X57401Y-50197D01*
X57306Y-50292D01*
X57341Y-50337D01*
X57482Y-50372D01*
X57626Y-50350D01*
X57658Y-50337D01*
X57693Y-50292D01*
X57693Y-54988D01*
X56950Y-54988D01*
X56950Y-48743D01*
X56950Y-47743D01*
X56950Y-34743D01*
X56950Y-33743D01*
X56876Y-33565D01*
X56740Y-33429D01*
X56561Y-33355D01*
X56368Y-33354D01*
X56214Y-33418D01*
X56214Y-33100D01*
X56176Y-33008D01*
X56123Y-32956D01*
X56123Y-25354D01*
X56069Y-25222D01*
X55967Y-25121D01*
X55873Y-25082D01*
X55873Y-23041D01*
X55781Y-22817D01*
X55609Y-22645D01*
X55385Y-22552D01*
X55142Y-22552D01*
X54918Y-22644D01*
X54746Y-22816D01*
X54653Y-23040D01*
X54653Y-23283D01*
X54746Y-23507D01*
X54917Y-23679D01*
X55141Y-23772D01*
X55384Y-23772D01*
X55608Y-23679D01*
X55780Y-23508D01*
X55873Y-23284D01*
X55873Y-23041D01*
X55873Y-25082D01*
X55835Y-25066D01*
X55692Y-25066D01*
X55560Y-25120D01*
X55458Y-25221D01*
X55403Y-25354D01*
X55403Y-25497D01*
X55458Y-25629D01*
X55559Y-25731D01*
X55691Y-25786D01*
X55835Y-25786D01*
X55967Y-25731D01*
X56068Y-25630D01*
X56123Y-25498D01*
X56123Y-25354D01*
X56123Y-32956D01*
X56105Y-32938D01*
X56013Y-32900D01*
X55914Y-32899D01*
X55822Y-32937D01*
X55780Y-32980D01*
X55191Y-32980D01*
X55215Y-32919D01*
X55216Y-32820D01*
X55178Y-32728D01*
X55107Y-32658D01*
X55015Y-32620D01*
X54916Y-32619D01*
X54824Y-32657D01*
X54782Y-32700D01*
X53417Y-32700D01*
X53417Y-23041D01*
X53324Y-22817D01*
X53153Y-22645D01*
X52928Y-22552D01*
X52846Y-22552D01*
X52846Y-21665D01*
X52733Y-21393D01*
X52525Y-21185D01*
X52254Y-21072D01*
X51959Y-21071D01*
X51687Y-21184D01*
X51479Y-21392D01*
X51366Y-21664D01*
X51366Y-21958D01*
X51478Y-22230D01*
X51686Y-22438D01*
X51958Y-22551D01*
X52252Y-22552D01*
X52524Y-22439D01*
X52733Y-22231D01*
X52846Y-21959D01*
X52846Y-21665D01*
X52846Y-22552D01*
X52686Y-22552D01*
X52462Y-22644D01*
X52290Y-22816D01*
X52197Y-23040D01*
X52196Y-23283D01*
X52289Y-23507D01*
X52461Y-23679D01*
X52685Y-23772D01*
X52927Y-23772D01*
X53152Y-23679D01*
X53323Y-23508D01*
X53416Y-23284D01*
X53417Y-23041D01*
X53417Y-32700D01*
X52667Y-32700D01*
X52667Y-25354D01*
X52612Y-25222D01*
X52511Y-25121D01*
X52379Y-25066D01*
X52235Y-25066D01*
X52103Y-25120D01*
X52002Y-25221D01*
X51947Y-25354D01*
X51947Y-25497D01*
X52001Y-25629D01*
X52102Y-25731D01*
X52235Y-25786D01*
X52378Y-25786D01*
X52510Y-25731D01*
X52612Y-25630D01*
X52667Y-25498D01*
X52667Y-25354D01*
X52667Y-32700D01*
X51765Y-32700D01*
X51765Y-25354D01*
X51710Y-25222D01*
X51609Y-25121D01*
X51477Y-25066D01*
X51364Y-25066D01*
X51364Y-23525D01*
X51342Y-23389D01*
X51332Y-23366D01*
X51289Y-23334D01*
X51190Y-23433D01*
X51190Y-23235D01*
X51158Y-23191D01*
X51024Y-23160D01*
X50962Y-23170D01*
X50962Y-22824D01*
X50940Y-22688D01*
X50931Y-22665D01*
X50887Y-22633D01*
X50788Y-22732D01*
X50788Y-22534D01*
X50756Y-22491D01*
X50622Y-22459D01*
X50487Y-22481D01*
X50463Y-22491D01*
X50431Y-22534D01*
X50610Y-22713D01*
X50788Y-22534D01*
X50788Y-22732D01*
X50709Y-22812D01*
X50887Y-22990D01*
X50931Y-22958D01*
X50962Y-22824D01*
X50962Y-23170D01*
X50888Y-23182D01*
X50865Y-23191D01*
X50833Y-23235D01*
X51011Y-23413D01*
X51190Y-23235D01*
X51190Y-23433D01*
X51110Y-23512D01*
X51289Y-23691D01*
X51332Y-23659D01*
X51364Y-23525D01*
X51364Y-25066D01*
X51334Y-25066D01*
X51201Y-25120D01*
X51190Y-25132D01*
X51190Y-23790D01*
X51011Y-23611D01*
X50912Y-23710D01*
X50912Y-23512D01*
X50788Y-23388D01*
X50788Y-23089D01*
X50610Y-22910D01*
X50511Y-23009D01*
X50511Y-22812D01*
X50332Y-22633D01*
X50289Y-22665D01*
X50257Y-22799D01*
X50279Y-22935D01*
X50289Y-22958D01*
X50332Y-22990D01*
X50511Y-22812D01*
X50511Y-23009D01*
X50431Y-23089D01*
X50463Y-23132D01*
X50597Y-23164D01*
X50733Y-23142D01*
X50756Y-23132D01*
X50788Y-23089D01*
X50788Y-23388D01*
X50734Y-23334D01*
X50691Y-23366D01*
X50659Y-23500D01*
X50681Y-23635D01*
X50691Y-23659D01*
X50734Y-23691D01*
X50912Y-23512D01*
X50912Y-23710D01*
X50833Y-23790D01*
X50865Y-23833D01*
X50999Y-23865D01*
X51135Y-23843D01*
X51158Y-23833D01*
X51190Y-23790D01*
X51190Y-25132D01*
X51100Y-25221D01*
X51045Y-25354D01*
X51045Y-25497D01*
X51100Y-25629D01*
X51201Y-25731D01*
X51333Y-25786D01*
X51476Y-25786D01*
X51609Y-25731D01*
X51710Y-25630D01*
X51765Y-25498D01*
X51765Y-25354D01*
X51765Y-32700D01*
X51606Y-32700D01*
X51606Y-32218D01*
X51568Y-32126D01*
X51546Y-32104D01*
X51546Y-31335D01*
X51567Y-31313D01*
X51605Y-31221D01*
X51606Y-31122D01*
X51568Y-31030D01*
X51497Y-30960D01*
X51405Y-30922D01*
X51306Y-30921D01*
X51214Y-30959D01*
X51144Y-31030D01*
X51106Y-31122D01*
X51105Y-31221D01*
X51143Y-31313D01*
X51166Y-31335D01*
X51166Y-32104D01*
X51144Y-32126D01*
X51106Y-32218D01*
X51105Y-32317D01*
X51143Y-32409D01*
X51214Y-32479D01*
X51306Y-32517D01*
X51405Y-32518D01*
X51497Y-32480D01*
X51567Y-32409D01*
X51605Y-32317D01*
X51606Y-32218D01*
X51606Y-32700D01*
X50574Y-32700D01*
X50574Y-23440D01*
X50519Y-23305D01*
X50416Y-23202D01*
X50281Y-23146D01*
X50173Y-23146D01*
X50173Y-22739D01*
X50117Y-22605D01*
X50014Y-22501D01*
X49880Y-22446D01*
X49734Y-22446D01*
X49600Y-22501D01*
X49497Y-22604D01*
X49441Y-22738D01*
X49441Y-22884D01*
X49496Y-23018D01*
X49599Y-23122D01*
X49733Y-23177D01*
X49879Y-23177D01*
X50014Y-23122D01*
X50117Y-23019D01*
X50172Y-22885D01*
X50173Y-22739D01*
X50173Y-23146D01*
X50136Y-23146D01*
X50001Y-23202D01*
X49898Y-23305D01*
X49842Y-23439D01*
X49842Y-23585D01*
X49898Y-23719D01*
X50001Y-23822D01*
X50135Y-23878D01*
X50281Y-23878D01*
X50415Y-23823D01*
X50518Y-23720D01*
X50574Y-23585D01*
X50574Y-23440D01*
X50574Y-32700D01*
X49974Y-32700D01*
X49771Y-32497D01*
X49771Y-23440D01*
X49715Y-23305D01*
X49613Y-23202D01*
X49478Y-23146D01*
X49369Y-23146D01*
X49369Y-22739D01*
X49314Y-22605D01*
X49211Y-22501D01*
X49077Y-22446D01*
X48931Y-22446D01*
X48796Y-22501D01*
X48693Y-22604D01*
X48638Y-22738D01*
X48637Y-22884D01*
X48693Y-23018D01*
X48796Y-23122D01*
X48930Y-23177D01*
X49076Y-23177D01*
X49210Y-23122D01*
X49313Y-23019D01*
X49369Y-22885D01*
X49369Y-22739D01*
X49369Y-23146D01*
X49333Y-23146D01*
X49198Y-23202D01*
X49095Y-23305D01*
X49039Y-23439D01*
X49039Y-23585D01*
X49095Y-23719D01*
X49197Y-23822D01*
X49332Y-23878D01*
X49477Y-23878D01*
X49612Y-23823D01*
X49715Y-23720D01*
X49771Y-23585D01*
X49771Y-23440D01*
X49771Y-32497D01*
X49106Y-31831D01*
X49106Y-31772D01*
X49068Y-31680D01*
X48998Y-31610D01*
X48968Y-31598D01*
X48968Y-23440D01*
X48912Y-23305D01*
X48809Y-23202D01*
X48675Y-23146D01*
X48566Y-23146D01*
X48566Y-22739D01*
X48511Y-22605D01*
X48408Y-22501D01*
X48273Y-22446D01*
X48128Y-22446D01*
X47993Y-22501D01*
X47890Y-22604D01*
X47846Y-22711D01*
X47846Y-21665D01*
X47733Y-21393D01*
X47525Y-21185D01*
X47254Y-21072D01*
X46959Y-21071D01*
X46687Y-21184D01*
X46479Y-21392D01*
X46366Y-21664D01*
X46366Y-21958D01*
X46478Y-22230D01*
X46686Y-22438D01*
X46958Y-22551D01*
X47252Y-22552D01*
X47524Y-22439D01*
X47733Y-22231D01*
X47846Y-21959D01*
X47846Y-21665D01*
X47846Y-22711D01*
X47834Y-22738D01*
X47834Y-22884D01*
X47890Y-23018D01*
X47993Y-23122D01*
X48127Y-23177D01*
X48273Y-23177D01*
X48407Y-23122D01*
X48510Y-23019D01*
X48566Y-22885D01*
X48566Y-22739D01*
X48566Y-23146D01*
X48529Y-23146D01*
X48395Y-23202D01*
X48292Y-23305D01*
X48236Y-23439D01*
X48236Y-23585D01*
X48291Y-23719D01*
X48394Y-23822D01*
X48529Y-23878D01*
X48674Y-23878D01*
X48809Y-23823D01*
X48912Y-23720D01*
X48968Y-23585D01*
X48968Y-23440D01*
X48968Y-31598D01*
X48906Y-31572D01*
X48806Y-31572D01*
X48714Y-31610D01*
X48644Y-31680D01*
X48606Y-31772D01*
X48606Y-31871D01*
X48644Y-31963D01*
X48714Y-32034D01*
X48806Y-32072D01*
X48865Y-32072D01*
X49773Y-32980D01*
X49254Y-32980D01*
X48167Y-31892D01*
X48167Y-25354D01*
X48112Y-25222D01*
X48011Y-25121D01*
X47879Y-25066D01*
X47735Y-25066D01*
X47603Y-25120D01*
X47502Y-25221D01*
X47447Y-25354D01*
X47447Y-25497D01*
X47501Y-25629D01*
X47602Y-25731D01*
X47735Y-25786D01*
X47878Y-25786D01*
X48010Y-25731D01*
X48112Y-25630D01*
X48167Y-25498D01*
X48167Y-25354D01*
X48167Y-31892D01*
X48105Y-31831D01*
X48106Y-31772D01*
X48068Y-31680D01*
X47997Y-31610D01*
X47905Y-31572D01*
X47806Y-31571D01*
X47714Y-31609D01*
X47644Y-31680D01*
X47606Y-31772D01*
X47605Y-31871D01*
X47643Y-31963D01*
X47714Y-32033D01*
X47806Y-32071D01*
X47865Y-32072D01*
X49063Y-33270D01*
X49118Y-33307D01*
X49118Y-33307D01*
X49184Y-33320D01*
X55780Y-33320D01*
X55822Y-33361D01*
X55914Y-33399D01*
X56013Y-33400D01*
X56105Y-33362D01*
X56175Y-33291D01*
X56213Y-33199D01*
X56214Y-33100D01*
X56214Y-33418D01*
X56190Y-33428D01*
X56054Y-33564D01*
X55980Y-33743D01*
X55979Y-33936D01*
X56053Y-34114D01*
X56189Y-34250D01*
X56368Y-34324D01*
X56561Y-34325D01*
X56739Y-34251D01*
X56875Y-34115D01*
X56949Y-33936D01*
X56950Y-33743D01*
X56950Y-34743D01*
X56876Y-34565D01*
X56740Y-34429D01*
X56561Y-34355D01*
X56368Y-34354D01*
X56190Y-34428D01*
X56054Y-34564D01*
X55980Y-34743D01*
X55979Y-34936D01*
X56053Y-35114D01*
X56189Y-35250D01*
X56368Y-35324D01*
X56561Y-35325D01*
X56739Y-35251D01*
X56875Y-35115D01*
X56949Y-34936D01*
X56950Y-34743D01*
X56950Y-47743D01*
X56876Y-47565D01*
X56740Y-47429D01*
X56561Y-47355D01*
X56368Y-47354D01*
X56190Y-47428D01*
X56054Y-47564D01*
X55980Y-47743D01*
X55979Y-47936D01*
X56053Y-48114D01*
X56189Y-48250D01*
X56368Y-48324D01*
X56561Y-48325D01*
X56739Y-48251D01*
X56875Y-48115D01*
X56949Y-47936D01*
X56950Y-47743D01*
X56950Y-48743D01*
X56876Y-48565D01*
X56740Y-48429D01*
X56561Y-48355D01*
X56368Y-48354D01*
X56190Y-48428D01*
X56054Y-48564D01*
X55980Y-48743D01*
X55979Y-48936D01*
X56053Y-49114D01*
X56189Y-49250D01*
X56368Y-49324D01*
X56561Y-49325D01*
X56739Y-49251D01*
X56875Y-49115D01*
X56949Y-48936D01*
X56950Y-48743D01*
X56950Y-54988D01*
X56885Y-54988D01*
X56885Y-49923D01*
X56827Y-49781D01*
X56718Y-49673D01*
X56577Y-49614D01*
X56423Y-49614D01*
X56281Y-49672D01*
X56173Y-49781D01*
X56114Y-49922D01*
X56114Y-50076D01*
X56172Y-50218D01*
X56281Y-50326D01*
X56422Y-50385D01*
X56576Y-50385D01*
X56718Y-50327D01*
X56826Y-50218D01*
X56885Y-50077D01*
X56885Y-49923D01*
X56885Y-54988D01*
X55950Y-54988D01*
X55950Y-48743D01*
X55950Y-47743D01*
X55950Y-34743D01*
X55950Y-33743D01*
X55876Y-33565D01*
X55740Y-33429D01*
X55561Y-33355D01*
X55368Y-33354D01*
X55190Y-33428D01*
X55054Y-33564D01*
X54980Y-33743D01*
X54979Y-33936D01*
X55053Y-34114D01*
X55189Y-34250D01*
X55368Y-34324D01*
X55561Y-34325D01*
X55739Y-34251D01*
X55875Y-34115D01*
X55949Y-33936D01*
X55950Y-33743D01*
X55950Y-34743D01*
X55876Y-34565D01*
X55740Y-34429D01*
X55561Y-34355D01*
X55368Y-34354D01*
X55190Y-34428D01*
X55054Y-34564D01*
X54980Y-34743D01*
X54979Y-34936D01*
X55053Y-35114D01*
X55189Y-35250D01*
X55368Y-35324D01*
X55561Y-35325D01*
X55739Y-35251D01*
X55875Y-35115D01*
X55949Y-34936D01*
X55950Y-34743D01*
X55950Y-47743D01*
X55876Y-47565D01*
X55740Y-47429D01*
X55561Y-47355D01*
X55368Y-47354D01*
X55190Y-47428D01*
X55054Y-47564D01*
X54980Y-47743D01*
X54979Y-47936D01*
X55053Y-48114D01*
X55189Y-48250D01*
X55368Y-48324D01*
X55561Y-48325D01*
X55739Y-48251D01*
X55875Y-48115D01*
X55949Y-47936D01*
X55950Y-47743D01*
X55950Y-48743D01*
X55876Y-48565D01*
X55740Y-48429D01*
X55561Y-48355D01*
X55368Y-48354D01*
X55190Y-48428D01*
X55054Y-48564D01*
X54980Y-48743D01*
X54979Y-48936D01*
X55053Y-49114D01*
X55189Y-49250D01*
X55368Y-49324D01*
X55561Y-49325D01*
X55739Y-49251D01*
X55875Y-49115D01*
X55949Y-48936D01*
X55950Y-48743D01*
X55950Y-54988D01*
X55885Y-54988D01*
X55885Y-49923D01*
X55827Y-49781D01*
X55718Y-49673D01*
X55577Y-49614D01*
X55423Y-49614D01*
X55281Y-49672D01*
X55173Y-49781D01*
X55114Y-49922D01*
X55114Y-50076D01*
X55172Y-50218D01*
X55281Y-50326D01*
X55422Y-50385D01*
X55576Y-50385D01*
X55718Y-50327D01*
X55826Y-50218D01*
X55885Y-50077D01*
X55885Y-49923D01*
X55885Y-54988D01*
X54950Y-54988D01*
X54950Y-48743D01*
X54950Y-47743D01*
X54950Y-34743D01*
X54950Y-33743D01*
X54876Y-33565D01*
X54740Y-33429D01*
X54561Y-33355D01*
X54368Y-33354D01*
X54190Y-33428D01*
X54054Y-33564D01*
X53980Y-33743D01*
X53979Y-33936D01*
X54053Y-34114D01*
X54189Y-34250D01*
X54368Y-34324D01*
X54561Y-34325D01*
X54739Y-34251D01*
X54875Y-34115D01*
X54949Y-33936D01*
X54950Y-33743D01*
X54950Y-34743D01*
X54876Y-34565D01*
X54740Y-34429D01*
X54561Y-34355D01*
X54368Y-34354D01*
X54190Y-34428D01*
X54054Y-34564D01*
X53980Y-34743D01*
X53979Y-34936D01*
X54053Y-35114D01*
X54189Y-35250D01*
X54368Y-35324D01*
X54561Y-35325D01*
X54739Y-35251D01*
X54875Y-35115D01*
X54949Y-34936D01*
X54950Y-34743D01*
X54950Y-47743D01*
X54876Y-47565D01*
X54740Y-47429D01*
X54561Y-47355D01*
X54368Y-47354D01*
X54190Y-47428D01*
X54054Y-47564D01*
X53980Y-47743D01*
X53979Y-47936D01*
X54053Y-48114D01*
X54189Y-48250D01*
X54368Y-48324D01*
X54561Y-48325D01*
X54739Y-48251D01*
X54875Y-48115D01*
X54949Y-47936D01*
X54950Y-47743D01*
X54950Y-48743D01*
X54876Y-48565D01*
X54740Y-48429D01*
X54561Y-48355D01*
X54368Y-48354D01*
X54190Y-48428D01*
X54054Y-48564D01*
X53980Y-48743D01*
X53979Y-48936D01*
X54053Y-49114D01*
X54189Y-49250D01*
X54368Y-49324D01*
X54561Y-49325D01*
X54739Y-49251D01*
X54875Y-49115D01*
X54949Y-48936D01*
X54950Y-48743D01*
X54950Y-54988D01*
X54885Y-54988D01*
X54885Y-49923D01*
X54827Y-49781D01*
X54718Y-49673D01*
X54577Y-49614D01*
X54423Y-49614D01*
X54281Y-49672D01*
X54173Y-49781D01*
X54114Y-49922D01*
X54114Y-50076D01*
X54172Y-50218D01*
X54281Y-50326D01*
X54422Y-50385D01*
X54576Y-50385D01*
X54718Y-50327D01*
X54826Y-50218D01*
X54885Y-50077D01*
X54885Y-49923D01*
X54885Y-54988D01*
X53950Y-54988D01*
X53950Y-48743D01*
X53950Y-47743D01*
X53950Y-34743D01*
X53950Y-33743D01*
X53876Y-33565D01*
X53740Y-33429D01*
X53561Y-33355D01*
X53368Y-33354D01*
X53190Y-33428D01*
X53054Y-33564D01*
X52980Y-33743D01*
X52979Y-33936D01*
X53053Y-34114D01*
X53189Y-34250D01*
X53368Y-34324D01*
X53561Y-34325D01*
X53739Y-34251D01*
X53875Y-34115D01*
X53949Y-33936D01*
X53950Y-33743D01*
X53950Y-34743D01*
X53876Y-34565D01*
X53740Y-34429D01*
X53561Y-34355D01*
X53368Y-34354D01*
X53190Y-34428D01*
X53054Y-34564D01*
X52980Y-34743D01*
X52979Y-34936D01*
X53053Y-35114D01*
X53189Y-35250D01*
X53296Y-35294D01*
X53296Y-36695D01*
X53254Y-36737D01*
X53216Y-36829D01*
X53215Y-36928D01*
X53253Y-37020D01*
X53324Y-37090D01*
X53416Y-37128D01*
X53515Y-37129D01*
X53607Y-37091D01*
X53677Y-37020D01*
X53715Y-36928D01*
X53716Y-36829D01*
X53678Y-36737D01*
X53636Y-36695D01*
X53636Y-35294D01*
X53739Y-35251D01*
X53875Y-35115D01*
X53949Y-34936D01*
X53950Y-34743D01*
X53950Y-47743D01*
X53876Y-47565D01*
X53740Y-47429D01*
X53561Y-47355D01*
X53368Y-47354D01*
X53190Y-47428D01*
X53054Y-47564D01*
X52980Y-47743D01*
X52979Y-47936D01*
X53053Y-48114D01*
X53189Y-48250D01*
X53368Y-48324D01*
X53561Y-48325D01*
X53739Y-48251D01*
X53875Y-48115D01*
X53949Y-47936D01*
X53950Y-47743D01*
X53950Y-48743D01*
X53876Y-48565D01*
X53740Y-48429D01*
X53561Y-48355D01*
X53368Y-48354D01*
X53190Y-48428D01*
X53054Y-48564D01*
X52980Y-48743D01*
X52979Y-48936D01*
X53053Y-49114D01*
X53189Y-49250D01*
X53368Y-49324D01*
X53561Y-49325D01*
X53739Y-49251D01*
X53875Y-49115D01*
X53949Y-48936D01*
X53950Y-48743D01*
X53950Y-54988D01*
X53885Y-54988D01*
X53885Y-49923D01*
X53827Y-49781D01*
X53718Y-49673D01*
X53577Y-49614D01*
X53423Y-49614D01*
X53281Y-49672D01*
X53173Y-49781D01*
X53114Y-49922D01*
X53114Y-50076D01*
X53172Y-50218D01*
X53281Y-50326D01*
X53422Y-50385D01*
X53576Y-50385D01*
X53718Y-50327D01*
X53826Y-50218D01*
X53885Y-50077D01*
X53885Y-49923D01*
X53885Y-54988D01*
X53594Y-54988D01*
X53594Y-50946D01*
X53508Y-50739D01*
X53350Y-50581D01*
X53144Y-50495D01*
X52950Y-50495D01*
X52950Y-47743D01*
X52950Y-33743D01*
X52876Y-33565D01*
X52740Y-33429D01*
X52561Y-33355D01*
X52368Y-33354D01*
X52190Y-33428D01*
X52054Y-33564D01*
X51980Y-33743D01*
X51979Y-33936D01*
X52053Y-34114D01*
X52189Y-34250D01*
X52368Y-34324D01*
X52561Y-34325D01*
X52739Y-34251D01*
X52875Y-34115D01*
X52949Y-33936D01*
X52950Y-33743D01*
X52950Y-47743D01*
X52937Y-47713D01*
X52937Y-34881D01*
X52917Y-34697D01*
X52885Y-34621D01*
X52829Y-34574D01*
X52730Y-34673D01*
X52730Y-34475D01*
X52683Y-34419D01*
X52506Y-34367D01*
X52322Y-34387D01*
X52246Y-34419D01*
X52199Y-34475D01*
X52465Y-34741D01*
X52730Y-34475D01*
X52730Y-34673D01*
X52563Y-34840D01*
X52829Y-35105D01*
X52885Y-35058D01*
X52937Y-34881D01*
X52937Y-47713D01*
X52876Y-47565D01*
X52740Y-47429D01*
X52730Y-47425D01*
X52730Y-35204D01*
X52465Y-34938D01*
X52366Y-35037D01*
X52366Y-34840D01*
X52100Y-34574D01*
X52044Y-34621D01*
X51992Y-34798D01*
X52012Y-34982D01*
X52044Y-35058D01*
X52100Y-35105D01*
X52366Y-34840D01*
X52366Y-35037D01*
X52199Y-35204D01*
X52246Y-35260D01*
X52423Y-35312D01*
X52607Y-35292D01*
X52683Y-35260D01*
X52730Y-35204D01*
X52730Y-47425D01*
X52561Y-47355D01*
X52368Y-47354D01*
X52283Y-47390D01*
X51769Y-46875D01*
X51769Y-46441D01*
X51790Y-46419D01*
X51828Y-46327D01*
X51829Y-46228D01*
X51791Y-46136D01*
X51720Y-46066D01*
X51628Y-46028D01*
X51529Y-46027D01*
X51437Y-46065D01*
X51367Y-46136D01*
X51329Y-46228D01*
X51328Y-46327D01*
X51366Y-46419D01*
X51389Y-46441D01*
X51389Y-46954D01*
X51403Y-47026D01*
X51444Y-47088D01*
X52015Y-47658D01*
X51980Y-47743D01*
X51979Y-47936D01*
X52053Y-48114D01*
X52189Y-48250D01*
X52368Y-48324D01*
X52561Y-48325D01*
X52739Y-48251D01*
X52875Y-48115D01*
X52949Y-47936D01*
X52950Y-47743D01*
X52950Y-50495D01*
X52937Y-50495D01*
X52937Y-48881D01*
X52917Y-48697D01*
X52885Y-48621D01*
X52829Y-48574D01*
X52730Y-48673D01*
X52730Y-48475D01*
X52683Y-48419D01*
X52506Y-48367D01*
X52322Y-48387D01*
X52246Y-48419D01*
X52199Y-48475D01*
X52465Y-48741D01*
X52730Y-48475D01*
X52730Y-48673D01*
X52563Y-48840D01*
X52829Y-49105D01*
X52885Y-49058D01*
X52937Y-48881D01*
X52937Y-50495D01*
X52920Y-50495D01*
X52730Y-50573D01*
X52730Y-49204D01*
X52465Y-48938D01*
X52366Y-49037D01*
X52366Y-48840D01*
X52100Y-48574D01*
X52044Y-48621D01*
X51992Y-48798D01*
X52012Y-48982D01*
X52044Y-49058D01*
X52100Y-49105D01*
X52366Y-48840D01*
X52366Y-49037D01*
X52199Y-49204D01*
X52246Y-49260D01*
X52423Y-49312D01*
X52607Y-49292D01*
X52683Y-49260D01*
X52730Y-49204D01*
X52730Y-50573D01*
X52713Y-50580D01*
X52554Y-50738D01*
X52468Y-50945D01*
X52468Y-51169D01*
X52554Y-51376D01*
X52712Y-51534D01*
X52919Y-51620D01*
X53143Y-51620D01*
X53349Y-51535D01*
X53508Y-51377D01*
X53594Y-51170D01*
X53594Y-50946D01*
X53594Y-54988D01*
X52219Y-54988D01*
X52219Y-50018D01*
X52198Y-49864D01*
X52180Y-49821D01*
X52133Y-49783D01*
X52034Y-49882D01*
X52034Y-49684D01*
X51996Y-49637D01*
X51846Y-49598D01*
X51692Y-49619D01*
X51649Y-49637D01*
X51611Y-49684D01*
X51822Y-49896D01*
X52034Y-49684D01*
X52034Y-49882D01*
X51921Y-49995D01*
X52133Y-50206D01*
X52180Y-50168D01*
X52219Y-50018D01*
X52219Y-54988D01*
X52034Y-54988D01*
X52034Y-50305D01*
X51822Y-50094D01*
X51723Y-50192D01*
X51723Y-49995D01*
X51512Y-49783D01*
X51465Y-49821D01*
X51425Y-49971D01*
X51447Y-50125D01*
X51465Y-50168D01*
X51512Y-50206D01*
X51723Y-49995D01*
X51723Y-50192D01*
X51611Y-50305D01*
X51649Y-50352D01*
X51799Y-50391D01*
X51953Y-50370D01*
X51996Y-50352D01*
X52034Y-50305D01*
X52034Y-54988D01*
X51248Y-54988D01*
X51248Y-49913D01*
X51186Y-49763D01*
X51071Y-49647D01*
X50920Y-49585D01*
X50757Y-49584D01*
X50606Y-49647D01*
X50491Y-49762D01*
X50444Y-49874D01*
X50399Y-49763D01*
X50283Y-49647D01*
X50133Y-49585D01*
X49970Y-49584D01*
X49950Y-49593D01*
X49950Y-47743D01*
X49950Y-46743D01*
X49950Y-45743D01*
X49950Y-44743D01*
X49950Y-43743D01*
X49950Y-42743D01*
X49950Y-41743D01*
X49950Y-40743D01*
X49950Y-39743D01*
X49950Y-38743D01*
X49950Y-37743D01*
X49950Y-36743D01*
X49950Y-35743D01*
X49950Y-34743D01*
X49950Y-33743D01*
X49876Y-33565D01*
X49740Y-33429D01*
X49561Y-33355D01*
X49368Y-33354D01*
X49190Y-33428D01*
X49054Y-33564D01*
X48980Y-33743D01*
X48979Y-33936D01*
X49053Y-34114D01*
X49189Y-34250D01*
X49368Y-34324D01*
X49561Y-34325D01*
X49739Y-34251D01*
X49875Y-34115D01*
X49949Y-33936D01*
X49950Y-33743D01*
X49950Y-34743D01*
X49876Y-34565D01*
X49740Y-34429D01*
X49561Y-34355D01*
X49368Y-34354D01*
X49190Y-34428D01*
X49054Y-34564D01*
X48980Y-34743D01*
X48979Y-34936D01*
X49053Y-35114D01*
X49189Y-35250D01*
X49368Y-35324D01*
X49561Y-35325D01*
X49739Y-35251D01*
X49875Y-35115D01*
X49949Y-34936D01*
X49950Y-34743D01*
X49950Y-35743D01*
X49876Y-35565D01*
X49740Y-35429D01*
X49561Y-35355D01*
X49368Y-35354D01*
X49283Y-35390D01*
X48719Y-34825D01*
X48719Y-33504D01*
X48740Y-33482D01*
X48778Y-33390D01*
X48779Y-33291D01*
X48741Y-33199D01*
X48670Y-33129D01*
X48578Y-33091D01*
X48479Y-33090D01*
X48387Y-33128D01*
X48317Y-33199D01*
X48279Y-33291D01*
X48278Y-33390D01*
X48316Y-33482D01*
X48339Y-33504D01*
X48339Y-34904D01*
X48353Y-34976D01*
X48394Y-35038D01*
X49015Y-35658D01*
X48980Y-35743D01*
X48979Y-35936D01*
X49053Y-36114D01*
X49189Y-36250D01*
X49368Y-36324D01*
X49561Y-36325D01*
X49739Y-36251D01*
X49875Y-36115D01*
X49949Y-35936D01*
X49950Y-35743D01*
X49950Y-36743D01*
X49876Y-36565D01*
X49740Y-36429D01*
X49561Y-36355D01*
X49368Y-36354D01*
X49190Y-36428D01*
X49054Y-36564D01*
X48980Y-36743D01*
X48979Y-36936D01*
X49053Y-37114D01*
X49189Y-37250D01*
X49368Y-37324D01*
X49561Y-37325D01*
X49739Y-37251D01*
X49875Y-37115D01*
X49949Y-36936D01*
X49950Y-36743D01*
X49950Y-37743D01*
X49876Y-37565D01*
X49740Y-37429D01*
X49561Y-37355D01*
X49368Y-37354D01*
X49190Y-37428D01*
X49054Y-37564D01*
X48980Y-37743D01*
X48979Y-37936D01*
X49053Y-38114D01*
X49189Y-38250D01*
X49368Y-38324D01*
X49561Y-38325D01*
X49739Y-38251D01*
X49875Y-38115D01*
X49949Y-37936D01*
X49950Y-37743D01*
X49950Y-38743D01*
X49876Y-38565D01*
X49740Y-38429D01*
X49561Y-38355D01*
X49368Y-38354D01*
X49190Y-38428D01*
X49054Y-38564D01*
X48980Y-38743D01*
X48979Y-38936D01*
X49053Y-39114D01*
X49189Y-39250D01*
X49368Y-39324D01*
X49561Y-39325D01*
X49739Y-39251D01*
X49875Y-39115D01*
X49949Y-38936D01*
X49950Y-38743D01*
X49950Y-39743D01*
X49876Y-39565D01*
X49740Y-39429D01*
X49561Y-39355D01*
X49368Y-39354D01*
X49190Y-39428D01*
X49054Y-39564D01*
X48980Y-39743D01*
X48979Y-39936D01*
X49053Y-40114D01*
X49189Y-40250D01*
X49368Y-40324D01*
X49561Y-40325D01*
X49739Y-40251D01*
X49875Y-40115D01*
X49949Y-39936D01*
X49950Y-39743D01*
X49950Y-40743D01*
X49876Y-40565D01*
X49740Y-40429D01*
X49561Y-40355D01*
X49368Y-40354D01*
X49190Y-40428D01*
X49054Y-40564D01*
X48980Y-40743D01*
X48979Y-40936D01*
X49053Y-41114D01*
X49189Y-41250D01*
X49368Y-41324D01*
X49561Y-41325D01*
X49739Y-41251D01*
X49875Y-41115D01*
X49949Y-40936D01*
X49950Y-40743D01*
X49950Y-41743D01*
X49876Y-41565D01*
X49740Y-41429D01*
X49561Y-41355D01*
X49368Y-41354D01*
X49190Y-41428D01*
X49054Y-41564D01*
X48980Y-41743D01*
X48979Y-41936D01*
X49053Y-42114D01*
X49189Y-42250D01*
X49368Y-42324D01*
X49561Y-42325D01*
X49739Y-42251D01*
X49875Y-42115D01*
X49949Y-41936D01*
X49950Y-41743D01*
X49950Y-42743D01*
X49876Y-42565D01*
X49740Y-42429D01*
X49561Y-42355D01*
X49368Y-42354D01*
X49190Y-42428D01*
X49054Y-42564D01*
X48980Y-42743D01*
X48979Y-42936D01*
X49053Y-43114D01*
X49189Y-43250D01*
X49368Y-43324D01*
X49561Y-43325D01*
X49739Y-43251D01*
X49875Y-43115D01*
X49949Y-42936D01*
X49950Y-42743D01*
X49950Y-43743D01*
X49876Y-43565D01*
X49740Y-43429D01*
X49561Y-43355D01*
X49368Y-43354D01*
X49190Y-43428D01*
X49054Y-43564D01*
X48980Y-43743D01*
X48979Y-43936D01*
X49053Y-44114D01*
X49189Y-44250D01*
X49368Y-44324D01*
X49561Y-44325D01*
X49739Y-44251D01*
X49875Y-44115D01*
X49949Y-43936D01*
X49950Y-43743D01*
X49950Y-44743D01*
X49876Y-44565D01*
X49740Y-44429D01*
X49561Y-44355D01*
X49368Y-44354D01*
X49190Y-44428D01*
X49054Y-44564D01*
X48980Y-44743D01*
X48979Y-44936D01*
X49053Y-45114D01*
X49189Y-45250D01*
X49368Y-45324D01*
X49561Y-45325D01*
X49739Y-45251D01*
X49875Y-45115D01*
X49949Y-44936D01*
X49950Y-44743D01*
X49950Y-45743D01*
X49876Y-45565D01*
X49740Y-45429D01*
X49561Y-45355D01*
X49368Y-45354D01*
X49190Y-45428D01*
X49054Y-45564D01*
X48980Y-45743D01*
X48979Y-45936D01*
X49053Y-46114D01*
X49189Y-46250D01*
X49368Y-46324D01*
X49561Y-46325D01*
X49739Y-46251D01*
X49875Y-46115D01*
X49949Y-45936D01*
X49950Y-45743D01*
X49950Y-46743D01*
X49876Y-46565D01*
X49740Y-46429D01*
X49561Y-46355D01*
X49368Y-46354D01*
X49190Y-46428D01*
X49054Y-46564D01*
X48980Y-46743D01*
X48979Y-46936D01*
X49053Y-47114D01*
X49189Y-47250D01*
X49368Y-47324D01*
X49561Y-47325D01*
X49739Y-47251D01*
X49875Y-47115D01*
X49949Y-46936D01*
X49950Y-46743D01*
X49950Y-47743D01*
X49876Y-47565D01*
X49740Y-47429D01*
X49561Y-47355D01*
X49368Y-47354D01*
X49190Y-47428D01*
X49054Y-47564D01*
X48980Y-47743D01*
X48979Y-47936D01*
X49053Y-48114D01*
X49189Y-48250D01*
X49368Y-48324D01*
X49561Y-48325D01*
X49739Y-48251D01*
X49875Y-48115D01*
X49949Y-47936D01*
X49950Y-47743D01*
X49950Y-49593D01*
X49937Y-49598D01*
X49937Y-48881D01*
X49917Y-48697D01*
X49885Y-48621D01*
X49829Y-48574D01*
X49730Y-48673D01*
X49730Y-48475D01*
X49683Y-48419D01*
X49506Y-48367D01*
X49322Y-48387D01*
X49246Y-48419D01*
X49199Y-48475D01*
X49465Y-48741D01*
X49730Y-48475D01*
X49730Y-48673D01*
X49563Y-48840D01*
X49829Y-49105D01*
X49885Y-49058D01*
X49937Y-48881D01*
X49937Y-49598D01*
X49819Y-49647D01*
X49730Y-49735D01*
X49730Y-49204D01*
X49465Y-48938D01*
X49366Y-49037D01*
X49366Y-48840D01*
X49100Y-48574D01*
X49044Y-48621D01*
X48992Y-48798D01*
X49012Y-48982D01*
X49044Y-49058D01*
X49100Y-49105D01*
X49366Y-48840D01*
X49366Y-49037D01*
X49199Y-49204D01*
X49246Y-49260D01*
X49423Y-49312D01*
X49607Y-49292D01*
X49683Y-49260D01*
X49730Y-49204D01*
X49730Y-49735D01*
X49703Y-49762D01*
X49641Y-49913D01*
X49641Y-50076D01*
X49703Y-50226D01*
X49818Y-50342D01*
X49969Y-50404D01*
X50132Y-50405D01*
X50283Y-50342D01*
X50398Y-50227D01*
X50445Y-50115D01*
X50490Y-50226D01*
X50606Y-50342D01*
X50756Y-50404D01*
X50919Y-50405D01*
X51070Y-50342D01*
X51186Y-50227D01*
X51248Y-50076D01*
X51248Y-49913D01*
X51248Y-54988D01*
X49477Y-54988D01*
X49477Y-49913D01*
X49414Y-49763D01*
X49299Y-49647D01*
X49148Y-49585D01*
X48985Y-49584D01*
X48835Y-49647D01*
X48719Y-49762D01*
X48657Y-49913D01*
X48656Y-50076D01*
X48719Y-50226D01*
X48834Y-50342D01*
X48985Y-50404D01*
X49148Y-50405D01*
X49298Y-50342D01*
X49414Y-50227D01*
X49476Y-50076D01*
X49477Y-49913D01*
X49477Y-54988D01*
X48421Y-54988D01*
X48421Y-50946D01*
X48335Y-50739D01*
X48177Y-50581D01*
X47970Y-50495D01*
X47746Y-50495D01*
X47540Y-50580D01*
X47381Y-50738D01*
X47295Y-50945D01*
X47295Y-51169D01*
X47381Y-51376D01*
X47539Y-51534D01*
X47745Y-51620D01*
X47969Y-51620D01*
X48176Y-51535D01*
X48335Y-51377D01*
X48421Y-51170D01*
X48421Y-50946D01*
X48421Y-54988D01*
X47265Y-54988D01*
X47265Y-25354D01*
X47210Y-25222D01*
X47109Y-25121D01*
X47015Y-25082D01*
X47015Y-23041D01*
X46922Y-22817D01*
X46751Y-22645D01*
X46527Y-22552D01*
X46284Y-22552D01*
X46060Y-22644D01*
X45888Y-22816D01*
X45795Y-23040D01*
X45795Y-23283D01*
X45888Y-23507D01*
X46059Y-23679D01*
X46283Y-23772D01*
X46526Y-23772D01*
X46750Y-23679D01*
X46922Y-23508D01*
X47015Y-23284D01*
X47015Y-23041D01*
X47015Y-25082D01*
X46977Y-25066D01*
X46834Y-25066D01*
X46701Y-25120D01*
X46600Y-25221D01*
X46545Y-25354D01*
X46545Y-25497D01*
X46600Y-25629D01*
X46701Y-25731D01*
X46833Y-25786D01*
X46976Y-25786D01*
X47109Y-25731D01*
X47210Y-25630D01*
X47265Y-25498D01*
X47265Y-25354D01*
X47265Y-54988D01*
X47050Y-54988D01*
X47050Y-44690D01*
X47012Y-44598D01*
X46941Y-44528D01*
X46849Y-44490D01*
X46819Y-44490D01*
X46048Y-43718D01*
X46048Y-43687D01*
X46010Y-43595D01*
X45939Y-43525D01*
X45847Y-43487D01*
X45748Y-43486D01*
X45656Y-43524D01*
X45586Y-43595D01*
X45548Y-43687D01*
X45547Y-43786D01*
X45585Y-43878D01*
X45656Y-43948D01*
X45748Y-43986D01*
X45779Y-43986D01*
X46549Y-44757D01*
X46549Y-44789D01*
X46587Y-44881D01*
X46658Y-44951D01*
X46750Y-44989D01*
X46849Y-44990D01*
X46941Y-44952D01*
X47011Y-44881D01*
X47049Y-44789D01*
X47050Y-44690D01*
X47050Y-54988D01*
X45240Y-54988D01*
X45240Y-31718D01*
X45177Y-31568D01*
X45062Y-31452D01*
X44911Y-31390D01*
X44748Y-31389D01*
X44598Y-31452D01*
X44482Y-31567D01*
X44420Y-31718D01*
X44419Y-31881D01*
X44482Y-32031D01*
X44597Y-32147D01*
X44748Y-32209D01*
X44911Y-32210D01*
X45061Y-32147D01*
X45177Y-32032D01*
X45239Y-31881D01*
X45240Y-31718D01*
X45240Y-54988D01*
X44240Y-54988D01*
X44240Y-32121D01*
X44240Y-32078D01*
X44240Y-31478D01*
X44223Y-31437D01*
X44192Y-31406D01*
X44151Y-31390D01*
X44108Y-31390D01*
X43508Y-31390D01*
X43467Y-31406D01*
X43436Y-31437D01*
X43420Y-31478D01*
X43420Y-31521D01*
X43420Y-32121D01*
X43436Y-32162D01*
X43467Y-32193D01*
X43508Y-32210D01*
X43551Y-32210D01*
X44151Y-32210D01*
X44192Y-32193D01*
X44223Y-32162D01*
X44240Y-32121D01*
X44240Y-54988D01*
X42984Y-54988D01*
X42984Y-23332D01*
X42944Y-23237D01*
X42944Y-21568D01*
X42880Y-21412D01*
X42760Y-21292D01*
X42604Y-21228D01*
X42435Y-21227D01*
X42279Y-21292D01*
X42159Y-21411D01*
X42094Y-21568D01*
X42094Y-21737D01*
X42159Y-21893D01*
X42278Y-22013D01*
X42434Y-22077D01*
X42603Y-22078D01*
X42760Y-22013D01*
X42879Y-21894D01*
X42944Y-21737D01*
X42944Y-21568D01*
X42944Y-23237D01*
X42913Y-23161D01*
X42783Y-23031D01*
X42612Y-22960D01*
X42427Y-22960D01*
X42257Y-23030D01*
X42126Y-23161D01*
X42055Y-23331D01*
X42055Y-23516D01*
X42125Y-23687D01*
X42256Y-23818D01*
X42426Y-23888D01*
X42611Y-23889D01*
X42782Y-23818D01*
X42913Y-23688D01*
X42983Y-23517D01*
X42984Y-23332D01*
X42984Y-54988D01*
X39499Y-54988D01*
X39499Y-19814D01*
X70736Y-19814D01*
X70736Y-54988D01*
X70736Y-54988D01*
G37*
G54D22*
X70736Y-54988D02*
X70200Y-54988D01*
X70200Y-23041D01*
X70108Y-22817D01*
X69936Y-22645D01*
X69712Y-22552D01*
X69630Y-22552D01*
X69630Y-21665D01*
X69517Y-21393D01*
X69309Y-21185D01*
X69037Y-21072D01*
X68743Y-21071D01*
X68471Y-21184D01*
X68263Y-21392D01*
X68150Y-21664D01*
X68149Y-21958D01*
X68262Y-22230D01*
X68470Y-22438D01*
X68742Y-22551D01*
X69036Y-22552D01*
X69308Y-22439D01*
X69516Y-22231D01*
X69629Y-21959D01*
X69630Y-21665D01*
X69630Y-22552D01*
X69469Y-22552D01*
X69245Y-22644D01*
X69073Y-22816D01*
X68980Y-23040D01*
X68980Y-23283D01*
X69073Y-23507D01*
X69244Y-23679D01*
X69468Y-23772D01*
X69711Y-23772D01*
X69935Y-23679D01*
X70107Y-23508D01*
X70200Y-23284D01*
X70200Y-23041D01*
X70200Y-54988D01*
X70165Y-54988D01*
X70165Y-52638D01*
X70165Y-51638D01*
X70165Y-51638D01*
X70165Y-51041D01*
X70165Y-50998D01*
X70165Y-50398D01*
X70148Y-50357D01*
X70117Y-50326D01*
X70076Y-50310D01*
X70033Y-50310D01*
X69450Y-50310D01*
X69450Y-25354D01*
X69396Y-25222D01*
X69294Y-25121D01*
X69162Y-25066D01*
X69019Y-25066D01*
X68887Y-25120D01*
X68785Y-25221D01*
X68730Y-25354D01*
X68730Y-25497D01*
X68785Y-25629D01*
X68886Y-25731D01*
X69018Y-25786D01*
X69162Y-25786D01*
X69294Y-25731D01*
X69395Y-25630D01*
X69450Y-25498D01*
X69450Y-25354D01*
X69450Y-50310D01*
X69433Y-50310D01*
X69392Y-50326D01*
X69361Y-50357D01*
X69345Y-50398D01*
X69345Y-50441D01*
X69345Y-51041D01*
X69361Y-51082D01*
X69392Y-51113D01*
X69433Y-51130D01*
X69476Y-51130D01*
X70076Y-51130D01*
X70117Y-51113D01*
X70148Y-51082D01*
X70165Y-51041D01*
X70165Y-51638D01*
X70102Y-51488D01*
X69987Y-51372D01*
X69836Y-51310D01*
X69673Y-51309D01*
X69523Y-51372D01*
X69407Y-51487D01*
X69345Y-51638D01*
X69344Y-51801D01*
X69407Y-51951D01*
X69522Y-52067D01*
X69673Y-52129D01*
X69836Y-52130D01*
X69986Y-52067D01*
X70102Y-51952D01*
X70164Y-51801D01*
X70165Y-51638D01*
X70165Y-52638D01*
X70102Y-52488D01*
X69987Y-52372D01*
X69836Y-52310D01*
X69673Y-52309D01*
X69523Y-52372D01*
X69407Y-52487D01*
X69345Y-52638D01*
X69344Y-52801D01*
X69407Y-52951D01*
X69522Y-53067D01*
X69673Y-53129D01*
X69836Y-53130D01*
X69986Y-53067D01*
X70102Y-52952D01*
X70164Y-52801D01*
X70165Y-52638D01*
X70165Y-54988D01*
X70151Y-54988D01*
X70151Y-53743D01*
X70130Y-53589D01*
X70112Y-53546D01*
X70065Y-53508D01*
X69966Y-53607D01*
X69966Y-53409D01*
X69928Y-53362D01*
X69778Y-53323D01*
X69624Y-53344D01*
X69581Y-53362D01*
X69543Y-53409D01*
X69755Y-53621D01*
X69966Y-53409D01*
X69966Y-53607D01*
X69853Y-53720D01*
X70065Y-53931D01*
X70112Y-53893D01*
X70151Y-53743D01*
X70151Y-54988D01*
X69966Y-54988D01*
X69966Y-54030D01*
X69755Y-53818D01*
X69656Y-53917D01*
X69656Y-53720D01*
X69444Y-53508D01*
X69397Y-53546D01*
X69358Y-53696D01*
X69379Y-53850D01*
X69397Y-53893D01*
X69444Y-53931D01*
X69656Y-53720D01*
X69656Y-53917D01*
X69543Y-54030D01*
X69581Y-54077D01*
X69731Y-54116D01*
X69885Y-54095D01*
X69928Y-54077D01*
X69966Y-54030D01*
X69966Y-54988D01*
X68549Y-54988D01*
X68549Y-25354D01*
X68494Y-25222D01*
X68393Y-25121D01*
X68261Y-25066D01*
X68161Y-25066D01*
X68161Y-23440D01*
X68105Y-23305D01*
X68003Y-23202D01*
X67868Y-23146D01*
X67759Y-23146D01*
X67759Y-22739D01*
X67704Y-22605D01*
X67601Y-22501D01*
X67467Y-22446D01*
X67321Y-22446D01*
X67186Y-22501D01*
X67083Y-22604D01*
X67028Y-22738D01*
X67027Y-22884D01*
X67083Y-23018D01*
X67186Y-23122D01*
X67320Y-23177D01*
X67466Y-23177D01*
X67600Y-23122D01*
X67703Y-23019D01*
X67759Y-22885D01*
X67759Y-22739D01*
X67759Y-23146D01*
X67723Y-23146D01*
X67588Y-23202D01*
X67485Y-23305D01*
X67429Y-23439D01*
X67429Y-23585D01*
X67485Y-23719D01*
X67587Y-23822D01*
X67722Y-23878D01*
X67867Y-23878D01*
X68002Y-23823D01*
X68105Y-23720D01*
X68161Y-23585D01*
X68161Y-23440D01*
X68161Y-25066D01*
X68117Y-25066D01*
X67985Y-25120D01*
X67884Y-25221D01*
X67829Y-25354D01*
X67829Y-25497D01*
X67883Y-25629D01*
X67985Y-25731D01*
X68117Y-25786D01*
X68260Y-25786D01*
X68392Y-25731D01*
X68494Y-25630D01*
X68549Y-25498D01*
X68549Y-25354D01*
X68549Y-54988D01*
X67358Y-54988D01*
X67358Y-23440D01*
X67302Y-23305D01*
X67199Y-23202D01*
X67065Y-23146D01*
X66956Y-23146D01*
X66956Y-22739D01*
X66901Y-22605D01*
X66798Y-22501D01*
X66663Y-22446D01*
X66518Y-22446D01*
X66383Y-22501D01*
X66280Y-22604D01*
X66224Y-22738D01*
X66224Y-22884D01*
X66280Y-23018D01*
X66383Y-23122D01*
X66517Y-23177D01*
X66663Y-23177D01*
X66797Y-23122D01*
X66900Y-23019D01*
X66956Y-22885D01*
X66956Y-22739D01*
X66956Y-23146D01*
X66919Y-23146D01*
X66785Y-23202D01*
X66682Y-23305D01*
X66626Y-23439D01*
X66626Y-23585D01*
X66681Y-23719D01*
X66784Y-23822D01*
X66919Y-23878D01*
X67064Y-23878D01*
X67199Y-23823D01*
X67302Y-23720D01*
X67358Y-23585D01*
X67358Y-23440D01*
X67358Y-54988D01*
X66555Y-54988D01*
X66555Y-23440D01*
X66499Y-23305D01*
X66396Y-23202D01*
X66262Y-23146D01*
X66153Y-23146D01*
X66153Y-22739D01*
X66098Y-22605D01*
X65995Y-22501D01*
X65860Y-22446D01*
X65715Y-22446D01*
X65580Y-22501D01*
X65477Y-22604D01*
X65421Y-22738D01*
X65421Y-22884D01*
X65477Y-23018D01*
X65580Y-23122D01*
X65714Y-23177D01*
X65860Y-23177D01*
X65994Y-23122D01*
X66097Y-23019D01*
X66153Y-22885D01*
X66153Y-22739D01*
X66153Y-23146D01*
X66116Y-23146D01*
X65982Y-23202D01*
X65879Y-23305D01*
X65823Y-23439D01*
X65823Y-23585D01*
X65878Y-23719D01*
X65981Y-23822D01*
X66116Y-23878D01*
X66261Y-23878D01*
X66396Y-23823D01*
X66499Y-23720D01*
X66555Y-23585D01*
X66555Y-23440D01*
X66555Y-54988D01*
X66130Y-54988D01*
X66130Y-33104D01*
X66092Y-33012D01*
X66021Y-32942D01*
X65929Y-32904D01*
X65911Y-32904D01*
X65912Y-32815D01*
X65874Y-32723D01*
X65803Y-32653D01*
X65752Y-32631D01*
X65752Y-23440D01*
X65696Y-23305D01*
X65593Y-23202D01*
X65459Y-23146D01*
X65350Y-23146D01*
X65350Y-22739D01*
X65294Y-22605D01*
X65192Y-22501D01*
X65057Y-22446D01*
X64912Y-22446D01*
X64777Y-22501D01*
X64674Y-22604D01*
X64630Y-22711D01*
X64630Y-21665D01*
X64517Y-21393D01*
X64309Y-21185D01*
X64037Y-21072D01*
X63743Y-21071D01*
X63471Y-21184D01*
X63263Y-21392D01*
X63150Y-21664D01*
X63149Y-21958D01*
X63262Y-22230D01*
X63470Y-22438D01*
X63742Y-22551D01*
X64036Y-22552D01*
X64308Y-22439D01*
X64516Y-22231D01*
X64629Y-21959D01*
X64630Y-21665D01*
X64630Y-22711D01*
X64618Y-22738D01*
X64618Y-22884D01*
X64674Y-23018D01*
X64776Y-23122D01*
X64911Y-23177D01*
X65056Y-23177D01*
X65191Y-23122D01*
X65294Y-23019D01*
X65350Y-22885D01*
X65350Y-22739D01*
X65350Y-23146D01*
X65313Y-23146D01*
X65179Y-23202D01*
X65076Y-23305D01*
X65020Y-23439D01*
X65020Y-23585D01*
X65075Y-23719D01*
X65178Y-23822D01*
X65312Y-23878D01*
X65458Y-23878D01*
X65593Y-23823D01*
X65696Y-23720D01*
X65751Y-23585D01*
X65752Y-23440D01*
X65752Y-32631D01*
X65711Y-32615D01*
X65612Y-32614D01*
X65520Y-32652D01*
X65498Y-32675D01*
X65284Y-32675D01*
X65284Y-31930D01*
X65246Y-31838D01*
X65175Y-31768D01*
X65083Y-31730D01*
X65052Y-31730D01*
X65003Y-31680D01*
X65003Y-31546D01*
X65003Y-31546D01*
X65003Y-31546D01*
X64988Y-31473D01*
X64950Y-31416D01*
X64950Y-25354D01*
X64896Y-25222D01*
X64794Y-25121D01*
X64662Y-25066D01*
X64519Y-25066D01*
X64387Y-25120D01*
X64285Y-25221D01*
X64230Y-25354D01*
X64230Y-25497D01*
X64285Y-25629D01*
X64386Y-25731D01*
X64518Y-25786D01*
X64662Y-25786D01*
X64794Y-25731D01*
X64895Y-25630D01*
X64950Y-25498D01*
X64950Y-25354D01*
X64950Y-31416D01*
X64947Y-31411D01*
X64890Y-31354D01*
X64890Y-31323D01*
X64852Y-31231D01*
X64781Y-31161D01*
X64689Y-31123D01*
X64590Y-31122D01*
X64498Y-31160D01*
X64428Y-31231D01*
X64390Y-31323D01*
X64389Y-31422D01*
X64427Y-31514D01*
X64498Y-31584D01*
X64590Y-31622D01*
X64621Y-31622D01*
X64623Y-31624D01*
X64623Y-31759D01*
X64637Y-31831D01*
X64678Y-31893D01*
X64783Y-31998D01*
X64783Y-32029D01*
X64821Y-32121D01*
X64892Y-32191D01*
X64984Y-32229D01*
X65083Y-32230D01*
X65175Y-32192D01*
X65245Y-32121D01*
X65283Y-32029D01*
X65284Y-31930D01*
X65284Y-32675D01*
X64049Y-32675D01*
X64049Y-25354D01*
X63994Y-25222D01*
X63893Y-25121D01*
X63799Y-25082D01*
X63799Y-23041D01*
X63706Y-22817D01*
X63535Y-22645D01*
X63311Y-22552D01*
X63068Y-22552D01*
X62844Y-22644D01*
X62672Y-22816D01*
X62579Y-23040D01*
X62579Y-23283D01*
X62671Y-23507D01*
X62843Y-23679D01*
X63067Y-23772D01*
X63310Y-23772D01*
X63534Y-23679D01*
X63706Y-23508D01*
X63799Y-23284D01*
X63799Y-23041D01*
X63799Y-25082D01*
X63761Y-25066D01*
X63617Y-25066D01*
X63485Y-25120D01*
X63384Y-25221D01*
X63329Y-25354D01*
X63329Y-25497D01*
X63383Y-25629D01*
X63485Y-25731D01*
X63617Y-25786D01*
X63760Y-25786D01*
X63892Y-25731D01*
X63994Y-25630D01*
X64049Y-25498D01*
X64049Y-25354D01*
X64049Y-32675D01*
X63628Y-32675D01*
X63606Y-32653D01*
X63514Y-32615D01*
X63415Y-32614D01*
X63323Y-32652D01*
X63253Y-32723D01*
X63215Y-32815D01*
X63214Y-32914D01*
X63235Y-32964D01*
X62628Y-32964D01*
X62606Y-32942D01*
X62514Y-32904D01*
X62415Y-32903D01*
X62323Y-32941D01*
X62275Y-32989D01*
X62275Y-23041D01*
X62182Y-22817D01*
X62011Y-22645D01*
X61787Y-22552D01*
X61704Y-22552D01*
X61704Y-21665D01*
X61592Y-21393D01*
X61384Y-21185D01*
X61112Y-21072D01*
X60818Y-21071D01*
X60545Y-21184D01*
X60337Y-21392D01*
X60224Y-21664D01*
X60224Y-21958D01*
X60336Y-22230D01*
X60544Y-22438D01*
X60816Y-22551D01*
X61111Y-22552D01*
X61383Y-22439D01*
X61591Y-22231D01*
X61704Y-21959D01*
X61704Y-21665D01*
X61704Y-22552D01*
X61544Y-22552D01*
X61320Y-22644D01*
X61148Y-22816D01*
X61055Y-23040D01*
X61055Y-23283D01*
X61147Y-23507D01*
X61319Y-23679D01*
X61543Y-23772D01*
X61786Y-23772D01*
X62010Y-23679D01*
X62182Y-23508D01*
X62275Y-23284D01*
X62275Y-23041D01*
X62275Y-32989D01*
X62253Y-33012D01*
X62215Y-33104D01*
X62214Y-33203D01*
X62252Y-33295D01*
X62323Y-33365D01*
X62332Y-33369D01*
X62190Y-33428D01*
X62054Y-33564D01*
X61980Y-33743D01*
X61979Y-33936D01*
X62053Y-34114D01*
X62189Y-34250D01*
X62368Y-34324D01*
X62561Y-34325D01*
X62739Y-34251D01*
X62875Y-34115D01*
X62949Y-33936D01*
X62950Y-33743D01*
X62876Y-33565D01*
X62740Y-33429D01*
X62597Y-33369D01*
X62606Y-33366D01*
X62628Y-33344D01*
X65716Y-33344D01*
X65738Y-33365D01*
X65830Y-33403D01*
X65929Y-33404D01*
X66021Y-33366D01*
X66091Y-33295D01*
X66129Y-33203D01*
X66130Y-33104D01*
X66130Y-54988D01*
X64950Y-54988D01*
X64950Y-48743D01*
X64950Y-47743D01*
X64950Y-34743D01*
X64876Y-34565D01*
X64740Y-34429D01*
X64561Y-34355D01*
X64368Y-34354D01*
X64190Y-34428D01*
X64135Y-34484D01*
X64135Y-34410D01*
X64263Y-34281D01*
X64368Y-34324D01*
X64561Y-34325D01*
X64739Y-34251D01*
X64875Y-34115D01*
X64949Y-33936D01*
X64950Y-33743D01*
X64876Y-33565D01*
X64740Y-33429D01*
X64561Y-33355D01*
X64368Y-33354D01*
X64190Y-33428D01*
X64054Y-33564D01*
X63980Y-33743D01*
X63979Y-33936D01*
X64023Y-34041D01*
X63950Y-34114D01*
X63950Y-33743D01*
X63876Y-33565D01*
X63740Y-33429D01*
X63561Y-33355D01*
X63368Y-33354D01*
X63190Y-33428D01*
X63054Y-33564D01*
X62980Y-33743D01*
X62979Y-33936D01*
X63053Y-34114D01*
X63189Y-34250D01*
X63368Y-34324D01*
X63561Y-34325D01*
X63739Y-34251D01*
X63875Y-34115D01*
X63949Y-33936D01*
X63950Y-33743D01*
X63950Y-34114D01*
X63844Y-34219D01*
X63807Y-34274D01*
X63795Y-34340D01*
X63795Y-34484D01*
X63740Y-34429D01*
X63561Y-34355D01*
X63368Y-34354D01*
X63190Y-34428D01*
X63054Y-34564D01*
X62980Y-34743D01*
X62979Y-34936D01*
X63053Y-35114D01*
X63189Y-35250D01*
X63368Y-35324D01*
X63561Y-35325D01*
X63714Y-35261D01*
X63714Y-35282D01*
X63752Y-35374D01*
X63823Y-35444D01*
X63915Y-35482D01*
X64014Y-35483D01*
X64106Y-35445D01*
X64176Y-35374D01*
X64214Y-35282D01*
X64214Y-35261D01*
X64368Y-35324D01*
X64561Y-35325D01*
X64739Y-35251D01*
X64875Y-35115D01*
X64949Y-34936D01*
X64950Y-34743D01*
X64950Y-47743D01*
X64876Y-47565D01*
X64740Y-47429D01*
X64561Y-47355D01*
X64368Y-47354D01*
X64190Y-47428D01*
X64054Y-47564D01*
X63980Y-47743D01*
X63979Y-47936D01*
X64053Y-48114D01*
X64189Y-48250D01*
X64368Y-48324D01*
X64561Y-48325D01*
X64739Y-48251D01*
X64875Y-48115D01*
X64949Y-47936D01*
X64950Y-47743D01*
X64950Y-48743D01*
X64876Y-48565D01*
X64740Y-48429D01*
X64561Y-48355D01*
X64368Y-48354D01*
X64190Y-48428D01*
X64054Y-48564D01*
X63980Y-48743D01*
X63979Y-48936D01*
X64053Y-49114D01*
X64189Y-49250D01*
X64368Y-49324D01*
X64561Y-49325D01*
X64739Y-49251D01*
X64875Y-49115D01*
X64949Y-48936D01*
X64950Y-48743D01*
X64950Y-54988D01*
X63950Y-54988D01*
X63950Y-48743D01*
X63950Y-47743D01*
X63876Y-47565D01*
X63740Y-47429D01*
X63561Y-47355D01*
X63368Y-47354D01*
X63190Y-47428D01*
X63054Y-47564D01*
X62980Y-47743D01*
X62979Y-47936D01*
X63053Y-48114D01*
X63189Y-48250D01*
X63368Y-48324D01*
X63561Y-48325D01*
X63739Y-48251D01*
X63875Y-48115D01*
X63949Y-47936D01*
X63950Y-47743D01*
X63950Y-48743D01*
X63876Y-48565D01*
X63740Y-48429D01*
X63561Y-48355D01*
X63368Y-48354D01*
X63190Y-48428D01*
X63054Y-48564D01*
X62980Y-48743D01*
X62979Y-48936D01*
X63053Y-49114D01*
X63189Y-49250D01*
X63368Y-49324D01*
X63561Y-49325D01*
X63739Y-49251D01*
X63875Y-49115D01*
X63949Y-48936D01*
X63950Y-48743D01*
X63950Y-54988D01*
X62950Y-54988D01*
X62950Y-48743D01*
X62950Y-47743D01*
X62950Y-34743D01*
X62876Y-34565D01*
X62740Y-34429D01*
X62561Y-34355D01*
X62368Y-34354D01*
X62190Y-34428D01*
X62054Y-34564D01*
X61980Y-34743D01*
X61979Y-34936D01*
X62053Y-35114D01*
X62189Y-35250D01*
X62368Y-35324D01*
X62561Y-35325D01*
X62739Y-35251D01*
X62875Y-35115D01*
X62949Y-34936D01*
X62950Y-34743D01*
X62950Y-47743D01*
X62876Y-47565D01*
X62740Y-47429D01*
X62561Y-47355D01*
X62368Y-47354D01*
X62190Y-47428D01*
X62054Y-47564D01*
X61980Y-47743D01*
X61979Y-47936D01*
X62053Y-48114D01*
X62189Y-48250D01*
X62368Y-48324D01*
X62561Y-48325D01*
X62739Y-48251D01*
X62875Y-48115D01*
X62949Y-47936D01*
X62950Y-47743D01*
X62950Y-48743D01*
X62876Y-48565D01*
X62740Y-48429D01*
X62561Y-48355D01*
X62368Y-48354D01*
X62190Y-48428D01*
X62054Y-48564D01*
X61980Y-48743D01*
X61979Y-48936D01*
X62053Y-49114D01*
X62189Y-49250D01*
X62368Y-49324D01*
X62561Y-49325D01*
X62739Y-49251D01*
X62875Y-49115D01*
X62949Y-48936D01*
X62950Y-48743D01*
X62950Y-54988D01*
X61950Y-54988D01*
X61950Y-48743D01*
X61950Y-47743D01*
X61950Y-34743D01*
X61950Y-33743D01*
X61876Y-33565D01*
X61740Y-33429D01*
X61561Y-33355D01*
X61525Y-33355D01*
X61525Y-25354D01*
X61470Y-25222D01*
X61369Y-25121D01*
X61237Y-25066D01*
X61094Y-25066D01*
X60961Y-25120D01*
X60860Y-25221D01*
X60805Y-25354D01*
X60805Y-25497D01*
X60859Y-25629D01*
X60961Y-25731D01*
X61093Y-25786D01*
X61236Y-25786D01*
X61369Y-25731D01*
X61470Y-25630D01*
X61525Y-25498D01*
X61525Y-25354D01*
X61525Y-33355D01*
X61368Y-33354D01*
X61190Y-33428D01*
X61054Y-33564D01*
X60980Y-33743D01*
X60979Y-33936D01*
X61053Y-34114D01*
X61189Y-34250D01*
X61368Y-34324D01*
X61561Y-34325D01*
X61739Y-34251D01*
X61875Y-34115D01*
X61949Y-33936D01*
X61950Y-33743D01*
X61950Y-34743D01*
X61876Y-34565D01*
X61740Y-34429D01*
X61561Y-34355D01*
X61368Y-34354D01*
X61190Y-34428D01*
X61054Y-34564D01*
X60980Y-34743D01*
X60979Y-34936D01*
X61053Y-35114D01*
X61189Y-35250D01*
X61368Y-35324D01*
X61561Y-35325D01*
X61739Y-35251D01*
X61875Y-35115D01*
X61949Y-34936D01*
X61950Y-34743D01*
X61950Y-47743D01*
X61876Y-47565D01*
X61740Y-47429D01*
X61561Y-47355D01*
X61368Y-47354D01*
X61190Y-47428D01*
X61054Y-47564D01*
X60980Y-47743D01*
X60979Y-47936D01*
X61053Y-48114D01*
X61189Y-48250D01*
X61368Y-48324D01*
X61561Y-48325D01*
X61739Y-48251D01*
X61875Y-48115D01*
X61949Y-47936D01*
X61950Y-47743D01*
X61950Y-48743D01*
X61876Y-48565D01*
X61740Y-48429D01*
X61561Y-48355D01*
X61368Y-48354D01*
X61190Y-48428D01*
X61054Y-48564D01*
X60980Y-48743D01*
X60979Y-48936D01*
X61053Y-49114D01*
X61189Y-49250D01*
X61368Y-49324D01*
X61561Y-49325D01*
X61739Y-49251D01*
X61875Y-49115D01*
X61949Y-48936D01*
X61950Y-48743D01*
X61950Y-54988D01*
X60950Y-54988D01*
X60950Y-48743D01*
X60950Y-47743D01*
X60950Y-34743D01*
X60950Y-33743D01*
X60876Y-33565D01*
X60740Y-33429D01*
X60623Y-33380D01*
X60623Y-25354D01*
X60569Y-25222D01*
X60467Y-25121D01*
X60335Y-25066D01*
X60236Y-25066D01*
X60236Y-23440D01*
X60180Y-23305D01*
X60077Y-23202D01*
X59943Y-23146D01*
X59834Y-23146D01*
X59834Y-22739D01*
X59778Y-22605D01*
X59676Y-22501D01*
X59541Y-22446D01*
X59396Y-22446D01*
X59261Y-22501D01*
X59158Y-22604D01*
X59102Y-22738D01*
X59102Y-22884D01*
X59158Y-23018D01*
X59260Y-23122D01*
X59395Y-23177D01*
X59540Y-23177D01*
X59675Y-23122D01*
X59778Y-23019D01*
X59834Y-22885D01*
X59834Y-22739D01*
X59834Y-23146D01*
X59797Y-23146D01*
X59663Y-23202D01*
X59560Y-23305D01*
X59504Y-23439D01*
X59504Y-23585D01*
X59559Y-23719D01*
X59662Y-23822D01*
X59796Y-23878D01*
X59942Y-23878D01*
X60077Y-23823D01*
X60180Y-23720D01*
X60235Y-23585D01*
X60236Y-23440D01*
X60236Y-25066D01*
X60192Y-25066D01*
X60060Y-25120D01*
X59958Y-25221D01*
X59903Y-25354D01*
X59903Y-25497D01*
X59958Y-25629D01*
X60059Y-25731D01*
X60191Y-25786D01*
X60335Y-25786D01*
X60467Y-25731D01*
X60568Y-25630D01*
X60623Y-25498D01*
X60623Y-25354D01*
X60623Y-33380D01*
X60561Y-33355D01*
X60403Y-33354D01*
X60403Y-31879D01*
X60365Y-31787D01*
X60294Y-31717D01*
X60202Y-31679D01*
X60103Y-31678D01*
X60011Y-31716D01*
X59989Y-31739D01*
X59432Y-31739D01*
X59432Y-23440D01*
X59377Y-23305D01*
X59274Y-23202D01*
X59140Y-23146D01*
X59031Y-23146D01*
X59031Y-22739D01*
X58975Y-22605D01*
X58872Y-22501D01*
X58738Y-22446D01*
X58592Y-22446D01*
X58458Y-22501D01*
X58355Y-22604D01*
X58299Y-22738D01*
X58299Y-22884D01*
X58354Y-23018D01*
X58457Y-23122D01*
X58592Y-23177D01*
X58737Y-23177D01*
X58872Y-23122D01*
X58975Y-23019D01*
X59031Y-22885D01*
X59031Y-22739D01*
X59031Y-23146D01*
X58994Y-23146D01*
X58859Y-23202D01*
X58756Y-23305D01*
X58701Y-23439D01*
X58700Y-23585D01*
X58756Y-23719D01*
X58859Y-23822D01*
X58993Y-23878D01*
X59139Y-23878D01*
X59273Y-23823D01*
X59376Y-23720D01*
X59432Y-23585D01*
X59432Y-23440D01*
X59432Y-31739D01*
X58865Y-31739D01*
X58843Y-31717D01*
X58751Y-31679D01*
X58652Y-31678D01*
X58629Y-31688D01*
X58629Y-23440D01*
X58574Y-23305D01*
X58471Y-23202D01*
X58336Y-23146D01*
X58228Y-23146D01*
X58228Y-22739D01*
X58172Y-22605D01*
X58069Y-22501D01*
X57935Y-22446D01*
X57789Y-22446D01*
X57655Y-22501D01*
X57552Y-22604D01*
X57496Y-22738D01*
X57496Y-22884D01*
X57551Y-23018D01*
X57654Y-23122D01*
X57789Y-23177D01*
X57934Y-23177D01*
X58069Y-23122D01*
X58172Y-23019D01*
X58228Y-22885D01*
X58228Y-22739D01*
X58228Y-23146D01*
X58191Y-23146D01*
X58056Y-23202D01*
X57953Y-23305D01*
X57897Y-23439D01*
X57897Y-23585D01*
X57953Y-23719D01*
X58056Y-23822D01*
X58190Y-23878D01*
X58336Y-23878D01*
X58470Y-23823D01*
X58573Y-23720D01*
X58629Y-23585D01*
X58629Y-23440D01*
X58629Y-31688D01*
X58560Y-31716D01*
X58490Y-31787D01*
X58452Y-31879D01*
X58451Y-31978D01*
X58489Y-32070D01*
X58560Y-32140D01*
X58652Y-32178D01*
X58751Y-32179D01*
X58843Y-32141D01*
X58865Y-32119D01*
X59989Y-32119D01*
X60011Y-32140D01*
X60103Y-32178D01*
X60202Y-32179D01*
X60294Y-32141D01*
X60364Y-32070D01*
X60402Y-31978D01*
X60403Y-31879D01*
X60403Y-33354D01*
X60368Y-33354D01*
X60190Y-33428D01*
X60054Y-33564D01*
X59980Y-33743D01*
X59979Y-33936D01*
X60053Y-34114D01*
X60189Y-34250D01*
X60368Y-34324D01*
X60561Y-34325D01*
X60739Y-34251D01*
X60875Y-34115D01*
X60949Y-33936D01*
X60950Y-33743D01*
X60950Y-34743D01*
X60876Y-34565D01*
X60740Y-34429D01*
X60561Y-34355D01*
X60368Y-34354D01*
X60190Y-34428D01*
X60054Y-34564D01*
X59980Y-34743D01*
X59979Y-34936D01*
X60053Y-35114D01*
X60189Y-35250D01*
X60368Y-35324D01*
X60561Y-35325D01*
X60739Y-35251D01*
X60875Y-35115D01*
X60949Y-34936D01*
X60950Y-34743D01*
X60950Y-47743D01*
X60876Y-47565D01*
X60740Y-47429D01*
X60561Y-47355D01*
X60368Y-47354D01*
X60190Y-47428D01*
X60054Y-47564D01*
X59980Y-47743D01*
X59979Y-47936D01*
X60053Y-48114D01*
X60189Y-48250D01*
X60368Y-48324D01*
X60561Y-48325D01*
X60739Y-48251D01*
X60875Y-48115D01*
X60949Y-47936D01*
X60950Y-47743D01*
X60950Y-48743D01*
X60876Y-48565D01*
X60740Y-48429D01*
X60561Y-48355D01*
X60368Y-48354D01*
X60190Y-48428D01*
X60054Y-48564D01*
X59980Y-48743D01*
X59979Y-48936D01*
X60053Y-49114D01*
X60189Y-49250D01*
X60368Y-49324D01*
X60561Y-49325D01*
X60739Y-49251D01*
X60875Y-49115D01*
X60949Y-48936D01*
X60950Y-48743D01*
X60950Y-54988D01*
X59950Y-54988D01*
X59950Y-48743D01*
X59950Y-47743D01*
X59950Y-34743D01*
X59950Y-33743D01*
X59876Y-33565D01*
X59740Y-33429D01*
X59561Y-33355D01*
X59368Y-33354D01*
X59190Y-33428D01*
X59054Y-33564D01*
X58980Y-33743D01*
X58979Y-33936D01*
X59053Y-34114D01*
X59189Y-34250D01*
X59368Y-34324D01*
X59561Y-34325D01*
X59739Y-34251D01*
X59875Y-34115D01*
X59949Y-33936D01*
X59950Y-33743D01*
X59950Y-34743D01*
X59876Y-34565D01*
X59740Y-34429D01*
X59561Y-34355D01*
X59368Y-34354D01*
X59190Y-34428D01*
X59054Y-34564D01*
X58980Y-34743D01*
X58979Y-34936D01*
X59053Y-35114D01*
X59189Y-35250D01*
X59368Y-35324D01*
X59561Y-35325D01*
X59739Y-35251D01*
X59875Y-35115D01*
X59949Y-34936D01*
X59950Y-34743D01*
X59950Y-47743D01*
X59876Y-47565D01*
X59740Y-47429D01*
X59561Y-47355D01*
X59368Y-47354D01*
X59190Y-47428D01*
X59054Y-47564D01*
X58980Y-47743D01*
X58979Y-47936D01*
X59053Y-48114D01*
X59189Y-48250D01*
X59368Y-48324D01*
X59561Y-48325D01*
X59739Y-48251D01*
X59875Y-48115D01*
X59949Y-47936D01*
X59950Y-47743D01*
X59950Y-48743D01*
X59876Y-48565D01*
X59740Y-48429D01*
X59561Y-48355D01*
X59368Y-48354D01*
X59190Y-48428D01*
X59054Y-48564D01*
X58980Y-48743D01*
X58979Y-48936D01*
X59053Y-49114D01*
X59189Y-49250D01*
X59368Y-49324D01*
X59561Y-49325D01*
X59739Y-49251D01*
X59875Y-49115D01*
X59949Y-48936D01*
X59950Y-48743D01*
X59950Y-54988D01*
X58950Y-54988D01*
X58950Y-48743D01*
X58950Y-47743D01*
X58950Y-34743D01*
X58950Y-33743D01*
X58876Y-33565D01*
X58740Y-33429D01*
X58561Y-33355D01*
X58368Y-33354D01*
X58190Y-33428D01*
X58135Y-33484D01*
X58135Y-33228D01*
X58122Y-33162D01*
X58085Y-33107D01*
X58085Y-33107D01*
X57984Y-33006D01*
X57984Y-32549D01*
X58025Y-32507D01*
X58063Y-32415D01*
X58064Y-32316D01*
X58026Y-32224D01*
X57955Y-32154D01*
X57863Y-32116D01*
X57826Y-32116D01*
X57826Y-23440D01*
X57771Y-23305D01*
X57668Y-23202D01*
X57533Y-23146D01*
X57425Y-23146D01*
X57425Y-22739D01*
X57369Y-22605D01*
X57266Y-22501D01*
X57132Y-22446D01*
X56986Y-22446D01*
X56852Y-22501D01*
X56749Y-22604D01*
X56704Y-22711D01*
X56704Y-21665D01*
X56592Y-21393D01*
X56384Y-21185D01*
X56112Y-21072D01*
X55818Y-21071D01*
X55545Y-21184D01*
X55337Y-21392D01*
X55224Y-21664D01*
X55224Y-21958D01*
X55336Y-22230D01*
X55544Y-22438D01*
X55816Y-22551D01*
X56111Y-22552D01*
X56383Y-22439D01*
X56591Y-22231D01*
X56704Y-21959D01*
X56704Y-21665D01*
X56704Y-22711D01*
X56693Y-22738D01*
X56693Y-22884D01*
X56748Y-23018D01*
X56851Y-23122D01*
X56985Y-23177D01*
X57131Y-23177D01*
X57266Y-23122D01*
X57369Y-23019D01*
X57424Y-22885D01*
X57425Y-22739D01*
X57425Y-23146D01*
X57388Y-23146D01*
X57253Y-23202D01*
X57150Y-23305D01*
X57094Y-23439D01*
X57094Y-23585D01*
X57150Y-23719D01*
X57253Y-23822D01*
X57387Y-23878D01*
X57533Y-23878D01*
X57667Y-23823D01*
X57770Y-23720D01*
X57826Y-23585D01*
X57826Y-23440D01*
X57826Y-32116D01*
X57764Y-32115D01*
X57672Y-32153D01*
X57602Y-32224D01*
X57564Y-32316D01*
X57563Y-32415D01*
X57601Y-32507D01*
X57644Y-32549D01*
X57644Y-33077D01*
X57656Y-33142D01*
X57693Y-33197D01*
X57795Y-33298D01*
X57795Y-33484D01*
X57740Y-33429D01*
X57561Y-33355D01*
X57368Y-33354D01*
X57215Y-33418D01*
X57215Y-33102D01*
X57177Y-33010D01*
X57106Y-32940D01*
X57025Y-32906D01*
X57025Y-25354D01*
X56970Y-25222D01*
X56869Y-25121D01*
X56737Y-25066D01*
X56594Y-25066D01*
X56461Y-25120D01*
X56360Y-25221D01*
X56305Y-25354D01*
X56305Y-25497D01*
X56359Y-25629D01*
X56461Y-25731D01*
X56593Y-25786D01*
X56736Y-25786D01*
X56869Y-25731D01*
X56970Y-25630D01*
X57025Y-25498D01*
X57025Y-25354D01*
X57025Y-32906D01*
X57014Y-32902D01*
X56955Y-32901D01*
X56829Y-32775D01*
X56863Y-32691D01*
X56864Y-32592D01*
X56826Y-32500D01*
X56755Y-32430D01*
X56663Y-32392D01*
X56564Y-32391D01*
X56472Y-32429D01*
X56402Y-32500D01*
X56364Y-32592D01*
X56363Y-32691D01*
X56401Y-32783D01*
X56450Y-32831D01*
X56456Y-32866D01*
X56493Y-32921D01*
X56715Y-33142D01*
X56714Y-33201D01*
X56752Y-33293D01*
X56823Y-33363D01*
X56915Y-33401D01*
X57014Y-33402D01*
X57106Y-33364D01*
X57176Y-33293D01*
X57214Y-33201D01*
X57215Y-33102D01*
X57215Y-33418D01*
X57190Y-33428D01*
X57054Y-33564D01*
X56980Y-33743D01*
X56979Y-33936D01*
X57053Y-34114D01*
X57189Y-34250D01*
X57368Y-34324D01*
X57561Y-34325D01*
X57739Y-34251D01*
X57795Y-34195D01*
X57795Y-34269D01*
X57666Y-34398D01*
X57561Y-34355D01*
X57368Y-34354D01*
X57190Y-34428D01*
X57054Y-34564D01*
X56980Y-34743D01*
X56979Y-34936D01*
X57053Y-35114D01*
X57189Y-35250D01*
X57368Y-35324D01*
X57561Y-35325D01*
X57739Y-35251D01*
X57875Y-35115D01*
X57949Y-34936D01*
X57950Y-34743D01*
X57906Y-34638D01*
X58085Y-34460D01*
X58122Y-34405D01*
X58135Y-34340D01*
X58135Y-34195D01*
X58189Y-34250D01*
X58368Y-34324D01*
X58561Y-34325D01*
X58739Y-34251D01*
X58875Y-34115D01*
X58949Y-33936D01*
X58950Y-33743D01*
X58950Y-34743D01*
X58876Y-34565D01*
X58740Y-34429D01*
X58561Y-34355D01*
X58368Y-34354D01*
X58190Y-34428D01*
X58054Y-34564D01*
X57980Y-34743D01*
X57979Y-34936D01*
X58053Y-35114D01*
X58189Y-35250D01*
X58368Y-35324D01*
X58561Y-35325D01*
X58739Y-35251D01*
X58875Y-35115D01*
X58949Y-34936D01*
X58950Y-34743D01*
X58950Y-47743D01*
X58876Y-47565D01*
X58740Y-47429D01*
X58561Y-47355D01*
X58368Y-47354D01*
X58190Y-47428D01*
X58054Y-47564D01*
X57980Y-47743D01*
X57979Y-47936D01*
X58053Y-48114D01*
X58189Y-48250D01*
X58368Y-48324D01*
X58561Y-48325D01*
X58739Y-48251D01*
X58875Y-48115D01*
X58949Y-47936D01*
X58950Y-47743D01*
X58950Y-48743D01*
X58876Y-48565D01*
X58740Y-48429D01*
X58561Y-48355D01*
X58368Y-48354D01*
X58190Y-48428D01*
X58054Y-48564D01*
X57980Y-48743D01*
X57979Y-48936D01*
X58053Y-49114D01*
X58189Y-49250D01*
X58368Y-49324D01*
X58561Y-49325D01*
X58739Y-49251D01*
X58875Y-49115D01*
X58949Y-48936D01*
X58950Y-48743D01*
X58950Y-54988D01*
X58885Y-54988D01*
X58885Y-49923D01*
X58827Y-49781D01*
X58718Y-49673D01*
X58577Y-49614D01*
X58423Y-49614D01*
X58281Y-49672D01*
X58173Y-49781D01*
X58114Y-49922D01*
X58114Y-50076D01*
X58172Y-50218D01*
X58281Y-50326D01*
X58422Y-50385D01*
X58576Y-50385D01*
X58718Y-50327D01*
X58826Y-50218D01*
X58885Y-50077D01*
X58885Y-49923D01*
X58885Y-54988D01*
X57950Y-54988D01*
X57950Y-48743D01*
X57950Y-47743D01*
X57876Y-47565D01*
X57740Y-47429D01*
X57561Y-47355D01*
X57368Y-47354D01*
X57190Y-47428D01*
X57054Y-47564D01*
X56980Y-47743D01*
X56979Y-47936D01*
X57053Y-48114D01*
X57189Y-48250D01*
X57368Y-48324D01*
X57561Y-48325D01*
X57739Y-48251D01*
X57875Y-48115D01*
X57949Y-47936D01*
X57950Y-47743D01*
X57950Y-48743D01*
X57876Y-48565D01*
X57740Y-48429D01*
X57561Y-48355D01*
X57368Y-48354D01*
X57190Y-48428D01*
X57054Y-48564D01*
X56980Y-48743D01*
X56979Y-48936D01*
X57053Y-49114D01*
X57189Y-49250D01*
X57368Y-49324D01*
X57561Y-49325D01*
X57739Y-49251D01*
X57875Y-49115D01*
X57949Y-48936D01*
X57950Y-48743D01*
X57950Y-54988D01*
X57872Y-54988D01*
X57872Y-50017D01*
X57850Y-49873D01*
X57837Y-49841D01*
X57792Y-49806D01*
X57693Y-49905D01*
X57693Y-49707D01*
X57658Y-49662D01*
X57517Y-49627D01*
X57373Y-49649D01*
X57341Y-49662D01*
X57306Y-49707D01*
X57500Y-49901D01*
X57693Y-49707D01*
X57693Y-49905D01*
X57598Y-50000D01*
X57792Y-50193D01*
X57837Y-50158D01*
X57872Y-50017D01*
X57872Y-54988D01*
X57693Y-54988D01*
X57693Y-50292D01*
X57500Y-50098D01*
X57401Y-50197D01*
X57401Y-50000D01*
X57207Y-49806D01*
X57162Y-49841D01*
X57127Y-49982D01*
X57149Y-50126D01*
X57162Y-50158D01*
X57207Y-50193D01*
X57401Y-50000D01*
X57401Y-50197D01*
X57306Y-50292D01*
X57341Y-50337D01*
X57482Y-50372D01*
X57626Y-50350D01*
X57658Y-50337D01*
X57693Y-50292D01*
X57693Y-54988D01*
X56950Y-54988D01*
X56950Y-48743D01*
X56950Y-47743D01*
X56950Y-34743D01*
X56950Y-33743D01*
X56876Y-33565D01*
X56740Y-33429D01*
X56561Y-33355D01*
X56368Y-33354D01*
X56214Y-33418D01*
X56214Y-33100D01*
X56176Y-33008D01*
X56123Y-32956D01*
X56123Y-25354D01*
X56069Y-25222D01*
X55967Y-25121D01*
X55873Y-25082D01*
X55873Y-23041D01*
X55781Y-22817D01*
X55609Y-22645D01*
X55385Y-22552D01*
X55142Y-22552D01*
X54918Y-22644D01*
X54746Y-22816D01*
X54653Y-23040D01*
X54653Y-23283D01*
X54746Y-23507D01*
X54917Y-23679D01*
X55141Y-23772D01*
X55384Y-23772D01*
X55608Y-23679D01*
X55780Y-23508D01*
X55873Y-23284D01*
X55873Y-23041D01*
X55873Y-25082D01*
X55835Y-25066D01*
X55692Y-25066D01*
X55560Y-25120D01*
X55458Y-25221D01*
X55403Y-25354D01*
X55403Y-25497D01*
X55458Y-25629D01*
X55559Y-25731D01*
X55691Y-25786D01*
X55835Y-25786D01*
X55967Y-25731D01*
X56068Y-25630D01*
X56123Y-25498D01*
X56123Y-25354D01*
X56123Y-32956D01*
X56105Y-32938D01*
X56013Y-32900D01*
X55914Y-32899D01*
X55822Y-32937D01*
X55780Y-32980D01*
X55191Y-32980D01*
X55215Y-32919D01*
X55216Y-32820D01*
X55178Y-32728D01*
X55107Y-32658D01*
X55015Y-32620D01*
X54916Y-32619D01*
X54824Y-32657D01*
X54782Y-32700D01*
X53417Y-32700D01*
X53417Y-23041D01*
X53324Y-22817D01*
X53153Y-22645D01*
X52928Y-22552D01*
X52846Y-22552D01*
X52846Y-21665D01*
X52733Y-21393D01*
X52525Y-21185D01*
X52254Y-21072D01*
X51959Y-21071D01*
X51687Y-21184D01*
X51479Y-21392D01*
X51366Y-21664D01*
X51366Y-21958D01*
X51478Y-22230D01*
X51686Y-22438D01*
X51958Y-22551D01*
X52252Y-22552D01*
X52524Y-22439D01*
X52733Y-22231D01*
X52846Y-21959D01*
X52846Y-21665D01*
X52846Y-22552D01*
X52686Y-22552D01*
X52462Y-22644D01*
X52290Y-22816D01*
X52197Y-23040D01*
X52196Y-23283D01*
X52289Y-23507D01*
X52461Y-23679D01*
X52685Y-23772D01*
X52927Y-23772D01*
X53152Y-23679D01*
X53323Y-23508D01*
X53416Y-23284D01*
X53417Y-23041D01*
X53417Y-32700D01*
X52667Y-32700D01*
X52667Y-25354D01*
X52612Y-25222D01*
X52511Y-25121D01*
X52379Y-25066D01*
X52235Y-25066D01*
X52103Y-25120D01*
X52002Y-25221D01*
X51947Y-25354D01*
X51947Y-25497D01*
X52001Y-25629D01*
X52102Y-25731D01*
X52235Y-25786D01*
X52378Y-25786D01*
X52510Y-25731D01*
X52612Y-25630D01*
X52667Y-25498D01*
X52667Y-25354D01*
X52667Y-32700D01*
X51765Y-32700D01*
X51765Y-25354D01*
X51710Y-25222D01*
X51609Y-25121D01*
X51477Y-25066D01*
X51364Y-25066D01*
X51364Y-23525D01*
X51342Y-23389D01*
X51332Y-23366D01*
X51289Y-23334D01*
X51190Y-23433D01*
X51190Y-23235D01*
X51158Y-23191D01*
X51024Y-23160D01*
X50962Y-23170D01*
X50962Y-22824D01*
X50940Y-22688D01*
X50931Y-22665D01*
X50887Y-22633D01*
X50788Y-22732D01*
X50788Y-22534D01*
X50756Y-22491D01*
X50622Y-22459D01*
X50487Y-22481D01*
X50463Y-22491D01*
X50431Y-22534D01*
X50610Y-22713D01*
X50788Y-22534D01*
X50788Y-22732D01*
X50709Y-22812D01*
X50887Y-22990D01*
X50931Y-22958D01*
X50962Y-22824D01*
X50962Y-23170D01*
X50888Y-23182D01*
X50865Y-23191D01*
X50833Y-23235D01*
X51011Y-23413D01*
X51190Y-23235D01*
X51190Y-23433D01*
X51110Y-23512D01*
X51289Y-23691D01*
X51332Y-23659D01*
X51364Y-23525D01*
X51364Y-25066D01*
X51334Y-25066D01*
X51201Y-25120D01*
X51190Y-25132D01*
X51190Y-23790D01*
X51011Y-23611D01*
X50912Y-23710D01*
X50912Y-23512D01*
X50788Y-23388D01*
X50788Y-23089D01*
X50610Y-22910D01*
X50511Y-23009D01*
X50511Y-22812D01*
X50332Y-22633D01*
X50289Y-22665D01*
X50257Y-22799D01*
X50279Y-22935D01*
X50289Y-22958D01*
X50332Y-22990D01*
X50511Y-22812D01*
X50511Y-23009D01*
X50431Y-23089D01*
X50463Y-23132D01*
X50597Y-23164D01*
X50733Y-23142D01*
X50756Y-23132D01*
X50788Y-23089D01*
X50788Y-23388D01*
X50734Y-23334D01*
X50691Y-23366D01*
X50659Y-23500D01*
X50681Y-23635D01*
X50691Y-23659D01*
X50734Y-23691D01*
X50912Y-23512D01*
X50912Y-23710D01*
X50833Y-23790D01*
X50865Y-23833D01*
X50999Y-23865D01*
X51135Y-23843D01*
X51158Y-23833D01*
X51190Y-23790D01*
X51190Y-25132D01*
X51100Y-25221D01*
X51045Y-25354D01*
X51045Y-25497D01*
X51100Y-25629D01*
X51201Y-25731D01*
X51333Y-25786D01*
X51476Y-25786D01*
X51609Y-25731D01*
X51710Y-25630D01*
X51765Y-25498D01*
X51765Y-25354D01*
X51765Y-32700D01*
X51606Y-32700D01*
X51606Y-32218D01*
X51568Y-32126D01*
X51546Y-32104D01*
X51546Y-31335D01*
X51567Y-31313D01*
X51605Y-31221D01*
X51606Y-31122D01*
X51568Y-31030D01*
X51497Y-30960D01*
X51405Y-30922D01*
X51306Y-30921D01*
X51214Y-30959D01*
X51144Y-31030D01*
X51106Y-31122D01*
X51105Y-31221D01*
X51143Y-31313D01*
X51166Y-31335D01*
X51166Y-32104D01*
X51144Y-32126D01*
X51106Y-32218D01*
X51105Y-32317D01*
X51143Y-32409D01*
X51214Y-32479D01*
X51306Y-32517D01*
X51405Y-32518D01*
X51497Y-32480D01*
X51567Y-32409D01*
X51605Y-32317D01*
X51606Y-32218D01*
X51606Y-32700D01*
X50574Y-32700D01*
X50574Y-23440D01*
X50519Y-23305D01*
X50416Y-23202D01*
X50281Y-23146D01*
X50173Y-23146D01*
X50173Y-22739D01*
X50117Y-22605D01*
X50014Y-22501D01*
X49880Y-22446D01*
X49734Y-22446D01*
X49600Y-22501D01*
X49497Y-22604D01*
X49441Y-22738D01*
X49441Y-22884D01*
X49496Y-23018D01*
X49599Y-23122D01*
X49733Y-23177D01*
X49879Y-23177D01*
X50014Y-23122D01*
X50117Y-23019D01*
X50172Y-22885D01*
X50173Y-22739D01*
X50173Y-23146D01*
X50136Y-23146D01*
X50001Y-23202D01*
X49898Y-23305D01*
X49842Y-23439D01*
X49842Y-23585D01*
X49898Y-23719D01*
X50001Y-23822D01*
X50135Y-23878D01*
X50281Y-23878D01*
X50415Y-23823D01*
X50518Y-23720D01*
X50574Y-23585D01*
X50574Y-23440D01*
X50574Y-32700D01*
X49974Y-32700D01*
X49771Y-32497D01*
X49771Y-23440D01*
X49715Y-23305D01*
X49613Y-23202D01*
X49478Y-23146D01*
X49369Y-23146D01*
X49369Y-22739D01*
X49314Y-22605D01*
X49211Y-22501D01*
X49077Y-22446D01*
X48931Y-22446D01*
X48796Y-22501D01*
X48693Y-22604D01*
X48638Y-22738D01*
X48637Y-22884D01*
X48693Y-23018D01*
X48796Y-23122D01*
X48930Y-23177D01*
X49076Y-23177D01*
X49210Y-23122D01*
X49313Y-23019D01*
X49369Y-22885D01*
X49369Y-22739D01*
X49369Y-23146D01*
X49333Y-23146D01*
X49198Y-23202D01*
X49095Y-23305D01*
X49039Y-23439D01*
X49039Y-23585D01*
X49095Y-23719D01*
X49197Y-23822D01*
X49332Y-23878D01*
X49477Y-23878D01*
X49612Y-23823D01*
X49715Y-23720D01*
X49771Y-23585D01*
X49771Y-23440D01*
X49771Y-32497D01*
X49106Y-31831D01*
X49106Y-31772D01*
X49068Y-31680D01*
X48998Y-31610D01*
X48968Y-31598D01*
X48968Y-23440D01*
X48912Y-23305D01*
X48809Y-23202D01*
X48675Y-23146D01*
X48566Y-23146D01*
X48566Y-22739D01*
X48511Y-22605D01*
X48408Y-22501D01*
X48273Y-22446D01*
X48128Y-22446D01*
X47993Y-22501D01*
X47890Y-22604D01*
X47846Y-22711D01*
X47846Y-21665D01*
X47733Y-21393D01*
X47525Y-21185D01*
X47254Y-21072D01*
X46959Y-21071D01*
X46687Y-21184D01*
X46479Y-21392D01*
X46366Y-21664D01*
X46366Y-21958D01*
X46478Y-22230D01*
X46686Y-22438D01*
X46958Y-22551D01*
X47252Y-22552D01*
X47524Y-22439D01*
X47733Y-22231D01*
X47846Y-21959D01*
X47846Y-21665D01*
X47846Y-22711D01*
X47834Y-22738D01*
X47834Y-22884D01*
X47890Y-23018D01*
X47993Y-23122D01*
X48127Y-23177D01*
X48273Y-23177D01*
X48407Y-23122D01*
X48510Y-23019D01*
X48566Y-22885D01*
X48566Y-22739D01*
X48566Y-23146D01*
X48529Y-23146D01*
X48395Y-23202D01*
X48292Y-23305D01*
X48236Y-23439D01*
X48236Y-23585D01*
X48291Y-23719D01*
X48394Y-23822D01*
X48529Y-23878D01*
X48674Y-23878D01*
X48809Y-23823D01*
X48912Y-23720D01*
X48968Y-23585D01*
X48968Y-23440D01*
X48968Y-31598D01*
X48906Y-31572D01*
X48806Y-31572D01*
X48714Y-31610D01*
X48644Y-31680D01*
X48606Y-31772D01*
X48606Y-31871D01*
X48644Y-31963D01*
X48714Y-32034D01*
X48806Y-32072D01*
X48865Y-32072D01*
X49773Y-32980D01*
X49254Y-32980D01*
X48167Y-31892D01*
X48167Y-25354D01*
X48112Y-25222D01*
X48011Y-25121D01*
X47879Y-25066D01*
X47735Y-25066D01*
X47603Y-25120D01*
X47502Y-25221D01*
X47447Y-25354D01*
X47447Y-25497D01*
X47501Y-25629D01*
X47602Y-25731D01*
X47735Y-25786D01*
X47878Y-25786D01*
X48010Y-25731D01*
X48112Y-25630D01*
X48167Y-25498D01*
X48167Y-25354D01*
X48167Y-31892D01*
X48105Y-31831D01*
X48106Y-31772D01*
X48068Y-31680D01*
X47997Y-31610D01*
X47905Y-31572D01*
X47806Y-31571D01*
X47714Y-31609D01*
X47644Y-31680D01*
X47606Y-31772D01*
X47605Y-31871D01*
X47643Y-31963D01*
X47714Y-32033D01*
X47806Y-32071D01*
X47865Y-32072D01*
X49063Y-33270D01*
X49118Y-33307D01*
X49118Y-33307D01*
X49184Y-33320D01*
X55780Y-33320D01*
X55822Y-33361D01*
X55914Y-33399D01*
X56013Y-33400D01*
X56105Y-33362D01*
X56175Y-33291D01*
X56213Y-33199D01*
X56214Y-33100D01*
X56214Y-33418D01*
X56190Y-33428D01*
X56054Y-33564D01*
X55980Y-33743D01*
X55979Y-33936D01*
X56053Y-34114D01*
X56189Y-34250D01*
X56368Y-34324D01*
X56561Y-34325D01*
X56739Y-34251D01*
X56875Y-34115D01*
X56949Y-33936D01*
X56950Y-33743D01*
X56950Y-34743D01*
X56876Y-34565D01*
X56740Y-34429D01*
X56561Y-34355D01*
X56368Y-34354D01*
X56190Y-34428D01*
X56054Y-34564D01*
X55980Y-34743D01*
X55979Y-34936D01*
X56053Y-35114D01*
X56189Y-35250D01*
X56368Y-35324D01*
X56561Y-35325D01*
X56739Y-35251D01*
X56875Y-35115D01*
X56949Y-34936D01*
X56950Y-34743D01*
X56950Y-47743D01*
X56876Y-47565D01*
X56740Y-47429D01*
X56561Y-47355D01*
X56368Y-47354D01*
X56190Y-47428D01*
X56054Y-47564D01*
X55980Y-47743D01*
X55979Y-47936D01*
X56053Y-48114D01*
X56189Y-48250D01*
X56368Y-48324D01*
X56561Y-48325D01*
X56739Y-48251D01*
X56875Y-48115D01*
X56949Y-47936D01*
X56950Y-47743D01*
X56950Y-48743D01*
X56876Y-48565D01*
X56740Y-48429D01*
X56561Y-48355D01*
X56368Y-48354D01*
X56190Y-48428D01*
X56054Y-48564D01*
X55980Y-48743D01*
X55979Y-48936D01*
X56053Y-49114D01*
X56189Y-49250D01*
X56368Y-49324D01*
X56561Y-49325D01*
X56739Y-49251D01*
X56875Y-49115D01*
X56949Y-48936D01*
X56950Y-48743D01*
X56950Y-54988D01*
X56885Y-54988D01*
X56885Y-49923D01*
X56827Y-49781D01*
X56718Y-49673D01*
X56577Y-49614D01*
X56423Y-49614D01*
X56281Y-49672D01*
X56173Y-49781D01*
X56114Y-49922D01*
X56114Y-50076D01*
X56172Y-50218D01*
X56281Y-50326D01*
X56422Y-50385D01*
X56576Y-50385D01*
X56718Y-50327D01*
X56826Y-50218D01*
X56885Y-50077D01*
X56885Y-49923D01*
X56885Y-54988D01*
X55950Y-54988D01*
X55950Y-48743D01*
X55950Y-47743D01*
X55950Y-34743D01*
X55950Y-33743D01*
X55876Y-33565D01*
X55740Y-33429D01*
X55561Y-33355D01*
X55368Y-33354D01*
X55190Y-33428D01*
X55054Y-33564D01*
X54980Y-33743D01*
X54979Y-33936D01*
X55053Y-34114D01*
X55189Y-34250D01*
X55368Y-34324D01*
X55561Y-34325D01*
X55739Y-34251D01*
X55875Y-34115D01*
X55949Y-33936D01*
X55950Y-33743D01*
X55950Y-34743D01*
X55876Y-34565D01*
X55740Y-34429D01*
X55561Y-34355D01*
X55368Y-34354D01*
X55190Y-34428D01*
X55054Y-34564D01*
X54980Y-34743D01*
X54979Y-34936D01*
X55053Y-35114D01*
X55189Y-35250D01*
X55368Y-35324D01*
X55561Y-35325D01*
X55739Y-35251D01*
X55875Y-35115D01*
X55949Y-34936D01*
X55950Y-34743D01*
X55950Y-47743D01*
X55876Y-47565D01*
X55740Y-47429D01*
X55561Y-47355D01*
X55368Y-47354D01*
X55190Y-47428D01*
X55054Y-47564D01*
X54980Y-47743D01*
X54979Y-47936D01*
X55053Y-48114D01*
X55189Y-48250D01*
X55368Y-48324D01*
X55561Y-48325D01*
X55739Y-48251D01*
X55875Y-48115D01*
X55949Y-47936D01*
X55950Y-47743D01*
X55950Y-48743D01*
X55876Y-48565D01*
X55740Y-48429D01*
X55561Y-48355D01*
X55368Y-48354D01*
X55190Y-48428D01*
X55054Y-48564D01*
X54980Y-48743D01*
X54979Y-48936D01*
X55053Y-49114D01*
X55189Y-49250D01*
X55368Y-49324D01*
X55561Y-49325D01*
X55739Y-49251D01*
X55875Y-49115D01*
X55949Y-48936D01*
X55950Y-48743D01*
X55950Y-54988D01*
X55885Y-54988D01*
X55885Y-49923D01*
X55827Y-49781D01*
X55718Y-49673D01*
X55577Y-49614D01*
X55423Y-49614D01*
X55281Y-49672D01*
X55173Y-49781D01*
X55114Y-49922D01*
X55114Y-50076D01*
X55172Y-50218D01*
X55281Y-50326D01*
X55422Y-50385D01*
X55576Y-50385D01*
X55718Y-50327D01*
X55826Y-50218D01*
X55885Y-50077D01*
X55885Y-49923D01*
X55885Y-54988D01*
X54950Y-54988D01*
X54950Y-48743D01*
X54950Y-47743D01*
X54950Y-34743D01*
X54950Y-33743D01*
X54876Y-33565D01*
X54740Y-33429D01*
X54561Y-33355D01*
X54368Y-33354D01*
X54190Y-33428D01*
X54054Y-33564D01*
X53980Y-33743D01*
X53979Y-33936D01*
X54053Y-34114D01*
X54189Y-34250D01*
X54368Y-34324D01*
X54561Y-34325D01*
X54739Y-34251D01*
X54875Y-34115D01*
X54949Y-33936D01*
X54950Y-33743D01*
X54950Y-34743D01*
X54876Y-34565D01*
X54740Y-34429D01*
X54561Y-34355D01*
X54368Y-34354D01*
X54190Y-34428D01*
X54054Y-34564D01*
X53980Y-34743D01*
X53979Y-34936D01*
X54053Y-35114D01*
X54189Y-35250D01*
X54368Y-35324D01*
X54561Y-35325D01*
X54739Y-35251D01*
X54875Y-35115D01*
X54949Y-34936D01*
X54950Y-34743D01*
X54950Y-47743D01*
X54876Y-47565D01*
X54740Y-47429D01*
X54561Y-47355D01*
X54368Y-47354D01*
X54190Y-47428D01*
X54054Y-47564D01*
X53980Y-47743D01*
X53979Y-47936D01*
X54053Y-48114D01*
X54189Y-48250D01*
X54368Y-48324D01*
X54561Y-48325D01*
X54739Y-48251D01*
X54875Y-48115D01*
X54949Y-47936D01*
X54950Y-47743D01*
X54950Y-48743D01*
X54876Y-48565D01*
X54740Y-48429D01*
X54561Y-48355D01*
X54368Y-48354D01*
X54190Y-48428D01*
X54054Y-48564D01*
X53980Y-48743D01*
X53979Y-48936D01*
X54053Y-49114D01*
X54189Y-49250D01*
X54368Y-49324D01*
X54561Y-49325D01*
X54739Y-49251D01*
X54875Y-49115D01*
X54949Y-48936D01*
X54950Y-48743D01*
X54950Y-54988D01*
X54885Y-54988D01*
X54885Y-49923D01*
X54827Y-49781D01*
X54718Y-49673D01*
X54577Y-49614D01*
X54423Y-49614D01*
X54281Y-49672D01*
X54173Y-49781D01*
X54114Y-49922D01*
X54114Y-50076D01*
X54172Y-50218D01*
X54281Y-50326D01*
X54422Y-50385D01*
X54576Y-50385D01*
X54718Y-50327D01*
X54826Y-50218D01*
X54885Y-50077D01*
X54885Y-49923D01*
X54885Y-54988D01*
X53950Y-54988D01*
X53950Y-48743D01*
X53950Y-47743D01*
X53950Y-34743D01*
X53950Y-33743D01*
X53876Y-33565D01*
X53740Y-33429D01*
X53561Y-33355D01*
X53368Y-33354D01*
X53190Y-33428D01*
X53054Y-33564D01*
X52980Y-33743D01*
X52979Y-33936D01*
X53053Y-34114D01*
X53189Y-34250D01*
X53368Y-34324D01*
X53561Y-34325D01*
X53739Y-34251D01*
X53875Y-34115D01*
X53949Y-33936D01*
X53950Y-33743D01*
X53950Y-34743D01*
X53876Y-34565D01*
X53740Y-34429D01*
X53561Y-34355D01*
X53368Y-34354D01*
X53190Y-34428D01*
X53054Y-34564D01*
X52980Y-34743D01*
X52979Y-34936D01*
X53053Y-35114D01*
X53189Y-35250D01*
X53296Y-35294D01*
X53296Y-36695D01*
X53254Y-36737D01*
X53216Y-36829D01*
X53215Y-36928D01*
X53253Y-37020D01*
X53324Y-37090D01*
X53416Y-37128D01*
X53515Y-37129D01*
X53607Y-37091D01*
X53677Y-37020D01*
X53715Y-36928D01*
X53716Y-36829D01*
X53678Y-36737D01*
X53636Y-36695D01*
X53636Y-35294D01*
X53739Y-35251D01*
X53875Y-35115D01*
X53949Y-34936D01*
X53950Y-34743D01*
X53950Y-47743D01*
X53876Y-47565D01*
X53740Y-47429D01*
X53561Y-47355D01*
X53368Y-47354D01*
X53190Y-47428D01*
X53054Y-47564D01*
X52980Y-47743D01*
X52979Y-47936D01*
X53053Y-48114D01*
X53189Y-48250D01*
X53368Y-48324D01*
X53561Y-48325D01*
X53739Y-48251D01*
X53875Y-48115D01*
X53949Y-47936D01*
X53950Y-47743D01*
X53950Y-48743D01*
X53876Y-48565D01*
X53740Y-48429D01*
X53561Y-48355D01*
X53368Y-48354D01*
X53190Y-48428D01*
X53054Y-48564D01*
X52980Y-48743D01*
X52979Y-48936D01*
X53053Y-49114D01*
X53189Y-49250D01*
X53368Y-49324D01*
X53561Y-49325D01*
X53739Y-49251D01*
X53875Y-49115D01*
X53949Y-48936D01*
X53950Y-48743D01*
X53950Y-54988D01*
X53885Y-54988D01*
X53885Y-49923D01*
X53827Y-49781D01*
X53718Y-49673D01*
X53577Y-49614D01*
X53423Y-49614D01*
X53281Y-49672D01*
X53173Y-49781D01*
X53114Y-49922D01*
X53114Y-50076D01*
X53172Y-50218D01*
X53281Y-50326D01*
X53422Y-50385D01*
X53576Y-50385D01*
X53718Y-50327D01*
X53826Y-50218D01*
X53885Y-50077D01*
X53885Y-49923D01*
X53885Y-54988D01*
X53594Y-54988D01*
X53594Y-50946D01*
X53508Y-50739D01*
X53350Y-50581D01*
X53144Y-50495D01*
X52950Y-50495D01*
X52950Y-47743D01*
X52950Y-33743D01*
X52876Y-33565D01*
X52740Y-33429D01*
X52561Y-33355D01*
X52368Y-33354D01*
X52190Y-33428D01*
X52054Y-33564D01*
X51980Y-33743D01*
X51979Y-33936D01*
X52053Y-34114D01*
X52189Y-34250D01*
X52368Y-34324D01*
X52561Y-34325D01*
X52739Y-34251D01*
X52875Y-34115D01*
X52949Y-33936D01*
X52950Y-33743D01*
X52950Y-47743D01*
X52937Y-47713D01*
X52937Y-34881D01*
X52917Y-34697D01*
X52885Y-34621D01*
X52829Y-34574D01*
X52730Y-34673D01*
X52730Y-34475D01*
X52683Y-34419D01*
X52506Y-34367D01*
X52322Y-34387D01*
X52246Y-34419D01*
X52199Y-34475D01*
X52465Y-34741D01*
X52730Y-34475D01*
X52730Y-34673D01*
X52563Y-34840D01*
X52829Y-35105D01*
X52885Y-35058D01*
X52937Y-34881D01*
X52937Y-47713D01*
X52876Y-47565D01*
X52740Y-47429D01*
X52730Y-47425D01*
X52730Y-35204D01*
X52465Y-34938D01*
X52366Y-35037D01*
X52366Y-34840D01*
X52100Y-34574D01*
X52044Y-34621D01*
X51992Y-34798D01*
X52012Y-34982D01*
X52044Y-35058D01*
X52100Y-35105D01*
X52366Y-34840D01*
X52366Y-35037D01*
X52199Y-35204D01*
X52246Y-35260D01*
X52423Y-35312D01*
X52607Y-35292D01*
X52683Y-35260D01*
X52730Y-35204D01*
X52730Y-47425D01*
X52561Y-47355D01*
X52368Y-47354D01*
X52283Y-47390D01*
X51769Y-46875D01*
X51769Y-46441D01*
X51790Y-46419D01*
X51828Y-46327D01*
X51829Y-46228D01*
X51791Y-46136D01*
X51720Y-46066D01*
X51628Y-46028D01*
X51529Y-46027D01*
X51437Y-46065D01*
X51367Y-46136D01*
X51329Y-46228D01*
X51328Y-46327D01*
X51366Y-46419D01*
X51389Y-46441D01*
X51389Y-46954D01*
X51403Y-47026D01*
X51444Y-47088D01*
X52015Y-47658D01*
X51980Y-47743D01*
X51979Y-47936D01*
X52053Y-48114D01*
X52189Y-48250D01*
X52368Y-48324D01*
X52561Y-48325D01*
X52739Y-48251D01*
X52875Y-48115D01*
X52949Y-47936D01*
X52950Y-47743D01*
X52950Y-50495D01*
X52937Y-50495D01*
X52937Y-48881D01*
X52917Y-48697D01*
X52885Y-48621D01*
X52829Y-48574D01*
X52730Y-48673D01*
X52730Y-48475D01*
X52683Y-48419D01*
X52506Y-48367D01*
X52322Y-48387D01*
X52246Y-48419D01*
X52199Y-48475D01*
X52465Y-48741D01*
X52730Y-48475D01*
X52730Y-48673D01*
X52563Y-48840D01*
X52829Y-49105D01*
X52885Y-49058D01*
X52937Y-48881D01*
X52937Y-50495D01*
X52920Y-50495D01*
X52730Y-50573D01*
X52730Y-49204D01*
X52465Y-48938D01*
X52366Y-49037D01*
X52366Y-48840D01*
X52100Y-48574D01*
X52044Y-48621D01*
X51992Y-48798D01*
X52012Y-48982D01*
X52044Y-49058D01*
X52100Y-49105D01*
X52366Y-48840D01*
X52366Y-49037D01*
X52199Y-49204D01*
X52246Y-49260D01*
X52423Y-49312D01*
X52607Y-49292D01*
X52683Y-49260D01*
X52730Y-49204D01*
X52730Y-50573D01*
X52713Y-50580D01*
X52554Y-50738D01*
X52468Y-50945D01*
X52468Y-51169D01*
X52554Y-51376D01*
X52712Y-51534D01*
X52919Y-51620D01*
X53143Y-51620D01*
X53349Y-51535D01*
X53508Y-51377D01*
X53594Y-51170D01*
X53594Y-50946D01*
X53594Y-54988D01*
X52219Y-54988D01*
X52219Y-50018D01*
X52198Y-49864D01*
X52180Y-49821D01*
X52133Y-49783D01*
X52034Y-49882D01*
X52034Y-49684D01*
X51996Y-49637D01*
X51846Y-49598D01*
X51692Y-49619D01*
X51649Y-49637D01*
X51611Y-49684D01*
X51822Y-49896D01*
X52034Y-49684D01*
X52034Y-49882D01*
X51921Y-49995D01*
X52133Y-50206D01*
X52180Y-50168D01*
X52219Y-50018D01*
X52219Y-54988D01*
X52034Y-54988D01*
X52034Y-50305D01*
X51822Y-50094D01*
X51723Y-50192D01*
X51723Y-49995D01*
X51512Y-49783D01*
X51465Y-49821D01*
X51425Y-49971D01*
X51447Y-50125D01*
X51465Y-50168D01*
X51512Y-50206D01*
X51723Y-49995D01*
X51723Y-50192D01*
X51611Y-50305D01*
X51649Y-50352D01*
X51799Y-50391D01*
X51953Y-50370D01*
X51996Y-50352D01*
X52034Y-50305D01*
X52034Y-54988D01*
X51248Y-54988D01*
X51248Y-49913D01*
X51186Y-49763D01*
X51071Y-49647D01*
X50920Y-49585D01*
X50757Y-49584D01*
X50606Y-49647D01*
X50491Y-49762D01*
X50444Y-49874D01*
X50399Y-49763D01*
X50283Y-49647D01*
X50133Y-49585D01*
X49970Y-49584D01*
X49950Y-49593D01*
X49950Y-47743D01*
X49950Y-46743D01*
X49950Y-45743D01*
X49950Y-44743D01*
X49950Y-43743D01*
X49950Y-42743D01*
X49950Y-41743D01*
X49950Y-40743D01*
X49950Y-39743D01*
X49950Y-38743D01*
X49950Y-37743D01*
X49950Y-36743D01*
X49950Y-35743D01*
X49950Y-34743D01*
X49950Y-33743D01*
X49876Y-33565D01*
X49740Y-33429D01*
X49561Y-33355D01*
X49368Y-33354D01*
X49190Y-33428D01*
X49054Y-33564D01*
X48980Y-33743D01*
X48979Y-33936D01*
X49053Y-34114D01*
X49189Y-34250D01*
X49368Y-34324D01*
X49561Y-34325D01*
X49739Y-34251D01*
X49875Y-34115D01*
X49949Y-33936D01*
X49950Y-33743D01*
X49950Y-34743D01*
X49876Y-34565D01*
X49740Y-34429D01*
X49561Y-34355D01*
X49368Y-34354D01*
X49190Y-34428D01*
X49054Y-34564D01*
X48980Y-34743D01*
X48979Y-34936D01*
X49053Y-35114D01*
X49189Y-35250D01*
X49368Y-35324D01*
X49561Y-35325D01*
X49739Y-35251D01*
X49875Y-35115D01*
X49949Y-34936D01*
X49950Y-34743D01*
X49950Y-35743D01*
X49876Y-35565D01*
X49740Y-35429D01*
X49561Y-35355D01*
X49368Y-35354D01*
X49283Y-35390D01*
X48719Y-34825D01*
X48719Y-33504D01*
X48740Y-33482D01*
X48778Y-33390D01*
X48779Y-33291D01*
X48741Y-33199D01*
X48670Y-33129D01*
X48578Y-33091D01*
X48479Y-33090D01*
X48387Y-33128D01*
X48317Y-33199D01*
X48279Y-33291D01*
X48278Y-33390D01*
X48316Y-33482D01*
X48339Y-33504D01*
X48339Y-34904D01*
X48353Y-34976D01*
X48394Y-35038D01*
X49015Y-35658D01*
X48980Y-35743D01*
X48979Y-35936D01*
X49053Y-36114D01*
X49189Y-36250D01*
X49368Y-36324D01*
X49561Y-36325D01*
X49739Y-36251D01*
X49875Y-36115D01*
X49949Y-35936D01*
X49950Y-35743D01*
X49950Y-36743D01*
X49876Y-36565D01*
X49740Y-36429D01*
X49561Y-36355D01*
X49368Y-36354D01*
X49190Y-36428D01*
X49054Y-36564D01*
X48980Y-36743D01*
X48979Y-36936D01*
X49053Y-37114D01*
X49189Y-37250D01*
X49368Y-37324D01*
X49561Y-37325D01*
X49739Y-37251D01*
X49875Y-37115D01*
X49949Y-36936D01*
X49950Y-36743D01*
X49950Y-37743D01*
X49876Y-37565D01*
X49740Y-37429D01*
X49561Y-37355D01*
X49368Y-37354D01*
X49190Y-37428D01*
X49054Y-37564D01*
X48980Y-37743D01*
X48979Y-37936D01*
X49053Y-38114D01*
X49189Y-38250D01*
X49368Y-38324D01*
X49561Y-38325D01*
X49739Y-38251D01*
X49875Y-38115D01*
X49949Y-37936D01*
X49950Y-37743D01*
X49950Y-38743D01*
X49876Y-38565D01*
X49740Y-38429D01*
X49561Y-38355D01*
X49368Y-38354D01*
X49190Y-38428D01*
X49054Y-38564D01*
X48980Y-38743D01*
X48979Y-38936D01*
X49053Y-39114D01*
X49189Y-39250D01*
X49368Y-39324D01*
X49561Y-39325D01*
X49739Y-39251D01*
X49875Y-39115D01*
X49949Y-38936D01*
X49950Y-38743D01*
X49950Y-39743D01*
X49876Y-39565D01*
X49740Y-39429D01*
X49561Y-39355D01*
X49368Y-39354D01*
X49190Y-39428D01*
X49054Y-39564D01*
X48980Y-39743D01*
X48979Y-39936D01*
X49053Y-40114D01*
X49189Y-40250D01*
X49368Y-40324D01*
X49561Y-40325D01*
X49739Y-40251D01*
X49875Y-40115D01*
X49949Y-39936D01*
X49950Y-39743D01*
X49950Y-40743D01*
X49876Y-40565D01*
X49740Y-40429D01*
X49561Y-40355D01*
X49368Y-40354D01*
X49190Y-40428D01*
X49054Y-40564D01*
X48980Y-40743D01*
X48979Y-40936D01*
X49053Y-41114D01*
X49189Y-41250D01*
X49368Y-41324D01*
X49561Y-41325D01*
X49739Y-41251D01*
X49875Y-41115D01*
X49949Y-40936D01*
X49950Y-40743D01*
X49950Y-41743D01*
X49876Y-41565D01*
X49740Y-41429D01*
X49561Y-41355D01*
X49368Y-41354D01*
X49190Y-41428D01*
X49054Y-41564D01*
X48980Y-41743D01*
X48979Y-41936D01*
X49053Y-42114D01*
X49189Y-42250D01*
X49368Y-42324D01*
X49561Y-42325D01*
X49739Y-42251D01*
X49875Y-42115D01*
X49949Y-41936D01*
X49950Y-41743D01*
X49950Y-42743D01*
X49876Y-42565D01*
X49740Y-42429D01*
X49561Y-42355D01*
X49368Y-42354D01*
X49190Y-42428D01*
X49054Y-42564D01*
X48980Y-42743D01*
X48979Y-42936D01*
X49053Y-43114D01*
X49189Y-43250D01*
X49368Y-43324D01*
X49561Y-43325D01*
X49739Y-43251D01*
X49875Y-43115D01*
X49949Y-42936D01*
X49950Y-42743D01*
X49950Y-43743D01*
X49876Y-43565D01*
X49740Y-43429D01*
X49561Y-43355D01*
X49368Y-43354D01*
X49190Y-43428D01*
X49054Y-43564D01*
X48980Y-43743D01*
X48979Y-43936D01*
X49053Y-44114D01*
X49189Y-44250D01*
X49368Y-44324D01*
X49561Y-44325D01*
X49739Y-44251D01*
X49875Y-44115D01*
X49949Y-43936D01*
X49950Y-43743D01*
X49950Y-44743D01*
X49876Y-44565D01*
X49740Y-44429D01*
X49561Y-44355D01*
X49368Y-44354D01*
X49190Y-44428D01*
X49054Y-44564D01*
X48980Y-44743D01*
X48979Y-44936D01*
X49053Y-45114D01*
X49189Y-45250D01*
X49368Y-45324D01*
X49561Y-45325D01*
X49739Y-45251D01*
X49875Y-45115D01*
X49949Y-44936D01*
X49950Y-44743D01*
X49950Y-45743D01*
X49876Y-45565D01*
X49740Y-45429D01*
X49561Y-45355D01*
X49368Y-45354D01*
X49190Y-45428D01*
X49054Y-45564D01*
X48980Y-45743D01*
X48979Y-45936D01*
X49053Y-46114D01*
X49189Y-46250D01*
X49368Y-46324D01*
X49561Y-46325D01*
X49739Y-46251D01*
X49875Y-46115D01*
X49949Y-45936D01*
X49950Y-45743D01*
X49950Y-46743D01*
X49876Y-46565D01*
X49740Y-46429D01*
X49561Y-46355D01*
X49368Y-46354D01*
X49190Y-46428D01*
X49054Y-46564D01*
X48980Y-46743D01*
X48979Y-46936D01*
X49053Y-47114D01*
X49189Y-47250D01*
X49368Y-47324D01*
X49561Y-47325D01*
X49739Y-47251D01*
X49875Y-47115D01*
X49949Y-46936D01*
X49950Y-46743D01*
X49950Y-47743D01*
X49876Y-47565D01*
X49740Y-47429D01*
X49561Y-47355D01*
X49368Y-47354D01*
X49190Y-47428D01*
X49054Y-47564D01*
X48980Y-47743D01*
X48979Y-47936D01*
X49053Y-48114D01*
X49189Y-48250D01*
X49368Y-48324D01*
X49561Y-48325D01*
X49739Y-48251D01*
X49875Y-48115D01*
X49949Y-47936D01*
X49950Y-47743D01*
X49950Y-49593D01*
X49937Y-49598D01*
X49937Y-48881D01*
X49917Y-48697D01*
X49885Y-48621D01*
X49829Y-48574D01*
X49730Y-48673D01*
X49730Y-48475D01*
X49683Y-48419D01*
X49506Y-48367D01*
X49322Y-48387D01*
X49246Y-48419D01*
X49199Y-48475D01*
X49465Y-48741D01*
X49730Y-48475D01*
X49730Y-48673D01*
X49563Y-48840D01*
X49829Y-49105D01*
X49885Y-49058D01*
X49937Y-48881D01*
X49937Y-49598D01*
X49819Y-49647D01*
X49730Y-49735D01*
X49730Y-49204D01*
X49465Y-48938D01*
X49366Y-49037D01*
X49366Y-48840D01*
X49100Y-48574D01*
X49044Y-48621D01*
X48992Y-48798D01*
X49012Y-48982D01*
X49044Y-49058D01*
X49100Y-49105D01*
X49366Y-48840D01*
X49366Y-49037D01*
X49199Y-49204D01*
X49246Y-49260D01*
X49423Y-49312D01*
X49607Y-49292D01*
X49683Y-49260D01*
X49730Y-49204D01*
X49730Y-49735D01*
X49703Y-49762D01*
X49641Y-49913D01*
X49641Y-50076D01*
X49703Y-50226D01*
X49818Y-50342D01*
X49969Y-50404D01*
X50132Y-50405D01*
X50283Y-50342D01*
X50398Y-50227D01*
X50445Y-50115D01*
X50490Y-50226D01*
X50606Y-50342D01*
X50756Y-50404D01*
X50919Y-50405D01*
X51070Y-50342D01*
X51186Y-50227D01*
X51248Y-50076D01*
X51248Y-49913D01*
X51248Y-54988D01*
X49477Y-54988D01*
X49477Y-49913D01*
X49414Y-49763D01*
X49299Y-49647D01*
X49148Y-49585D01*
X48985Y-49584D01*
X48835Y-49647D01*
X48719Y-49762D01*
X48657Y-49913D01*
X48656Y-50076D01*
X48719Y-50226D01*
X48834Y-50342D01*
X48985Y-50404D01*
X49148Y-50405D01*
X49298Y-50342D01*
X49414Y-50227D01*
X49476Y-50076D01*
X49477Y-49913D01*
X49477Y-54988D01*
X48421Y-54988D01*
X48421Y-50946D01*
X48335Y-50739D01*
X48177Y-50581D01*
X47970Y-50495D01*
X47746Y-50495D01*
X47540Y-50580D01*
X47381Y-50738D01*
X47295Y-50945D01*
X47295Y-51169D01*
X47381Y-51376D01*
X47539Y-51534D01*
X47745Y-51620D01*
X47969Y-51620D01*
X48176Y-51535D01*
X48335Y-51377D01*
X48421Y-51170D01*
X48421Y-50946D01*
X48421Y-54988D01*
X47265Y-54988D01*
X47265Y-25354D01*
X47210Y-25222D01*
X47109Y-25121D01*
X47015Y-25082D01*
X47015Y-23041D01*
X46922Y-22817D01*
X46751Y-22645D01*
X46527Y-22552D01*
X46284Y-22552D01*
X46060Y-22644D01*
X45888Y-22816D01*
X45795Y-23040D01*
X45795Y-23283D01*
X45888Y-23507D01*
X46059Y-23679D01*
X46283Y-23772D01*
X46526Y-23772D01*
X46750Y-23679D01*
X46922Y-23508D01*
X47015Y-23284D01*
X47015Y-23041D01*
X47015Y-25082D01*
X46977Y-25066D01*
X46834Y-25066D01*
X46701Y-25120D01*
X46600Y-25221D01*
X46545Y-25354D01*
X46545Y-25497D01*
X46600Y-25629D01*
X46701Y-25731D01*
X46833Y-25786D01*
X46976Y-25786D01*
X47109Y-25731D01*
X47210Y-25630D01*
X47265Y-25498D01*
X47265Y-25354D01*
X47265Y-54988D01*
X47050Y-54988D01*
X47050Y-44690D01*
X47012Y-44598D01*
X46941Y-44528D01*
X46849Y-44490D01*
X46819Y-44490D01*
X46048Y-43718D01*
X46048Y-43687D01*
X46010Y-43595D01*
X45939Y-43525D01*
X45847Y-43487D01*
X45748Y-43486D01*
X45656Y-43524D01*
X45586Y-43595D01*
X45548Y-43687D01*
X45547Y-43786D01*
X45585Y-43878D01*
X45656Y-43948D01*
X45748Y-43986D01*
X45779Y-43986D01*
X46549Y-44757D01*
X46549Y-44789D01*
X46587Y-44881D01*
X46658Y-44951D01*
X46750Y-44989D01*
X46849Y-44990D01*
X46941Y-44952D01*
X47011Y-44881D01*
X47049Y-44789D01*
X47050Y-44690D01*
X47050Y-54988D01*
X45240Y-54988D01*
X45240Y-31718D01*
X45177Y-31568D01*
X45062Y-31452D01*
X44911Y-31390D01*
X44748Y-31389D01*
X44598Y-31452D01*
X44482Y-31567D01*
X44420Y-31718D01*
X44419Y-31881D01*
X44482Y-32031D01*
X44597Y-32147D01*
X44748Y-32209D01*
X44911Y-32210D01*
X45061Y-32147D01*
X45177Y-32032D01*
X45239Y-31881D01*
X45240Y-31718D01*
X45240Y-54988D01*
X44240Y-54988D01*
X44240Y-32121D01*
X44240Y-32078D01*
X44240Y-31478D01*
X44223Y-31437D01*
X44192Y-31406D01*
X44151Y-31390D01*
X44108Y-31390D01*
X43508Y-31390D01*
X43467Y-31406D01*
X43436Y-31437D01*
X43420Y-31478D01*
X43420Y-31521D01*
X43420Y-32121D01*
X43436Y-32162D01*
X43467Y-32193D01*
X43508Y-32210D01*
X43551Y-32210D01*
X44151Y-32210D01*
X44192Y-32193D01*
X44223Y-32162D01*
X44240Y-32121D01*
X44240Y-54988D01*
X42984Y-54988D01*
X42984Y-23332D01*
X42944Y-23237D01*
X42944Y-21568D01*
X42880Y-21412D01*
X42760Y-21292D01*
X42604Y-21228D01*
X42435Y-21227D01*
X42279Y-21292D01*
X42159Y-21411D01*
X42094Y-21568D01*
X42094Y-21737D01*
X42159Y-21893D01*
X42278Y-22013D01*
X42434Y-22077D01*
X42603Y-22078D01*
X42760Y-22013D01*
X42879Y-21894D01*
X42944Y-21737D01*
X42944Y-21568D01*
X42944Y-23237D01*
X42913Y-23161D01*
X42783Y-23031D01*
X42612Y-22960D01*
X42427Y-22960D01*
X42257Y-23030D01*
X42126Y-23161D01*
X42055Y-23331D01*
X42055Y-23516D01*
X42125Y-23687D01*
X42256Y-23818D01*
X42426Y-23888D01*
X42611Y-23889D01*
X42782Y-23818D01*
X42913Y-23688D01*
X42983Y-23517D01*
X42984Y-23332D01*
X42984Y-54988D01*
X39499Y-54988D01*
X39499Y-19814D01*
X70736Y-19814D01*
X70736Y-54988D01*
M02*
